G04 EAGLE Gerber RS-274X export*
G75*
%MOMM*%
%FSLAX34Y34*%
%LPD*%
%INSolderpaste Top*%
%IPPOS*%
%AMOC8*
5,1,8,0,0,1.08239X$1,22.5*%
G01*
%ADD10C,0.102000*%
%ADD11C,0.100000*%
%ADD12C,0.300000*%


D10*
X359460Y871690D02*
X364440Y871690D01*
X364440Y860710D01*
X359460Y860710D01*
X359460Y871690D01*
X359460Y861679D02*
X364440Y861679D01*
X364440Y862648D02*
X359460Y862648D01*
X359460Y863617D02*
X364440Y863617D01*
X364440Y864586D02*
X359460Y864586D01*
X359460Y865555D02*
X364440Y865555D01*
X364440Y866524D02*
X359460Y866524D01*
X359460Y867493D02*
X364440Y867493D01*
X364440Y868462D02*
X359460Y868462D01*
X359460Y869431D02*
X364440Y869431D01*
X364440Y870400D02*
X359460Y870400D01*
X359460Y871369D02*
X364440Y871369D01*
X351740Y871690D02*
X346760Y871690D01*
X351740Y871690D02*
X351740Y860710D01*
X346760Y860710D01*
X346760Y871690D01*
X346760Y861679D02*
X351740Y861679D01*
X351740Y862648D02*
X346760Y862648D01*
X346760Y863617D02*
X351740Y863617D01*
X351740Y864586D02*
X346760Y864586D01*
X346760Y865555D02*
X351740Y865555D01*
X351740Y866524D02*
X346760Y866524D01*
X346760Y867493D02*
X351740Y867493D01*
X351740Y868462D02*
X346760Y868462D01*
X346760Y869431D02*
X351740Y869431D01*
X351740Y870400D02*
X346760Y870400D01*
X346760Y871369D02*
X351740Y871369D01*
X339040Y871690D02*
X334060Y871690D01*
X339040Y871690D02*
X339040Y860710D01*
X334060Y860710D01*
X334060Y871690D01*
X334060Y861679D02*
X339040Y861679D01*
X339040Y862648D02*
X334060Y862648D01*
X334060Y863617D02*
X339040Y863617D01*
X339040Y864586D02*
X334060Y864586D01*
X334060Y865555D02*
X339040Y865555D01*
X339040Y866524D02*
X334060Y866524D01*
X334060Y867493D02*
X339040Y867493D01*
X339040Y868462D02*
X334060Y868462D01*
X334060Y869431D02*
X339040Y869431D01*
X339040Y870400D02*
X334060Y870400D01*
X334060Y871369D02*
X339040Y871369D01*
X326340Y871690D02*
X321360Y871690D01*
X326340Y871690D02*
X326340Y860710D01*
X321360Y860710D01*
X321360Y871690D01*
X321360Y861679D02*
X326340Y861679D01*
X326340Y862648D02*
X321360Y862648D01*
X321360Y863617D02*
X326340Y863617D01*
X326340Y864586D02*
X321360Y864586D01*
X321360Y865555D02*
X326340Y865555D01*
X326340Y866524D02*
X321360Y866524D01*
X321360Y867493D02*
X326340Y867493D01*
X326340Y868462D02*
X321360Y868462D01*
X321360Y869431D02*
X326340Y869431D01*
X326340Y870400D02*
X321360Y870400D01*
X321360Y871369D02*
X326340Y871369D01*
X313640Y871690D02*
X308660Y871690D01*
X313640Y871690D02*
X313640Y860710D01*
X308660Y860710D01*
X308660Y871690D01*
X308660Y861679D02*
X313640Y861679D01*
X313640Y862648D02*
X308660Y862648D01*
X308660Y863617D02*
X313640Y863617D01*
X313640Y864586D02*
X308660Y864586D01*
X308660Y865555D02*
X313640Y865555D01*
X313640Y866524D02*
X308660Y866524D01*
X308660Y867493D02*
X313640Y867493D01*
X313640Y868462D02*
X308660Y868462D01*
X308660Y869431D02*
X313640Y869431D01*
X313640Y870400D02*
X308660Y870400D01*
X308660Y871369D02*
X313640Y871369D01*
X300940Y871690D02*
X295960Y871690D01*
X300940Y871690D02*
X300940Y860710D01*
X295960Y860710D01*
X295960Y871690D01*
X295960Y861679D02*
X300940Y861679D01*
X300940Y862648D02*
X295960Y862648D01*
X295960Y863617D02*
X300940Y863617D01*
X300940Y864586D02*
X295960Y864586D01*
X295960Y865555D02*
X300940Y865555D01*
X300940Y866524D02*
X295960Y866524D01*
X295960Y867493D02*
X300940Y867493D01*
X300940Y868462D02*
X295960Y868462D01*
X295960Y869431D02*
X300940Y869431D01*
X300940Y870400D02*
X295960Y870400D01*
X295960Y871369D02*
X300940Y871369D01*
X288240Y871690D02*
X283260Y871690D01*
X288240Y871690D02*
X288240Y860710D01*
X283260Y860710D01*
X283260Y871690D01*
X283260Y861679D02*
X288240Y861679D01*
X288240Y862648D02*
X283260Y862648D01*
X283260Y863617D02*
X288240Y863617D01*
X288240Y864586D02*
X283260Y864586D01*
X283260Y865555D02*
X288240Y865555D01*
X288240Y866524D02*
X283260Y866524D01*
X283260Y867493D02*
X288240Y867493D01*
X288240Y868462D02*
X283260Y868462D01*
X283260Y869431D02*
X288240Y869431D01*
X288240Y870400D02*
X283260Y870400D01*
X283260Y871369D02*
X288240Y871369D01*
X275540Y871690D02*
X270560Y871690D01*
X275540Y871690D02*
X275540Y860710D01*
X270560Y860710D01*
X270560Y871690D01*
X270560Y861679D02*
X275540Y861679D01*
X275540Y862648D02*
X270560Y862648D01*
X270560Y863617D02*
X275540Y863617D01*
X275540Y864586D02*
X270560Y864586D01*
X270560Y865555D02*
X275540Y865555D01*
X275540Y866524D02*
X270560Y866524D01*
X270560Y867493D02*
X275540Y867493D01*
X275540Y868462D02*
X270560Y868462D01*
X270560Y869431D02*
X275540Y869431D01*
X275540Y870400D02*
X270560Y870400D01*
X270560Y871369D02*
X275540Y871369D01*
X275540Y815690D02*
X270560Y815690D01*
X275540Y815690D02*
X275540Y804710D01*
X270560Y804710D01*
X270560Y815690D01*
X270560Y805679D02*
X275540Y805679D01*
X275540Y806648D02*
X270560Y806648D01*
X270560Y807617D02*
X275540Y807617D01*
X275540Y808586D02*
X270560Y808586D01*
X270560Y809555D02*
X275540Y809555D01*
X275540Y810524D02*
X270560Y810524D01*
X270560Y811493D02*
X275540Y811493D01*
X275540Y812462D02*
X270560Y812462D01*
X270560Y813431D02*
X275540Y813431D01*
X275540Y814400D02*
X270560Y814400D01*
X270560Y815369D02*
X275540Y815369D01*
X283260Y815690D02*
X288240Y815690D01*
X288240Y804710D01*
X283260Y804710D01*
X283260Y815690D01*
X283260Y805679D02*
X288240Y805679D01*
X288240Y806648D02*
X283260Y806648D01*
X283260Y807617D02*
X288240Y807617D01*
X288240Y808586D02*
X283260Y808586D01*
X283260Y809555D02*
X288240Y809555D01*
X288240Y810524D02*
X283260Y810524D01*
X283260Y811493D02*
X288240Y811493D01*
X288240Y812462D02*
X283260Y812462D01*
X283260Y813431D02*
X288240Y813431D01*
X288240Y814400D02*
X283260Y814400D01*
X283260Y815369D02*
X288240Y815369D01*
X295960Y815690D02*
X300940Y815690D01*
X300940Y804710D01*
X295960Y804710D01*
X295960Y815690D01*
X295960Y805679D02*
X300940Y805679D01*
X300940Y806648D02*
X295960Y806648D01*
X295960Y807617D02*
X300940Y807617D01*
X300940Y808586D02*
X295960Y808586D01*
X295960Y809555D02*
X300940Y809555D01*
X300940Y810524D02*
X295960Y810524D01*
X295960Y811493D02*
X300940Y811493D01*
X300940Y812462D02*
X295960Y812462D01*
X295960Y813431D02*
X300940Y813431D01*
X300940Y814400D02*
X295960Y814400D01*
X295960Y815369D02*
X300940Y815369D01*
X308660Y815690D02*
X313640Y815690D01*
X313640Y804710D01*
X308660Y804710D01*
X308660Y815690D01*
X308660Y805679D02*
X313640Y805679D01*
X313640Y806648D02*
X308660Y806648D01*
X308660Y807617D02*
X313640Y807617D01*
X313640Y808586D02*
X308660Y808586D01*
X308660Y809555D02*
X313640Y809555D01*
X313640Y810524D02*
X308660Y810524D01*
X308660Y811493D02*
X313640Y811493D01*
X313640Y812462D02*
X308660Y812462D01*
X308660Y813431D02*
X313640Y813431D01*
X313640Y814400D02*
X308660Y814400D01*
X308660Y815369D02*
X313640Y815369D01*
X321360Y815690D02*
X326340Y815690D01*
X326340Y804710D01*
X321360Y804710D01*
X321360Y815690D01*
X321360Y805679D02*
X326340Y805679D01*
X326340Y806648D02*
X321360Y806648D01*
X321360Y807617D02*
X326340Y807617D01*
X326340Y808586D02*
X321360Y808586D01*
X321360Y809555D02*
X326340Y809555D01*
X326340Y810524D02*
X321360Y810524D01*
X321360Y811493D02*
X326340Y811493D01*
X326340Y812462D02*
X321360Y812462D01*
X321360Y813431D02*
X326340Y813431D01*
X326340Y814400D02*
X321360Y814400D01*
X321360Y815369D02*
X326340Y815369D01*
X334060Y815690D02*
X339040Y815690D01*
X339040Y804710D01*
X334060Y804710D01*
X334060Y815690D01*
X334060Y805679D02*
X339040Y805679D01*
X339040Y806648D02*
X334060Y806648D01*
X334060Y807617D02*
X339040Y807617D01*
X339040Y808586D02*
X334060Y808586D01*
X334060Y809555D02*
X339040Y809555D01*
X339040Y810524D02*
X334060Y810524D01*
X334060Y811493D02*
X339040Y811493D01*
X339040Y812462D02*
X334060Y812462D01*
X334060Y813431D02*
X339040Y813431D01*
X339040Y814400D02*
X334060Y814400D01*
X334060Y815369D02*
X339040Y815369D01*
X346760Y815690D02*
X351740Y815690D01*
X351740Y804710D01*
X346760Y804710D01*
X346760Y815690D01*
X346760Y805679D02*
X351740Y805679D01*
X351740Y806648D02*
X346760Y806648D01*
X346760Y807617D02*
X351740Y807617D01*
X351740Y808586D02*
X346760Y808586D01*
X346760Y809555D02*
X351740Y809555D01*
X351740Y810524D02*
X346760Y810524D01*
X346760Y811493D02*
X351740Y811493D01*
X351740Y812462D02*
X346760Y812462D01*
X346760Y813431D02*
X351740Y813431D01*
X351740Y814400D02*
X346760Y814400D01*
X346760Y815369D02*
X351740Y815369D01*
X359460Y815690D02*
X364440Y815690D01*
X364440Y804710D01*
X359460Y804710D01*
X359460Y815690D01*
X359460Y805679D02*
X364440Y805679D01*
X364440Y806648D02*
X359460Y806648D01*
X359460Y807617D02*
X364440Y807617D01*
X364440Y808586D02*
X359460Y808586D01*
X359460Y809555D02*
X364440Y809555D01*
X364440Y810524D02*
X359460Y810524D01*
X359460Y811493D02*
X364440Y811493D01*
X364440Y812462D02*
X359460Y812462D01*
X359460Y813431D02*
X364440Y813431D01*
X364440Y814400D02*
X359460Y814400D01*
X359460Y815369D02*
X364440Y815369D01*
D11*
X398200Y824700D02*
X398200Y834700D01*
X398200Y824700D02*
X389200Y824700D01*
X389200Y834700D01*
X398200Y834700D01*
X398200Y825650D02*
X389200Y825650D01*
X389200Y826600D02*
X398200Y826600D01*
X398200Y827550D02*
X389200Y827550D01*
X389200Y828500D02*
X398200Y828500D01*
X398200Y829450D02*
X389200Y829450D01*
X389200Y830400D02*
X398200Y830400D01*
X398200Y831350D02*
X389200Y831350D01*
X389200Y832300D02*
X398200Y832300D01*
X398200Y833250D02*
X389200Y833250D01*
X389200Y834200D02*
X398200Y834200D01*
X398200Y841700D02*
X398200Y851700D01*
X398200Y841700D02*
X389200Y841700D01*
X389200Y851700D01*
X398200Y851700D01*
X398200Y842650D02*
X389200Y842650D01*
X389200Y843600D02*
X398200Y843600D01*
X398200Y844550D02*
X389200Y844550D01*
X389200Y845500D02*
X398200Y845500D01*
X398200Y846450D02*
X389200Y846450D01*
X389200Y847400D02*
X398200Y847400D01*
X398200Y848350D02*
X389200Y848350D01*
X389200Y849300D02*
X398200Y849300D01*
X398200Y850250D02*
X389200Y850250D01*
X389200Y851200D02*
X398200Y851200D01*
D10*
X364440Y503390D02*
X359460Y503390D01*
X364440Y503390D02*
X364440Y492410D01*
X359460Y492410D01*
X359460Y503390D01*
X359460Y493379D02*
X364440Y493379D01*
X364440Y494348D02*
X359460Y494348D01*
X359460Y495317D02*
X364440Y495317D01*
X364440Y496286D02*
X359460Y496286D01*
X359460Y497255D02*
X364440Y497255D01*
X364440Y498224D02*
X359460Y498224D01*
X359460Y499193D02*
X364440Y499193D01*
X364440Y500162D02*
X359460Y500162D01*
X359460Y501131D02*
X364440Y501131D01*
X364440Y502100D02*
X359460Y502100D01*
X359460Y503069D02*
X364440Y503069D01*
X351740Y503390D02*
X346760Y503390D01*
X351740Y503390D02*
X351740Y492410D01*
X346760Y492410D01*
X346760Y503390D01*
X346760Y493379D02*
X351740Y493379D01*
X351740Y494348D02*
X346760Y494348D01*
X346760Y495317D02*
X351740Y495317D01*
X351740Y496286D02*
X346760Y496286D01*
X346760Y497255D02*
X351740Y497255D01*
X351740Y498224D02*
X346760Y498224D01*
X346760Y499193D02*
X351740Y499193D01*
X351740Y500162D02*
X346760Y500162D01*
X346760Y501131D02*
X351740Y501131D01*
X351740Y502100D02*
X346760Y502100D01*
X346760Y503069D02*
X351740Y503069D01*
X339040Y503390D02*
X334060Y503390D01*
X339040Y503390D02*
X339040Y492410D01*
X334060Y492410D01*
X334060Y503390D01*
X334060Y493379D02*
X339040Y493379D01*
X339040Y494348D02*
X334060Y494348D01*
X334060Y495317D02*
X339040Y495317D01*
X339040Y496286D02*
X334060Y496286D01*
X334060Y497255D02*
X339040Y497255D01*
X339040Y498224D02*
X334060Y498224D01*
X334060Y499193D02*
X339040Y499193D01*
X339040Y500162D02*
X334060Y500162D01*
X334060Y501131D02*
X339040Y501131D01*
X339040Y502100D02*
X334060Y502100D01*
X334060Y503069D02*
X339040Y503069D01*
X326340Y503390D02*
X321360Y503390D01*
X326340Y503390D02*
X326340Y492410D01*
X321360Y492410D01*
X321360Y503390D01*
X321360Y493379D02*
X326340Y493379D01*
X326340Y494348D02*
X321360Y494348D01*
X321360Y495317D02*
X326340Y495317D01*
X326340Y496286D02*
X321360Y496286D01*
X321360Y497255D02*
X326340Y497255D01*
X326340Y498224D02*
X321360Y498224D01*
X321360Y499193D02*
X326340Y499193D01*
X326340Y500162D02*
X321360Y500162D01*
X321360Y501131D02*
X326340Y501131D01*
X326340Y502100D02*
X321360Y502100D01*
X321360Y503069D02*
X326340Y503069D01*
X313640Y503390D02*
X308660Y503390D01*
X313640Y503390D02*
X313640Y492410D01*
X308660Y492410D01*
X308660Y503390D01*
X308660Y493379D02*
X313640Y493379D01*
X313640Y494348D02*
X308660Y494348D01*
X308660Y495317D02*
X313640Y495317D01*
X313640Y496286D02*
X308660Y496286D01*
X308660Y497255D02*
X313640Y497255D01*
X313640Y498224D02*
X308660Y498224D01*
X308660Y499193D02*
X313640Y499193D01*
X313640Y500162D02*
X308660Y500162D01*
X308660Y501131D02*
X313640Y501131D01*
X313640Y502100D02*
X308660Y502100D01*
X308660Y503069D02*
X313640Y503069D01*
X300940Y503390D02*
X295960Y503390D01*
X300940Y503390D02*
X300940Y492410D01*
X295960Y492410D01*
X295960Y503390D01*
X295960Y493379D02*
X300940Y493379D01*
X300940Y494348D02*
X295960Y494348D01*
X295960Y495317D02*
X300940Y495317D01*
X300940Y496286D02*
X295960Y496286D01*
X295960Y497255D02*
X300940Y497255D01*
X300940Y498224D02*
X295960Y498224D01*
X295960Y499193D02*
X300940Y499193D01*
X300940Y500162D02*
X295960Y500162D01*
X295960Y501131D02*
X300940Y501131D01*
X300940Y502100D02*
X295960Y502100D01*
X295960Y503069D02*
X300940Y503069D01*
X288240Y503390D02*
X283260Y503390D01*
X288240Y503390D02*
X288240Y492410D01*
X283260Y492410D01*
X283260Y503390D01*
X283260Y493379D02*
X288240Y493379D01*
X288240Y494348D02*
X283260Y494348D01*
X283260Y495317D02*
X288240Y495317D01*
X288240Y496286D02*
X283260Y496286D01*
X283260Y497255D02*
X288240Y497255D01*
X288240Y498224D02*
X283260Y498224D01*
X283260Y499193D02*
X288240Y499193D01*
X288240Y500162D02*
X283260Y500162D01*
X283260Y501131D02*
X288240Y501131D01*
X288240Y502100D02*
X283260Y502100D01*
X283260Y503069D02*
X288240Y503069D01*
X275540Y503390D02*
X270560Y503390D01*
X275540Y503390D02*
X275540Y492410D01*
X270560Y492410D01*
X270560Y503390D01*
X270560Y493379D02*
X275540Y493379D01*
X275540Y494348D02*
X270560Y494348D01*
X270560Y495317D02*
X275540Y495317D01*
X275540Y496286D02*
X270560Y496286D01*
X270560Y497255D02*
X275540Y497255D01*
X275540Y498224D02*
X270560Y498224D01*
X270560Y499193D02*
X275540Y499193D01*
X275540Y500162D02*
X270560Y500162D01*
X270560Y501131D02*
X275540Y501131D01*
X275540Y502100D02*
X270560Y502100D01*
X270560Y503069D02*
X275540Y503069D01*
X275540Y447390D02*
X270560Y447390D01*
X275540Y447390D02*
X275540Y436410D01*
X270560Y436410D01*
X270560Y447390D01*
X270560Y437379D02*
X275540Y437379D01*
X275540Y438348D02*
X270560Y438348D01*
X270560Y439317D02*
X275540Y439317D01*
X275540Y440286D02*
X270560Y440286D01*
X270560Y441255D02*
X275540Y441255D01*
X275540Y442224D02*
X270560Y442224D01*
X270560Y443193D02*
X275540Y443193D01*
X275540Y444162D02*
X270560Y444162D01*
X270560Y445131D02*
X275540Y445131D01*
X275540Y446100D02*
X270560Y446100D01*
X270560Y447069D02*
X275540Y447069D01*
X283260Y447390D02*
X288240Y447390D01*
X288240Y436410D01*
X283260Y436410D01*
X283260Y447390D01*
X283260Y437379D02*
X288240Y437379D01*
X288240Y438348D02*
X283260Y438348D01*
X283260Y439317D02*
X288240Y439317D01*
X288240Y440286D02*
X283260Y440286D01*
X283260Y441255D02*
X288240Y441255D01*
X288240Y442224D02*
X283260Y442224D01*
X283260Y443193D02*
X288240Y443193D01*
X288240Y444162D02*
X283260Y444162D01*
X283260Y445131D02*
X288240Y445131D01*
X288240Y446100D02*
X283260Y446100D01*
X283260Y447069D02*
X288240Y447069D01*
X295960Y447390D02*
X300940Y447390D01*
X300940Y436410D01*
X295960Y436410D01*
X295960Y447390D01*
X295960Y437379D02*
X300940Y437379D01*
X300940Y438348D02*
X295960Y438348D01*
X295960Y439317D02*
X300940Y439317D01*
X300940Y440286D02*
X295960Y440286D01*
X295960Y441255D02*
X300940Y441255D01*
X300940Y442224D02*
X295960Y442224D01*
X295960Y443193D02*
X300940Y443193D01*
X300940Y444162D02*
X295960Y444162D01*
X295960Y445131D02*
X300940Y445131D01*
X300940Y446100D02*
X295960Y446100D01*
X295960Y447069D02*
X300940Y447069D01*
X308660Y447390D02*
X313640Y447390D01*
X313640Y436410D01*
X308660Y436410D01*
X308660Y447390D01*
X308660Y437379D02*
X313640Y437379D01*
X313640Y438348D02*
X308660Y438348D01*
X308660Y439317D02*
X313640Y439317D01*
X313640Y440286D02*
X308660Y440286D01*
X308660Y441255D02*
X313640Y441255D01*
X313640Y442224D02*
X308660Y442224D01*
X308660Y443193D02*
X313640Y443193D01*
X313640Y444162D02*
X308660Y444162D01*
X308660Y445131D02*
X313640Y445131D01*
X313640Y446100D02*
X308660Y446100D01*
X308660Y447069D02*
X313640Y447069D01*
X321360Y447390D02*
X326340Y447390D01*
X326340Y436410D01*
X321360Y436410D01*
X321360Y447390D01*
X321360Y437379D02*
X326340Y437379D01*
X326340Y438348D02*
X321360Y438348D01*
X321360Y439317D02*
X326340Y439317D01*
X326340Y440286D02*
X321360Y440286D01*
X321360Y441255D02*
X326340Y441255D01*
X326340Y442224D02*
X321360Y442224D01*
X321360Y443193D02*
X326340Y443193D01*
X326340Y444162D02*
X321360Y444162D01*
X321360Y445131D02*
X326340Y445131D01*
X326340Y446100D02*
X321360Y446100D01*
X321360Y447069D02*
X326340Y447069D01*
X334060Y447390D02*
X339040Y447390D01*
X339040Y436410D01*
X334060Y436410D01*
X334060Y447390D01*
X334060Y437379D02*
X339040Y437379D01*
X339040Y438348D02*
X334060Y438348D01*
X334060Y439317D02*
X339040Y439317D01*
X339040Y440286D02*
X334060Y440286D01*
X334060Y441255D02*
X339040Y441255D01*
X339040Y442224D02*
X334060Y442224D01*
X334060Y443193D02*
X339040Y443193D01*
X339040Y444162D02*
X334060Y444162D01*
X334060Y445131D02*
X339040Y445131D01*
X339040Y446100D02*
X334060Y446100D01*
X334060Y447069D02*
X339040Y447069D01*
X346760Y447390D02*
X351740Y447390D01*
X351740Y436410D01*
X346760Y436410D01*
X346760Y447390D01*
X346760Y437379D02*
X351740Y437379D01*
X351740Y438348D02*
X346760Y438348D01*
X346760Y439317D02*
X351740Y439317D01*
X351740Y440286D02*
X346760Y440286D01*
X346760Y441255D02*
X351740Y441255D01*
X351740Y442224D02*
X346760Y442224D01*
X346760Y443193D02*
X351740Y443193D01*
X351740Y444162D02*
X346760Y444162D01*
X346760Y445131D02*
X351740Y445131D01*
X351740Y446100D02*
X346760Y446100D01*
X346760Y447069D02*
X351740Y447069D01*
X359460Y447390D02*
X364440Y447390D01*
X364440Y436410D01*
X359460Y436410D01*
X359460Y447390D01*
X359460Y437379D02*
X364440Y437379D01*
X364440Y438348D02*
X359460Y438348D01*
X359460Y439317D02*
X364440Y439317D01*
X364440Y440286D02*
X359460Y440286D01*
X359460Y441255D02*
X364440Y441255D01*
X364440Y442224D02*
X359460Y442224D01*
X359460Y443193D02*
X364440Y443193D01*
X364440Y444162D02*
X359460Y444162D01*
X359460Y445131D02*
X364440Y445131D01*
X364440Y446100D02*
X359460Y446100D01*
X359460Y447069D02*
X364440Y447069D01*
D11*
X398200Y456400D02*
X398200Y466400D01*
X398200Y456400D02*
X389200Y456400D01*
X389200Y466400D01*
X398200Y466400D01*
X398200Y457350D02*
X389200Y457350D01*
X389200Y458300D02*
X398200Y458300D01*
X398200Y459250D02*
X389200Y459250D01*
X389200Y460200D02*
X398200Y460200D01*
X398200Y461150D02*
X389200Y461150D01*
X389200Y462100D02*
X398200Y462100D01*
X398200Y463050D02*
X389200Y463050D01*
X389200Y464000D02*
X398200Y464000D01*
X398200Y464950D02*
X389200Y464950D01*
X389200Y465900D02*
X398200Y465900D01*
X398200Y473400D02*
X398200Y483400D01*
X398200Y473400D02*
X389200Y473400D01*
X389200Y483400D01*
X398200Y483400D01*
X398200Y474350D02*
X389200Y474350D01*
X389200Y475300D02*
X398200Y475300D01*
X398200Y476250D02*
X389200Y476250D01*
X389200Y477200D02*
X398200Y477200D01*
X398200Y478150D02*
X389200Y478150D01*
X389200Y479100D02*
X398200Y479100D01*
X398200Y480050D02*
X389200Y480050D01*
X389200Y481000D02*
X398200Y481000D01*
X398200Y481950D02*
X389200Y481950D01*
X389200Y482900D02*
X398200Y482900D01*
D10*
X364440Y1036790D02*
X359460Y1036790D01*
X364440Y1036790D02*
X364440Y1025810D01*
X359460Y1025810D01*
X359460Y1036790D01*
X359460Y1026779D02*
X364440Y1026779D01*
X364440Y1027748D02*
X359460Y1027748D01*
X359460Y1028717D02*
X364440Y1028717D01*
X364440Y1029686D02*
X359460Y1029686D01*
X359460Y1030655D02*
X364440Y1030655D01*
X364440Y1031624D02*
X359460Y1031624D01*
X359460Y1032593D02*
X364440Y1032593D01*
X364440Y1033562D02*
X359460Y1033562D01*
X359460Y1034531D02*
X364440Y1034531D01*
X364440Y1035500D02*
X359460Y1035500D01*
X359460Y1036469D02*
X364440Y1036469D01*
X351740Y1036790D02*
X346760Y1036790D01*
X351740Y1036790D02*
X351740Y1025810D01*
X346760Y1025810D01*
X346760Y1036790D01*
X346760Y1026779D02*
X351740Y1026779D01*
X351740Y1027748D02*
X346760Y1027748D01*
X346760Y1028717D02*
X351740Y1028717D01*
X351740Y1029686D02*
X346760Y1029686D01*
X346760Y1030655D02*
X351740Y1030655D01*
X351740Y1031624D02*
X346760Y1031624D01*
X346760Y1032593D02*
X351740Y1032593D01*
X351740Y1033562D02*
X346760Y1033562D01*
X346760Y1034531D02*
X351740Y1034531D01*
X351740Y1035500D02*
X346760Y1035500D01*
X346760Y1036469D02*
X351740Y1036469D01*
X339040Y1036790D02*
X334060Y1036790D01*
X339040Y1036790D02*
X339040Y1025810D01*
X334060Y1025810D01*
X334060Y1036790D01*
X334060Y1026779D02*
X339040Y1026779D01*
X339040Y1027748D02*
X334060Y1027748D01*
X334060Y1028717D02*
X339040Y1028717D01*
X339040Y1029686D02*
X334060Y1029686D01*
X334060Y1030655D02*
X339040Y1030655D01*
X339040Y1031624D02*
X334060Y1031624D01*
X334060Y1032593D02*
X339040Y1032593D01*
X339040Y1033562D02*
X334060Y1033562D01*
X334060Y1034531D02*
X339040Y1034531D01*
X339040Y1035500D02*
X334060Y1035500D01*
X334060Y1036469D02*
X339040Y1036469D01*
X326340Y1036790D02*
X321360Y1036790D01*
X326340Y1036790D02*
X326340Y1025810D01*
X321360Y1025810D01*
X321360Y1036790D01*
X321360Y1026779D02*
X326340Y1026779D01*
X326340Y1027748D02*
X321360Y1027748D01*
X321360Y1028717D02*
X326340Y1028717D01*
X326340Y1029686D02*
X321360Y1029686D01*
X321360Y1030655D02*
X326340Y1030655D01*
X326340Y1031624D02*
X321360Y1031624D01*
X321360Y1032593D02*
X326340Y1032593D01*
X326340Y1033562D02*
X321360Y1033562D01*
X321360Y1034531D02*
X326340Y1034531D01*
X326340Y1035500D02*
X321360Y1035500D01*
X321360Y1036469D02*
X326340Y1036469D01*
X313640Y1036790D02*
X308660Y1036790D01*
X313640Y1036790D02*
X313640Y1025810D01*
X308660Y1025810D01*
X308660Y1036790D01*
X308660Y1026779D02*
X313640Y1026779D01*
X313640Y1027748D02*
X308660Y1027748D01*
X308660Y1028717D02*
X313640Y1028717D01*
X313640Y1029686D02*
X308660Y1029686D01*
X308660Y1030655D02*
X313640Y1030655D01*
X313640Y1031624D02*
X308660Y1031624D01*
X308660Y1032593D02*
X313640Y1032593D01*
X313640Y1033562D02*
X308660Y1033562D01*
X308660Y1034531D02*
X313640Y1034531D01*
X313640Y1035500D02*
X308660Y1035500D01*
X308660Y1036469D02*
X313640Y1036469D01*
X300940Y1036790D02*
X295960Y1036790D01*
X300940Y1036790D02*
X300940Y1025810D01*
X295960Y1025810D01*
X295960Y1036790D01*
X295960Y1026779D02*
X300940Y1026779D01*
X300940Y1027748D02*
X295960Y1027748D01*
X295960Y1028717D02*
X300940Y1028717D01*
X300940Y1029686D02*
X295960Y1029686D01*
X295960Y1030655D02*
X300940Y1030655D01*
X300940Y1031624D02*
X295960Y1031624D01*
X295960Y1032593D02*
X300940Y1032593D01*
X300940Y1033562D02*
X295960Y1033562D01*
X295960Y1034531D02*
X300940Y1034531D01*
X300940Y1035500D02*
X295960Y1035500D01*
X295960Y1036469D02*
X300940Y1036469D01*
X288240Y1036790D02*
X283260Y1036790D01*
X288240Y1036790D02*
X288240Y1025810D01*
X283260Y1025810D01*
X283260Y1036790D01*
X283260Y1026779D02*
X288240Y1026779D01*
X288240Y1027748D02*
X283260Y1027748D01*
X283260Y1028717D02*
X288240Y1028717D01*
X288240Y1029686D02*
X283260Y1029686D01*
X283260Y1030655D02*
X288240Y1030655D01*
X288240Y1031624D02*
X283260Y1031624D01*
X283260Y1032593D02*
X288240Y1032593D01*
X288240Y1033562D02*
X283260Y1033562D01*
X283260Y1034531D02*
X288240Y1034531D01*
X288240Y1035500D02*
X283260Y1035500D01*
X283260Y1036469D02*
X288240Y1036469D01*
X275540Y1036790D02*
X270560Y1036790D01*
X275540Y1036790D02*
X275540Y1025810D01*
X270560Y1025810D01*
X270560Y1036790D01*
X270560Y1026779D02*
X275540Y1026779D01*
X275540Y1027748D02*
X270560Y1027748D01*
X270560Y1028717D02*
X275540Y1028717D01*
X275540Y1029686D02*
X270560Y1029686D01*
X270560Y1030655D02*
X275540Y1030655D01*
X275540Y1031624D02*
X270560Y1031624D01*
X270560Y1032593D02*
X275540Y1032593D01*
X275540Y1033562D02*
X270560Y1033562D01*
X270560Y1034531D02*
X275540Y1034531D01*
X275540Y1035500D02*
X270560Y1035500D01*
X270560Y1036469D02*
X275540Y1036469D01*
X275540Y980790D02*
X270560Y980790D01*
X275540Y980790D02*
X275540Y969810D01*
X270560Y969810D01*
X270560Y980790D01*
X270560Y970779D02*
X275540Y970779D01*
X275540Y971748D02*
X270560Y971748D01*
X270560Y972717D02*
X275540Y972717D01*
X275540Y973686D02*
X270560Y973686D01*
X270560Y974655D02*
X275540Y974655D01*
X275540Y975624D02*
X270560Y975624D01*
X270560Y976593D02*
X275540Y976593D01*
X275540Y977562D02*
X270560Y977562D01*
X270560Y978531D02*
X275540Y978531D01*
X275540Y979500D02*
X270560Y979500D01*
X270560Y980469D02*
X275540Y980469D01*
X283260Y980790D02*
X288240Y980790D01*
X288240Y969810D01*
X283260Y969810D01*
X283260Y980790D01*
X283260Y970779D02*
X288240Y970779D01*
X288240Y971748D02*
X283260Y971748D01*
X283260Y972717D02*
X288240Y972717D01*
X288240Y973686D02*
X283260Y973686D01*
X283260Y974655D02*
X288240Y974655D01*
X288240Y975624D02*
X283260Y975624D01*
X283260Y976593D02*
X288240Y976593D01*
X288240Y977562D02*
X283260Y977562D01*
X283260Y978531D02*
X288240Y978531D01*
X288240Y979500D02*
X283260Y979500D01*
X283260Y980469D02*
X288240Y980469D01*
X295960Y980790D02*
X300940Y980790D01*
X300940Y969810D01*
X295960Y969810D01*
X295960Y980790D01*
X295960Y970779D02*
X300940Y970779D01*
X300940Y971748D02*
X295960Y971748D01*
X295960Y972717D02*
X300940Y972717D01*
X300940Y973686D02*
X295960Y973686D01*
X295960Y974655D02*
X300940Y974655D01*
X300940Y975624D02*
X295960Y975624D01*
X295960Y976593D02*
X300940Y976593D01*
X300940Y977562D02*
X295960Y977562D01*
X295960Y978531D02*
X300940Y978531D01*
X300940Y979500D02*
X295960Y979500D01*
X295960Y980469D02*
X300940Y980469D01*
X308660Y980790D02*
X313640Y980790D01*
X313640Y969810D01*
X308660Y969810D01*
X308660Y980790D01*
X308660Y970779D02*
X313640Y970779D01*
X313640Y971748D02*
X308660Y971748D01*
X308660Y972717D02*
X313640Y972717D01*
X313640Y973686D02*
X308660Y973686D01*
X308660Y974655D02*
X313640Y974655D01*
X313640Y975624D02*
X308660Y975624D01*
X308660Y976593D02*
X313640Y976593D01*
X313640Y977562D02*
X308660Y977562D01*
X308660Y978531D02*
X313640Y978531D01*
X313640Y979500D02*
X308660Y979500D01*
X308660Y980469D02*
X313640Y980469D01*
X321360Y980790D02*
X326340Y980790D01*
X326340Y969810D01*
X321360Y969810D01*
X321360Y980790D01*
X321360Y970779D02*
X326340Y970779D01*
X326340Y971748D02*
X321360Y971748D01*
X321360Y972717D02*
X326340Y972717D01*
X326340Y973686D02*
X321360Y973686D01*
X321360Y974655D02*
X326340Y974655D01*
X326340Y975624D02*
X321360Y975624D01*
X321360Y976593D02*
X326340Y976593D01*
X326340Y977562D02*
X321360Y977562D01*
X321360Y978531D02*
X326340Y978531D01*
X326340Y979500D02*
X321360Y979500D01*
X321360Y980469D02*
X326340Y980469D01*
X334060Y980790D02*
X339040Y980790D01*
X339040Y969810D01*
X334060Y969810D01*
X334060Y980790D01*
X334060Y970779D02*
X339040Y970779D01*
X339040Y971748D02*
X334060Y971748D01*
X334060Y972717D02*
X339040Y972717D01*
X339040Y973686D02*
X334060Y973686D01*
X334060Y974655D02*
X339040Y974655D01*
X339040Y975624D02*
X334060Y975624D01*
X334060Y976593D02*
X339040Y976593D01*
X339040Y977562D02*
X334060Y977562D01*
X334060Y978531D02*
X339040Y978531D01*
X339040Y979500D02*
X334060Y979500D01*
X334060Y980469D02*
X339040Y980469D01*
X346760Y980790D02*
X351740Y980790D01*
X351740Y969810D01*
X346760Y969810D01*
X346760Y980790D01*
X346760Y970779D02*
X351740Y970779D01*
X351740Y971748D02*
X346760Y971748D01*
X346760Y972717D02*
X351740Y972717D01*
X351740Y973686D02*
X346760Y973686D01*
X346760Y974655D02*
X351740Y974655D01*
X351740Y975624D02*
X346760Y975624D01*
X346760Y976593D02*
X351740Y976593D01*
X351740Y977562D02*
X346760Y977562D01*
X346760Y978531D02*
X351740Y978531D01*
X351740Y979500D02*
X346760Y979500D01*
X346760Y980469D02*
X351740Y980469D01*
X359460Y980790D02*
X364440Y980790D01*
X364440Y969810D01*
X359460Y969810D01*
X359460Y980790D01*
X359460Y970779D02*
X364440Y970779D01*
X364440Y971748D02*
X359460Y971748D01*
X359460Y972717D02*
X364440Y972717D01*
X364440Y973686D02*
X359460Y973686D01*
X359460Y974655D02*
X364440Y974655D01*
X364440Y975624D02*
X359460Y975624D01*
X359460Y976593D02*
X364440Y976593D01*
X364440Y977562D02*
X359460Y977562D01*
X359460Y978531D02*
X364440Y978531D01*
X364440Y979500D02*
X359460Y979500D01*
X359460Y980469D02*
X364440Y980469D01*
D11*
X389200Y1006800D02*
X389200Y1016800D01*
X398200Y1016800D01*
X398200Y1006800D01*
X389200Y1006800D01*
X389200Y1007750D02*
X398200Y1007750D01*
X398200Y1008700D02*
X389200Y1008700D01*
X389200Y1009650D02*
X398200Y1009650D01*
X398200Y1010600D02*
X389200Y1010600D01*
X389200Y1011550D02*
X398200Y1011550D01*
X398200Y1012500D02*
X389200Y1012500D01*
X389200Y1013450D02*
X398200Y1013450D01*
X398200Y1014400D02*
X389200Y1014400D01*
X389200Y1015350D02*
X398200Y1015350D01*
X398200Y1016300D02*
X389200Y1016300D01*
X389200Y999800D02*
X389200Y989800D01*
X389200Y999800D02*
X398200Y999800D01*
X398200Y989800D01*
X389200Y989800D01*
X389200Y990750D02*
X398200Y990750D01*
X398200Y991700D02*
X389200Y991700D01*
X389200Y992650D02*
X398200Y992650D01*
X398200Y993600D02*
X389200Y993600D01*
X389200Y994550D02*
X398200Y994550D01*
X398200Y995500D02*
X389200Y995500D01*
X389200Y996450D02*
X398200Y996450D01*
X398200Y997400D02*
X389200Y997400D01*
X389200Y998350D02*
X398200Y998350D01*
X398200Y999300D02*
X389200Y999300D01*
D10*
X454310Y720540D02*
X454310Y715560D01*
X454310Y720540D02*
X470290Y720540D01*
X470290Y715560D01*
X454310Y715560D01*
X454310Y716529D02*
X470290Y716529D01*
X470290Y717498D02*
X454310Y717498D01*
X454310Y718467D02*
X470290Y718467D01*
X470290Y719436D02*
X454310Y719436D01*
X454310Y720405D02*
X470290Y720405D01*
D11*
X481300Y794550D02*
X507300Y794550D01*
X481300Y794550D02*
X481300Y803550D01*
X507300Y803550D01*
X507300Y794550D01*
X507300Y795500D02*
X481300Y795500D01*
X481300Y796450D02*
X507300Y796450D01*
X507300Y797400D02*
X481300Y797400D01*
X481300Y798350D02*
X507300Y798350D01*
X507300Y799300D02*
X481300Y799300D01*
X481300Y800250D02*
X507300Y800250D01*
X507300Y801200D02*
X481300Y801200D01*
X481300Y802150D02*
X507300Y802150D01*
X507300Y803100D02*
X481300Y803100D01*
X481300Y695050D02*
X507300Y695050D01*
X481300Y695050D02*
X481300Y704050D01*
X507300Y704050D01*
X507300Y695050D01*
X507300Y696000D02*
X481300Y696000D01*
X481300Y696950D02*
X507300Y696950D01*
X507300Y697900D02*
X481300Y697900D01*
X481300Y698850D02*
X507300Y698850D01*
X507300Y699800D02*
X481300Y699800D01*
X481300Y700750D02*
X507300Y700750D01*
X507300Y701700D02*
X481300Y701700D01*
X481300Y702650D02*
X507300Y702650D01*
X507300Y703600D02*
X481300Y703600D01*
D10*
X454310Y728060D02*
X454310Y733040D01*
X470290Y733040D01*
X470290Y728060D01*
X454310Y728060D01*
X454310Y729029D02*
X470290Y729029D01*
X470290Y729998D02*
X454310Y729998D01*
X454310Y730967D02*
X470290Y730967D01*
X470290Y731936D02*
X454310Y731936D01*
X454310Y732905D02*
X470290Y732905D01*
X454310Y740560D02*
X454310Y745540D01*
X470290Y745540D01*
X470290Y740560D01*
X454310Y740560D01*
X454310Y741529D02*
X470290Y741529D01*
X470290Y742498D02*
X454310Y742498D01*
X454310Y743467D02*
X470290Y743467D01*
X470290Y744436D02*
X454310Y744436D01*
X454310Y745405D02*
X470290Y745405D01*
X454310Y753060D02*
X454310Y758040D01*
X470290Y758040D01*
X470290Y753060D01*
X454310Y753060D01*
X454310Y754029D02*
X470290Y754029D01*
X470290Y754998D02*
X454310Y754998D01*
X454310Y755967D02*
X470290Y755967D01*
X470290Y756936D02*
X454310Y756936D01*
X454310Y757905D02*
X470290Y757905D01*
X454310Y765560D02*
X454310Y770540D01*
X470290Y770540D01*
X470290Y765560D01*
X454310Y765560D01*
X454310Y766529D02*
X470290Y766529D01*
X470290Y767498D02*
X454310Y767498D01*
X454310Y768467D02*
X470290Y768467D01*
X470290Y769436D02*
X454310Y769436D01*
X454310Y770405D02*
X470290Y770405D01*
X454310Y778060D02*
X454310Y783040D01*
X470290Y783040D01*
X470290Y778060D01*
X454310Y778060D01*
X454310Y779029D02*
X470290Y779029D01*
X470290Y779998D02*
X454310Y779998D01*
X454310Y780967D02*
X470290Y780967D01*
X470290Y781936D02*
X454310Y781936D01*
X454310Y782905D02*
X470290Y782905D01*
X364440Y681190D02*
X359460Y681190D01*
X364440Y681190D02*
X364440Y670210D01*
X359460Y670210D01*
X359460Y681190D01*
X359460Y671179D02*
X364440Y671179D01*
X364440Y672148D02*
X359460Y672148D01*
X359460Y673117D02*
X364440Y673117D01*
X364440Y674086D02*
X359460Y674086D01*
X359460Y675055D02*
X364440Y675055D01*
X364440Y676024D02*
X359460Y676024D01*
X359460Y676993D02*
X364440Y676993D01*
X364440Y677962D02*
X359460Y677962D01*
X359460Y678931D02*
X364440Y678931D01*
X364440Y679900D02*
X359460Y679900D01*
X359460Y680869D02*
X364440Y680869D01*
X351740Y681190D02*
X346760Y681190D01*
X351740Y681190D02*
X351740Y670210D01*
X346760Y670210D01*
X346760Y681190D01*
X346760Y671179D02*
X351740Y671179D01*
X351740Y672148D02*
X346760Y672148D01*
X346760Y673117D02*
X351740Y673117D01*
X351740Y674086D02*
X346760Y674086D01*
X346760Y675055D02*
X351740Y675055D01*
X351740Y676024D02*
X346760Y676024D01*
X346760Y676993D02*
X351740Y676993D01*
X351740Y677962D02*
X346760Y677962D01*
X346760Y678931D02*
X351740Y678931D01*
X351740Y679900D02*
X346760Y679900D01*
X346760Y680869D02*
X351740Y680869D01*
X339040Y681190D02*
X334060Y681190D01*
X339040Y681190D02*
X339040Y670210D01*
X334060Y670210D01*
X334060Y681190D01*
X334060Y671179D02*
X339040Y671179D01*
X339040Y672148D02*
X334060Y672148D01*
X334060Y673117D02*
X339040Y673117D01*
X339040Y674086D02*
X334060Y674086D01*
X334060Y675055D02*
X339040Y675055D01*
X339040Y676024D02*
X334060Y676024D01*
X334060Y676993D02*
X339040Y676993D01*
X339040Y677962D02*
X334060Y677962D01*
X334060Y678931D02*
X339040Y678931D01*
X339040Y679900D02*
X334060Y679900D01*
X334060Y680869D02*
X339040Y680869D01*
X326340Y681190D02*
X321360Y681190D01*
X326340Y681190D02*
X326340Y670210D01*
X321360Y670210D01*
X321360Y681190D01*
X321360Y671179D02*
X326340Y671179D01*
X326340Y672148D02*
X321360Y672148D01*
X321360Y673117D02*
X326340Y673117D01*
X326340Y674086D02*
X321360Y674086D01*
X321360Y675055D02*
X326340Y675055D01*
X326340Y676024D02*
X321360Y676024D01*
X321360Y676993D02*
X326340Y676993D01*
X326340Y677962D02*
X321360Y677962D01*
X321360Y678931D02*
X326340Y678931D01*
X326340Y679900D02*
X321360Y679900D01*
X321360Y680869D02*
X326340Y680869D01*
X313640Y681190D02*
X308660Y681190D01*
X313640Y681190D02*
X313640Y670210D01*
X308660Y670210D01*
X308660Y681190D01*
X308660Y671179D02*
X313640Y671179D01*
X313640Y672148D02*
X308660Y672148D01*
X308660Y673117D02*
X313640Y673117D01*
X313640Y674086D02*
X308660Y674086D01*
X308660Y675055D02*
X313640Y675055D01*
X313640Y676024D02*
X308660Y676024D01*
X308660Y676993D02*
X313640Y676993D01*
X313640Y677962D02*
X308660Y677962D01*
X308660Y678931D02*
X313640Y678931D01*
X313640Y679900D02*
X308660Y679900D01*
X308660Y680869D02*
X313640Y680869D01*
X300940Y681190D02*
X295960Y681190D01*
X300940Y681190D02*
X300940Y670210D01*
X295960Y670210D01*
X295960Y681190D01*
X295960Y671179D02*
X300940Y671179D01*
X300940Y672148D02*
X295960Y672148D01*
X295960Y673117D02*
X300940Y673117D01*
X300940Y674086D02*
X295960Y674086D01*
X295960Y675055D02*
X300940Y675055D01*
X300940Y676024D02*
X295960Y676024D01*
X295960Y676993D02*
X300940Y676993D01*
X300940Y677962D02*
X295960Y677962D01*
X295960Y678931D02*
X300940Y678931D01*
X300940Y679900D02*
X295960Y679900D01*
X295960Y680869D02*
X300940Y680869D01*
X288240Y681190D02*
X283260Y681190D01*
X288240Y681190D02*
X288240Y670210D01*
X283260Y670210D01*
X283260Y681190D01*
X283260Y671179D02*
X288240Y671179D01*
X288240Y672148D02*
X283260Y672148D01*
X283260Y673117D02*
X288240Y673117D01*
X288240Y674086D02*
X283260Y674086D01*
X283260Y675055D02*
X288240Y675055D01*
X288240Y676024D02*
X283260Y676024D01*
X283260Y676993D02*
X288240Y676993D01*
X288240Y677962D02*
X283260Y677962D01*
X283260Y678931D02*
X288240Y678931D01*
X288240Y679900D02*
X283260Y679900D01*
X283260Y680869D02*
X288240Y680869D01*
X275540Y681190D02*
X270560Y681190D01*
X275540Y681190D02*
X275540Y670210D01*
X270560Y670210D01*
X270560Y681190D01*
X270560Y671179D02*
X275540Y671179D01*
X275540Y672148D02*
X270560Y672148D01*
X270560Y673117D02*
X275540Y673117D01*
X275540Y674086D02*
X270560Y674086D01*
X270560Y675055D02*
X275540Y675055D01*
X275540Y676024D02*
X270560Y676024D01*
X270560Y676993D02*
X275540Y676993D01*
X275540Y677962D02*
X270560Y677962D01*
X270560Y678931D02*
X275540Y678931D01*
X275540Y679900D02*
X270560Y679900D01*
X270560Y680869D02*
X275540Y680869D01*
X275540Y625190D02*
X270560Y625190D01*
X275540Y625190D02*
X275540Y614210D01*
X270560Y614210D01*
X270560Y625190D01*
X270560Y615179D02*
X275540Y615179D01*
X275540Y616148D02*
X270560Y616148D01*
X270560Y617117D02*
X275540Y617117D01*
X275540Y618086D02*
X270560Y618086D01*
X270560Y619055D02*
X275540Y619055D01*
X275540Y620024D02*
X270560Y620024D01*
X270560Y620993D02*
X275540Y620993D01*
X275540Y621962D02*
X270560Y621962D01*
X270560Y622931D02*
X275540Y622931D01*
X275540Y623900D02*
X270560Y623900D01*
X270560Y624869D02*
X275540Y624869D01*
X283260Y625190D02*
X288240Y625190D01*
X288240Y614210D01*
X283260Y614210D01*
X283260Y625190D01*
X283260Y615179D02*
X288240Y615179D01*
X288240Y616148D02*
X283260Y616148D01*
X283260Y617117D02*
X288240Y617117D01*
X288240Y618086D02*
X283260Y618086D01*
X283260Y619055D02*
X288240Y619055D01*
X288240Y620024D02*
X283260Y620024D01*
X283260Y620993D02*
X288240Y620993D01*
X288240Y621962D02*
X283260Y621962D01*
X283260Y622931D02*
X288240Y622931D01*
X288240Y623900D02*
X283260Y623900D01*
X283260Y624869D02*
X288240Y624869D01*
X295960Y625190D02*
X300940Y625190D01*
X300940Y614210D01*
X295960Y614210D01*
X295960Y625190D01*
X295960Y615179D02*
X300940Y615179D01*
X300940Y616148D02*
X295960Y616148D01*
X295960Y617117D02*
X300940Y617117D01*
X300940Y618086D02*
X295960Y618086D01*
X295960Y619055D02*
X300940Y619055D01*
X300940Y620024D02*
X295960Y620024D01*
X295960Y620993D02*
X300940Y620993D01*
X300940Y621962D02*
X295960Y621962D01*
X295960Y622931D02*
X300940Y622931D01*
X300940Y623900D02*
X295960Y623900D01*
X295960Y624869D02*
X300940Y624869D01*
X308660Y625190D02*
X313640Y625190D01*
X313640Y614210D01*
X308660Y614210D01*
X308660Y625190D01*
X308660Y615179D02*
X313640Y615179D01*
X313640Y616148D02*
X308660Y616148D01*
X308660Y617117D02*
X313640Y617117D01*
X313640Y618086D02*
X308660Y618086D01*
X308660Y619055D02*
X313640Y619055D01*
X313640Y620024D02*
X308660Y620024D01*
X308660Y620993D02*
X313640Y620993D01*
X313640Y621962D02*
X308660Y621962D01*
X308660Y622931D02*
X313640Y622931D01*
X313640Y623900D02*
X308660Y623900D01*
X308660Y624869D02*
X313640Y624869D01*
X321360Y625190D02*
X326340Y625190D01*
X326340Y614210D01*
X321360Y614210D01*
X321360Y625190D01*
X321360Y615179D02*
X326340Y615179D01*
X326340Y616148D02*
X321360Y616148D01*
X321360Y617117D02*
X326340Y617117D01*
X326340Y618086D02*
X321360Y618086D01*
X321360Y619055D02*
X326340Y619055D01*
X326340Y620024D02*
X321360Y620024D01*
X321360Y620993D02*
X326340Y620993D01*
X326340Y621962D02*
X321360Y621962D01*
X321360Y622931D02*
X326340Y622931D01*
X326340Y623900D02*
X321360Y623900D01*
X321360Y624869D02*
X326340Y624869D01*
X334060Y625190D02*
X339040Y625190D01*
X339040Y614210D01*
X334060Y614210D01*
X334060Y625190D01*
X334060Y615179D02*
X339040Y615179D01*
X339040Y616148D02*
X334060Y616148D01*
X334060Y617117D02*
X339040Y617117D01*
X339040Y618086D02*
X334060Y618086D01*
X334060Y619055D02*
X339040Y619055D01*
X339040Y620024D02*
X334060Y620024D01*
X334060Y620993D02*
X339040Y620993D01*
X339040Y621962D02*
X334060Y621962D01*
X334060Y622931D02*
X339040Y622931D01*
X339040Y623900D02*
X334060Y623900D01*
X334060Y624869D02*
X339040Y624869D01*
X346760Y625190D02*
X351740Y625190D01*
X351740Y614210D01*
X346760Y614210D01*
X346760Y625190D01*
X346760Y615179D02*
X351740Y615179D01*
X351740Y616148D02*
X346760Y616148D01*
X346760Y617117D02*
X351740Y617117D01*
X351740Y618086D02*
X346760Y618086D01*
X346760Y619055D02*
X351740Y619055D01*
X351740Y620024D02*
X346760Y620024D01*
X346760Y620993D02*
X351740Y620993D01*
X351740Y621962D02*
X346760Y621962D01*
X346760Y622931D02*
X351740Y622931D01*
X351740Y623900D02*
X346760Y623900D01*
X346760Y624869D02*
X351740Y624869D01*
X359460Y625190D02*
X364440Y625190D01*
X364440Y614210D01*
X359460Y614210D01*
X359460Y625190D01*
X359460Y615179D02*
X364440Y615179D01*
X364440Y616148D02*
X359460Y616148D01*
X359460Y617117D02*
X364440Y617117D01*
X364440Y618086D02*
X359460Y618086D01*
X359460Y619055D02*
X364440Y619055D01*
X364440Y620024D02*
X359460Y620024D01*
X359460Y620993D02*
X364440Y620993D01*
X364440Y621962D02*
X359460Y621962D01*
X359460Y622931D02*
X364440Y622931D01*
X364440Y623900D02*
X359460Y623900D01*
X359460Y624869D02*
X364440Y624869D01*
D11*
X389200Y651200D02*
X389200Y661200D01*
X398200Y661200D01*
X398200Y651200D01*
X389200Y651200D01*
X389200Y652150D02*
X398200Y652150D01*
X398200Y653100D02*
X389200Y653100D01*
X389200Y654050D02*
X398200Y654050D01*
X398200Y655000D02*
X389200Y655000D01*
X389200Y655950D02*
X398200Y655950D01*
X398200Y656900D02*
X389200Y656900D01*
X389200Y657850D02*
X398200Y657850D01*
X398200Y658800D02*
X389200Y658800D01*
X389200Y659750D02*
X398200Y659750D01*
X398200Y660700D02*
X389200Y660700D01*
X389200Y644200D02*
X389200Y634200D01*
X389200Y644200D02*
X398200Y644200D01*
X398200Y634200D01*
X389200Y634200D01*
X389200Y635150D02*
X398200Y635150D01*
X398200Y636100D02*
X389200Y636100D01*
X389200Y637050D02*
X398200Y637050D01*
X398200Y638000D02*
X389200Y638000D01*
X389200Y638950D02*
X398200Y638950D01*
X398200Y639900D02*
X389200Y639900D01*
X389200Y640850D02*
X398200Y640850D01*
X398200Y641800D02*
X389200Y641800D01*
X389200Y642750D02*
X398200Y642750D01*
X398200Y643700D02*
X389200Y643700D01*
X360100Y697700D02*
X360100Y707700D01*
X360100Y697700D02*
X351100Y697700D01*
X351100Y707700D01*
X360100Y707700D01*
X360100Y698650D02*
X351100Y698650D01*
X351100Y699600D02*
X360100Y699600D01*
X360100Y700550D02*
X351100Y700550D01*
X351100Y701500D02*
X360100Y701500D01*
X360100Y702450D02*
X351100Y702450D01*
X351100Y703400D02*
X360100Y703400D01*
X360100Y704350D02*
X351100Y704350D01*
X351100Y705300D02*
X360100Y705300D01*
X360100Y706250D02*
X351100Y706250D01*
X351100Y707200D02*
X360100Y707200D01*
X360100Y714700D02*
X360100Y724700D01*
X360100Y714700D02*
X351100Y714700D01*
X351100Y724700D01*
X360100Y724700D01*
X360100Y715650D02*
X351100Y715650D01*
X351100Y716600D02*
X360100Y716600D01*
X360100Y717550D02*
X351100Y717550D01*
X351100Y718500D02*
X360100Y718500D01*
X360100Y719450D02*
X351100Y719450D01*
X351100Y720400D02*
X360100Y720400D01*
X360100Y721350D02*
X351100Y721350D01*
X351100Y722300D02*
X360100Y722300D01*
X360100Y723250D02*
X351100Y723250D01*
X351100Y724200D02*
X360100Y724200D01*
X334700Y707700D02*
X334700Y697700D01*
X325700Y697700D01*
X325700Y707700D01*
X334700Y707700D01*
X334700Y698650D02*
X325700Y698650D01*
X325700Y699600D02*
X334700Y699600D01*
X334700Y700550D02*
X325700Y700550D01*
X325700Y701500D02*
X334700Y701500D01*
X334700Y702450D02*
X325700Y702450D01*
X325700Y703400D02*
X334700Y703400D01*
X334700Y704350D02*
X325700Y704350D01*
X325700Y705300D02*
X334700Y705300D01*
X334700Y706250D02*
X325700Y706250D01*
X325700Y707200D02*
X334700Y707200D01*
X334700Y714700D02*
X334700Y724700D01*
X334700Y714700D02*
X325700Y714700D01*
X325700Y724700D01*
X334700Y724700D01*
X334700Y715650D02*
X325700Y715650D01*
X325700Y716600D02*
X334700Y716600D01*
X334700Y717550D02*
X325700Y717550D01*
X325700Y718500D02*
X334700Y718500D01*
X334700Y719450D02*
X325700Y719450D01*
X325700Y720400D02*
X334700Y720400D01*
X334700Y721350D02*
X325700Y721350D01*
X325700Y722300D02*
X334700Y722300D01*
X334700Y723250D02*
X325700Y723250D01*
X325700Y724200D02*
X334700Y724200D01*
X309300Y707700D02*
X309300Y697700D01*
X300300Y697700D01*
X300300Y707700D01*
X309300Y707700D01*
X309300Y698650D02*
X300300Y698650D01*
X300300Y699600D02*
X309300Y699600D01*
X309300Y700550D02*
X300300Y700550D01*
X300300Y701500D02*
X309300Y701500D01*
X309300Y702450D02*
X300300Y702450D01*
X300300Y703400D02*
X309300Y703400D01*
X309300Y704350D02*
X300300Y704350D01*
X300300Y705300D02*
X309300Y705300D01*
X309300Y706250D02*
X300300Y706250D01*
X300300Y707200D02*
X309300Y707200D01*
X309300Y714700D02*
X309300Y724700D01*
X309300Y714700D02*
X300300Y714700D01*
X300300Y724700D01*
X309300Y724700D01*
X309300Y715650D02*
X300300Y715650D01*
X300300Y716600D02*
X309300Y716600D01*
X309300Y717550D02*
X300300Y717550D01*
X300300Y718500D02*
X309300Y718500D01*
X309300Y719450D02*
X300300Y719450D01*
X300300Y720400D02*
X309300Y720400D01*
X309300Y721350D02*
X300300Y721350D01*
X300300Y722300D02*
X309300Y722300D01*
X309300Y723250D02*
X300300Y723250D01*
X300300Y724200D02*
X309300Y724200D01*
D10*
X454310Y593540D02*
X454310Y588560D01*
X454310Y593540D02*
X470290Y593540D01*
X470290Y588560D01*
X454310Y588560D01*
X454310Y589529D02*
X470290Y589529D01*
X470290Y590498D02*
X454310Y590498D01*
X454310Y591467D02*
X470290Y591467D01*
X470290Y592436D02*
X454310Y592436D01*
X454310Y593405D02*
X470290Y593405D01*
D11*
X481300Y667550D02*
X507300Y667550D01*
X481300Y667550D02*
X481300Y676550D01*
X507300Y676550D01*
X507300Y667550D01*
X507300Y668500D02*
X481300Y668500D01*
X481300Y669450D02*
X507300Y669450D01*
X507300Y670400D02*
X481300Y670400D01*
X481300Y671350D02*
X507300Y671350D01*
X507300Y672300D02*
X481300Y672300D01*
X481300Y673250D02*
X507300Y673250D01*
X507300Y674200D02*
X481300Y674200D01*
X481300Y675150D02*
X507300Y675150D01*
X507300Y676100D02*
X481300Y676100D01*
X481300Y568050D02*
X507300Y568050D01*
X481300Y568050D02*
X481300Y577050D01*
X507300Y577050D01*
X507300Y568050D01*
X507300Y569000D02*
X481300Y569000D01*
X481300Y569950D02*
X507300Y569950D01*
X507300Y570900D02*
X481300Y570900D01*
X481300Y571850D02*
X507300Y571850D01*
X507300Y572800D02*
X481300Y572800D01*
X481300Y573750D02*
X507300Y573750D01*
X507300Y574700D02*
X481300Y574700D01*
X481300Y575650D02*
X507300Y575650D01*
X507300Y576600D02*
X481300Y576600D01*
D10*
X454310Y601060D02*
X454310Y606040D01*
X470290Y606040D01*
X470290Y601060D01*
X454310Y601060D01*
X454310Y602029D02*
X470290Y602029D01*
X470290Y602998D02*
X454310Y602998D01*
X454310Y603967D02*
X470290Y603967D01*
X470290Y604936D02*
X454310Y604936D01*
X454310Y605905D02*
X470290Y605905D01*
X454310Y613560D02*
X454310Y618540D01*
X470290Y618540D01*
X470290Y613560D01*
X454310Y613560D01*
X454310Y614529D02*
X470290Y614529D01*
X470290Y615498D02*
X454310Y615498D01*
X454310Y616467D02*
X470290Y616467D01*
X470290Y617436D02*
X454310Y617436D01*
X454310Y618405D02*
X470290Y618405D01*
X454310Y626060D02*
X454310Y631040D01*
X470290Y631040D01*
X470290Y626060D01*
X454310Y626060D01*
X454310Y627029D02*
X470290Y627029D01*
X470290Y627998D02*
X454310Y627998D01*
X454310Y628967D02*
X470290Y628967D01*
X470290Y629936D02*
X454310Y629936D01*
X454310Y630905D02*
X470290Y630905D01*
X454310Y638560D02*
X454310Y643540D01*
X470290Y643540D01*
X470290Y638560D01*
X454310Y638560D01*
X454310Y639529D02*
X470290Y639529D01*
X470290Y640498D02*
X454310Y640498D01*
X454310Y641467D02*
X470290Y641467D01*
X470290Y642436D02*
X454310Y642436D01*
X454310Y643405D02*
X470290Y643405D01*
X454310Y651060D02*
X454310Y656040D01*
X470290Y656040D01*
X470290Y651060D01*
X454310Y651060D01*
X454310Y652029D02*
X470290Y652029D01*
X470290Y652998D02*
X454310Y652998D01*
X454310Y653967D02*
X470290Y653967D01*
X470290Y654936D02*
X454310Y654936D01*
X454310Y655905D02*
X470290Y655905D01*
X454310Y466540D02*
X454310Y461560D01*
X454310Y466540D02*
X470290Y466540D01*
X470290Y461560D01*
X454310Y461560D01*
X454310Y462529D02*
X470290Y462529D01*
X470290Y463498D02*
X454310Y463498D01*
X454310Y464467D02*
X470290Y464467D01*
X470290Y465436D02*
X454310Y465436D01*
X454310Y466405D02*
X470290Y466405D01*
D11*
X481300Y540550D02*
X507300Y540550D01*
X481300Y540550D02*
X481300Y549550D01*
X507300Y549550D01*
X507300Y540550D01*
X507300Y541500D02*
X481300Y541500D01*
X481300Y542450D02*
X507300Y542450D01*
X507300Y543400D02*
X481300Y543400D01*
X481300Y544350D02*
X507300Y544350D01*
X507300Y545300D02*
X481300Y545300D01*
X481300Y546250D02*
X507300Y546250D01*
X507300Y547200D02*
X481300Y547200D01*
X481300Y548150D02*
X507300Y548150D01*
X507300Y549100D02*
X481300Y549100D01*
X481300Y441050D02*
X507300Y441050D01*
X481300Y441050D02*
X481300Y450050D01*
X507300Y450050D01*
X507300Y441050D01*
X507300Y442000D02*
X481300Y442000D01*
X481300Y442950D02*
X507300Y442950D01*
X507300Y443900D02*
X481300Y443900D01*
X481300Y444850D02*
X507300Y444850D01*
X507300Y445800D02*
X481300Y445800D01*
X481300Y446750D02*
X507300Y446750D01*
X507300Y447700D02*
X481300Y447700D01*
X481300Y448650D02*
X507300Y448650D01*
X507300Y449600D02*
X481300Y449600D01*
D10*
X454310Y474060D02*
X454310Y479040D01*
X470290Y479040D01*
X470290Y474060D01*
X454310Y474060D01*
X454310Y475029D02*
X470290Y475029D01*
X470290Y475998D02*
X454310Y475998D01*
X454310Y476967D02*
X470290Y476967D01*
X470290Y477936D02*
X454310Y477936D01*
X454310Y478905D02*
X470290Y478905D01*
X454310Y486560D02*
X454310Y491540D01*
X470290Y491540D01*
X470290Y486560D01*
X454310Y486560D01*
X454310Y487529D02*
X470290Y487529D01*
X470290Y488498D02*
X454310Y488498D01*
X454310Y489467D02*
X470290Y489467D01*
X470290Y490436D02*
X454310Y490436D01*
X454310Y491405D02*
X470290Y491405D01*
X454310Y499060D02*
X454310Y504040D01*
X470290Y504040D01*
X470290Y499060D01*
X454310Y499060D01*
X454310Y500029D02*
X470290Y500029D01*
X470290Y500998D02*
X454310Y500998D01*
X454310Y501967D02*
X470290Y501967D01*
X470290Y502936D02*
X454310Y502936D01*
X454310Y503905D02*
X470290Y503905D01*
X454310Y511560D02*
X454310Y516540D01*
X470290Y516540D01*
X470290Y511560D01*
X454310Y511560D01*
X454310Y512529D02*
X470290Y512529D01*
X470290Y513498D02*
X454310Y513498D01*
X454310Y514467D02*
X470290Y514467D01*
X470290Y515436D02*
X454310Y515436D01*
X454310Y516405D02*
X470290Y516405D01*
X454310Y524060D02*
X454310Y529040D01*
X470290Y529040D01*
X470290Y524060D01*
X454310Y524060D01*
X454310Y525029D02*
X470290Y525029D01*
X470290Y525998D02*
X454310Y525998D01*
X454310Y526967D02*
X470290Y526967D01*
X470290Y527936D02*
X454310Y527936D01*
X454310Y528905D02*
X470290Y528905D01*
D11*
X283900Y697700D02*
X283900Y707700D01*
X283900Y697700D02*
X274900Y697700D01*
X274900Y707700D01*
X283900Y707700D01*
X283900Y698650D02*
X274900Y698650D01*
X274900Y699600D02*
X283900Y699600D01*
X283900Y700550D02*
X274900Y700550D01*
X274900Y701500D02*
X283900Y701500D01*
X283900Y702450D02*
X274900Y702450D01*
X274900Y703400D02*
X283900Y703400D01*
X283900Y704350D02*
X274900Y704350D01*
X274900Y705300D02*
X283900Y705300D01*
X283900Y706250D02*
X274900Y706250D01*
X274900Y707200D02*
X283900Y707200D01*
X283900Y714700D02*
X283900Y724700D01*
X283900Y714700D02*
X274900Y714700D01*
X274900Y724700D01*
X283900Y724700D01*
X283900Y715650D02*
X274900Y715650D01*
X274900Y716600D02*
X283900Y716600D01*
X283900Y717550D02*
X274900Y717550D01*
X274900Y718500D02*
X283900Y718500D01*
X283900Y719450D02*
X274900Y719450D01*
X274900Y720400D02*
X283900Y720400D01*
X283900Y721350D02*
X274900Y721350D01*
X274900Y722300D02*
X283900Y722300D01*
X283900Y723250D02*
X274900Y723250D01*
X274900Y724200D02*
X283900Y724200D01*
X274900Y597700D02*
X274900Y587700D01*
X274900Y597700D02*
X283900Y597700D01*
X283900Y587700D01*
X274900Y587700D01*
X274900Y588650D02*
X283900Y588650D01*
X283900Y589600D02*
X274900Y589600D01*
X274900Y590550D02*
X283900Y590550D01*
X283900Y591500D02*
X274900Y591500D01*
X274900Y592450D02*
X283900Y592450D01*
X283900Y593400D02*
X274900Y593400D01*
X274900Y594350D02*
X283900Y594350D01*
X283900Y595300D02*
X274900Y595300D01*
X274900Y596250D02*
X283900Y596250D01*
X283900Y597200D02*
X274900Y597200D01*
X274900Y580700D02*
X274900Y570700D01*
X274900Y580700D02*
X283900Y580700D01*
X283900Y570700D01*
X274900Y570700D01*
X274900Y571650D02*
X283900Y571650D01*
X283900Y572600D02*
X274900Y572600D01*
X274900Y573550D02*
X283900Y573550D01*
X283900Y574500D02*
X274900Y574500D01*
X274900Y575450D02*
X283900Y575450D01*
X283900Y576400D02*
X274900Y576400D01*
X274900Y577350D02*
X283900Y577350D01*
X283900Y578300D02*
X274900Y578300D01*
X274900Y579250D02*
X283900Y579250D01*
X283900Y580200D02*
X274900Y580200D01*
X300300Y587700D02*
X300300Y597700D01*
X309300Y597700D01*
X309300Y587700D01*
X300300Y587700D01*
X300300Y588650D02*
X309300Y588650D01*
X309300Y589600D02*
X300300Y589600D01*
X300300Y590550D02*
X309300Y590550D01*
X309300Y591500D02*
X300300Y591500D01*
X300300Y592450D02*
X309300Y592450D01*
X309300Y593400D02*
X300300Y593400D01*
X300300Y594350D02*
X309300Y594350D01*
X309300Y595300D02*
X300300Y595300D01*
X300300Y596250D02*
X309300Y596250D01*
X309300Y597200D02*
X300300Y597200D01*
X300300Y580700D02*
X300300Y570700D01*
X300300Y580700D02*
X309300Y580700D01*
X309300Y570700D01*
X300300Y570700D01*
X300300Y571650D02*
X309300Y571650D01*
X309300Y572600D02*
X300300Y572600D01*
X300300Y573550D02*
X309300Y573550D01*
X309300Y574500D02*
X300300Y574500D01*
X300300Y575450D02*
X309300Y575450D01*
X309300Y576400D02*
X300300Y576400D01*
X300300Y577350D02*
X309300Y577350D01*
X309300Y578300D02*
X300300Y578300D01*
X300300Y579250D02*
X309300Y579250D01*
X309300Y580200D02*
X300300Y580200D01*
X325700Y587700D02*
X325700Y597700D01*
X334700Y597700D01*
X334700Y587700D01*
X325700Y587700D01*
X325700Y588650D02*
X334700Y588650D01*
X334700Y589600D02*
X325700Y589600D01*
X325700Y590550D02*
X334700Y590550D01*
X334700Y591500D02*
X325700Y591500D01*
X325700Y592450D02*
X334700Y592450D01*
X334700Y593400D02*
X325700Y593400D01*
X325700Y594350D02*
X334700Y594350D01*
X334700Y595300D02*
X325700Y595300D01*
X325700Y596250D02*
X334700Y596250D01*
X334700Y597200D02*
X325700Y597200D01*
X325700Y580700D02*
X325700Y570700D01*
X325700Y580700D02*
X334700Y580700D01*
X334700Y570700D01*
X325700Y570700D01*
X325700Y571650D02*
X334700Y571650D01*
X334700Y572600D02*
X325700Y572600D01*
X325700Y573550D02*
X334700Y573550D01*
X334700Y574500D02*
X325700Y574500D01*
X325700Y575450D02*
X334700Y575450D01*
X334700Y576400D02*
X325700Y576400D01*
X325700Y577350D02*
X334700Y577350D01*
X334700Y578300D02*
X325700Y578300D01*
X325700Y579250D02*
X334700Y579250D01*
X334700Y580200D02*
X325700Y580200D01*
X351100Y587700D02*
X351100Y597700D01*
X360100Y597700D01*
X360100Y587700D01*
X351100Y587700D01*
X351100Y588650D02*
X360100Y588650D01*
X360100Y589600D02*
X351100Y589600D01*
X351100Y590550D02*
X360100Y590550D01*
X360100Y591500D02*
X351100Y591500D01*
X351100Y592450D02*
X360100Y592450D01*
X360100Y593400D02*
X351100Y593400D01*
X351100Y594350D02*
X360100Y594350D01*
X360100Y595300D02*
X351100Y595300D01*
X351100Y596250D02*
X360100Y596250D01*
X360100Y597200D02*
X351100Y597200D01*
X351100Y580700D02*
X351100Y570700D01*
X351100Y580700D02*
X360100Y580700D01*
X360100Y570700D01*
X351100Y570700D01*
X351100Y571650D02*
X360100Y571650D01*
X360100Y572600D02*
X351100Y572600D01*
X351100Y573550D02*
X360100Y573550D01*
X360100Y574500D02*
X351100Y574500D01*
X351100Y575450D02*
X360100Y575450D01*
X360100Y576400D02*
X351100Y576400D01*
X351100Y577350D02*
X360100Y577350D01*
X360100Y578300D02*
X351100Y578300D01*
X351100Y579250D02*
X360100Y579250D01*
X360100Y580200D02*
X351100Y580200D01*
D10*
X359460Y338290D02*
X364440Y338290D01*
X364440Y327310D01*
X359460Y327310D01*
X359460Y338290D01*
X359460Y328279D02*
X364440Y328279D01*
X364440Y329248D02*
X359460Y329248D01*
X359460Y330217D02*
X364440Y330217D01*
X364440Y331186D02*
X359460Y331186D01*
X359460Y332155D02*
X364440Y332155D01*
X364440Y333124D02*
X359460Y333124D01*
X359460Y334093D02*
X364440Y334093D01*
X364440Y335062D02*
X359460Y335062D01*
X359460Y336031D02*
X364440Y336031D01*
X364440Y337000D02*
X359460Y337000D01*
X359460Y337969D02*
X364440Y337969D01*
X351740Y338290D02*
X346760Y338290D01*
X351740Y338290D02*
X351740Y327310D01*
X346760Y327310D01*
X346760Y338290D01*
X346760Y328279D02*
X351740Y328279D01*
X351740Y329248D02*
X346760Y329248D01*
X346760Y330217D02*
X351740Y330217D01*
X351740Y331186D02*
X346760Y331186D01*
X346760Y332155D02*
X351740Y332155D01*
X351740Y333124D02*
X346760Y333124D01*
X346760Y334093D02*
X351740Y334093D01*
X351740Y335062D02*
X346760Y335062D01*
X346760Y336031D02*
X351740Y336031D01*
X351740Y337000D02*
X346760Y337000D01*
X346760Y337969D02*
X351740Y337969D01*
X339040Y338290D02*
X334060Y338290D01*
X339040Y338290D02*
X339040Y327310D01*
X334060Y327310D01*
X334060Y338290D01*
X334060Y328279D02*
X339040Y328279D01*
X339040Y329248D02*
X334060Y329248D01*
X334060Y330217D02*
X339040Y330217D01*
X339040Y331186D02*
X334060Y331186D01*
X334060Y332155D02*
X339040Y332155D01*
X339040Y333124D02*
X334060Y333124D01*
X334060Y334093D02*
X339040Y334093D01*
X339040Y335062D02*
X334060Y335062D01*
X334060Y336031D02*
X339040Y336031D01*
X339040Y337000D02*
X334060Y337000D01*
X334060Y337969D02*
X339040Y337969D01*
X326340Y338290D02*
X321360Y338290D01*
X326340Y338290D02*
X326340Y327310D01*
X321360Y327310D01*
X321360Y338290D01*
X321360Y328279D02*
X326340Y328279D01*
X326340Y329248D02*
X321360Y329248D01*
X321360Y330217D02*
X326340Y330217D01*
X326340Y331186D02*
X321360Y331186D01*
X321360Y332155D02*
X326340Y332155D01*
X326340Y333124D02*
X321360Y333124D01*
X321360Y334093D02*
X326340Y334093D01*
X326340Y335062D02*
X321360Y335062D01*
X321360Y336031D02*
X326340Y336031D01*
X326340Y337000D02*
X321360Y337000D01*
X321360Y337969D02*
X326340Y337969D01*
X313640Y338290D02*
X308660Y338290D01*
X313640Y338290D02*
X313640Y327310D01*
X308660Y327310D01*
X308660Y338290D01*
X308660Y328279D02*
X313640Y328279D01*
X313640Y329248D02*
X308660Y329248D01*
X308660Y330217D02*
X313640Y330217D01*
X313640Y331186D02*
X308660Y331186D01*
X308660Y332155D02*
X313640Y332155D01*
X313640Y333124D02*
X308660Y333124D01*
X308660Y334093D02*
X313640Y334093D01*
X313640Y335062D02*
X308660Y335062D01*
X308660Y336031D02*
X313640Y336031D01*
X313640Y337000D02*
X308660Y337000D01*
X308660Y337969D02*
X313640Y337969D01*
X300940Y338290D02*
X295960Y338290D01*
X300940Y338290D02*
X300940Y327310D01*
X295960Y327310D01*
X295960Y338290D01*
X295960Y328279D02*
X300940Y328279D01*
X300940Y329248D02*
X295960Y329248D01*
X295960Y330217D02*
X300940Y330217D01*
X300940Y331186D02*
X295960Y331186D01*
X295960Y332155D02*
X300940Y332155D01*
X300940Y333124D02*
X295960Y333124D01*
X295960Y334093D02*
X300940Y334093D01*
X300940Y335062D02*
X295960Y335062D01*
X295960Y336031D02*
X300940Y336031D01*
X300940Y337000D02*
X295960Y337000D01*
X295960Y337969D02*
X300940Y337969D01*
X288240Y338290D02*
X283260Y338290D01*
X288240Y338290D02*
X288240Y327310D01*
X283260Y327310D01*
X283260Y338290D01*
X283260Y328279D02*
X288240Y328279D01*
X288240Y329248D02*
X283260Y329248D01*
X283260Y330217D02*
X288240Y330217D01*
X288240Y331186D02*
X283260Y331186D01*
X283260Y332155D02*
X288240Y332155D01*
X288240Y333124D02*
X283260Y333124D01*
X283260Y334093D02*
X288240Y334093D01*
X288240Y335062D02*
X283260Y335062D01*
X283260Y336031D02*
X288240Y336031D01*
X288240Y337000D02*
X283260Y337000D01*
X283260Y337969D02*
X288240Y337969D01*
X275540Y338290D02*
X270560Y338290D01*
X275540Y338290D02*
X275540Y327310D01*
X270560Y327310D01*
X270560Y338290D01*
X270560Y328279D02*
X275540Y328279D01*
X275540Y329248D02*
X270560Y329248D01*
X270560Y330217D02*
X275540Y330217D01*
X275540Y331186D02*
X270560Y331186D01*
X270560Y332155D02*
X275540Y332155D01*
X275540Y333124D02*
X270560Y333124D01*
X270560Y334093D02*
X275540Y334093D01*
X275540Y335062D02*
X270560Y335062D01*
X270560Y336031D02*
X275540Y336031D01*
X275540Y337000D02*
X270560Y337000D01*
X270560Y337969D02*
X275540Y337969D01*
X275540Y282290D02*
X270560Y282290D01*
X275540Y282290D02*
X275540Y271310D01*
X270560Y271310D01*
X270560Y282290D01*
X270560Y272279D02*
X275540Y272279D01*
X275540Y273248D02*
X270560Y273248D01*
X270560Y274217D02*
X275540Y274217D01*
X275540Y275186D02*
X270560Y275186D01*
X270560Y276155D02*
X275540Y276155D01*
X275540Y277124D02*
X270560Y277124D01*
X270560Y278093D02*
X275540Y278093D01*
X275540Y279062D02*
X270560Y279062D01*
X270560Y280031D02*
X275540Y280031D01*
X275540Y281000D02*
X270560Y281000D01*
X270560Y281969D02*
X275540Y281969D01*
X283260Y282290D02*
X288240Y282290D01*
X288240Y271310D01*
X283260Y271310D01*
X283260Y282290D01*
X283260Y272279D02*
X288240Y272279D01*
X288240Y273248D02*
X283260Y273248D01*
X283260Y274217D02*
X288240Y274217D01*
X288240Y275186D02*
X283260Y275186D01*
X283260Y276155D02*
X288240Y276155D01*
X288240Y277124D02*
X283260Y277124D01*
X283260Y278093D02*
X288240Y278093D01*
X288240Y279062D02*
X283260Y279062D01*
X283260Y280031D02*
X288240Y280031D01*
X288240Y281000D02*
X283260Y281000D01*
X283260Y281969D02*
X288240Y281969D01*
X295960Y282290D02*
X300940Y282290D01*
X300940Y271310D01*
X295960Y271310D01*
X295960Y282290D01*
X295960Y272279D02*
X300940Y272279D01*
X300940Y273248D02*
X295960Y273248D01*
X295960Y274217D02*
X300940Y274217D01*
X300940Y275186D02*
X295960Y275186D01*
X295960Y276155D02*
X300940Y276155D01*
X300940Y277124D02*
X295960Y277124D01*
X295960Y278093D02*
X300940Y278093D01*
X300940Y279062D02*
X295960Y279062D01*
X295960Y280031D02*
X300940Y280031D01*
X300940Y281000D02*
X295960Y281000D01*
X295960Y281969D02*
X300940Y281969D01*
X308660Y282290D02*
X313640Y282290D01*
X313640Y271310D01*
X308660Y271310D01*
X308660Y282290D01*
X308660Y272279D02*
X313640Y272279D01*
X313640Y273248D02*
X308660Y273248D01*
X308660Y274217D02*
X313640Y274217D01*
X313640Y275186D02*
X308660Y275186D01*
X308660Y276155D02*
X313640Y276155D01*
X313640Y277124D02*
X308660Y277124D01*
X308660Y278093D02*
X313640Y278093D01*
X313640Y279062D02*
X308660Y279062D01*
X308660Y280031D02*
X313640Y280031D01*
X313640Y281000D02*
X308660Y281000D01*
X308660Y281969D02*
X313640Y281969D01*
X321360Y282290D02*
X326340Y282290D01*
X326340Y271310D01*
X321360Y271310D01*
X321360Y282290D01*
X321360Y272279D02*
X326340Y272279D01*
X326340Y273248D02*
X321360Y273248D01*
X321360Y274217D02*
X326340Y274217D01*
X326340Y275186D02*
X321360Y275186D01*
X321360Y276155D02*
X326340Y276155D01*
X326340Y277124D02*
X321360Y277124D01*
X321360Y278093D02*
X326340Y278093D01*
X326340Y279062D02*
X321360Y279062D01*
X321360Y280031D02*
X326340Y280031D01*
X326340Y281000D02*
X321360Y281000D01*
X321360Y281969D02*
X326340Y281969D01*
X334060Y282290D02*
X339040Y282290D01*
X339040Y271310D01*
X334060Y271310D01*
X334060Y282290D01*
X334060Y272279D02*
X339040Y272279D01*
X339040Y273248D02*
X334060Y273248D01*
X334060Y274217D02*
X339040Y274217D01*
X339040Y275186D02*
X334060Y275186D01*
X334060Y276155D02*
X339040Y276155D01*
X339040Y277124D02*
X334060Y277124D01*
X334060Y278093D02*
X339040Y278093D01*
X339040Y279062D02*
X334060Y279062D01*
X334060Y280031D02*
X339040Y280031D01*
X339040Y281000D02*
X334060Y281000D01*
X334060Y281969D02*
X339040Y281969D01*
X346760Y282290D02*
X351740Y282290D01*
X351740Y271310D01*
X346760Y271310D01*
X346760Y282290D01*
X346760Y272279D02*
X351740Y272279D01*
X351740Y273248D02*
X346760Y273248D01*
X346760Y274217D02*
X351740Y274217D01*
X351740Y275186D02*
X346760Y275186D01*
X346760Y276155D02*
X351740Y276155D01*
X351740Y277124D02*
X346760Y277124D01*
X346760Y278093D02*
X351740Y278093D01*
X351740Y279062D02*
X346760Y279062D01*
X346760Y280031D02*
X351740Y280031D01*
X351740Y281000D02*
X346760Y281000D01*
X346760Y281969D02*
X351740Y281969D01*
X359460Y282290D02*
X364440Y282290D01*
X364440Y271310D01*
X359460Y271310D01*
X359460Y282290D01*
X359460Y272279D02*
X364440Y272279D01*
X364440Y273248D02*
X359460Y273248D01*
X359460Y274217D02*
X364440Y274217D01*
X364440Y275186D02*
X359460Y275186D01*
X359460Y276155D02*
X364440Y276155D01*
X364440Y277124D02*
X359460Y277124D01*
X359460Y278093D02*
X364440Y278093D01*
X364440Y279062D02*
X359460Y279062D01*
X359460Y280031D02*
X364440Y280031D01*
X364440Y281000D02*
X359460Y281000D01*
X359460Y281969D02*
X364440Y281969D01*
D11*
X389200Y308300D02*
X389200Y318300D01*
X398200Y318300D01*
X398200Y308300D01*
X389200Y308300D01*
X389200Y309250D02*
X398200Y309250D01*
X398200Y310200D02*
X389200Y310200D01*
X389200Y311150D02*
X398200Y311150D01*
X398200Y312100D02*
X389200Y312100D01*
X389200Y313050D02*
X398200Y313050D01*
X398200Y314000D02*
X389200Y314000D01*
X389200Y314950D02*
X398200Y314950D01*
X398200Y315900D02*
X389200Y315900D01*
X389200Y316850D02*
X398200Y316850D01*
X398200Y317800D02*
X389200Y317800D01*
X389200Y301300D02*
X389200Y291300D01*
X389200Y301300D02*
X398200Y301300D01*
X398200Y291300D01*
X389200Y291300D01*
X389200Y292250D02*
X398200Y292250D01*
X398200Y293200D02*
X389200Y293200D01*
X389200Y294150D02*
X398200Y294150D01*
X398200Y295100D02*
X389200Y295100D01*
X389200Y296050D02*
X398200Y296050D01*
X398200Y297000D02*
X389200Y297000D01*
X389200Y297950D02*
X398200Y297950D01*
X398200Y298900D02*
X389200Y298900D01*
X389200Y299850D02*
X398200Y299850D01*
X398200Y300800D02*
X389200Y300800D01*
X360100Y354800D02*
X360100Y364800D01*
X360100Y354800D02*
X351100Y354800D01*
X351100Y364800D01*
X360100Y364800D01*
X360100Y355750D02*
X351100Y355750D01*
X351100Y356700D02*
X360100Y356700D01*
X360100Y357650D02*
X351100Y357650D01*
X351100Y358600D02*
X360100Y358600D01*
X360100Y359550D02*
X351100Y359550D01*
X351100Y360500D02*
X360100Y360500D01*
X360100Y361450D02*
X351100Y361450D01*
X351100Y362400D02*
X360100Y362400D01*
X360100Y363350D02*
X351100Y363350D01*
X351100Y364300D02*
X360100Y364300D01*
X360100Y371800D02*
X360100Y381800D01*
X360100Y371800D02*
X351100Y371800D01*
X351100Y381800D01*
X360100Y381800D01*
X360100Y372750D02*
X351100Y372750D01*
X351100Y373700D02*
X360100Y373700D01*
X360100Y374650D02*
X351100Y374650D01*
X351100Y375600D02*
X360100Y375600D01*
X360100Y376550D02*
X351100Y376550D01*
X351100Y377500D02*
X360100Y377500D01*
X360100Y378450D02*
X351100Y378450D01*
X351100Y379400D02*
X360100Y379400D01*
X360100Y380350D02*
X351100Y380350D01*
X351100Y381300D02*
X360100Y381300D01*
X334700Y364800D02*
X334700Y354800D01*
X325700Y354800D01*
X325700Y364800D01*
X334700Y364800D01*
X334700Y355750D02*
X325700Y355750D01*
X325700Y356700D02*
X334700Y356700D01*
X334700Y357650D02*
X325700Y357650D01*
X325700Y358600D02*
X334700Y358600D01*
X334700Y359550D02*
X325700Y359550D01*
X325700Y360500D02*
X334700Y360500D01*
X334700Y361450D02*
X325700Y361450D01*
X325700Y362400D02*
X334700Y362400D01*
X334700Y363350D02*
X325700Y363350D01*
X325700Y364300D02*
X334700Y364300D01*
X334700Y371800D02*
X334700Y381800D01*
X334700Y371800D02*
X325700Y371800D01*
X325700Y381800D01*
X334700Y381800D01*
X334700Y372750D02*
X325700Y372750D01*
X325700Y373700D02*
X334700Y373700D01*
X334700Y374650D02*
X325700Y374650D01*
X325700Y375600D02*
X334700Y375600D01*
X334700Y376550D02*
X325700Y376550D01*
X325700Y377500D02*
X334700Y377500D01*
X334700Y378450D02*
X325700Y378450D01*
X325700Y379400D02*
X334700Y379400D01*
X334700Y380350D02*
X325700Y380350D01*
X325700Y381300D02*
X334700Y381300D01*
X309300Y364800D02*
X309300Y354800D01*
X300300Y354800D01*
X300300Y364800D01*
X309300Y364800D01*
X309300Y355750D02*
X300300Y355750D01*
X300300Y356700D02*
X309300Y356700D01*
X309300Y357650D02*
X300300Y357650D01*
X300300Y358600D02*
X309300Y358600D01*
X309300Y359550D02*
X300300Y359550D01*
X300300Y360500D02*
X309300Y360500D01*
X309300Y361450D02*
X300300Y361450D01*
X300300Y362400D02*
X309300Y362400D01*
X309300Y363350D02*
X300300Y363350D01*
X300300Y364300D02*
X309300Y364300D01*
X309300Y371800D02*
X309300Y381800D01*
X309300Y371800D02*
X300300Y371800D01*
X300300Y381800D01*
X309300Y381800D01*
X309300Y372750D02*
X300300Y372750D01*
X300300Y373700D02*
X309300Y373700D01*
X309300Y374650D02*
X300300Y374650D01*
X300300Y375600D02*
X309300Y375600D01*
X309300Y376550D02*
X300300Y376550D01*
X300300Y377500D02*
X309300Y377500D01*
X309300Y378450D02*
X300300Y378450D01*
X300300Y379400D02*
X309300Y379400D01*
X309300Y380350D02*
X300300Y380350D01*
X300300Y381300D02*
X309300Y381300D01*
X283900Y364800D02*
X283900Y354800D01*
X274900Y354800D01*
X274900Y364800D01*
X283900Y364800D01*
X283900Y355750D02*
X274900Y355750D01*
X274900Y356700D02*
X283900Y356700D01*
X283900Y357650D02*
X274900Y357650D01*
X274900Y358600D02*
X283900Y358600D01*
X283900Y359550D02*
X274900Y359550D01*
X274900Y360500D02*
X283900Y360500D01*
X283900Y361450D02*
X274900Y361450D01*
X274900Y362400D02*
X283900Y362400D01*
X283900Y363350D02*
X274900Y363350D01*
X274900Y364300D02*
X283900Y364300D01*
X283900Y371800D02*
X283900Y381800D01*
X283900Y371800D02*
X274900Y371800D01*
X274900Y381800D01*
X283900Y381800D01*
X283900Y372750D02*
X274900Y372750D01*
X274900Y373700D02*
X283900Y373700D01*
X283900Y374650D02*
X274900Y374650D01*
X274900Y375600D02*
X283900Y375600D01*
X283900Y376550D02*
X274900Y376550D01*
X274900Y377500D02*
X283900Y377500D01*
X283900Y378450D02*
X274900Y378450D01*
X274900Y379400D02*
X283900Y379400D01*
X283900Y380350D02*
X274900Y380350D01*
X274900Y381300D02*
X283900Y381300D01*
X274900Y254800D02*
X274900Y244800D01*
X274900Y254800D02*
X283900Y254800D01*
X283900Y244800D01*
X274900Y244800D01*
X274900Y245750D02*
X283900Y245750D01*
X283900Y246700D02*
X274900Y246700D01*
X274900Y247650D02*
X283900Y247650D01*
X283900Y248600D02*
X274900Y248600D01*
X274900Y249550D02*
X283900Y249550D01*
X283900Y250500D02*
X274900Y250500D01*
X274900Y251450D02*
X283900Y251450D01*
X283900Y252400D02*
X274900Y252400D01*
X274900Y253350D02*
X283900Y253350D01*
X283900Y254300D02*
X274900Y254300D01*
X274900Y237800D02*
X274900Y227800D01*
X274900Y237800D02*
X283900Y237800D01*
X283900Y227800D01*
X274900Y227800D01*
X274900Y228750D02*
X283900Y228750D01*
X283900Y229700D02*
X274900Y229700D01*
X274900Y230650D02*
X283900Y230650D01*
X283900Y231600D02*
X274900Y231600D01*
X274900Y232550D02*
X283900Y232550D01*
X283900Y233500D02*
X274900Y233500D01*
X274900Y234450D02*
X283900Y234450D01*
X283900Y235400D02*
X274900Y235400D01*
X274900Y236350D02*
X283900Y236350D01*
X283900Y237300D02*
X274900Y237300D01*
X300300Y244800D02*
X300300Y254800D01*
X309300Y254800D01*
X309300Y244800D01*
X300300Y244800D01*
X300300Y245750D02*
X309300Y245750D01*
X309300Y246700D02*
X300300Y246700D01*
X300300Y247650D02*
X309300Y247650D01*
X309300Y248600D02*
X300300Y248600D01*
X300300Y249550D02*
X309300Y249550D01*
X309300Y250500D02*
X300300Y250500D01*
X300300Y251450D02*
X309300Y251450D01*
X309300Y252400D02*
X300300Y252400D01*
X300300Y253350D02*
X309300Y253350D01*
X309300Y254300D02*
X300300Y254300D01*
X300300Y237800D02*
X300300Y227800D01*
X300300Y237800D02*
X309300Y237800D01*
X309300Y227800D01*
X300300Y227800D01*
X300300Y228750D02*
X309300Y228750D01*
X309300Y229700D02*
X300300Y229700D01*
X300300Y230650D02*
X309300Y230650D01*
X309300Y231600D02*
X300300Y231600D01*
X300300Y232550D02*
X309300Y232550D01*
X309300Y233500D02*
X300300Y233500D01*
X300300Y234450D02*
X309300Y234450D01*
X309300Y235400D02*
X300300Y235400D01*
X300300Y236350D02*
X309300Y236350D01*
X309300Y237300D02*
X300300Y237300D01*
X325700Y244800D02*
X325700Y254800D01*
X334700Y254800D01*
X334700Y244800D01*
X325700Y244800D01*
X325700Y245750D02*
X334700Y245750D01*
X334700Y246700D02*
X325700Y246700D01*
X325700Y247650D02*
X334700Y247650D01*
X334700Y248600D02*
X325700Y248600D01*
X325700Y249550D02*
X334700Y249550D01*
X334700Y250500D02*
X325700Y250500D01*
X325700Y251450D02*
X334700Y251450D01*
X334700Y252400D02*
X325700Y252400D01*
X325700Y253350D02*
X334700Y253350D01*
X334700Y254300D02*
X325700Y254300D01*
X325700Y237800D02*
X325700Y227800D01*
X325700Y237800D02*
X334700Y237800D01*
X334700Y227800D01*
X325700Y227800D01*
X325700Y228750D02*
X334700Y228750D01*
X334700Y229700D02*
X325700Y229700D01*
X325700Y230650D02*
X334700Y230650D01*
X334700Y231600D02*
X325700Y231600D01*
X325700Y232550D02*
X334700Y232550D01*
X334700Y233500D02*
X325700Y233500D01*
X325700Y234450D02*
X334700Y234450D01*
X334700Y235400D02*
X325700Y235400D01*
X325700Y236350D02*
X334700Y236350D01*
X334700Y237300D02*
X325700Y237300D01*
X351100Y244800D02*
X351100Y254800D01*
X360100Y254800D01*
X360100Y244800D01*
X351100Y244800D01*
X351100Y245750D02*
X360100Y245750D01*
X360100Y246700D02*
X351100Y246700D01*
X351100Y247650D02*
X360100Y247650D01*
X360100Y248600D02*
X351100Y248600D01*
X351100Y249550D02*
X360100Y249550D01*
X360100Y250500D02*
X351100Y250500D01*
X351100Y251450D02*
X360100Y251450D01*
X360100Y252400D02*
X351100Y252400D01*
X351100Y253350D02*
X360100Y253350D01*
X360100Y254300D02*
X351100Y254300D01*
X351100Y237800D02*
X351100Y227800D01*
X351100Y237800D02*
X360100Y237800D01*
X360100Y227800D01*
X351100Y227800D01*
X351100Y228750D02*
X360100Y228750D01*
X360100Y229700D02*
X351100Y229700D01*
X351100Y230650D02*
X360100Y230650D01*
X360100Y231600D02*
X351100Y231600D01*
X351100Y232550D02*
X360100Y232550D01*
X360100Y233500D02*
X351100Y233500D01*
X351100Y234450D02*
X360100Y234450D01*
X360100Y235400D02*
X351100Y235400D01*
X351100Y236350D02*
X360100Y236350D01*
X360100Y237300D02*
X351100Y237300D01*
D10*
X199340Y871690D02*
X194360Y871690D01*
X199340Y871690D02*
X199340Y860710D01*
X194360Y860710D01*
X194360Y871690D01*
X194360Y861679D02*
X199340Y861679D01*
X199340Y862648D02*
X194360Y862648D01*
X194360Y863617D02*
X199340Y863617D01*
X199340Y864586D02*
X194360Y864586D01*
X194360Y865555D02*
X199340Y865555D01*
X199340Y866524D02*
X194360Y866524D01*
X194360Y867493D02*
X199340Y867493D01*
X199340Y868462D02*
X194360Y868462D01*
X194360Y869431D02*
X199340Y869431D01*
X199340Y870400D02*
X194360Y870400D01*
X194360Y871369D02*
X199340Y871369D01*
X186640Y871690D02*
X181660Y871690D01*
X186640Y871690D02*
X186640Y860710D01*
X181660Y860710D01*
X181660Y871690D01*
X181660Y861679D02*
X186640Y861679D01*
X186640Y862648D02*
X181660Y862648D01*
X181660Y863617D02*
X186640Y863617D01*
X186640Y864586D02*
X181660Y864586D01*
X181660Y865555D02*
X186640Y865555D01*
X186640Y866524D02*
X181660Y866524D01*
X181660Y867493D02*
X186640Y867493D01*
X186640Y868462D02*
X181660Y868462D01*
X181660Y869431D02*
X186640Y869431D01*
X186640Y870400D02*
X181660Y870400D01*
X181660Y871369D02*
X186640Y871369D01*
X173940Y871690D02*
X168960Y871690D01*
X173940Y871690D02*
X173940Y860710D01*
X168960Y860710D01*
X168960Y871690D01*
X168960Y861679D02*
X173940Y861679D01*
X173940Y862648D02*
X168960Y862648D01*
X168960Y863617D02*
X173940Y863617D01*
X173940Y864586D02*
X168960Y864586D01*
X168960Y865555D02*
X173940Y865555D01*
X173940Y866524D02*
X168960Y866524D01*
X168960Y867493D02*
X173940Y867493D01*
X173940Y868462D02*
X168960Y868462D01*
X168960Y869431D02*
X173940Y869431D01*
X173940Y870400D02*
X168960Y870400D01*
X168960Y871369D02*
X173940Y871369D01*
X161240Y871690D02*
X156260Y871690D01*
X161240Y871690D02*
X161240Y860710D01*
X156260Y860710D01*
X156260Y871690D01*
X156260Y861679D02*
X161240Y861679D01*
X161240Y862648D02*
X156260Y862648D01*
X156260Y863617D02*
X161240Y863617D01*
X161240Y864586D02*
X156260Y864586D01*
X156260Y865555D02*
X161240Y865555D01*
X161240Y866524D02*
X156260Y866524D01*
X156260Y867493D02*
X161240Y867493D01*
X161240Y868462D02*
X156260Y868462D01*
X156260Y869431D02*
X161240Y869431D01*
X161240Y870400D02*
X156260Y870400D01*
X156260Y871369D02*
X161240Y871369D01*
X148540Y871690D02*
X143560Y871690D01*
X148540Y871690D02*
X148540Y860710D01*
X143560Y860710D01*
X143560Y871690D01*
X143560Y861679D02*
X148540Y861679D01*
X148540Y862648D02*
X143560Y862648D01*
X143560Y863617D02*
X148540Y863617D01*
X148540Y864586D02*
X143560Y864586D01*
X143560Y865555D02*
X148540Y865555D01*
X148540Y866524D02*
X143560Y866524D01*
X143560Y867493D02*
X148540Y867493D01*
X148540Y868462D02*
X143560Y868462D01*
X143560Y869431D02*
X148540Y869431D01*
X148540Y870400D02*
X143560Y870400D01*
X143560Y871369D02*
X148540Y871369D01*
X135840Y871690D02*
X130860Y871690D01*
X135840Y871690D02*
X135840Y860710D01*
X130860Y860710D01*
X130860Y871690D01*
X130860Y861679D02*
X135840Y861679D01*
X135840Y862648D02*
X130860Y862648D01*
X130860Y863617D02*
X135840Y863617D01*
X135840Y864586D02*
X130860Y864586D01*
X130860Y865555D02*
X135840Y865555D01*
X135840Y866524D02*
X130860Y866524D01*
X130860Y867493D02*
X135840Y867493D01*
X135840Y868462D02*
X130860Y868462D01*
X130860Y869431D02*
X135840Y869431D01*
X135840Y870400D02*
X130860Y870400D01*
X130860Y871369D02*
X135840Y871369D01*
X123140Y871690D02*
X118160Y871690D01*
X123140Y871690D02*
X123140Y860710D01*
X118160Y860710D01*
X118160Y871690D01*
X118160Y861679D02*
X123140Y861679D01*
X123140Y862648D02*
X118160Y862648D01*
X118160Y863617D02*
X123140Y863617D01*
X123140Y864586D02*
X118160Y864586D01*
X118160Y865555D02*
X123140Y865555D01*
X123140Y866524D02*
X118160Y866524D01*
X118160Y867493D02*
X123140Y867493D01*
X123140Y868462D02*
X118160Y868462D01*
X118160Y869431D02*
X123140Y869431D01*
X123140Y870400D02*
X118160Y870400D01*
X118160Y871369D02*
X123140Y871369D01*
X110440Y871690D02*
X105460Y871690D01*
X110440Y871690D02*
X110440Y860710D01*
X105460Y860710D01*
X105460Y871690D01*
X105460Y861679D02*
X110440Y861679D01*
X110440Y862648D02*
X105460Y862648D01*
X105460Y863617D02*
X110440Y863617D01*
X110440Y864586D02*
X105460Y864586D01*
X105460Y865555D02*
X110440Y865555D01*
X110440Y866524D02*
X105460Y866524D01*
X105460Y867493D02*
X110440Y867493D01*
X110440Y868462D02*
X105460Y868462D01*
X105460Y869431D02*
X110440Y869431D01*
X110440Y870400D02*
X105460Y870400D01*
X105460Y871369D02*
X110440Y871369D01*
X110440Y815690D02*
X105460Y815690D01*
X110440Y815690D02*
X110440Y804710D01*
X105460Y804710D01*
X105460Y815690D01*
X105460Y805679D02*
X110440Y805679D01*
X110440Y806648D02*
X105460Y806648D01*
X105460Y807617D02*
X110440Y807617D01*
X110440Y808586D02*
X105460Y808586D01*
X105460Y809555D02*
X110440Y809555D01*
X110440Y810524D02*
X105460Y810524D01*
X105460Y811493D02*
X110440Y811493D01*
X110440Y812462D02*
X105460Y812462D01*
X105460Y813431D02*
X110440Y813431D01*
X110440Y814400D02*
X105460Y814400D01*
X105460Y815369D02*
X110440Y815369D01*
X118160Y815690D02*
X123140Y815690D01*
X123140Y804710D01*
X118160Y804710D01*
X118160Y815690D01*
X118160Y805679D02*
X123140Y805679D01*
X123140Y806648D02*
X118160Y806648D01*
X118160Y807617D02*
X123140Y807617D01*
X123140Y808586D02*
X118160Y808586D01*
X118160Y809555D02*
X123140Y809555D01*
X123140Y810524D02*
X118160Y810524D01*
X118160Y811493D02*
X123140Y811493D01*
X123140Y812462D02*
X118160Y812462D01*
X118160Y813431D02*
X123140Y813431D01*
X123140Y814400D02*
X118160Y814400D01*
X118160Y815369D02*
X123140Y815369D01*
X130860Y815690D02*
X135840Y815690D01*
X135840Y804710D01*
X130860Y804710D01*
X130860Y815690D01*
X130860Y805679D02*
X135840Y805679D01*
X135840Y806648D02*
X130860Y806648D01*
X130860Y807617D02*
X135840Y807617D01*
X135840Y808586D02*
X130860Y808586D01*
X130860Y809555D02*
X135840Y809555D01*
X135840Y810524D02*
X130860Y810524D01*
X130860Y811493D02*
X135840Y811493D01*
X135840Y812462D02*
X130860Y812462D01*
X130860Y813431D02*
X135840Y813431D01*
X135840Y814400D02*
X130860Y814400D01*
X130860Y815369D02*
X135840Y815369D01*
X143560Y815690D02*
X148540Y815690D01*
X148540Y804710D01*
X143560Y804710D01*
X143560Y815690D01*
X143560Y805679D02*
X148540Y805679D01*
X148540Y806648D02*
X143560Y806648D01*
X143560Y807617D02*
X148540Y807617D01*
X148540Y808586D02*
X143560Y808586D01*
X143560Y809555D02*
X148540Y809555D01*
X148540Y810524D02*
X143560Y810524D01*
X143560Y811493D02*
X148540Y811493D01*
X148540Y812462D02*
X143560Y812462D01*
X143560Y813431D02*
X148540Y813431D01*
X148540Y814400D02*
X143560Y814400D01*
X143560Y815369D02*
X148540Y815369D01*
X156260Y815690D02*
X161240Y815690D01*
X161240Y804710D01*
X156260Y804710D01*
X156260Y815690D01*
X156260Y805679D02*
X161240Y805679D01*
X161240Y806648D02*
X156260Y806648D01*
X156260Y807617D02*
X161240Y807617D01*
X161240Y808586D02*
X156260Y808586D01*
X156260Y809555D02*
X161240Y809555D01*
X161240Y810524D02*
X156260Y810524D01*
X156260Y811493D02*
X161240Y811493D01*
X161240Y812462D02*
X156260Y812462D01*
X156260Y813431D02*
X161240Y813431D01*
X161240Y814400D02*
X156260Y814400D01*
X156260Y815369D02*
X161240Y815369D01*
X168960Y815690D02*
X173940Y815690D01*
X173940Y804710D01*
X168960Y804710D01*
X168960Y815690D01*
X168960Y805679D02*
X173940Y805679D01*
X173940Y806648D02*
X168960Y806648D01*
X168960Y807617D02*
X173940Y807617D01*
X173940Y808586D02*
X168960Y808586D01*
X168960Y809555D02*
X173940Y809555D01*
X173940Y810524D02*
X168960Y810524D01*
X168960Y811493D02*
X173940Y811493D01*
X173940Y812462D02*
X168960Y812462D01*
X168960Y813431D02*
X173940Y813431D01*
X173940Y814400D02*
X168960Y814400D01*
X168960Y815369D02*
X173940Y815369D01*
X181660Y815690D02*
X186640Y815690D01*
X186640Y804710D01*
X181660Y804710D01*
X181660Y815690D01*
X181660Y805679D02*
X186640Y805679D01*
X186640Y806648D02*
X181660Y806648D01*
X181660Y807617D02*
X186640Y807617D01*
X186640Y808586D02*
X181660Y808586D01*
X181660Y809555D02*
X186640Y809555D01*
X186640Y810524D02*
X181660Y810524D01*
X181660Y811493D02*
X186640Y811493D01*
X186640Y812462D02*
X181660Y812462D01*
X181660Y813431D02*
X186640Y813431D01*
X186640Y814400D02*
X181660Y814400D01*
X181660Y815369D02*
X186640Y815369D01*
X194360Y815690D02*
X199340Y815690D01*
X199340Y804710D01*
X194360Y804710D01*
X194360Y815690D01*
X194360Y805679D02*
X199340Y805679D01*
X199340Y806648D02*
X194360Y806648D01*
X194360Y807617D02*
X199340Y807617D01*
X199340Y808586D02*
X194360Y808586D01*
X194360Y809555D02*
X199340Y809555D01*
X199340Y810524D02*
X194360Y810524D01*
X194360Y811493D02*
X199340Y811493D01*
X199340Y812462D02*
X194360Y812462D01*
X194360Y813431D02*
X199340Y813431D01*
X199340Y814400D02*
X194360Y814400D01*
X194360Y815369D02*
X199340Y815369D01*
D11*
X233100Y824700D02*
X233100Y834700D01*
X233100Y824700D02*
X224100Y824700D01*
X224100Y834700D01*
X233100Y834700D01*
X233100Y825650D02*
X224100Y825650D01*
X224100Y826600D02*
X233100Y826600D01*
X233100Y827550D02*
X224100Y827550D01*
X224100Y828500D02*
X233100Y828500D01*
X233100Y829450D02*
X224100Y829450D01*
X224100Y830400D02*
X233100Y830400D01*
X233100Y831350D02*
X224100Y831350D01*
X224100Y832300D02*
X233100Y832300D01*
X233100Y833250D02*
X224100Y833250D01*
X224100Y834200D02*
X233100Y834200D01*
X233100Y841700D02*
X233100Y851700D01*
X233100Y841700D02*
X224100Y841700D01*
X224100Y851700D01*
X233100Y851700D01*
X233100Y842650D02*
X224100Y842650D01*
X224100Y843600D02*
X233100Y843600D01*
X233100Y844550D02*
X224100Y844550D01*
X224100Y845500D02*
X233100Y845500D01*
X233100Y846450D02*
X224100Y846450D01*
X224100Y847400D02*
X233100Y847400D01*
X233100Y848350D02*
X224100Y848350D01*
X224100Y849300D02*
X233100Y849300D01*
X233100Y850250D02*
X224100Y850250D01*
X224100Y851200D02*
X233100Y851200D01*
D10*
X199340Y503390D02*
X194360Y503390D01*
X199340Y503390D02*
X199340Y492410D01*
X194360Y492410D01*
X194360Y503390D01*
X194360Y493379D02*
X199340Y493379D01*
X199340Y494348D02*
X194360Y494348D01*
X194360Y495317D02*
X199340Y495317D01*
X199340Y496286D02*
X194360Y496286D01*
X194360Y497255D02*
X199340Y497255D01*
X199340Y498224D02*
X194360Y498224D01*
X194360Y499193D02*
X199340Y499193D01*
X199340Y500162D02*
X194360Y500162D01*
X194360Y501131D02*
X199340Y501131D01*
X199340Y502100D02*
X194360Y502100D01*
X194360Y503069D02*
X199340Y503069D01*
X186640Y503390D02*
X181660Y503390D01*
X186640Y503390D02*
X186640Y492410D01*
X181660Y492410D01*
X181660Y503390D01*
X181660Y493379D02*
X186640Y493379D01*
X186640Y494348D02*
X181660Y494348D01*
X181660Y495317D02*
X186640Y495317D01*
X186640Y496286D02*
X181660Y496286D01*
X181660Y497255D02*
X186640Y497255D01*
X186640Y498224D02*
X181660Y498224D01*
X181660Y499193D02*
X186640Y499193D01*
X186640Y500162D02*
X181660Y500162D01*
X181660Y501131D02*
X186640Y501131D01*
X186640Y502100D02*
X181660Y502100D01*
X181660Y503069D02*
X186640Y503069D01*
X173940Y503390D02*
X168960Y503390D01*
X173940Y503390D02*
X173940Y492410D01*
X168960Y492410D01*
X168960Y503390D01*
X168960Y493379D02*
X173940Y493379D01*
X173940Y494348D02*
X168960Y494348D01*
X168960Y495317D02*
X173940Y495317D01*
X173940Y496286D02*
X168960Y496286D01*
X168960Y497255D02*
X173940Y497255D01*
X173940Y498224D02*
X168960Y498224D01*
X168960Y499193D02*
X173940Y499193D01*
X173940Y500162D02*
X168960Y500162D01*
X168960Y501131D02*
X173940Y501131D01*
X173940Y502100D02*
X168960Y502100D01*
X168960Y503069D02*
X173940Y503069D01*
X161240Y503390D02*
X156260Y503390D01*
X161240Y503390D02*
X161240Y492410D01*
X156260Y492410D01*
X156260Y503390D01*
X156260Y493379D02*
X161240Y493379D01*
X161240Y494348D02*
X156260Y494348D01*
X156260Y495317D02*
X161240Y495317D01*
X161240Y496286D02*
X156260Y496286D01*
X156260Y497255D02*
X161240Y497255D01*
X161240Y498224D02*
X156260Y498224D01*
X156260Y499193D02*
X161240Y499193D01*
X161240Y500162D02*
X156260Y500162D01*
X156260Y501131D02*
X161240Y501131D01*
X161240Y502100D02*
X156260Y502100D01*
X156260Y503069D02*
X161240Y503069D01*
X148540Y503390D02*
X143560Y503390D01*
X148540Y503390D02*
X148540Y492410D01*
X143560Y492410D01*
X143560Y503390D01*
X143560Y493379D02*
X148540Y493379D01*
X148540Y494348D02*
X143560Y494348D01*
X143560Y495317D02*
X148540Y495317D01*
X148540Y496286D02*
X143560Y496286D01*
X143560Y497255D02*
X148540Y497255D01*
X148540Y498224D02*
X143560Y498224D01*
X143560Y499193D02*
X148540Y499193D01*
X148540Y500162D02*
X143560Y500162D01*
X143560Y501131D02*
X148540Y501131D01*
X148540Y502100D02*
X143560Y502100D01*
X143560Y503069D02*
X148540Y503069D01*
X135840Y503390D02*
X130860Y503390D01*
X135840Y503390D02*
X135840Y492410D01*
X130860Y492410D01*
X130860Y503390D01*
X130860Y493379D02*
X135840Y493379D01*
X135840Y494348D02*
X130860Y494348D01*
X130860Y495317D02*
X135840Y495317D01*
X135840Y496286D02*
X130860Y496286D01*
X130860Y497255D02*
X135840Y497255D01*
X135840Y498224D02*
X130860Y498224D01*
X130860Y499193D02*
X135840Y499193D01*
X135840Y500162D02*
X130860Y500162D01*
X130860Y501131D02*
X135840Y501131D01*
X135840Y502100D02*
X130860Y502100D01*
X130860Y503069D02*
X135840Y503069D01*
X123140Y503390D02*
X118160Y503390D01*
X123140Y503390D02*
X123140Y492410D01*
X118160Y492410D01*
X118160Y503390D01*
X118160Y493379D02*
X123140Y493379D01*
X123140Y494348D02*
X118160Y494348D01*
X118160Y495317D02*
X123140Y495317D01*
X123140Y496286D02*
X118160Y496286D01*
X118160Y497255D02*
X123140Y497255D01*
X123140Y498224D02*
X118160Y498224D01*
X118160Y499193D02*
X123140Y499193D01*
X123140Y500162D02*
X118160Y500162D01*
X118160Y501131D02*
X123140Y501131D01*
X123140Y502100D02*
X118160Y502100D01*
X118160Y503069D02*
X123140Y503069D01*
X110440Y503390D02*
X105460Y503390D01*
X110440Y503390D02*
X110440Y492410D01*
X105460Y492410D01*
X105460Y503390D01*
X105460Y493379D02*
X110440Y493379D01*
X110440Y494348D02*
X105460Y494348D01*
X105460Y495317D02*
X110440Y495317D01*
X110440Y496286D02*
X105460Y496286D01*
X105460Y497255D02*
X110440Y497255D01*
X110440Y498224D02*
X105460Y498224D01*
X105460Y499193D02*
X110440Y499193D01*
X110440Y500162D02*
X105460Y500162D01*
X105460Y501131D02*
X110440Y501131D01*
X110440Y502100D02*
X105460Y502100D01*
X105460Y503069D02*
X110440Y503069D01*
X110440Y447390D02*
X105460Y447390D01*
X110440Y447390D02*
X110440Y436410D01*
X105460Y436410D01*
X105460Y447390D01*
X105460Y437379D02*
X110440Y437379D01*
X110440Y438348D02*
X105460Y438348D01*
X105460Y439317D02*
X110440Y439317D01*
X110440Y440286D02*
X105460Y440286D01*
X105460Y441255D02*
X110440Y441255D01*
X110440Y442224D02*
X105460Y442224D01*
X105460Y443193D02*
X110440Y443193D01*
X110440Y444162D02*
X105460Y444162D01*
X105460Y445131D02*
X110440Y445131D01*
X110440Y446100D02*
X105460Y446100D01*
X105460Y447069D02*
X110440Y447069D01*
X118160Y447390D02*
X123140Y447390D01*
X123140Y436410D01*
X118160Y436410D01*
X118160Y447390D01*
X118160Y437379D02*
X123140Y437379D01*
X123140Y438348D02*
X118160Y438348D01*
X118160Y439317D02*
X123140Y439317D01*
X123140Y440286D02*
X118160Y440286D01*
X118160Y441255D02*
X123140Y441255D01*
X123140Y442224D02*
X118160Y442224D01*
X118160Y443193D02*
X123140Y443193D01*
X123140Y444162D02*
X118160Y444162D01*
X118160Y445131D02*
X123140Y445131D01*
X123140Y446100D02*
X118160Y446100D01*
X118160Y447069D02*
X123140Y447069D01*
X130860Y447390D02*
X135840Y447390D01*
X135840Y436410D01*
X130860Y436410D01*
X130860Y447390D01*
X130860Y437379D02*
X135840Y437379D01*
X135840Y438348D02*
X130860Y438348D01*
X130860Y439317D02*
X135840Y439317D01*
X135840Y440286D02*
X130860Y440286D01*
X130860Y441255D02*
X135840Y441255D01*
X135840Y442224D02*
X130860Y442224D01*
X130860Y443193D02*
X135840Y443193D01*
X135840Y444162D02*
X130860Y444162D01*
X130860Y445131D02*
X135840Y445131D01*
X135840Y446100D02*
X130860Y446100D01*
X130860Y447069D02*
X135840Y447069D01*
X143560Y447390D02*
X148540Y447390D01*
X148540Y436410D01*
X143560Y436410D01*
X143560Y447390D01*
X143560Y437379D02*
X148540Y437379D01*
X148540Y438348D02*
X143560Y438348D01*
X143560Y439317D02*
X148540Y439317D01*
X148540Y440286D02*
X143560Y440286D01*
X143560Y441255D02*
X148540Y441255D01*
X148540Y442224D02*
X143560Y442224D01*
X143560Y443193D02*
X148540Y443193D01*
X148540Y444162D02*
X143560Y444162D01*
X143560Y445131D02*
X148540Y445131D01*
X148540Y446100D02*
X143560Y446100D01*
X143560Y447069D02*
X148540Y447069D01*
X156260Y447390D02*
X161240Y447390D01*
X161240Y436410D01*
X156260Y436410D01*
X156260Y447390D01*
X156260Y437379D02*
X161240Y437379D01*
X161240Y438348D02*
X156260Y438348D01*
X156260Y439317D02*
X161240Y439317D01*
X161240Y440286D02*
X156260Y440286D01*
X156260Y441255D02*
X161240Y441255D01*
X161240Y442224D02*
X156260Y442224D01*
X156260Y443193D02*
X161240Y443193D01*
X161240Y444162D02*
X156260Y444162D01*
X156260Y445131D02*
X161240Y445131D01*
X161240Y446100D02*
X156260Y446100D01*
X156260Y447069D02*
X161240Y447069D01*
X168960Y447390D02*
X173940Y447390D01*
X173940Y436410D01*
X168960Y436410D01*
X168960Y447390D01*
X168960Y437379D02*
X173940Y437379D01*
X173940Y438348D02*
X168960Y438348D01*
X168960Y439317D02*
X173940Y439317D01*
X173940Y440286D02*
X168960Y440286D01*
X168960Y441255D02*
X173940Y441255D01*
X173940Y442224D02*
X168960Y442224D01*
X168960Y443193D02*
X173940Y443193D01*
X173940Y444162D02*
X168960Y444162D01*
X168960Y445131D02*
X173940Y445131D01*
X173940Y446100D02*
X168960Y446100D01*
X168960Y447069D02*
X173940Y447069D01*
X181660Y447390D02*
X186640Y447390D01*
X186640Y436410D01*
X181660Y436410D01*
X181660Y447390D01*
X181660Y437379D02*
X186640Y437379D01*
X186640Y438348D02*
X181660Y438348D01*
X181660Y439317D02*
X186640Y439317D01*
X186640Y440286D02*
X181660Y440286D01*
X181660Y441255D02*
X186640Y441255D01*
X186640Y442224D02*
X181660Y442224D01*
X181660Y443193D02*
X186640Y443193D01*
X186640Y444162D02*
X181660Y444162D01*
X181660Y445131D02*
X186640Y445131D01*
X186640Y446100D02*
X181660Y446100D01*
X181660Y447069D02*
X186640Y447069D01*
X194360Y447390D02*
X199340Y447390D01*
X199340Y436410D01*
X194360Y436410D01*
X194360Y447390D01*
X194360Y437379D02*
X199340Y437379D01*
X199340Y438348D02*
X194360Y438348D01*
X194360Y439317D02*
X199340Y439317D01*
X199340Y440286D02*
X194360Y440286D01*
X194360Y441255D02*
X199340Y441255D01*
X199340Y442224D02*
X194360Y442224D01*
X194360Y443193D02*
X199340Y443193D01*
X199340Y444162D02*
X194360Y444162D01*
X194360Y445131D02*
X199340Y445131D01*
X199340Y446100D02*
X194360Y446100D01*
X194360Y447069D02*
X199340Y447069D01*
D11*
X233100Y456400D02*
X233100Y466400D01*
X233100Y456400D02*
X224100Y456400D01*
X224100Y466400D01*
X233100Y466400D01*
X233100Y457350D02*
X224100Y457350D01*
X224100Y458300D02*
X233100Y458300D01*
X233100Y459250D02*
X224100Y459250D01*
X224100Y460200D02*
X233100Y460200D01*
X233100Y461150D02*
X224100Y461150D01*
X224100Y462100D02*
X233100Y462100D01*
X233100Y463050D02*
X224100Y463050D01*
X224100Y464000D02*
X233100Y464000D01*
X233100Y464950D02*
X224100Y464950D01*
X224100Y465900D02*
X233100Y465900D01*
X233100Y473400D02*
X233100Y483400D01*
X233100Y473400D02*
X224100Y473400D01*
X224100Y483400D01*
X233100Y483400D01*
X233100Y474350D02*
X224100Y474350D01*
X224100Y475300D02*
X233100Y475300D01*
X233100Y476250D02*
X224100Y476250D01*
X224100Y477200D02*
X233100Y477200D01*
X233100Y478150D02*
X224100Y478150D01*
X224100Y479100D02*
X233100Y479100D01*
X233100Y480050D02*
X224100Y480050D01*
X224100Y481000D02*
X233100Y481000D01*
X233100Y481950D02*
X224100Y481950D01*
X224100Y482900D02*
X233100Y482900D01*
D10*
X454310Y212540D02*
X454310Y207560D01*
X454310Y212540D02*
X470290Y212540D01*
X470290Y207560D01*
X454310Y207560D01*
X454310Y208529D02*
X470290Y208529D01*
X470290Y209498D02*
X454310Y209498D01*
X454310Y210467D02*
X470290Y210467D01*
X470290Y211436D02*
X454310Y211436D01*
X454310Y212405D02*
X470290Y212405D01*
D11*
X481300Y286550D02*
X507300Y286550D01*
X481300Y286550D02*
X481300Y295550D01*
X507300Y295550D01*
X507300Y286550D01*
X507300Y287500D02*
X481300Y287500D01*
X481300Y288450D02*
X507300Y288450D01*
X507300Y289400D02*
X481300Y289400D01*
X481300Y290350D02*
X507300Y290350D01*
X507300Y291300D02*
X481300Y291300D01*
X481300Y292250D02*
X507300Y292250D01*
X507300Y293200D02*
X481300Y293200D01*
X481300Y294150D02*
X507300Y294150D01*
X507300Y295100D02*
X481300Y295100D01*
X481300Y187050D02*
X507300Y187050D01*
X481300Y187050D02*
X481300Y196050D01*
X507300Y196050D01*
X507300Y187050D01*
X507300Y188000D02*
X481300Y188000D01*
X481300Y188950D02*
X507300Y188950D01*
X507300Y189900D02*
X481300Y189900D01*
X481300Y190850D02*
X507300Y190850D01*
X507300Y191800D02*
X481300Y191800D01*
X481300Y192750D02*
X507300Y192750D01*
X507300Y193700D02*
X481300Y193700D01*
X481300Y194650D02*
X507300Y194650D01*
X507300Y195600D02*
X481300Y195600D01*
D10*
X454310Y220060D02*
X454310Y225040D01*
X470290Y225040D01*
X470290Y220060D01*
X454310Y220060D01*
X454310Y221029D02*
X470290Y221029D01*
X470290Y221998D02*
X454310Y221998D01*
X454310Y222967D02*
X470290Y222967D01*
X470290Y223936D02*
X454310Y223936D01*
X454310Y224905D02*
X470290Y224905D01*
X454310Y232560D02*
X454310Y237540D01*
X470290Y237540D01*
X470290Y232560D01*
X454310Y232560D01*
X454310Y233529D02*
X470290Y233529D01*
X470290Y234498D02*
X454310Y234498D01*
X454310Y235467D02*
X470290Y235467D01*
X470290Y236436D02*
X454310Y236436D01*
X454310Y237405D02*
X470290Y237405D01*
X454310Y245060D02*
X454310Y250040D01*
X470290Y250040D01*
X470290Y245060D01*
X454310Y245060D01*
X454310Y246029D02*
X470290Y246029D01*
X470290Y246998D02*
X454310Y246998D01*
X454310Y247967D02*
X470290Y247967D01*
X470290Y248936D02*
X454310Y248936D01*
X454310Y249905D02*
X470290Y249905D01*
X454310Y257560D02*
X454310Y262540D01*
X470290Y262540D01*
X470290Y257560D01*
X454310Y257560D01*
X454310Y258529D02*
X470290Y258529D01*
X470290Y259498D02*
X454310Y259498D01*
X454310Y260467D02*
X470290Y260467D01*
X470290Y261436D02*
X454310Y261436D01*
X454310Y262405D02*
X470290Y262405D01*
X454310Y270060D02*
X454310Y275040D01*
X470290Y275040D01*
X470290Y270060D01*
X454310Y270060D01*
X454310Y271029D02*
X470290Y271029D01*
X470290Y271998D02*
X454310Y271998D01*
X454310Y272967D02*
X470290Y272967D01*
X470290Y273936D02*
X454310Y273936D01*
X454310Y274905D02*
X470290Y274905D01*
X199340Y1036790D02*
X194360Y1036790D01*
X199340Y1036790D02*
X199340Y1025810D01*
X194360Y1025810D01*
X194360Y1036790D01*
X194360Y1026779D02*
X199340Y1026779D01*
X199340Y1027748D02*
X194360Y1027748D01*
X194360Y1028717D02*
X199340Y1028717D01*
X199340Y1029686D02*
X194360Y1029686D01*
X194360Y1030655D02*
X199340Y1030655D01*
X199340Y1031624D02*
X194360Y1031624D01*
X194360Y1032593D02*
X199340Y1032593D01*
X199340Y1033562D02*
X194360Y1033562D01*
X194360Y1034531D02*
X199340Y1034531D01*
X199340Y1035500D02*
X194360Y1035500D01*
X194360Y1036469D02*
X199340Y1036469D01*
X186640Y1036790D02*
X181660Y1036790D01*
X186640Y1036790D02*
X186640Y1025810D01*
X181660Y1025810D01*
X181660Y1036790D01*
X181660Y1026779D02*
X186640Y1026779D01*
X186640Y1027748D02*
X181660Y1027748D01*
X181660Y1028717D02*
X186640Y1028717D01*
X186640Y1029686D02*
X181660Y1029686D01*
X181660Y1030655D02*
X186640Y1030655D01*
X186640Y1031624D02*
X181660Y1031624D01*
X181660Y1032593D02*
X186640Y1032593D01*
X186640Y1033562D02*
X181660Y1033562D01*
X181660Y1034531D02*
X186640Y1034531D01*
X186640Y1035500D02*
X181660Y1035500D01*
X181660Y1036469D02*
X186640Y1036469D01*
X173940Y1036790D02*
X168960Y1036790D01*
X173940Y1036790D02*
X173940Y1025810D01*
X168960Y1025810D01*
X168960Y1036790D01*
X168960Y1026779D02*
X173940Y1026779D01*
X173940Y1027748D02*
X168960Y1027748D01*
X168960Y1028717D02*
X173940Y1028717D01*
X173940Y1029686D02*
X168960Y1029686D01*
X168960Y1030655D02*
X173940Y1030655D01*
X173940Y1031624D02*
X168960Y1031624D01*
X168960Y1032593D02*
X173940Y1032593D01*
X173940Y1033562D02*
X168960Y1033562D01*
X168960Y1034531D02*
X173940Y1034531D01*
X173940Y1035500D02*
X168960Y1035500D01*
X168960Y1036469D02*
X173940Y1036469D01*
X161240Y1036790D02*
X156260Y1036790D01*
X161240Y1036790D02*
X161240Y1025810D01*
X156260Y1025810D01*
X156260Y1036790D01*
X156260Y1026779D02*
X161240Y1026779D01*
X161240Y1027748D02*
X156260Y1027748D01*
X156260Y1028717D02*
X161240Y1028717D01*
X161240Y1029686D02*
X156260Y1029686D01*
X156260Y1030655D02*
X161240Y1030655D01*
X161240Y1031624D02*
X156260Y1031624D01*
X156260Y1032593D02*
X161240Y1032593D01*
X161240Y1033562D02*
X156260Y1033562D01*
X156260Y1034531D02*
X161240Y1034531D01*
X161240Y1035500D02*
X156260Y1035500D01*
X156260Y1036469D02*
X161240Y1036469D01*
X148540Y1036790D02*
X143560Y1036790D01*
X148540Y1036790D02*
X148540Y1025810D01*
X143560Y1025810D01*
X143560Y1036790D01*
X143560Y1026779D02*
X148540Y1026779D01*
X148540Y1027748D02*
X143560Y1027748D01*
X143560Y1028717D02*
X148540Y1028717D01*
X148540Y1029686D02*
X143560Y1029686D01*
X143560Y1030655D02*
X148540Y1030655D01*
X148540Y1031624D02*
X143560Y1031624D01*
X143560Y1032593D02*
X148540Y1032593D01*
X148540Y1033562D02*
X143560Y1033562D01*
X143560Y1034531D02*
X148540Y1034531D01*
X148540Y1035500D02*
X143560Y1035500D01*
X143560Y1036469D02*
X148540Y1036469D01*
X135840Y1036790D02*
X130860Y1036790D01*
X135840Y1036790D02*
X135840Y1025810D01*
X130860Y1025810D01*
X130860Y1036790D01*
X130860Y1026779D02*
X135840Y1026779D01*
X135840Y1027748D02*
X130860Y1027748D01*
X130860Y1028717D02*
X135840Y1028717D01*
X135840Y1029686D02*
X130860Y1029686D01*
X130860Y1030655D02*
X135840Y1030655D01*
X135840Y1031624D02*
X130860Y1031624D01*
X130860Y1032593D02*
X135840Y1032593D01*
X135840Y1033562D02*
X130860Y1033562D01*
X130860Y1034531D02*
X135840Y1034531D01*
X135840Y1035500D02*
X130860Y1035500D01*
X130860Y1036469D02*
X135840Y1036469D01*
X123140Y1036790D02*
X118160Y1036790D01*
X123140Y1036790D02*
X123140Y1025810D01*
X118160Y1025810D01*
X118160Y1036790D01*
X118160Y1026779D02*
X123140Y1026779D01*
X123140Y1027748D02*
X118160Y1027748D01*
X118160Y1028717D02*
X123140Y1028717D01*
X123140Y1029686D02*
X118160Y1029686D01*
X118160Y1030655D02*
X123140Y1030655D01*
X123140Y1031624D02*
X118160Y1031624D01*
X118160Y1032593D02*
X123140Y1032593D01*
X123140Y1033562D02*
X118160Y1033562D01*
X118160Y1034531D02*
X123140Y1034531D01*
X123140Y1035500D02*
X118160Y1035500D01*
X118160Y1036469D02*
X123140Y1036469D01*
X110440Y1036790D02*
X105460Y1036790D01*
X110440Y1036790D02*
X110440Y1025810D01*
X105460Y1025810D01*
X105460Y1036790D01*
X105460Y1026779D02*
X110440Y1026779D01*
X110440Y1027748D02*
X105460Y1027748D01*
X105460Y1028717D02*
X110440Y1028717D01*
X110440Y1029686D02*
X105460Y1029686D01*
X105460Y1030655D02*
X110440Y1030655D01*
X110440Y1031624D02*
X105460Y1031624D01*
X105460Y1032593D02*
X110440Y1032593D01*
X110440Y1033562D02*
X105460Y1033562D01*
X105460Y1034531D02*
X110440Y1034531D01*
X110440Y1035500D02*
X105460Y1035500D01*
X105460Y1036469D02*
X110440Y1036469D01*
X110440Y980790D02*
X105460Y980790D01*
X110440Y980790D02*
X110440Y969810D01*
X105460Y969810D01*
X105460Y980790D01*
X105460Y970779D02*
X110440Y970779D01*
X110440Y971748D02*
X105460Y971748D01*
X105460Y972717D02*
X110440Y972717D01*
X110440Y973686D02*
X105460Y973686D01*
X105460Y974655D02*
X110440Y974655D01*
X110440Y975624D02*
X105460Y975624D01*
X105460Y976593D02*
X110440Y976593D01*
X110440Y977562D02*
X105460Y977562D01*
X105460Y978531D02*
X110440Y978531D01*
X110440Y979500D02*
X105460Y979500D01*
X105460Y980469D02*
X110440Y980469D01*
X118160Y980790D02*
X123140Y980790D01*
X123140Y969810D01*
X118160Y969810D01*
X118160Y980790D01*
X118160Y970779D02*
X123140Y970779D01*
X123140Y971748D02*
X118160Y971748D01*
X118160Y972717D02*
X123140Y972717D01*
X123140Y973686D02*
X118160Y973686D01*
X118160Y974655D02*
X123140Y974655D01*
X123140Y975624D02*
X118160Y975624D01*
X118160Y976593D02*
X123140Y976593D01*
X123140Y977562D02*
X118160Y977562D01*
X118160Y978531D02*
X123140Y978531D01*
X123140Y979500D02*
X118160Y979500D01*
X118160Y980469D02*
X123140Y980469D01*
X130860Y980790D02*
X135840Y980790D01*
X135840Y969810D01*
X130860Y969810D01*
X130860Y980790D01*
X130860Y970779D02*
X135840Y970779D01*
X135840Y971748D02*
X130860Y971748D01*
X130860Y972717D02*
X135840Y972717D01*
X135840Y973686D02*
X130860Y973686D01*
X130860Y974655D02*
X135840Y974655D01*
X135840Y975624D02*
X130860Y975624D01*
X130860Y976593D02*
X135840Y976593D01*
X135840Y977562D02*
X130860Y977562D01*
X130860Y978531D02*
X135840Y978531D01*
X135840Y979500D02*
X130860Y979500D01*
X130860Y980469D02*
X135840Y980469D01*
X143560Y980790D02*
X148540Y980790D01*
X148540Y969810D01*
X143560Y969810D01*
X143560Y980790D01*
X143560Y970779D02*
X148540Y970779D01*
X148540Y971748D02*
X143560Y971748D01*
X143560Y972717D02*
X148540Y972717D01*
X148540Y973686D02*
X143560Y973686D01*
X143560Y974655D02*
X148540Y974655D01*
X148540Y975624D02*
X143560Y975624D01*
X143560Y976593D02*
X148540Y976593D01*
X148540Y977562D02*
X143560Y977562D01*
X143560Y978531D02*
X148540Y978531D01*
X148540Y979500D02*
X143560Y979500D01*
X143560Y980469D02*
X148540Y980469D01*
X156260Y980790D02*
X161240Y980790D01*
X161240Y969810D01*
X156260Y969810D01*
X156260Y980790D01*
X156260Y970779D02*
X161240Y970779D01*
X161240Y971748D02*
X156260Y971748D01*
X156260Y972717D02*
X161240Y972717D01*
X161240Y973686D02*
X156260Y973686D01*
X156260Y974655D02*
X161240Y974655D01*
X161240Y975624D02*
X156260Y975624D01*
X156260Y976593D02*
X161240Y976593D01*
X161240Y977562D02*
X156260Y977562D01*
X156260Y978531D02*
X161240Y978531D01*
X161240Y979500D02*
X156260Y979500D01*
X156260Y980469D02*
X161240Y980469D01*
X168960Y980790D02*
X173940Y980790D01*
X173940Y969810D01*
X168960Y969810D01*
X168960Y980790D01*
X168960Y970779D02*
X173940Y970779D01*
X173940Y971748D02*
X168960Y971748D01*
X168960Y972717D02*
X173940Y972717D01*
X173940Y973686D02*
X168960Y973686D01*
X168960Y974655D02*
X173940Y974655D01*
X173940Y975624D02*
X168960Y975624D01*
X168960Y976593D02*
X173940Y976593D01*
X173940Y977562D02*
X168960Y977562D01*
X168960Y978531D02*
X173940Y978531D01*
X173940Y979500D02*
X168960Y979500D01*
X168960Y980469D02*
X173940Y980469D01*
X181660Y980790D02*
X186640Y980790D01*
X186640Y969810D01*
X181660Y969810D01*
X181660Y980790D01*
X181660Y970779D02*
X186640Y970779D01*
X186640Y971748D02*
X181660Y971748D01*
X181660Y972717D02*
X186640Y972717D01*
X186640Y973686D02*
X181660Y973686D01*
X181660Y974655D02*
X186640Y974655D01*
X186640Y975624D02*
X181660Y975624D01*
X181660Y976593D02*
X186640Y976593D01*
X186640Y977562D02*
X181660Y977562D01*
X181660Y978531D02*
X186640Y978531D01*
X186640Y979500D02*
X181660Y979500D01*
X181660Y980469D02*
X186640Y980469D01*
X194360Y980790D02*
X199340Y980790D01*
X199340Y969810D01*
X194360Y969810D01*
X194360Y980790D01*
X194360Y970779D02*
X199340Y970779D01*
X199340Y971748D02*
X194360Y971748D01*
X194360Y972717D02*
X199340Y972717D01*
X199340Y973686D02*
X194360Y973686D01*
X194360Y974655D02*
X199340Y974655D01*
X199340Y975624D02*
X194360Y975624D01*
X194360Y976593D02*
X199340Y976593D01*
X199340Y977562D02*
X194360Y977562D01*
X194360Y978531D02*
X199340Y978531D01*
X199340Y979500D02*
X194360Y979500D01*
X194360Y980469D02*
X199340Y980469D01*
D11*
X224100Y1006800D02*
X224100Y1016800D01*
X233100Y1016800D01*
X233100Y1006800D01*
X224100Y1006800D01*
X224100Y1007750D02*
X233100Y1007750D01*
X233100Y1008700D02*
X224100Y1008700D01*
X224100Y1009650D02*
X233100Y1009650D01*
X233100Y1010600D02*
X224100Y1010600D01*
X224100Y1011550D02*
X233100Y1011550D01*
X233100Y1012500D02*
X224100Y1012500D01*
X224100Y1013450D02*
X233100Y1013450D01*
X233100Y1014400D02*
X224100Y1014400D01*
X224100Y1015350D02*
X233100Y1015350D01*
X233100Y1016300D02*
X224100Y1016300D01*
X224100Y999800D02*
X224100Y989800D01*
X224100Y999800D02*
X233100Y999800D01*
X233100Y989800D01*
X224100Y989800D01*
X224100Y990750D02*
X233100Y990750D01*
X233100Y991700D02*
X224100Y991700D01*
X224100Y992650D02*
X233100Y992650D01*
X233100Y993600D02*
X224100Y993600D01*
X224100Y994550D02*
X233100Y994550D01*
X233100Y995500D02*
X224100Y995500D01*
X224100Y996450D02*
X233100Y996450D01*
X233100Y997400D02*
X224100Y997400D01*
X224100Y998350D02*
X233100Y998350D01*
X233100Y999300D02*
X224100Y999300D01*
X195000Y1053300D02*
X195000Y1063300D01*
X195000Y1053300D02*
X186000Y1053300D01*
X186000Y1063300D01*
X195000Y1063300D01*
X195000Y1054250D02*
X186000Y1054250D01*
X186000Y1055200D02*
X195000Y1055200D01*
X195000Y1056150D02*
X186000Y1056150D01*
X186000Y1057100D02*
X195000Y1057100D01*
X195000Y1058050D02*
X186000Y1058050D01*
X186000Y1059000D02*
X195000Y1059000D01*
X195000Y1059950D02*
X186000Y1059950D01*
X186000Y1060900D02*
X195000Y1060900D01*
X195000Y1061850D02*
X186000Y1061850D01*
X186000Y1062800D02*
X195000Y1062800D01*
X195000Y1070300D02*
X195000Y1080300D01*
X195000Y1070300D02*
X186000Y1070300D01*
X186000Y1080300D01*
X195000Y1080300D01*
X195000Y1071250D02*
X186000Y1071250D01*
X186000Y1072200D02*
X195000Y1072200D01*
X195000Y1073150D02*
X186000Y1073150D01*
X186000Y1074100D02*
X195000Y1074100D01*
X195000Y1075050D02*
X186000Y1075050D01*
X186000Y1076000D02*
X195000Y1076000D01*
X195000Y1076950D02*
X186000Y1076950D01*
X186000Y1077900D02*
X195000Y1077900D01*
X195000Y1078850D02*
X186000Y1078850D01*
X186000Y1079800D02*
X195000Y1079800D01*
X169600Y1063300D02*
X169600Y1053300D01*
X160600Y1053300D01*
X160600Y1063300D01*
X169600Y1063300D01*
X169600Y1054250D02*
X160600Y1054250D01*
X160600Y1055200D02*
X169600Y1055200D01*
X169600Y1056150D02*
X160600Y1056150D01*
X160600Y1057100D02*
X169600Y1057100D01*
X169600Y1058050D02*
X160600Y1058050D01*
X160600Y1059000D02*
X169600Y1059000D01*
X169600Y1059950D02*
X160600Y1059950D01*
X160600Y1060900D02*
X169600Y1060900D01*
X169600Y1061850D02*
X160600Y1061850D01*
X160600Y1062800D02*
X169600Y1062800D01*
X169600Y1070300D02*
X169600Y1080300D01*
X169600Y1070300D02*
X160600Y1070300D01*
X160600Y1080300D01*
X169600Y1080300D01*
X169600Y1071250D02*
X160600Y1071250D01*
X160600Y1072200D02*
X169600Y1072200D01*
X169600Y1073150D02*
X160600Y1073150D01*
X160600Y1074100D02*
X169600Y1074100D01*
X169600Y1075050D02*
X160600Y1075050D01*
X160600Y1076000D02*
X169600Y1076000D01*
X169600Y1076950D02*
X160600Y1076950D01*
X160600Y1077900D02*
X169600Y1077900D01*
X169600Y1078850D02*
X160600Y1078850D01*
X160600Y1079800D02*
X169600Y1079800D01*
X144200Y1063300D02*
X144200Y1053300D01*
X135200Y1053300D01*
X135200Y1063300D01*
X144200Y1063300D01*
X144200Y1054250D02*
X135200Y1054250D01*
X135200Y1055200D02*
X144200Y1055200D01*
X144200Y1056150D02*
X135200Y1056150D01*
X135200Y1057100D02*
X144200Y1057100D01*
X144200Y1058050D02*
X135200Y1058050D01*
X135200Y1059000D02*
X144200Y1059000D01*
X144200Y1059950D02*
X135200Y1059950D01*
X135200Y1060900D02*
X144200Y1060900D01*
X144200Y1061850D02*
X135200Y1061850D01*
X135200Y1062800D02*
X144200Y1062800D01*
X144200Y1070300D02*
X144200Y1080300D01*
X144200Y1070300D02*
X135200Y1070300D01*
X135200Y1080300D01*
X144200Y1080300D01*
X144200Y1071250D02*
X135200Y1071250D01*
X135200Y1072200D02*
X144200Y1072200D01*
X144200Y1073150D02*
X135200Y1073150D01*
X135200Y1074100D02*
X144200Y1074100D01*
X144200Y1075050D02*
X135200Y1075050D01*
X135200Y1076000D02*
X144200Y1076000D01*
X144200Y1076950D02*
X135200Y1076950D01*
X135200Y1077900D02*
X144200Y1077900D01*
X144200Y1078850D02*
X135200Y1078850D01*
X135200Y1079800D02*
X144200Y1079800D01*
D10*
X53690Y1037040D02*
X53690Y1032060D01*
X37710Y1032060D01*
X37710Y1037040D01*
X53690Y1037040D01*
X53690Y1033029D02*
X37710Y1033029D01*
X37710Y1033998D02*
X53690Y1033998D01*
X53690Y1034967D02*
X37710Y1034967D01*
X37710Y1035936D02*
X53690Y1035936D01*
X53690Y1036905D02*
X37710Y1036905D01*
D11*
X26700Y958050D02*
X700Y958050D01*
X26700Y958050D02*
X26700Y949050D01*
X700Y949050D01*
X700Y958050D01*
X700Y950000D02*
X26700Y950000D01*
X26700Y950950D02*
X700Y950950D01*
X700Y951900D02*
X26700Y951900D01*
X26700Y952850D02*
X700Y952850D01*
X700Y953800D02*
X26700Y953800D01*
X26700Y954750D02*
X700Y954750D01*
X700Y955700D02*
X26700Y955700D01*
X26700Y956650D02*
X700Y956650D01*
X700Y957600D02*
X26700Y957600D01*
X26700Y1057550D02*
X700Y1057550D01*
X26700Y1057550D02*
X26700Y1048550D01*
X700Y1048550D01*
X700Y1057550D01*
X700Y1049500D02*
X26700Y1049500D01*
X26700Y1050450D02*
X700Y1050450D01*
X700Y1051400D02*
X26700Y1051400D01*
X26700Y1052350D02*
X700Y1052350D01*
X700Y1053300D02*
X26700Y1053300D01*
X26700Y1054250D02*
X700Y1054250D01*
X700Y1055200D02*
X26700Y1055200D01*
X26700Y1056150D02*
X700Y1056150D01*
X700Y1057100D02*
X26700Y1057100D01*
D10*
X53690Y1024540D02*
X53690Y1019560D01*
X37710Y1019560D01*
X37710Y1024540D01*
X53690Y1024540D01*
X53690Y1020529D02*
X37710Y1020529D01*
X37710Y1021498D02*
X53690Y1021498D01*
X53690Y1022467D02*
X37710Y1022467D01*
X37710Y1023436D02*
X53690Y1023436D01*
X53690Y1024405D02*
X37710Y1024405D01*
X53690Y1012040D02*
X53690Y1007060D01*
X37710Y1007060D01*
X37710Y1012040D01*
X53690Y1012040D01*
X53690Y1008029D02*
X37710Y1008029D01*
X37710Y1008998D02*
X53690Y1008998D01*
X53690Y1009967D02*
X37710Y1009967D01*
X37710Y1010936D02*
X53690Y1010936D01*
X53690Y1011905D02*
X37710Y1011905D01*
X53690Y999540D02*
X53690Y994560D01*
X37710Y994560D01*
X37710Y999540D01*
X53690Y999540D01*
X53690Y995529D02*
X37710Y995529D01*
X37710Y996498D02*
X53690Y996498D01*
X53690Y997467D02*
X37710Y997467D01*
X37710Y998436D02*
X53690Y998436D01*
X53690Y999405D02*
X37710Y999405D01*
X53690Y987040D02*
X53690Y982060D01*
X37710Y982060D01*
X37710Y987040D01*
X53690Y987040D01*
X53690Y983029D02*
X37710Y983029D01*
X37710Y983998D02*
X53690Y983998D01*
X53690Y984967D02*
X37710Y984967D01*
X37710Y985936D02*
X53690Y985936D01*
X53690Y986905D02*
X37710Y986905D01*
X53690Y974540D02*
X53690Y969560D01*
X37710Y969560D01*
X37710Y974540D01*
X53690Y974540D01*
X53690Y970529D02*
X37710Y970529D01*
X37710Y971498D02*
X53690Y971498D01*
X53690Y972467D02*
X37710Y972467D01*
X37710Y973436D02*
X53690Y973436D01*
X53690Y974405D02*
X37710Y974405D01*
D11*
X118800Y1053300D02*
X118800Y1063300D01*
X118800Y1053300D02*
X109800Y1053300D01*
X109800Y1063300D01*
X118800Y1063300D01*
X118800Y1054250D02*
X109800Y1054250D01*
X109800Y1055200D02*
X118800Y1055200D01*
X118800Y1056150D02*
X109800Y1056150D01*
X109800Y1057100D02*
X118800Y1057100D01*
X118800Y1058050D02*
X109800Y1058050D01*
X109800Y1059000D02*
X118800Y1059000D01*
X118800Y1059950D02*
X109800Y1059950D01*
X109800Y1060900D02*
X118800Y1060900D01*
X118800Y1061850D02*
X109800Y1061850D01*
X109800Y1062800D02*
X118800Y1062800D01*
X118800Y1070300D02*
X118800Y1080300D01*
X118800Y1070300D02*
X109800Y1070300D01*
X109800Y1080300D01*
X118800Y1080300D01*
X118800Y1071250D02*
X109800Y1071250D01*
X109800Y1072200D02*
X118800Y1072200D01*
X118800Y1073150D02*
X109800Y1073150D01*
X109800Y1074100D02*
X118800Y1074100D01*
X118800Y1075050D02*
X109800Y1075050D01*
X109800Y1076000D02*
X118800Y1076000D01*
X118800Y1076950D02*
X109800Y1076950D01*
X109800Y1077900D02*
X118800Y1077900D01*
X118800Y1078850D02*
X109800Y1078850D01*
X109800Y1079800D02*
X118800Y1079800D01*
X109800Y953300D02*
X109800Y943300D01*
X109800Y953300D02*
X118800Y953300D01*
X118800Y943300D01*
X109800Y943300D01*
X109800Y944250D02*
X118800Y944250D01*
X118800Y945200D02*
X109800Y945200D01*
X109800Y946150D02*
X118800Y946150D01*
X118800Y947100D02*
X109800Y947100D01*
X109800Y948050D02*
X118800Y948050D01*
X118800Y949000D02*
X109800Y949000D01*
X109800Y949950D02*
X118800Y949950D01*
X118800Y950900D02*
X109800Y950900D01*
X109800Y951850D02*
X118800Y951850D01*
X118800Y952800D02*
X109800Y952800D01*
X109800Y936300D02*
X109800Y926300D01*
X109800Y936300D02*
X118800Y936300D01*
X118800Y926300D01*
X109800Y926300D01*
X109800Y927250D02*
X118800Y927250D01*
X118800Y928200D02*
X109800Y928200D01*
X109800Y929150D02*
X118800Y929150D01*
X118800Y930100D02*
X109800Y930100D01*
X109800Y931050D02*
X118800Y931050D01*
X118800Y932000D02*
X109800Y932000D01*
X109800Y932950D02*
X118800Y932950D01*
X118800Y933900D02*
X109800Y933900D01*
X109800Y934850D02*
X118800Y934850D01*
X118800Y935800D02*
X109800Y935800D01*
X135200Y943300D02*
X135200Y953300D01*
X144200Y953300D01*
X144200Y943300D01*
X135200Y943300D01*
X135200Y944250D02*
X144200Y944250D01*
X144200Y945200D02*
X135200Y945200D01*
X135200Y946150D02*
X144200Y946150D01*
X144200Y947100D02*
X135200Y947100D01*
X135200Y948050D02*
X144200Y948050D01*
X144200Y949000D02*
X135200Y949000D01*
X135200Y949950D02*
X144200Y949950D01*
X144200Y950900D02*
X135200Y950900D01*
X135200Y951850D02*
X144200Y951850D01*
X144200Y952800D02*
X135200Y952800D01*
X135200Y936300D02*
X135200Y926300D01*
X135200Y936300D02*
X144200Y936300D01*
X144200Y926300D01*
X135200Y926300D01*
X135200Y927250D02*
X144200Y927250D01*
X144200Y928200D02*
X135200Y928200D01*
X135200Y929150D02*
X144200Y929150D01*
X144200Y930100D02*
X135200Y930100D01*
X135200Y931050D02*
X144200Y931050D01*
X144200Y932000D02*
X135200Y932000D01*
X135200Y932950D02*
X144200Y932950D01*
X144200Y933900D02*
X135200Y933900D01*
X135200Y934850D02*
X144200Y934850D01*
X144200Y935800D02*
X135200Y935800D01*
X160600Y943300D02*
X160600Y953300D01*
X169600Y953300D01*
X169600Y943300D01*
X160600Y943300D01*
X160600Y944250D02*
X169600Y944250D01*
X169600Y945200D02*
X160600Y945200D01*
X160600Y946150D02*
X169600Y946150D01*
X169600Y947100D02*
X160600Y947100D01*
X160600Y948050D02*
X169600Y948050D01*
X169600Y949000D02*
X160600Y949000D01*
X160600Y949950D02*
X169600Y949950D01*
X169600Y950900D02*
X160600Y950900D01*
X160600Y951850D02*
X169600Y951850D01*
X169600Y952800D02*
X160600Y952800D01*
X160600Y936300D02*
X160600Y926300D01*
X160600Y936300D02*
X169600Y936300D01*
X169600Y926300D01*
X160600Y926300D01*
X160600Y927250D02*
X169600Y927250D01*
X169600Y928200D02*
X160600Y928200D01*
X160600Y929150D02*
X169600Y929150D01*
X169600Y930100D02*
X160600Y930100D01*
X160600Y931050D02*
X169600Y931050D01*
X169600Y932000D02*
X160600Y932000D01*
X160600Y932950D02*
X169600Y932950D01*
X169600Y933900D02*
X160600Y933900D01*
X160600Y934850D02*
X169600Y934850D01*
X169600Y935800D02*
X160600Y935800D01*
X186000Y943300D02*
X186000Y953300D01*
X195000Y953300D01*
X195000Y943300D01*
X186000Y943300D01*
X186000Y944250D02*
X195000Y944250D01*
X195000Y945200D02*
X186000Y945200D01*
X186000Y946150D02*
X195000Y946150D01*
X195000Y947100D02*
X186000Y947100D01*
X186000Y948050D02*
X195000Y948050D01*
X195000Y949000D02*
X186000Y949000D01*
X186000Y949950D02*
X195000Y949950D01*
X195000Y950900D02*
X186000Y950900D01*
X186000Y951850D02*
X195000Y951850D01*
X195000Y952800D02*
X186000Y952800D01*
X186000Y936300D02*
X186000Y926300D01*
X186000Y936300D02*
X195000Y936300D01*
X195000Y926300D01*
X186000Y926300D01*
X186000Y927250D02*
X195000Y927250D01*
X195000Y928200D02*
X186000Y928200D01*
X186000Y929150D02*
X195000Y929150D01*
X195000Y930100D02*
X186000Y930100D01*
X186000Y931050D02*
X195000Y931050D01*
X195000Y932000D02*
X186000Y932000D01*
X186000Y932950D02*
X195000Y932950D01*
X195000Y933900D02*
X186000Y933900D01*
X186000Y934850D02*
X195000Y934850D01*
X195000Y935800D02*
X186000Y935800D01*
D10*
X194360Y681190D02*
X199340Y681190D01*
X199340Y670210D01*
X194360Y670210D01*
X194360Y681190D01*
X194360Y671179D02*
X199340Y671179D01*
X199340Y672148D02*
X194360Y672148D01*
X194360Y673117D02*
X199340Y673117D01*
X199340Y674086D02*
X194360Y674086D01*
X194360Y675055D02*
X199340Y675055D01*
X199340Y676024D02*
X194360Y676024D01*
X194360Y676993D02*
X199340Y676993D01*
X199340Y677962D02*
X194360Y677962D01*
X194360Y678931D02*
X199340Y678931D01*
X199340Y679900D02*
X194360Y679900D01*
X194360Y680869D02*
X199340Y680869D01*
X186640Y681190D02*
X181660Y681190D01*
X186640Y681190D02*
X186640Y670210D01*
X181660Y670210D01*
X181660Y681190D01*
X181660Y671179D02*
X186640Y671179D01*
X186640Y672148D02*
X181660Y672148D01*
X181660Y673117D02*
X186640Y673117D01*
X186640Y674086D02*
X181660Y674086D01*
X181660Y675055D02*
X186640Y675055D01*
X186640Y676024D02*
X181660Y676024D01*
X181660Y676993D02*
X186640Y676993D01*
X186640Y677962D02*
X181660Y677962D01*
X181660Y678931D02*
X186640Y678931D01*
X186640Y679900D02*
X181660Y679900D01*
X181660Y680869D02*
X186640Y680869D01*
X173940Y681190D02*
X168960Y681190D01*
X173940Y681190D02*
X173940Y670210D01*
X168960Y670210D01*
X168960Y681190D01*
X168960Y671179D02*
X173940Y671179D01*
X173940Y672148D02*
X168960Y672148D01*
X168960Y673117D02*
X173940Y673117D01*
X173940Y674086D02*
X168960Y674086D01*
X168960Y675055D02*
X173940Y675055D01*
X173940Y676024D02*
X168960Y676024D01*
X168960Y676993D02*
X173940Y676993D01*
X173940Y677962D02*
X168960Y677962D01*
X168960Y678931D02*
X173940Y678931D01*
X173940Y679900D02*
X168960Y679900D01*
X168960Y680869D02*
X173940Y680869D01*
X161240Y681190D02*
X156260Y681190D01*
X161240Y681190D02*
X161240Y670210D01*
X156260Y670210D01*
X156260Y681190D01*
X156260Y671179D02*
X161240Y671179D01*
X161240Y672148D02*
X156260Y672148D01*
X156260Y673117D02*
X161240Y673117D01*
X161240Y674086D02*
X156260Y674086D01*
X156260Y675055D02*
X161240Y675055D01*
X161240Y676024D02*
X156260Y676024D01*
X156260Y676993D02*
X161240Y676993D01*
X161240Y677962D02*
X156260Y677962D01*
X156260Y678931D02*
X161240Y678931D01*
X161240Y679900D02*
X156260Y679900D01*
X156260Y680869D02*
X161240Y680869D01*
X148540Y681190D02*
X143560Y681190D01*
X148540Y681190D02*
X148540Y670210D01*
X143560Y670210D01*
X143560Y681190D01*
X143560Y671179D02*
X148540Y671179D01*
X148540Y672148D02*
X143560Y672148D01*
X143560Y673117D02*
X148540Y673117D01*
X148540Y674086D02*
X143560Y674086D01*
X143560Y675055D02*
X148540Y675055D01*
X148540Y676024D02*
X143560Y676024D01*
X143560Y676993D02*
X148540Y676993D01*
X148540Y677962D02*
X143560Y677962D01*
X143560Y678931D02*
X148540Y678931D01*
X148540Y679900D02*
X143560Y679900D01*
X143560Y680869D02*
X148540Y680869D01*
X135840Y681190D02*
X130860Y681190D01*
X135840Y681190D02*
X135840Y670210D01*
X130860Y670210D01*
X130860Y681190D01*
X130860Y671179D02*
X135840Y671179D01*
X135840Y672148D02*
X130860Y672148D01*
X130860Y673117D02*
X135840Y673117D01*
X135840Y674086D02*
X130860Y674086D01*
X130860Y675055D02*
X135840Y675055D01*
X135840Y676024D02*
X130860Y676024D01*
X130860Y676993D02*
X135840Y676993D01*
X135840Y677962D02*
X130860Y677962D01*
X130860Y678931D02*
X135840Y678931D01*
X135840Y679900D02*
X130860Y679900D01*
X130860Y680869D02*
X135840Y680869D01*
X123140Y681190D02*
X118160Y681190D01*
X123140Y681190D02*
X123140Y670210D01*
X118160Y670210D01*
X118160Y681190D01*
X118160Y671179D02*
X123140Y671179D01*
X123140Y672148D02*
X118160Y672148D01*
X118160Y673117D02*
X123140Y673117D01*
X123140Y674086D02*
X118160Y674086D01*
X118160Y675055D02*
X123140Y675055D01*
X123140Y676024D02*
X118160Y676024D01*
X118160Y676993D02*
X123140Y676993D01*
X123140Y677962D02*
X118160Y677962D01*
X118160Y678931D02*
X123140Y678931D01*
X123140Y679900D02*
X118160Y679900D01*
X118160Y680869D02*
X123140Y680869D01*
X110440Y681190D02*
X105460Y681190D01*
X110440Y681190D02*
X110440Y670210D01*
X105460Y670210D01*
X105460Y681190D01*
X105460Y671179D02*
X110440Y671179D01*
X110440Y672148D02*
X105460Y672148D01*
X105460Y673117D02*
X110440Y673117D01*
X110440Y674086D02*
X105460Y674086D01*
X105460Y675055D02*
X110440Y675055D01*
X110440Y676024D02*
X105460Y676024D01*
X105460Y676993D02*
X110440Y676993D01*
X110440Y677962D02*
X105460Y677962D01*
X105460Y678931D02*
X110440Y678931D01*
X110440Y679900D02*
X105460Y679900D01*
X105460Y680869D02*
X110440Y680869D01*
X110440Y625190D02*
X105460Y625190D01*
X110440Y625190D02*
X110440Y614210D01*
X105460Y614210D01*
X105460Y625190D01*
X105460Y615179D02*
X110440Y615179D01*
X110440Y616148D02*
X105460Y616148D01*
X105460Y617117D02*
X110440Y617117D01*
X110440Y618086D02*
X105460Y618086D01*
X105460Y619055D02*
X110440Y619055D01*
X110440Y620024D02*
X105460Y620024D01*
X105460Y620993D02*
X110440Y620993D01*
X110440Y621962D02*
X105460Y621962D01*
X105460Y622931D02*
X110440Y622931D01*
X110440Y623900D02*
X105460Y623900D01*
X105460Y624869D02*
X110440Y624869D01*
X118160Y625190D02*
X123140Y625190D01*
X123140Y614210D01*
X118160Y614210D01*
X118160Y625190D01*
X118160Y615179D02*
X123140Y615179D01*
X123140Y616148D02*
X118160Y616148D01*
X118160Y617117D02*
X123140Y617117D01*
X123140Y618086D02*
X118160Y618086D01*
X118160Y619055D02*
X123140Y619055D01*
X123140Y620024D02*
X118160Y620024D01*
X118160Y620993D02*
X123140Y620993D01*
X123140Y621962D02*
X118160Y621962D01*
X118160Y622931D02*
X123140Y622931D01*
X123140Y623900D02*
X118160Y623900D01*
X118160Y624869D02*
X123140Y624869D01*
X130860Y625190D02*
X135840Y625190D01*
X135840Y614210D01*
X130860Y614210D01*
X130860Y625190D01*
X130860Y615179D02*
X135840Y615179D01*
X135840Y616148D02*
X130860Y616148D01*
X130860Y617117D02*
X135840Y617117D01*
X135840Y618086D02*
X130860Y618086D01*
X130860Y619055D02*
X135840Y619055D01*
X135840Y620024D02*
X130860Y620024D01*
X130860Y620993D02*
X135840Y620993D01*
X135840Y621962D02*
X130860Y621962D01*
X130860Y622931D02*
X135840Y622931D01*
X135840Y623900D02*
X130860Y623900D01*
X130860Y624869D02*
X135840Y624869D01*
X143560Y625190D02*
X148540Y625190D01*
X148540Y614210D01*
X143560Y614210D01*
X143560Y625190D01*
X143560Y615179D02*
X148540Y615179D01*
X148540Y616148D02*
X143560Y616148D01*
X143560Y617117D02*
X148540Y617117D01*
X148540Y618086D02*
X143560Y618086D01*
X143560Y619055D02*
X148540Y619055D01*
X148540Y620024D02*
X143560Y620024D01*
X143560Y620993D02*
X148540Y620993D01*
X148540Y621962D02*
X143560Y621962D01*
X143560Y622931D02*
X148540Y622931D01*
X148540Y623900D02*
X143560Y623900D01*
X143560Y624869D02*
X148540Y624869D01*
X156260Y625190D02*
X161240Y625190D01*
X161240Y614210D01*
X156260Y614210D01*
X156260Y625190D01*
X156260Y615179D02*
X161240Y615179D01*
X161240Y616148D02*
X156260Y616148D01*
X156260Y617117D02*
X161240Y617117D01*
X161240Y618086D02*
X156260Y618086D01*
X156260Y619055D02*
X161240Y619055D01*
X161240Y620024D02*
X156260Y620024D01*
X156260Y620993D02*
X161240Y620993D01*
X161240Y621962D02*
X156260Y621962D01*
X156260Y622931D02*
X161240Y622931D01*
X161240Y623900D02*
X156260Y623900D01*
X156260Y624869D02*
X161240Y624869D01*
X168960Y625190D02*
X173940Y625190D01*
X173940Y614210D01*
X168960Y614210D01*
X168960Y625190D01*
X168960Y615179D02*
X173940Y615179D01*
X173940Y616148D02*
X168960Y616148D01*
X168960Y617117D02*
X173940Y617117D01*
X173940Y618086D02*
X168960Y618086D01*
X168960Y619055D02*
X173940Y619055D01*
X173940Y620024D02*
X168960Y620024D01*
X168960Y620993D02*
X173940Y620993D01*
X173940Y621962D02*
X168960Y621962D01*
X168960Y622931D02*
X173940Y622931D01*
X173940Y623900D02*
X168960Y623900D01*
X168960Y624869D02*
X173940Y624869D01*
X181660Y625190D02*
X186640Y625190D01*
X186640Y614210D01*
X181660Y614210D01*
X181660Y625190D01*
X181660Y615179D02*
X186640Y615179D01*
X186640Y616148D02*
X181660Y616148D01*
X181660Y617117D02*
X186640Y617117D01*
X186640Y618086D02*
X181660Y618086D01*
X181660Y619055D02*
X186640Y619055D01*
X186640Y620024D02*
X181660Y620024D01*
X181660Y620993D02*
X186640Y620993D01*
X186640Y621962D02*
X181660Y621962D01*
X181660Y622931D02*
X186640Y622931D01*
X186640Y623900D02*
X181660Y623900D01*
X181660Y624869D02*
X186640Y624869D01*
X194360Y625190D02*
X199340Y625190D01*
X199340Y614210D01*
X194360Y614210D01*
X194360Y625190D01*
X194360Y615179D02*
X199340Y615179D01*
X199340Y616148D02*
X194360Y616148D01*
X194360Y617117D02*
X199340Y617117D01*
X199340Y618086D02*
X194360Y618086D01*
X194360Y619055D02*
X199340Y619055D01*
X199340Y620024D02*
X194360Y620024D01*
X194360Y620993D02*
X199340Y620993D01*
X199340Y621962D02*
X194360Y621962D01*
X194360Y622931D02*
X199340Y622931D01*
X199340Y623900D02*
X194360Y623900D01*
X194360Y624869D02*
X199340Y624869D01*
D11*
X224100Y651200D02*
X224100Y661200D01*
X233100Y661200D01*
X233100Y651200D01*
X224100Y651200D01*
X224100Y652150D02*
X233100Y652150D01*
X233100Y653100D02*
X224100Y653100D01*
X224100Y654050D02*
X233100Y654050D01*
X233100Y655000D02*
X224100Y655000D01*
X224100Y655950D02*
X233100Y655950D01*
X233100Y656900D02*
X224100Y656900D01*
X224100Y657850D02*
X233100Y657850D01*
X233100Y658800D02*
X224100Y658800D01*
X224100Y659750D02*
X233100Y659750D01*
X233100Y660700D02*
X224100Y660700D01*
X224100Y644200D02*
X224100Y634200D01*
X224100Y644200D02*
X233100Y644200D01*
X233100Y634200D01*
X224100Y634200D01*
X224100Y635150D02*
X233100Y635150D01*
X233100Y636100D02*
X224100Y636100D01*
X224100Y637050D02*
X233100Y637050D01*
X233100Y638000D02*
X224100Y638000D01*
X224100Y638950D02*
X233100Y638950D01*
X233100Y639900D02*
X224100Y639900D01*
X224100Y640850D02*
X233100Y640850D01*
X233100Y641800D02*
X224100Y641800D01*
X224100Y642750D02*
X233100Y642750D01*
X233100Y643700D02*
X224100Y643700D01*
X195000Y697700D02*
X195000Y707700D01*
X195000Y697700D02*
X186000Y697700D01*
X186000Y707700D01*
X195000Y707700D01*
X195000Y698650D02*
X186000Y698650D01*
X186000Y699600D02*
X195000Y699600D01*
X195000Y700550D02*
X186000Y700550D01*
X186000Y701500D02*
X195000Y701500D01*
X195000Y702450D02*
X186000Y702450D01*
X186000Y703400D02*
X195000Y703400D01*
X195000Y704350D02*
X186000Y704350D01*
X186000Y705300D02*
X195000Y705300D01*
X195000Y706250D02*
X186000Y706250D01*
X186000Y707200D02*
X195000Y707200D01*
X195000Y714700D02*
X195000Y724700D01*
X195000Y714700D02*
X186000Y714700D01*
X186000Y724700D01*
X195000Y724700D01*
X195000Y715650D02*
X186000Y715650D01*
X186000Y716600D02*
X195000Y716600D01*
X195000Y717550D02*
X186000Y717550D01*
X186000Y718500D02*
X195000Y718500D01*
X195000Y719450D02*
X186000Y719450D01*
X186000Y720400D02*
X195000Y720400D01*
X195000Y721350D02*
X186000Y721350D01*
X186000Y722300D02*
X195000Y722300D01*
X195000Y723250D02*
X186000Y723250D01*
X186000Y724200D02*
X195000Y724200D01*
X169600Y707700D02*
X169600Y697700D01*
X160600Y697700D01*
X160600Y707700D01*
X169600Y707700D01*
X169600Y698650D02*
X160600Y698650D01*
X160600Y699600D02*
X169600Y699600D01*
X169600Y700550D02*
X160600Y700550D01*
X160600Y701500D02*
X169600Y701500D01*
X169600Y702450D02*
X160600Y702450D01*
X160600Y703400D02*
X169600Y703400D01*
X169600Y704350D02*
X160600Y704350D01*
X160600Y705300D02*
X169600Y705300D01*
X169600Y706250D02*
X160600Y706250D01*
X160600Y707200D02*
X169600Y707200D01*
X169600Y714700D02*
X169600Y724700D01*
X169600Y714700D02*
X160600Y714700D01*
X160600Y724700D01*
X169600Y724700D01*
X169600Y715650D02*
X160600Y715650D01*
X160600Y716600D02*
X169600Y716600D01*
X169600Y717550D02*
X160600Y717550D01*
X160600Y718500D02*
X169600Y718500D01*
X169600Y719450D02*
X160600Y719450D01*
X160600Y720400D02*
X169600Y720400D01*
X169600Y721350D02*
X160600Y721350D01*
X160600Y722300D02*
X169600Y722300D01*
X169600Y723250D02*
X160600Y723250D01*
X160600Y724200D02*
X169600Y724200D01*
X144200Y707700D02*
X144200Y697700D01*
X135200Y697700D01*
X135200Y707700D01*
X144200Y707700D01*
X144200Y698650D02*
X135200Y698650D01*
X135200Y699600D02*
X144200Y699600D01*
X144200Y700550D02*
X135200Y700550D01*
X135200Y701500D02*
X144200Y701500D01*
X144200Y702450D02*
X135200Y702450D01*
X135200Y703400D02*
X144200Y703400D01*
X144200Y704350D02*
X135200Y704350D01*
X135200Y705300D02*
X144200Y705300D01*
X144200Y706250D02*
X135200Y706250D01*
X135200Y707200D02*
X144200Y707200D01*
X144200Y714700D02*
X144200Y724700D01*
X144200Y714700D02*
X135200Y714700D01*
X135200Y724700D01*
X144200Y724700D01*
X144200Y715650D02*
X135200Y715650D01*
X135200Y716600D02*
X144200Y716600D01*
X144200Y717550D02*
X135200Y717550D01*
X135200Y718500D02*
X144200Y718500D01*
X144200Y719450D02*
X135200Y719450D01*
X135200Y720400D02*
X144200Y720400D01*
X144200Y721350D02*
X135200Y721350D01*
X135200Y722300D02*
X144200Y722300D01*
X144200Y723250D02*
X135200Y723250D01*
X135200Y724200D02*
X144200Y724200D01*
X118800Y707700D02*
X118800Y697700D01*
X109800Y697700D01*
X109800Y707700D01*
X118800Y707700D01*
X118800Y698650D02*
X109800Y698650D01*
X109800Y699600D02*
X118800Y699600D01*
X118800Y700550D02*
X109800Y700550D01*
X109800Y701500D02*
X118800Y701500D01*
X118800Y702450D02*
X109800Y702450D01*
X109800Y703400D02*
X118800Y703400D01*
X118800Y704350D02*
X109800Y704350D01*
X109800Y705300D02*
X118800Y705300D01*
X118800Y706250D02*
X109800Y706250D01*
X109800Y707200D02*
X118800Y707200D01*
X118800Y714700D02*
X118800Y724700D01*
X118800Y714700D02*
X109800Y714700D01*
X109800Y724700D01*
X118800Y724700D01*
X118800Y715650D02*
X109800Y715650D01*
X109800Y716600D02*
X118800Y716600D01*
X118800Y717550D02*
X109800Y717550D01*
X109800Y718500D02*
X118800Y718500D01*
X118800Y719450D02*
X109800Y719450D01*
X109800Y720400D02*
X118800Y720400D01*
X118800Y721350D02*
X109800Y721350D01*
X109800Y722300D02*
X118800Y722300D01*
X118800Y723250D02*
X109800Y723250D01*
X109800Y724200D02*
X118800Y724200D01*
X109800Y597700D02*
X109800Y587700D01*
X109800Y597700D02*
X118800Y597700D01*
X118800Y587700D01*
X109800Y587700D01*
X109800Y588650D02*
X118800Y588650D01*
X118800Y589600D02*
X109800Y589600D01*
X109800Y590550D02*
X118800Y590550D01*
X118800Y591500D02*
X109800Y591500D01*
X109800Y592450D02*
X118800Y592450D01*
X118800Y593400D02*
X109800Y593400D01*
X109800Y594350D02*
X118800Y594350D01*
X118800Y595300D02*
X109800Y595300D01*
X109800Y596250D02*
X118800Y596250D01*
X118800Y597200D02*
X109800Y597200D01*
X109800Y580700D02*
X109800Y570700D01*
X109800Y580700D02*
X118800Y580700D01*
X118800Y570700D01*
X109800Y570700D01*
X109800Y571650D02*
X118800Y571650D01*
X118800Y572600D02*
X109800Y572600D01*
X109800Y573550D02*
X118800Y573550D01*
X118800Y574500D02*
X109800Y574500D01*
X109800Y575450D02*
X118800Y575450D01*
X118800Y576400D02*
X109800Y576400D01*
X109800Y577350D02*
X118800Y577350D01*
X118800Y578300D02*
X109800Y578300D01*
X109800Y579250D02*
X118800Y579250D01*
X118800Y580200D02*
X109800Y580200D01*
X135200Y587700D02*
X135200Y597700D01*
X144200Y597700D01*
X144200Y587700D01*
X135200Y587700D01*
X135200Y588650D02*
X144200Y588650D01*
X144200Y589600D02*
X135200Y589600D01*
X135200Y590550D02*
X144200Y590550D01*
X144200Y591500D02*
X135200Y591500D01*
X135200Y592450D02*
X144200Y592450D01*
X144200Y593400D02*
X135200Y593400D01*
X135200Y594350D02*
X144200Y594350D01*
X144200Y595300D02*
X135200Y595300D01*
X135200Y596250D02*
X144200Y596250D01*
X144200Y597200D02*
X135200Y597200D01*
X135200Y580700D02*
X135200Y570700D01*
X135200Y580700D02*
X144200Y580700D01*
X144200Y570700D01*
X135200Y570700D01*
X135200Y571650D02*
X144200Y571650D01*
X144200Y572600D02*
X135200Y572600D01*
X135200Y573550D02*
X144200Y573550D01*
X144200Y574500D02*
X135200Y574500D01*
X135200Y575450D02*
X144200Y575450D01*
X144200Y576400D02*
X135200Y576400D01*
X135200Y577350D02*
X144200Y577350D01*
X144200Y578300D02*
X135200Y578300D01*
X135200Y579250D02*
X144200Y579250D01*
X144200Y580200D02*
X135200Y580200D01*
X160600Y587700D02*
X160600Y597700D01*
X169600Y597700D01*
X169600Y587700D01*
X160600Y587700D01*
X160600Y588650D02*
X169600Y588650D01*
X169600Y589600D02*
X160600Y589600D01*
X160600Y590550D02*
X169600Y590550D01*
X169600Y591500D02*
X160600Y591500D01*
X160600Y592450D02*
X169600Y592450D01*
X169600Y593400D02*
X160600Y593400D01*
X160600Y594350D02*
X169600Y594350D01*
X169600Y595300D02*
X160600Y595300D01*
X160600Y596250D02*
X169600Y596250D01*
X169600Y597200D02*
X160600Y597200D01*
X160600Y580700D02*
X160600Y570700D01*
X160600Y580700D02*
X169600Y580700D01*
X169600Y570700D01*
X160600Y570700D01*
X160600Y571650D02*
X169600Y571650D01*
X169600Y572600D02*
X160600Y572600D01*
X160600Y573550D02*
X169600Y573550D01*
X169600Y574500D02*
X160600Y574500D01*
X160600Y575450D02*
X169600Y575450D01*
X169600Y576400D02*
X160600Y576400D01*
X160600Y577350D02*
X169600Y577350D01*
X169600Y578300D02*
X160600Y578300D01*
X160600Y579250D02*
X169600Y579250D01*
X169600Y580200D02*
X160600Y580200D01*
X186000Y587700D02*
X186000Y597700D01*
X195000Y597700D01*
X195000Y587700D01*
X186000Y587700D01*
X186000Y588650D02*
X195000Y588650D01*
X195000Y589600D02*
X186000Y589600D01*
X186000Y590550D02*
X195000Y590550D01*
X195000Y591500D02*
X186000Y591500D01*
X186000Y592450D02*
X195000Y592450D01*
X195000Y593400D02*
X186000Y593400D01*
X186000Y594350D02*
X195000Y594350D01*
X195000Y595300D02*
X186000Y595300D01*
X186000Y596250D02*
X195000Y596250D01*
X195000Y597200D02*
X186000Y597200D01*
X186000Y580700D02*
X186000Y570700D01*
X186000Y580700D02*
X195000Y580700D01*
X195000Y570700D01*
X186000Y570700D01*
X186000Y571650D02*
X195000Y571650D01*
X195000Y572600D02*
X186000Y572600D01*
X186000Y573550D02*
X195000Y573550D01*
X195000Y574500D02*
X186000Y574500D01*
X186000Y575450D02*
X195000Y575450D01*
X195000Y576400D02*
X186000Y576400D01*
X186000Y577350D02*
X195000Y577350D01*
X195000Y578300D02*
X186000Y578300D01*
X186000Y579250D02*
X195000Y579250D01*
X195000Y580200D02*
X186000Y580200D01*
D10*
X454310Y842560D02*
X454310Y847540D01*
X470290Y847540D01*
X470290Y842560D01*
X454310Y842560D01*
X454310Y843529D02*
X470290Y843529D01*
X470290Y844498D02*
X454310Y844498D01*
X454310Y845467D02*
X470290Y845467D01*
X470290Y846436D02*
X454310Y846436D01*
X454310Y847405D02*
X470290Y847405D01*
D11*
X481300Y921550D02*
X507300Y921550D01*
X481300Y921550D02*
X481300Y930550D01*
X507300Y930550D01*
X507300Y921550D01*
X507300Y922500D02*
X481300Y922500D01*
X481300Y923450D02*
X507300Y923450D01*
X507300Y924400D02*
X481300Y924400D01*
X481300Y925350D02*
X507300Y925350D01*
X507300Y926300D02*
X481300Y926300D01*
X481300Y927250D02*
X507300Y927250D01*
X507300Y928200D02*
X481300Y928200D01*
X481300Y929150D02*
X507300Y929150D01*
X507300Y930100D02*
X481300Y930100D01*
X481300Y822050D02*
X507300Y822050D01*
X481300Y822050D02*
X481300Y831050D01*
X507300Y831050D01*
X507300Y822050D01*
X507300Y823000D02*
X481300Y823000D01*
X481300Y823950D02*
X507300Y823950D01*
X507300Y824900D02*
X481300Y824900D01*
X481300Y825850D02*
X507300Y825850D01*
X507300Y826800D02*
X481300Y826800D01*
X481300Y827750D02*
X507300Y827750D01*
X507300Y828700D02*
X481300Y828700D01*
X481300Y829650D02*
X507300Y829650D01*
X507300Y830600D02*
X481300Y830600D01*
D10*
X454310Y855060D02*
X454310Y860040D01*
X470290Y860040D01*
X470290Y855060D01*
X454310Y855060D01*
X454310Y856029D02*
X470290Y856029D01*
X470290Y856998D02*
X454310Y856998D01*
X454310Y857967D02*
X470290Y857967D01*
X470290Y858936D02*
X454310Y858936D01*
X454310Y859905D02*
X470290Y859905D01*
X454310Y867560D02*
X454310Y872540D01*
X470290Y872540D01*
X470290Y867560D01*
X454310Y867560D01*
X454310Y868529D02*
X470290Y868529D01*
X470290Y869498D02*
X454310Y869498D01*
X454310Y870467D02*
X470290Y870467D01*
X470290Y871436D02*
X454310Y871436D01*
X454310Y872405D02*
X470290Y872405D01*
X454310Y880060D02*
X454310Y885040D01*
X470290Y885040D01*
X470290Y880060D01*
X454310Y880060D01*
X454310Y881029D02*
X470290Y881029D01*
X470290Y881998D02*
X454310Y881998D01*
X454310Y882967D02*
X470290Y882967D01*
X470290Y883936D02*
X454310Y883936D01*
X454310Y884905D02*
X470290Y884905D01*
X454310Y892560D02*
X454310Y897540D01*
X470290Y897540D01*
X470290Y892560D01*
X454310Y892560D01*
X454310Y893529D02*
X470290Y893529D01*
X470290Y894498D02*
X454310Y894498D01*
X454310Y895467D02*
X470290Y895467D01*
X470290Y896436D02*
X454310Y896436D01*
X454310Y897405D02*
X470290Y897405D01*
X454310Y905060D02*
X454310Y910040D01*
X470290Y910040D01*
X470290Y905060D01*
X454310Y905060D01*
X454310Y906029D02*
X470290Y906029D01*
X470290Y906998D02*
X454310Y906998D01*
X454310Y907967D02*
X470290Y907967D01*
X470290Y908936D02*
X454310Y908936D01*
X454310Y909905D02*
X470290Y909905D01*
X454310Y339540D02*
X454310Y334560D01*
X454310Y339540D02*
X470290Y339540D01*
X470290Y334560D01*
X454310Y334560D01*
X454310Y335529D02*
X470290Y335529D01*
X470290Y336498D02*
X454310Y336498D01*
X454310Y337467D02*
X470290Y337467D01*
X470290Y338436D02*
X454310Y338436D01*
X454310Y339405D02*
X470290Y339405D01*
D11*
X481300Y413550D02*
X507300Y413550D01*
X481300Y413550D02*
X481300Y422550D01*
X507300Y422550D01*
X507300Y413550D01*
X507300Y414500D02*
X481300Y414500D01*
X481300Y415450D02*
X507300Y415450D01*
X507300Y416400D02*
X481300Y416400D01*
X481300Y417350D02*
X507300Y417350D01*
X507300Y418300D02*
X481300Y418300D01*
X481300Y419250D02*
X507300Y419250D01*
X507300Y420200D02*
X481300Y420200D01*
X481300Y421150D02*
X507300Y421150D01*
X507300Y422100D02*
X481300Y422100D01*
X481300Y314050D02*
X507300Y314050D01*
X481300Y314050D02*
X481300Y323050D01*
X507300Y323050D01*
X507300Y314050D01*
X507300Y315000D02*
X481300Y315000D01*
X481300Y315950D02*
X507300Y315950D01*
X507300Y316900D02*
X481300Y316900D01*
X481300Y317850D02*
X507300Y317850D01*
X507300Y318800D02*
X481300Y318800D01*
X481300Y319750D02*
X507300Y319750D01*
X507300Y320700D02*
X481300Y320700D01*
X481300Y321650D02*
X507300Y321650D01*
X507300Y322600D02*
X481300Y322600D01*
D10*
X454310Y347060D02*
X454310Y352040D01*
X470290Y352040D01*
X470290Y347060D01*
X454310Y347060D01*
X454310Y348029D02*
X470290Y348029D01*
X470290Y348998D02*
X454310Y348998D01*
X454310Y349967D02*
X470290Y349967D01*
X470290Y350936D02*
X454310Y350936D01*
X454310Y351905D02*
X470290Y351905D01*
X454310Y359560D02*
X454310Y364540D01*
X470290Y364540D01*
X470290Y359560D01*
X454310Y359560D01*
X454310Y360529D02*
X470290Y360529D01*
X470290Y361498D02*
X454310Y361498D01*
X454310Y362467D02*
X470290Y362467D01*
X470290Y363436D02*
X454310Y363436D01*
X454310Y364405D02*
X470290Y364405D01*
X454310Y372060D02*
X454310Y377040D01*
X470290Y377040D01*
X470290Y372060D01*
X454310Y372060D01*
X454310Y373029D02*
X470290Y373029D01*
X470290Y373998D02*
X454310Y373998D01*
X454310Y374967D02*
X470290Y374967D01*
X470290Y375936D02*
X454310Y375936D01*
X454310Y376905D02*
X470290Y376905D01*
X454310Y384560D02*
X454310Y389540D01*
X470290Y389540D01*
X470290Y384560D01*
X454310Y384560D01*
X454310Y385529D02*
X470290Y385529D01*
X470290Y386498D02*
X454310Y386498D01*
X454310Y387467D02*
X470290Y387467D01*
X470290Y388436D02*
X454310Y388436D01*
X454310Y389405D02*
X470290Y389405D01*
X454310Y397060D02*
X454310Y402040D01*
X470290Y402040D01*
X470290Y397060D01*
X454310Y397060D01*
X454310Y398029D02*
X470290Y398029D01*
X470290Y398998D02*
X454310Y398998D01*
X454310Y399967D02*
X470290Y399967D01*
X470290Y400936D02*
X454310Y400936D01*
X454310Y401905D02*
X470290Y401905D01*
X53690Y905060D02*
X53690Y910040D01*
X53690Y905060D02*
X37710Y905060D01*
X37710Y910040D01*
X53690Y910040D01*
X53690Y906029D02*
X37710Y906029D01*
X37710Y906998D02*
X53690Y906998D01*
X53690Y907967D02*
X37710Y907967D01*
X37710Y908936D02*
X53690Y908936D01*
X53690Y909905D02*
X37710Y909905D01*
D11*
X26700Y831050D02*
X700Y831050D01*
X26700Y831050D02*
X26700Y822050D01*
X700Y822050D01*
X700Y831050D01*
X700Y823000D02*
X26700Y823000D01*
X26700Y823950D02*
X700Y823950D01*
X700Y824900D02*
X26700Y824900D01*
X26700Y825850D02*
X700Y825850D01*
X700Y826800D02*
X26700Y826800D01*
X26700Y827750D02*
X700Y827750D01*
X700Y828700D02*
X26700Y828700D01*
X26700Y829650D02*
X700Y829650D01*
X700Y830600D02*
X26700Y830600D01*
X26700Y930550D02*
X700Y930550D01*
X26700Y930550D02*
X26700Y921550D01*
X700Y921550D01*
X700Y930550D01*
X700Y922500D02*
X26700Y922500D01*
X26700Y923450D02*
X700Y923450D01*
X700Y924400D02*
X26700Y924400D01*
X26700Y925350D02*
X700Y925350D01*
X700Y926300D02*
X26700Y926300D01*
X26700Y927250D02*
X700Y927250D01*
X700Y928200D02*
X26700Y928200D01*
X26700Y929150D02*
X700Y929150D01*
X700Y930100D02*
X26700Y930100D01*
D10*
X53690Y897540D02*
X53690Y892560D01*
X37710Y892560D01*
X37710Y897540D01*
X53690Y897540D01*
X53690Y893529D02*
X37710Y893529D01*
X37710Y894498D02*
X53690Y894498D01*
X53690Y895467D02*
X37710Y895467D01*
X37710Y896436D02*
X53690Y896436D01*
X53690Y897405D02*
X37710Y897405D01*
X53690Y885040D02*
X53690Y880060D01*
X37710Y880060D01*
X37710Y885040D01*
X53690Y885040D01*
X53690Y881029D02*
X37710Y881029D01*
X37710Y881998D02*
X53690Y881998D01*
X53690Y882967D02*
X37710Y882967D01*
X37710Y883936D02*
X53690Y883936D01*
X53690Y884905D02*
X37710Y884905D01*
X53690Y872540D02*
X53690Y867560D01*
X37710Y867560D01*
X37710Y872540D01*
X53690Y872540D01*
X53690Y868529D02*
X37710Y868529D01*
X37710Y869498D02*
X53690Y869498D01*
X53690Y870467D02*
X37710Y870467D01*
X37710Y871436D02*
X53690Y871436D01*
X53690Y872405D02*
X37710Y872405D01*
X53690Y860040D02*
X53690Y855060D01*
X37710Y855060D01*
X37710Y860040D01*
X53690Y860040D01*
X53690Y856029D02*
X37710Y856029D01*
X37710Y856998D02*
X53690Y856998D01*
X53690Y857967D02*
X37710Y857967D01*
X37710Y858936D02*
X53690Y858936D01*
X53690Y859905D02*
X37710Y859905D01*
X53690Y847540D02*
X53690Y842560D01*
X37710Y842560D01*
X37710Y847540D01*
X53690Y847540D01*
X53690Y843529D02*
X37710Y843529D01*
X37710Y844498D02*
X53690Y844498D01*
X53690Y845467D02*
X37710Y845467D01*
X37710Y846436D02*
X53690Y846436D01*
X53690Y847405D02*
X37710Y847405D01*
X53690Y656040D02*
X53690Y651060D01*
X37710Y651060D01*
X37710Y656040D01*
X53690Y656040D01*
X53690Y652029D02*
X37710Y652029D01*
X37710Y652998D02*
X53690Y652998D01*
X53690Y653967D02*
X37710Y653967D01*
X37710Y654936D02*
X53690Y654936D01*
X53690Y655905D02*
X37710Y655905D01*
D11*
X26700Y577050D02*
X700Y577050D01*
X26700Y577050D02*
X26700Y568050D01*
X700Y568050D01*
X700Y577050D01*
X700Y569000D02*
X26700Y569000D01*
X26700Y569950D02*
X700Y569950D01*
X700Y570900D02*
X26700Y570900D01*
X26700Y571850D02*
X700Y571850D01*
X700Y572800D02*
X26700Y572800D01*
X26700Y573750D02*
X700Y573750D01*
X700Y574700D02*
X26700Y574700D01*
X26700Y575650D02*
X700Y575650D01*
X700Y576600D02*
X26700Y576600D01*
X26700Y676550D02*
X700Y676550D01*
X26700Y676550D02*
X26700Y667550D01*
X700Y667550D01*
X700Y676550D01*
X700Y668500D02*
X26700Y668500D01*
X26700Y669450D02*
X700Y669450D01*
X700Y670400D02*
X26700Y670400D01*
X26700Y671350D02*
X700Y671350D01*
X700Y672300D02*
X26700Y672300D01*
X26700Y673250D02*
X700Y673250D01*
X700Y674200D02*
X26700Y674200D01*
X26700Y675150D02*
X700Y675150D01*
X700Y676100D02*
X26700Y676100D01*
D10*
X53690Y643540D02*
X53690Y638560D01*
X37710Y638560D01*
X37710Y643540D01*
X53690Y643540D01*
X53690Y639529D02*
X37710Y639529D01*
X37710Y640498D02*
X53690Y640498D01*
X53690Y641467D02*
X37710Y641467D01*
X37710Y642436D02*
X53690Y642436D01*
X53690Y643405D02*
X37710Y643405D01*
X53690Y631040D02*
X53690Y626060D01*
X37710Y626060D01*
X37710Y631040D01*
X53690Y631040D01*
X53690Y627029D02*
X37710Y627029D01*
X37710Y627998D02*
X53690Y627998D01*
X53690Y628967D02*
X37710Y628967D01*
X37710Y629936D02*
X53690Y629936D01*
X53690Y630905D02*
X37710Y630905D01*
X53690Y618540D02*
X53690Y613560D01*
X37710Y613560D01*
X37710Y618540D01*
X53690Y618540D01*
X53690Y614529D02*
X37710Y614529D01*
X37710Y615498D02*
X53690Y615498D01*
X53690Y616467D02*
X37710Y616467D01*
X37710Y617436D02*
X53690Y617436D01*
X53690Y618405D02*
X37710Y618405D01*
X53690Y606040D02*
X53690Y601060D01*
X37710Y601060D01*
X37710Y606040D01*
X53690Y606040D01*
X53690Y602029D02*
X37710Y602029D01*
X37710Y602998D02*
X53690Y602998D01*
X53690Y603967D02*
X37710Y603967D01*
X37710Y604936D02*
X53690Y604936D01*
X53690Y605905D02*
X37710Y605905D01*
X53690Y593540D02*
X53690Y588560D01*
X37710Y588560D01*
X37710Y593540D01*
X53690Y593540D01*
X53690Y589529D02*
X37710Y589529D01*
X37710Y590498D02*
X53690Y590498D01*
X53690Y591467D02*
X37710Y591467D01*
X37710Y592436D02*
X53690Y592436D01*
X53690Y593405D02*
X37710Y593405D01*
X53690Y402040D02*
X53690Y397060D01*
X37710Y397060D01*
X37710Y402040D01*
X53690Y402040D01*
X53690Y398029D02*
X37710Y398029D01*
X37710Y398998D02*
X53690Y398998D01*
X53690Y399967D02*
X37710Y399967D01*
X37710Y400936D02*
X53690Y400936D01*
X53690Y401905D02*
X37710Y401905D01*
D11*
X26700Y323050D02*
X700Y323050D01*
X26700Y323050D02*
X26700Y314050D01*
X700Y314050D01*
X700Y323050D01*
X700Y315000D02*
X26700Y315000D01*
X26700Y315950D02*
X700Y315950D01*
X700Y316900D02*
X26700Y316900D01*
X26700Y317850D02*
X700Y317850D01*
X700Y318800D02*
X26700Y318800D01*
X26700Y319750D02*
X700Y319750D01*
X700Y320700D02*
X26700Y320700D01*
X26700Y321650D02*
X700Y321650D01*
X700Y322600D02*
X26700Y322600D01*
X26700Y422550D02*
X700Y422550D01*
X26700Y422550D02*
X26700Y413550D01*
X700Y413550D01*
X700Y422550D01*
X700Y414500D02*
X26700Y414500D01*
X26700Y415450D02*
X700Y415450D01*
X700Y416400D02*
X26700Y416400D01*
X26700Y417350D02*
X700Y417350D01*
X700Y418300D02*
X26700Y418300D01*
X26700Y419250D02*
X700Y419250D01*
X700Y420200D02*
X26700Y420200D01*
X26700Y421150D02*
X700Y421150D01*
X700Y422100D02*
X26700Y422100D01*
D10*
X53690Y389540D02*
X53690Y384560D01*
X37710Y384560D01*
X37710Y389540D01*
X53690Y389540D01*
X53690Y385529D02*
X37710Y385529D01*
X37710Y386498D02*
X53690Y386498D01*
X53690Y387467D02*
X37710Y387467D01*
X37710Y388436D02*
X53690Y388436D01*
X53690Y389405D02*
X37710Y389405D01*
X53690Y377040D02*
X53690Y372060D01*
X37710Y372060D01*
X37710Y377040D01*
X53690Y377040D01*
X53690Y373029D02*
X37710Y373029D01*
X37710Y373998D02*
X53690Y373998D01*
X53690Y374967D02*
X37710Y374967D01*
X37710Y375936D02*
X53690Y375936D01*
X53690Y376905D02*
X37710Y376905D01*
X53690Y364540D02*
X53690Y359560D01*
X37710Y359560D01*
X37710Y364540D01*
X53690Y364540D01*
X53690Y360529D02*
X37710Y360529D01*
X37710Y361498D02*
X53690Y361498D01*
X53690Y362467D02*
X37710Y362467D01*
X37710Y363436D02*
X53690Y363436D01*
X53690Y364405D02*
X37710Y364405D01*
X53690Y352040D02*
X53690Y347060D01*
X37710Y347060D01*
X37710Y352040D01*
X53690Y352040D01*
X53690Y348029D02*
X37710Y348029D01*
X37710Y348998D02*
X53690Y348998D01*
X53690Y349967D02*
X37710Y349967D01*
X37710Y350936D02*
X53690Y350936D01*
X53690Y351905D02*
X37710Y351905D01*
X53690Y339540D02*
X53690Y334560D01*
X37710Y334560D01*
X37710Y339540D01*
X53690Y339540D01*
X53690Y335529D02*
X37710Y335529D01*
X37710Y336498D02*
X53690Y336498D01*
X53690Y337467D02*
X37710Y337467D01*
X37710Y338436D02*
X53690Y338436D01*
X53690Y339405D02*
X37710Y339405D01*
D11*
X274900Y778200D02*
X274900Y788200D01*
X283900Y788200D01*
X283900Y778200D01*
X274900Y778200D01*
X274900Y779150D02*
X283900Y779150D01*
X283900Y780100D02*
X274900Y780100D01*
X274900Y781050D02*
X283900Y781050D01*
X283900Y782000D02*
X274900Y782000D01*
X274900Y782950D02*
X283900Y782950D01*
X283900Y783900D02*
X274900Y783900D01*
X274900Y784850D02*
X283900Y784850D01*
X283900Y785800D02*
X274900Y785800D01*
X274900Y786750D02*
X283900Y786750D01*
X283900Y787700D02*
X274900Y787700D01*
X274900Y771200D02*
X274900Y761200D01*
X274900Y771200D02*
X283900Y771200D01*
X283900Y761200D01*
X274900Y761200D01*
X274900Y762150D02*
X283900Y762150D01*
X283900Y763100D02*
X274900Y763100D01*
X274900Y764050D02*
X283900Y764050D01*
X283900Y765000D02*
X274900Y765000D01*
X274900Y765950D02*
X283900Y765950D01*
X283900Y766900D02*
X274900Y766900D01*
X274900Y767850D02*
X283900Y767850D01*
X283900Y768800D02*
X274900Y768800D01*
X274900Y769750D02*
X283900Y769750D01*
X283900Y770700D02*
X274900Y770700D01*
X300300Y778200D02*
X300300Y788200D01*
X309300Y788200D01*
X309300Y778200D01*
X300300Y778200D01*
X300300Y779150D02*
X309300Y779150D01*
X309300Y780100D02*
X300300Y780100D01*
X300300Y781050D02*
X309300Y781050D01*
X309300Y782000D02*
X300300Y782000D01*
X300300Y782950D02*
X309300Y782950D01*
X309300Y783900D02*
X300300Y783900D01*
X300300Y784850D02*
X309300Y784850D01*
X309300Y785800D02*
X300300Y785800D01*
X300300Y786750D02*
X309300Y786750D01*
X309300Y787700D02*
X300300Y787700D01*
X300300Y771200D02*
X300300Y761200D01*
X300300Y771200D02*
X309300Y771200D01*
X309300Y761200D01*
X300300Y761200D01*
X300300Y762150D02*
X309300Y762150D01*
X309300Y763100D02*
X300300Y763100D01*
X300300Y764050D02*
X309300Y764050D01*
X309300Y765000D02*
X300300Y765000D01*
X300300Y765950D02*
X309300Y765950D01*
X309300Y766900D02*
X300300Y766900D01*
X300300Y767850D02*
X309300Y767850D01*
X309300Y768800D02*
X300300Y768800D01*
X300300Y769750D02*
X309300Y769750D01*
X309300Y770700D02*
X300300Y770700D01*
X325700Y778200D02*
X325700Y788200D01*
X334700Y788200D01*
X334700Y778200D01*
X325700Y778200D01*
X325700Y779150D02*
X334700Y779150D01*
X334700Y780100D02*
X325700Y780100D01*
X325700Y781050D02*
X334700Y781050D01*
X334700Y782000D02*
X325700Y782000D01*
X325700Y782950D02*
X334700Y782950D01*
X334700Y783900D02*
X325700Y783900D01*
X325700Y784850D02*
X334700Y784850D01*
X334700Y785800D02*
X325700Y785800D01*
X325700Y786750D02*
X334700Y786750D01*
X334700Y787700D02*
X325700Y787700D01*
X325700Y771200D02*
X325700Y761200D01*
X325700Y771200D02*
X334700Y771200D01*
X334700Y761200D01*
X325700Y761200D01*
X325700Y762150D02*
X334700Y762150D01*
X334700Y763100D02*
X325700Y763100D01*
X325700Y764050D02*
X334700Y764050D01*
X334700Y765000D02*
X325700Y765000D01*
X325700Y765950D02*
X334700Y765950D01*
X334700Y766900D02*
X325700Y766900D01*
X325700Y767850D02*
X334700Y767850D01*
X334700Y768800D02*
X325700Y768800D01*
X325700Y769750D02*
X334700Y769750D01*
X334700Y770700D02*
X325700Y770700D01*
X165900Y169600D02*
X155900Y169600D01*
X165900Y169600D02*
X165900Y160600D01*
X155900Y160600D01*
X155900Y169600D01*
X155900Y161550D02*
X165900Y161550D01*
X165900Y162500D02*
X155900Y162500D01*
X155900Y163450D02*
X165900Y163450D01*
X165900Y164400D02*
X155900Y164400D01*
X155900Y165350D02*
X165900Y165350D01*
X165900Y166300D02*
X155900Y166300D01*
X155900Y167250D02*
X165900Y167250D01*
X165900Y168200D02*
X155900Y168200D01*
X155900Y169150D02*
X165900Y169150D01*
X148900Y169600D02*
X138900Y169600D01*
X148900Y169600D02*
X148900Y160600D01*
X138900Y160600D01*
X138900Y169600D01*
X138900Y161550D02*
X148900Y161550D01*
X148900Y162500D02*
X138900Y162500D01*
X138900Y163450D02*
X148900Y163450D01*
X148900Y164400D02*
X138900Y164400D01*
X138900Y165350D02*
X148900Y165350D01*
X148900Y166300D02*
X138900Y166300D01*
X138900Y167250D02*
X148900Y167250D01*
X148900Y168200D02*
X138900Y168200D01*
X138900Y169150D02*
X148900Y169150D01*
X155900Y525200D02*
X165900Y525200D01*
X165900Y516200D01*
X155900Y516200D01*
X155900Y525200D01*
X155900Y517150D02*
X165900Y517150D01*
X165900Y518100D02*
X155900Y518100D01*
X155900Y519050D02*
X165900Y519050D01*
X165900Y520000D02*
X155900Y520000D01*
X155900Y520950D02*
X165900Y520950D01*
X165900Y521900D02*
X155900Y521900D01*
X155900Y522850D02*
X165900Y522850D01*
X165900Y523800D02*
X155900Y523800D01*
X155900Y524750D02*
X165900Y524750D01*
X148900Y525200D02*
X138900Y525200D01*
X148900Y525200D02*
X148900Y516200D01*
X138900Y516200D01*
X138900Y525200D01*
X138900Y517150D02*
X148900Y517150D01*
X148900Y518100D02*
X138900Y518100D01*
X138900Y519050D02*
X148900Y519050D01*
X148900Y520000D02*
X138900Y520000D01*
X138900Y520950D02*
X148900Y520950D01*
X148900Y521900D02*
X138900Y521900D01*
X138900Y522850D02*
X148900Y522850D01*
X148900Y523800D02*
X138900Y523800D01*
X138900Y524750D02*
X148900Y524750D01*
X155900Y893500D02*
X165900Y893500D01*
X165900Y884500D01*
X155900Y884500D01*
X155900Y893500D01*
X155900Y885450D02*
X165900Y885450D01*
X165900Y886400D02*
X155900Y886400D01*
X155900Y887350D02*
X165900Y887350D01*
X165900Y888300D02*
X155900Y888300D01*
X155900Y889250D02*
X165900Y889250D01*
X165900Y890200D02*
X155900Y890200D01*
X155900Y891150D02*
X165900Y891150D01*
X165900Y892100D02*
X155900Y892100D01*
X155900Y893050D02*
X165900Y893050D01*
X148900Y893500D02*
X138900Y893500D01*
X148900Y893500D02*
X148900Y884500D01*
X138900Y884500D01*
X138900Y893500D01*
X138900Y885450D02*
X148900Y885450D01*
X148900Y886400D02*
X138900Y886400D01*
X138900Y887350D02*
X148900Y887350D01*
X148900Y888300D02*
X138900Y888300D01*
X138900Y889250D02*
X148900Y889250D01*
X148900Y890200D02*
X138900Y890200D01*
X138900Y891150D02*
X148900Y891150D01*
X148900Y892100D02*
X138900Y892100D01*
X138900Y893050D02*
X148900Y893050D01*
X321000Y525200D02*
X331000Y525200D01*
X331000Y516200D01*
X321000Y516200D01*
X321000Y525200D01*
X321000Y517150D02*
X331000Y517150D01*
X331000Y518100D02*
X321000Y518100D01*
X321000Y519050D02*
X331000Y519050D01*
X331000Y520000D02*
X321000Y520000D01*
X321000Y520950D02*
X331000Y520950D01*
X331000Y521900D02*
X321000Y521900D01*
X321000Y522850D02*
X331000Y522850D01*
X331000Y523800D02*
X321000Y523800D01*
X321000Y524750D02*
X331000Y524750D01*
X314000Y525200D02*
X304000Y525200D01*
X314000Y525200D02*
X314000Y516200D01*
X304000Y516200D01*
X304000Y525200D01*
X304000Y517150D02*
X314000Y517150D01*
X314000Y518100D02*
X304000Y518100D01*
X304000Y519050D02*
X314000Y519050D01*
X314000Y520000D02*
X304000Y520000D01*
X304000Y520950D02*
X314000Y520950D01*
X314000Y521900D02*
X304000Y521900D01*
X304000Y522850D02*
X314000Y522850D01*
X314000Y523800D02*
X304000Y523800D01*
X304000Y524750D02*
X314000Y524750D01*
X321000Y893500D02*
X331000Y893500D01*
X331000Y884500D01*
X321000Y884500D01*
X321000Y893500D01*
X321000Y885450D02*
X331000Y885450D01*
X331000Y886400D02*
X321000Y886400D01*
X321000Y887350D02*
X331000Y887350D01*
X331000Y888300D02*
X321000Y888300D01*
X321000Y889250D02*
X331000Y889250D01*
X331000Y890200D02*
X321000Y890200D01*
X321000Y891150D02*
X331000Y891150D01*
X331000Y892100D02*
X321000Y892100D01*
X321000Y893050D02*
X331000Y893050D01*
X314000Y893500D02*
X304000Y893500D01*
X314000Y893500D02*
X314000Y884500D01*
X304000Y884500D01*
X304000Y893500D01*
X304000Y885450D02*
X314000Y885450D01*
X314000Y886400D02*
X304000Y886400D01*
X304000Y887350D02*
X314000Y887350D01*
X314000Y888300D02*
X304000Y888300D01*
X304000Y889250D02*
X314000Y889250D01*
X314000Y890200D02*
X304000Y890200D01*
X304000Y891150D02*
X314000Y891150D01*
X314000Y892100D02*
X304000Y892100D01*
X304000Y893050D02*
X314000Y893050D01*
D10*
X454310Y969560D02*
X454310Y974540D01*
X470290Y974540D01*
X470290Y969560D01*
X454310Y969560D01*
X454310Y970529D02*
X470290Y970529D01*
X470290Y971498D02*
X454310Y971498D01*
X454310Y972467D02*
X470290Y972467D01*
X470290Y973436D02*
X454310Y973436D01*
X454310Y974405D02*
X470290Y974405D01*
D11*
X481300Y1048550D02*
X507300Y1048550D01*
X481300Y1048550D02*
X481300Y1057550D01*
X507300Y1057550D01*
X507300Y1048550D01*
X507300Y1049500D02*
X481300Y1049500D01*
X481300Y1050450D02*
X507300Y1050450D01*
X507300Y1051400D02*
X481300Y1051400D01*
X481300Y1052350D02*
X507300Y1052350D01*
X507300Y1053300D02*
X481300Y1053300D01*
X481300Y1054250D02*
X507300Y1054250D01*
X507300Y1055200D02*
X481300Y1055200D01*
X481300Y1056150D02*
X507300Y1056150D01*
X507300Y1057100D02*
X481300Y1057100D01*
X481300Y949050D02*
X507300Y949050D01*
X481300Y949050D02*
X481300Y958050D01*
X507300Y958050D01*
X507300Y949050D01*
X507300Y950000D02*
X481300Y950000D01*
X481300Y950950D02*
X507300Y950950D01*
X507300Y951900D02*
X481300Y951900D01*
X481300Y952850D02*
X507300Y952850D01*
X507300Y953800D02*
X481300Y953800D01*
X481300Y954750D02*
X507300Y954750D01*
X507300Y955700D02*
X481300Y955700D01*
X481300Y956650D02*
X507300Y956650D01*
X507300Y957600D02*
X481300Y957600D01*
D10*
X454310Y982060D02*
X454310Y987040D01*
X470290Y987040D01*
X470290Y982060D01*
X454310Y982060D01*
X454310Y983029D02*
X470290Y983029D01*
X470290Y983998D02*
X454310Y983998D01*
X454310Y984967D02*
X470290Y984967D01*
X470290Y985936D02*
X454310Y985936D01*
X454310Y986905D02*
X470290Y986905D01*
X454310Y994560D02*
X454310Y999540D01*
X470290Y999540D01*
X470290Y994560D01*
X454310Y994560D01*
X454310Y995529D02*
X470290Y995529D01*
X470290Y996498D02*
X454310Y996498D01*
X454310Y997467D02*
X470290Y997467D01*
X470290Y998436D02*
X454310Y998436D01*
X454310Y999405D02*
X470290Y999405D01*
X454310Y1007060D02*
X454310Y1012040D01*
X470290Y1012040D01*
X470290Y1007060D01*
X454310Y1007060D01*
X454310Y1008029D02*
X470290Y1008029D01*
X470290Y1008998D02*
X454310Y1008998D01*
X454310Y1009967D02*
X470290Y1009967D01*
X470290Y1010936D02*
X454310Y1010936D01*
X454310Y1011905D02*
X470290Y1011905D01*
X454310Y1019560D02*
X454310Y1024540D01*
X470290Y1024540D01*
X470290Y1019560D01*
X454310Y1019560D01*
X454310Y1020529D02*
X470290Y1020529D01*
X470290Y1021498D02*
X454310Y1021498D01*
X454310Y1022467D02*
X470290Y1022467D01*
X470290Y1023436D02*
X454310Y1023436D01*
X454310Y1024405D02*
X470290Y1024405D01*
X454310Y1032060D02*
X454310Y1037040D01*
X470290Y1037040D01*
X470290Y1032060D01*
X454310Y1032060D01*
X454310Y1033029D02*
X470290Y1033029D01*
X470290Y1033998D02*
X454310Y1033998D01*
X454310Y1034967D02*
X470290Y1034967D01*
X470290Y1035936D02*
X454310Y1035936D01*
X454310Y1036905D02*
X470290Y1036905D01*
X53690Y148040D02*
X53690Y143060D01*
X37710Y143060D01*
X37710Y148040D01*
X53690Y148040D01*
X53690Y144029D02*
X37710Y144029D01*
X37710Y144998D02*
X53690Y144998D01*
X53690Y145967D02*
X37710Y145967D01*
X37710Y146936D02*
X53690Y146936D01*
X53690Y147905D02*
X37710Y147905D01*
D11*
X26700Y69050D02*
X700Y69050D01*
X26700Y69050D02*
X26700Y60050D01*
X700Y60050D01*
X700Y69050D01*
X700Y61000D02*
X26700Y61000D01*
X26700Y61950D02*
X700Y61950D01*
X700Y62900D02*
X26700Y62900D01*
X26700Y63850D02*
X700Y63850D01*
X700Y64800D02*
X26700Y64800D01*
X26700Y65750D02*
X700Y65750D01*
X700Y66700D02*
X26700Y66700D01*
X26700Y67650D02*
X700Y67650D01*
X700Y68600D02*
X26700Y68600D01*
X26700Y168550D02*
X700Y168550D01*
X26700Y168550D02*
X26700Y159550D01*
X700Y159550D01*
X700Y168550D01*
X700Y160500D02*
X26700Y160500D01*
X26700Y161450D02*
X700Y161450D01*
X700Y162400D02*
X26700Y162400D01*
X26700Y163350D02*
X700Y163350D01*
X700Y164300D02*
X26700Y164300D01*
X26700Y165250D02*
X700Y165250D01*
X700Y166200D02*
X26700Y166200D01*
X26700Y167150D02*
X700Y167150D01*
X700Y168100D02*
X26700Y168100D01*
D10*
X53690Y135540D02*
X53690Y130560D01*
X37710Y130560D01*
X37710Y135540D01*
X53690Y135540D01*
X53690Y131529D02*
X37710Y131529D01*
X37710Y132498D02*
X53690Y132498D01*
X53690Y133467D02*
X37710Y133467D01*
X37710Y134436D02*
X53690Y134436D01*
X53690Y135405D02*
X37710Y135405D01*
X53690Y123040D02*
X53690Y118060D01*
X37710Y118060D01*
X37710Y123040D01*
X53690Y123040D01*
X53690Y119029D02*
X37710Y119029D01*
X37710Y119998D02*
X53690Y119998D01*
X53690Y120967D02*
X37710Y120967D01*
X37710Y121936D02*
X53690Y121936D01*
X53690Y122905D02*
X37710Y122905D01*
X53690Y110540D02*
X53690Y105560D01*
X37710Y105560D01*
X37710Y110540D01*
X53690Y110540D01*
X53690Y106529D02*
X37710Y106529D01*
X37710Y107498D02*
X53690Y107498D01*
X53690Y108467D02*
X37710Y108467D01*
X37710Y109436D02*
X53690Y109436D01*
X53690Y110405D02*
X37710Y110405D01*
X53690Y98040D02*
X53690Y93060D01*
X37710Y93060D01*
X37710Y98040D01*
X53690Y98040D01*
X53690Y94029D02*
X37710Y94029D01*
X37710Y94998D02*
X53690Y94998D01*
X53690Y95967D02*
X37710Y95967D01*
X37710Y96936D02*
X53690Y96936D01*
X53690Y97905D02*
X37710Y97905D01*
X53690Y85540D02*
X53690Y80560D01*
X37710Y80560D01*
X37710Y85540D01*
X53690Y85540D01*
X53690Y81529D02*
X37710Y81529D01*
X37710Y82498D02*
X53690Y82498D01*
X53690Y83467D02*
X37710Y83467D01*
X37710Y84436D02*
X53690Y84436D01*
X53690Y85405D02*
X37710Y85405D01*
X194360Y147790D02*
X199340Y147790D01*
X199340Y136810D01*
X194360Y136810D01*
X194360Y147790D01*
X194360Y137779D02*
X199340Y137779D01*
X199340Y138748D02*
X194360Y138748D01*
X194360Y139717D02*
X199340Y139717D01*
X199340Y140686D02*
X194360Y140686D01*
X194360Y141655D02*
X199340Y141655D01*
X199340Y142624D02*
X194360Y142624D01*
X194360Y143593D02*
X199340Y143593D01*
X199340Y144562D02*
X194360Y144562D01*
X194360Y145531D02*
X199340Y145531D01*
X199340Y146500D02*
X194360Y146500D01*
X194360Y147469D02*
X199340Y147469D01*
X186640Y147790D02*
X181660Y147790D01*
X186640Y147790D02*
X186640Y136810D01*
X181660Y136810D01*
X181660Y147790D01*
X181660Y137779D02*
X186640Y137779D01*
X186640Y138748D02*
X181660Y138748D01*
X181660Y139717D02*
X186640Y139717D01*
X186640Y140686D02*
X181660Y140686D01*
X181660Y141655D02*
X186640Y141655D01*
X186640Y142624D02*
X181660Y142624D01*
X181660Y143593D02*
X186640Y143593D01*
X186640Y144562D02*
X181660Y144562D01*
X181660Y145531D02*
X186640Y145531D01*
X186640Y146500D02*
X181660Y146500D01*
X181660Y147469D02*
X186640Y147469D01*
X173940Y147790D02*
X168960Y147790D01*
X173940Y147790D02*
X173940Y136810D01*
X168960Y136810D01*
X168960Y147790D01*
X168960Y137779D02*
X173940Y137779D01*
X173940Y138748D02*
X168960Y138748D01*
X168960Y139717D02*
X173940Y139717D01*
X173940Y140686D02*
X168960Y140686D01*
X168960Y141655D02*
X173940Y141655D01*
X173940Y142624D02*
X168960Y142624D01*
X168960Y143593D02*
X173940Y143593D01*
X173940Y144562D02*
X168960Y144562D01*
X168960Y145531D02*
X173940Y145531D01*
X173940Y146500D02*
X168960Y146500D01*
X168960Y147469D02*
X173940Y147469D01*
X161240Y147790D02*
X156260Y147790D01*
X161240Y147790D02*
X161240Y136810D01*
X156260Y136810D01*
X156260Y147790D01*
X156260Y137779D02*
X161240Y137779D01*
X161240Y138748D02*
X156260Y138748D01*
X156260Y139717D02*
X161240Y139717D01*
X161240Y140686D02*
X156260Y140686D01*
X156260Y141655D02*
X161240Y141655D01*
X161240Y142624D02*
X156260Y142624D01*
X156260Y143593D02*
X161240Y143593D01*
X161240Y144562D02*
X156260Y144562D01*
X156260Y145531D02*
X161240Y145531D01*
X161240Y146500D02*
X156260Y146500D01*
X156260Y147469D02*
X161240Y147469D01*
X148540Y147790D02*
X143560Y147790D01*
X148540Y147790D02*
X148540Y136810D01*
X143560Y136810D01*
X143560Y147790D01*
X143560Y137779D02*
X148540Y137779D01*
X148540Y138748D02*
X143560Y138748D01*
X143560Y139717D02*
X148540Y139717D01*
X148540Y140686D02*
X143560Y140686D01*
X143560Y141655D02*
X148540Y141655D01*
X148540Y142624D02*
X143560Y142624D01*
X143560Y143593D02*
X148540Y143593D01*
X148540Y144562D02*
X143560Y144562D01*
X143560Y145531D02*
X148540Y145531D01*
X148540Y146500D02*
X143560Y146500D01*
X143560Y147469D02*
X148540Y147469D01*
X135840Y147790D02*
X130860Y147790D01*
X135840Y147790D02*
X135840Y136810D01*
X130860Y136810D01*
X130860Y147790D01*
X130860Y137779D02*
X135840Y137779D01*
X135840Y138748D02*
X130860Y138748D01*
X130860Y139717D02*
X135840Y139717D01*
X135840Y140686D02*
X130860Y140686D01*
X130860Y141655D02*
X135840Y141655D01*
X135840Y142624D02*
X130860Y142624D01*
X130860Y143593D02*
X135840Y143593D01*
X135840Y144562D02*
X130860Y144562D01*
X130860Y145531D02*
X135840Y145531D01*
X135840Y146500D02*
X130860Y146500D01*
X130860Y147469D02*
X135840Y147469D01*
X123140Y147790D02*
X118160Y147790D01*
X123140Y147790D02*
X123140Y136810D01*
X118160Y136810D01*
X118160Y147790D01*
X118160Y137779D02*
X123140Y137779D01*
X123140Y138748D02*
X118160Y138748D01*
X118160Y139717D02*
X123140Y139717D01*
X123140Y140686D02*
X118160Y140686D01*
X118160Y141655D02*
X123140Y141655D01*
X123140Y142624D02*
X118160Y142624D01*
X118160Y143593D02*
X123140Y143593D01*
X123140Y144562D02*
X118160Y144562D01*
X118160Y145531D02*
X123140Y145531D01*
X123140Y146500D02*
X118160Y146500D01*
X118160Y147469D02*
X123140Y147469D01*
X110440Y147790D02*
X105460Y147790D01*
X110440Y147790D02*
X110440Y136810D01*
X105460Y136810D01*
X105460Y147790D01*
X105460Y137779D02*
X110440Y137779D01*
X110440Y138748D02*
X105460Y138748D01*
X105460Y139717D02*
X110440Y139717D01*
X110440Y140686D02*
X105460Y140686D01*
X105460Y141655D02*
X110440Y141655D01*
X110440Y142624D02*
X105460Y142624D01*
X105460Y143593D02*
X110440Y143593D01*
X110440Y144562D02*
X105460Y144562D01*
X105460Y145531D02*
X110440Y145531D01*
X110440Y146500D02*
X105460Y146500D01*
X105460Y147469D02*
X110440Y147469D01*
X110440Y91790D02*
X105460Y91790D01*
X110440Y91790D02*
X110440Y80810D01*
X105460Y80810D01*
X105460Y91790D01*
X105460Y81779D02*
X110440Y81779D01*
X110440Y82748D02*
X105460Y82748D01*
X105460Y83717D02*
X110440Y83717D01*
X110440Y84686D02*
X105460Y84686D01*
X105460Y85655D02*
X110440Y85655D01*
X110440Y86624D02*
X105460Y86624D01*
X105460Y87593D02*
X110440Y87593D01*
X110440Y88562D02*
X105460Y88562D01*
X105460Y89531D02*
X110440Y89531D01*
X110440Y90500D02*
X105460Y90500D01*
X105460Y91469D02*
X110440Y91469D01*
X118160Y91790D02*
X123140Y91790D01*
X123140Y80810D01*
X118160Y80810D01*
X118160Y91790D01*
X118160Y81779D02*
X123140Y81779D01*
X123140Y82748D02*
X118160Y82748D01*
X118160Y83717D02*
X123140Y83717D01*
X123140Y84686D02*
X118160Y84686D01*
X118160Y85655D02*
X123140Y85655D01*
X123140Y86624D02*
X118160Y86624D01*
X118160Y87593D02*
X123140Y87593D01*
X123140Y88562D02*
X118160Y88562D01*
X118160Y89531D02*
X123140Y89531D01*
X123140Y90500D02*
X118160Y90500D01*
X118160Y91469D02*
X123140Y91469D01*
X130860Y91790D02*
X135840Y91790D01*
X135840Y80810D01*
X130860Y80810D01*
X130860Y91790D01*
X130860Y81779D02*
X135840Y81779D01*
X135840Y82748D02*
X130860Y82748D01*
X130860Y83717D02*
X135840Y83717D01*
X135840Y84686D02*
X130860Y84686D01*
X130860Y85655D02*
X135840Y85655D01*
X135840Y86624D02*
X130860Y86624D01*
X130860Y87593D02*
X135840Y87593D01*
X135840Y88562D02*
X130860Y88562D01*
X130860Y89531D02*
X135840Y89531D01*
X135840Y90500D02*
X130860Y90500D01*
X130860Y91469D02*
X135840Y91469D01*
X143560Y91790D02*
X148540Y91790D01*
X148540Y80810D01*
X143560Y80810D01*
X143560Y91790D01*
X143560Y81779D02*
X148540Y81779D01*
X148540Y82748D02*
X143560Y82748D01*
X143560Y83717D02*
X148540Y83717D01*
X148540Y84686D02*
X143560Y84686D01*
X143560Y85655D02*
X148540Y85655D01*
X148540Y86624D02*
X143560Y86624D01*
X143560Y87593D02*
X148540Y87593D01*
X148540Y88562D02*
X143560Y88562D01*
X143560Y89531D02*
X148540Y89531D01*
X148540Y90500D02*
X143560Y90500D01*
X143560Y91469D02*
X148540Y91469D01*
X156260Y91790D02*
X161240Y91790D01*
X161240Y80810D01*
X156260Y80810D01*
X156260Y91790D01*
X156260Y81779D02*
X161240Y81779D01*
X161240Y82748D02*
X156260Y82748D01*
X156260Y83717D02*
X161240Y83717D01*
X161240Y84686D02*
X156260Y84686D01*
X156260Y85655D02*
X161240Y85655D01*
X161240Y86624D02*
X156260Y86624D01*
X156260Y87593D02*
X161240Y87593D01*
X161240Y88562D02*
X156260Y88562D01*
X156260Y89531D02*
X161240Y89531D01*
X161240Y90500D02*
X156260Y90500D01*
X156260Y91469D02*
X161240Y91469D01*
X168960Y91790D02*
X173940Y91790D01*
X173940Y80810D01*
X168960Y80810D01*
X168960Y91790D01*
X168960Y81779D02*
X173940Y81779D01*
X173940Y82748D02*
X168960Y82748D01*
X168960Y83717D02*
X173940Y83717D01*
X173940Y84686D02*
X168960Y84686D01*
X168960Y85655D02*
X173940Y85655D01*
X173940Y86624D02*
X168960Y86624D01*
X168960Y87593D02*
X173940Y87593D01*
X173940Y88562D02*
X168960Y88562D01*
X168960Y89531D02*
X173940Y89531D01*
X173940Y90500D02*
X168960Y90500D01*
X168960Y91469D02*
X173940Y91469D01*
X181660Y91790D02*
X186640Y91790D01*
X186640Y80810D01*
X181660Y80810D01*
X181660Y91790D01*
X181660Y81779D02*
X186640Y81779D01*
X186640Y82748D02*
X181660Y82748D01*
X181660Y83717D02*
X186640Y83717D01*
X186640Y84686D02*
X181660Y84686D01*
X181660Y85655D02*
X186640Y85655D01*
X186640Y86624D02*
X181660Y86624D01*
X181660Y87593D02*
X186640Y87593D01*
X186640Y88562D02*
X181660Y88562D01*
X181660Y89531D02*
X186640Y89531D01*
X186640Y90500D02*
X181660Y90500D01*
X181660Y91469D02*
X186640Y91469D01*
X194360Y91790D02*
X199340Y91790D01*
X199340Y80810D01*
X194360Y80810D01*
X194360Y91790D01*
X194360Y81779D02*
X199340Y81779D01*
X199340Y82748D02*
X194360Y82748D01*
X194360Y83717D02*
X199340Y83717D01*
X199340Y84686D02*
X194360Y84686D01*
X194360Y85655D02*
X199340Y85655D01*
X199340Y86624D02*
X194360Y86624D01*
X194360Y87593D02*
X199340Y87593D01*
X199340Y88562D02*
X194360Y88562D01*
X194360Y89531D02*
X199340Y89531D01*
X199340Y90500D02*
X194360Y90500D01*
X194360Y91469D02*
X199340Y91469D01*
D11*
X233100Y100800D02*
X233100Y110800D01*
X233100Y100800D02*
X224100Y100800D01*
X224100Y110800D01*
X233100Y110800D01*
X233100Y101750D02*
X224100Y101750D01*
X224100Y102700D02*
X233100Y102700D01*
X233100Y103650D02*
X224100Y103650D01*
X224100Y104600D02*
X233100Y104600D01*
X233100Y105550D02*
X224100Y105550D01*
X224100Y106500D02*
X233100Y106500D01*
X233100Y107450D02*
X224100Y107450D01*
X224100Y108400D02*
X233100Y108400D01*
X233100Y109350D02*
X224100Y109350D01*
X224100Y110300D02*
X233100Y110300D01*
X233100Y117800D02*
X233100Y127800D01*
X233100Y117800D02*
X224100Y117800D01*
X224100Y127800D01*
X233100Y127800D01*
X233100Y118750D02*
X224100Y118750D01*
X224100Y119700D02*
X233100Y119700D01*
X233100Y120650D02*
X224100Y120650D01*
X224100Y121600D02*
X233100Y121600D01*
X233100Y122550D02*
X224100Y122550D01*
X224100Y123500D02*
X233100Y123500D01*
X233100Y124450D02*
X224100Y124450D01*
X224100Y125400D02*
X233100Y125400D01*
X233100Y126350D02*
X224100Y126350D01*
X224100Y127300D02*
X233100Y127300D01*
D10*
X454310Y85540D02*
X454310Y80560D01*
X454310Y85540D02*
X470290Y85540D01*
X470290Y80560D01*
X454310Y80560D01*
X454310Y81529D02*
X470290Y81529D01*
X470290Y82498D02*
X454310Y82498D01*
X454310Y83467D02*
X470290Y83467D01*
X470290Y84436D02*
X454310Y84436D01*
X454310Y85405D02*
X470290Y85405D01*
D11*
X481300Y159550D02*
X507300Y159550D01*
X481300Y159550D02*
X481300Y168550D01*
X507300Y168550D01*
X507300Y159550D01*
X507300Y160500D02*
X481300Y160500D01*
X481300Y161450D02*
X507300Y161450D01*
X507300Y162400D02*
X481300Y162400D01*
X481300Y163350D02*
X507300Y163350D01*
X507300Y164300D02*
X481300Y164300D01*
X481300Y165250D02*
X507300Y165250D01*
X507300Y166200D02*
X481300Y166200D01*
X481300Y167150D02*
X507300Y167150D01*
X507300Y168100D02*
X481300Y168100D01*
X481300Y60050D02*
X507300Y60050D01*
X481300Y60050D02*
X481300Y69050D01*
X507300Y69050D01*
X507300Y60050D01*
X507300Y61000D02*
X481300Y61000D01*
X481300Y61950D02*
X507300Y61950D01*
X507300Y62900D02*
X481300Y62900D01*
X481300Y63850D02*
X507300Y63850D01*
X507300Y64800D02*
X481300Y64800D01*
X481300Y65750D02*
X507300Y65750D01*
X507300Y66700D02*
X481300Y66700D01*
X481300Y67650D02*
X507300Y67650D01*
X507300Y68600D02*
X481300Y68600D01*
D10*
X454310Y93060D02*
X454310Y98040D01*
X470290Y98040D01*
X470290Y93060D01*
X454310Y93060D01*
X454310Y94029D02*
X470290Y94029D01*
X470290Y94998D02*
X454310Y94998D01*
X454310Y95967D02*
X470290Y95967D01*
X470290Y96936D02*
X454310Y96936D01*
X454310Y97905D02*
X470290Y97905D01*
X454310Y105560D02*
X454310Y110540D01*
X470290Y110540D01*
X470290Y105560D01*
X454310Y105560D01*
X454310Y106529D02*
X470290Y106529D01*
X470290Y107498D02*
X454310Y107498D01*
X454310Y108467D02*
X470290Y108467D01*
X470290Y109436D02*
X454310Y109436D01*
X454310Y110405D02*
X470290Y110405D01*
X454310Y118060D02*
X454310Y123040D01*
X470290Y123040D01*
X470290Y118060D01*
X454310Y118060D01*
X454310Y119029D02*
X470290Y119029D01*
X470290Y119998D02*
X454310Y119998D01*
X454310Y120967D02*
X470290Y120967D01*
X470290Y121936D02*
X454310Y121936D01*
X454310Y122905D02*
X470290Y122905D01*
X454310Y130560D02*
X454310Y135540D01*
X470290Y135540D01*
X470290Y130560D01*
X454310Y130560D01*
X454310Y131529D02*
X470290Y131529D01*
X470290Y132498D02*
X454310Y132498D01*
X454310Y133467D02*
X470290Y133467D01*
X470290Y134436D02*
X454310Y134436D01*
X454310Y135405D02*
X470290Y135405D01*
X454310Y143060D02*
X454310Y148040D01*
X470290Y148040D01*
X470290Y143060D01*
X454310Y143060D01*
X454310Y144029D02*
X470290Y144029D01*
X470290Y144998D02*
X454310Y144998D01*
X454310Y145967D02*
X470290Y145967D01*
X470290Y146936D02*
X454310Y146936D01*
X454310Y147905D02*
X470290Y147905D01*
X199340Y338290D02*
X194360Y338290D01*
X199340Y338290D02*
X199340Y327310D01*
X194360Y327310D01*
X194360Y338290D01*
X194360Y328279D02*
X199340Y328279D01*
X199340Y329248D02*
X194360Y329248D01*
X194360Y330217D02*
X199340Y330217D01*
X199340Y331186D02*
X194360Y331186D01*
X194360Y332155D02*
X199340Y332155D01*
X199340Y333124D02*
X194360Y333124D01*
X194360Y334093D02*
X199340Y334093D01*
X199340Y335062D02*
X194360Y335062D01*
X194360Y336031D02*
X199340Y336031D01*
X199340Y337000D02*
X194360Y337000D01*
X194360Y337969D02*
X199340Y337969D01*
X186640Y338290D02*
X181660Y338290D01*
X186640Y338290D02*
X186640Y327310D01*
X181660Y327310D01*
X181660Y338290D01*
X181660Y328279D02*
X186640Y328279D01*
X186640Y329248D02*
X181660Y329248D01*
X181660Y330217D02*
X186640Y330217D01*
X186640Y331186D02*
X181660Y331186D01*
X181660Y332155D02*
X186640Y332155D01*
X186640Y333124D02*
X181660Y333124D01*
X181660Y334093D02*
X186640Y334093D01*
X186640Y335062D02*
X181660Y335062D01*
X181660Y336031D02*
X186640Y336031D01*
X186640Y337000D02*
X181660Y337000D01*
X181660Y337969D02*
X186640Y337969D01*
X173940Y338290D02*
X168960Y338290D01*
X173940Y338290D02*
X173940Y327310D01*
X168960Y327310D01*
X168960Y338290D01*
X168960Y328279D02*
X173940Y328279D01*
X173940Y329248D02*
X168960Y329248D01*
X168960Y330217D02*
X173940Y330217D01*
X173940Y331186D02*
X168960Y331186D01*
X168960Y332155D02*
X173940Y332155D01*
X173940Y333124D02*
X168960Y333124D01*
X168960Y334093D02*
X173940Y334093D01*
X173940Y335062D02*
X168960Y335062D01*
X168960Y336031D02*
X173940Y336031D01*
X173940Y337000D02*
X168960Y337000D01*
X168960Y337969D02*
X173940Y337969D01*
X161240Y338290D02*
X156260Y338290D01*
X161240Y338290D02*
X161240Y327310D01*
X156260Y327310D01*
X156260Y338290D01*
X156260Y328279D02*
X161240Y328279D01*
X161240Y329248D02*
X156260Y329248D01*
X156260Y330217D02*
X161240Y330217D01*
X161240Y331186D02*
X156260Y331186D01*
X156260Y332155D02*
X161240Y332155D01*
X161240Y333124D02*
X156260Y333124D01*
X156260Y334093D02*
X161240Y334093D01*
X161240Y335062D02*
X156260Y335062D01*
X156260Y336031D02*
X161240Y336031D01*
X161240Y337000D02*
X156260Y337000D01*
X156260Y337969D02*
X161240Y337969D01*
X148540Y338290D02*
X143560Y338290D01*
X148540Y338290D02*
X148540Y327310D01*
X143560Y327310D01*
X143560Y338290D01*
X143560Y328279D02*
X148540Y328279D01*
X148540Y329248D02*
X143560Y329248D01*
X143560Y330217D02*
X148540Y330217D01*
X148540Y331186D02*
X143560Y331186D01*
X143560Y332155D02*
X148540Y332155D01*
X148540Y333124D02*
X143560Y333124D01*
X143560Y334093D02*
X148540Y334093D01*
X148540Y335062D02*
X143560Y335062D01*
X143560Y336031D02*
X148540Y336031D01*
X148540Y337000D02*
X143560Y337000D01*
X143560Y337969D02*
X148540Y337969D01*
X135840Y338290D02*
X130860Y338290D01*
X135840Y338290D02*
X135840Y327310D01*
X130860Y327310D01*
X130860Y338290D01*
X130860Y328279D02*
X135840Y328279D01*
X135840Y329248D02*
X130860Y329248D01*
X130860Y330217D02*
X135840Y330217D01*
X135840Y331186D02*
X130860Y331186D01*
X130860Y332155D02*
X135840Y332155D01*
X135840Y333124D02*
X130860Y333124D01*
X130860Y334093D02*
X135840Y334093D01*
X135840Y335062D02*
X130860Y335062D01*
X130860Y336031D02*
X135840Y336031D01*
X135840Y337000D02*
X130860Y337000D01*
X130860Y337969D02*
X135840Y337969D01*
X123140Y338290D02*
X118160Y338290D01*
X123140Y338290D02*
X123140Y327310D01*
X118160Y327310D01*
X118160Y338290D01*
X118160Y328279D02*
X123140Y328279D01*
X123140Y329248D02*
X118160Y329248D01*
X118160Y330217D02*
X123140Y330217D01*
X123140Y331186D02*
X118160Y331186D01*
X118160Y332155D02*
X123140Y332155D01*
X123140Y333124D02*
X118160Y333124D01*
X118160Y334093D02*
X123140Y334093D01*
X123140Y335062D02*
X118160Y335062D01*
X118160Y336031D02*
X123140Y336031D01*
X123140Y337000D02*
X118160Y337000D01*
X118160Y337969D02*
X123140Y337969D01*
X110440Y338290D02*
X105460Y338290D01*
X110440Y338290D02*
X110440Y327310D01*
X105460Y327310D01*
X105460Y338290D01*
X105460Y328279D02*
X110440Y328279D01*
X110440Y329248D02*
X105460Y329248D01*
X105460Y330217D02*
X110440Y330217D01*
X110440Y331186D02*
X105460Y331186D01*
X105460Y332155D02*
X110440Y332155D01*
X110440Y333124D02*
X105460Y333124D01*
X105460Y334093D02*
X110440Y334093D01*
X110440Y335062D02*
X105460Y335062D01*
X105460Y336031D02*
X110440Y336031D01*
X110440Y337000D02*
X105460Y337000D01*
X105460Y337969D02*
X110440Y337969D01*
X110440Y282290D02*
X105460Y282290D01*
X110440Y282290D02*
X110440Y271310D01*
X105460Y271310D01*
X105460Y282290D01*
X105460Y272279D02*
X110440Y272279D01*
X110440Y273248D02*
X105460Y273248D01*
X105460Y274217D02*
X110440Y274217D01*
X110440Y275186D02*
X105460Y275186D01*
X105460Y276155D02*
X110440Y276155D01*
X110440Y277124D02*
X105460Y277124D01*
X105460Y278093D02*
X110440Y278093D01*
X110440Y279062D02*
X105460Y279062D01*
X105460Y280031D02*
X110440Y280031D01*
X110440Y281000D02*
X105460Y281000D01*
X105460Y281969D02*
X110440Y281969D01*
X118160Y282290D02*
X123140Y282290D01*
X123140Y271310D01*
X118160Y271310D01*
X118160Y282290D01*
X118160Y272279D02*
X123140Y272279D01*
X123140Y273248D02*
X118160Y273248D01*
X118160Y274217D02*
X123140Y274217D01*
X123140Y275186D02*
X118160Y275186D01*
X118160Y276155D02*
X123140Y276155D01*
X123140Y277124D02*
X118160Y277124D01*
X118160Y278093D02*
X123140Y278093D01*
X123140Y279062D02*
X118160Y279062D01*
X118160Y280031D02*
X123140Y280031D01*
X123140Y281000D02*
X118160Y281000D01*
X118160Y281969D02*
X123140Y281969D01*
X130860Y282290D02*
X135840Y282290D01*
X135840Y271310D01*
X130860Y271310D01*
X130860Y282290D01*
X130860Y272279D02*
X135840Y272279D01*
X135840Y273248D02*
X130860Y273248D01*
X130860Y274217D02*
X135840Y274217D01*
X135840Y275186D02*
X130860Y275186D01*
X130860Y276155D02*
X135840Y276155D01*
X135840Y277124D02*
X130860Y277124D01*
X130860Y278093D02*
X135840Y278093D01*
X135840Y279062D02*
X130860Y279062D01*
X130860Y280031D02*
X135840Y280031D01*
X135840Y281000D02*
X130860Y281000D01*
X130860Y281969D02*
X135840Y281969D01*
X143560Y282290D02*
X148540Y282290D01*
X148540Y271310D01*
X143560Y271310D01*
X143560Y282290D01*
X143560Y272279D02*
X148540Y272279D01*
X148540Y273248D02*
X143560Y273248D01*
X143560Y274217D02*
X148540Y274217D01*
X148540Y275186D02*
X143560Y275186D01*
X143560Y276155D02*
X148540Y276155D01*
X148540Y277124D02*
X143560Y277124D01*
X143560Y278093D02*
X148540Y278093D01*
X148540Y279062D02*
X143560Y279062D01*
X143560Y280031D02*
X148540Y280031D01*
X148540Y281000D02*
X143560Y281000D01*
X143560Y281969D02*
X148540Y281969D01*
X156260Y282290D02*
X161240Y282290D01*
X161240Y271310D01*
X156260Y271310D01*
X156260Y282290D01*
X156260Y272279D02*
X161240Y272279D01*
X161240Y273248D02*
X156260Y273248D01*
X156260Y274217D02*
X161240Y274217D01*
X161240Y275186D02*
X156260Y275186D01*
X156260Y276155D02*
X161240Y276155D01*
X161240Y277124D02*
X156260Y277124D01*
X156260Y278093D02*
X161240Y278093D01*
X161240Y279062D02*
X156260Y279062D01*
X156260Y280031D02*
X161240Y280031D01*
X161240Y281000D02*
X156260Y281000D01*
X156260Y281969D02*
X161240Y281969D01*
X168960Y282290D02*
X173940Y282290D01*
X173940Y271310D01*
X168960Y271310D01*
X168960Y282290D01*
X168960Y272279D02*
X173940Y272279D01*
X173940Y273248D02*
X168960Y273248D01*
X168960Y274217D02*
X173940Y274217D01*
X173940Y275186D02*
X168960Y275186D01*
X168960Y276155D02*
X173940Y276155D01*
X173940Y277124D02*
X168960Y277124D01*
X168960Y278093D02*
X173940Y278093D01*
X173940Y279062D02*
X168960Y279062D01*
X168960Y280031D02*
X173940Y280031D01*
X173940Y281000D02*
X168960Y281000D01*
X168960Y281969D02*
X173940Y281969D01*
X181660Y282290D02*
X186640Y282290D01*
X186640Y271310D01*
X181660Y271310D01*
X181660Y282290D01*
X181660Y272279D02*
X186640Y272279D01*
X186640Y273248D02*
X181660Y273248D01*
X181660Y274217D02*
X186640Y274217D01*
X186640Y275186D02*
X181660Y275186D01*
X181660Y276155D02*
X186640Y276155D01*
X186640Y277124D02*
X181660Y277124D01*
X181660Y278093D02*
X186640Y278093D01*
X186640Y279062D02*
X181660Y279062D01*
X181660Y280031D02*
X186640Y280031D01*
X186640Y281000D02*
X181660Y281000D01*
X181660Y281969D02*
X186640Y281969D01*
X194360Y282290D02*
X199340Y282290D01*
X199340Y271310D01*
X194360Y271310D01*
X194360Y282290D01*
X194360Y272279D02*
X199340Y272279D01*
X199340Y273248D02*
X194360Y273248D01*
X194360Y274217D02*
X199340Y274217D01*
X199340Y275186D02*
X194360Y275186D01*
X194360Y276155D02*
X199340Y276155D01*
X199340Y277124D02*
X194360Y277124D01*
X194360Y278093D02*
X199340Y278093D01*
X199340Y279062D02*
X194360Y279062D01*
X194360Y280031D02*
X199340Y280031D01*
X199340Y281000D02*
X194360Y281000D01*
X194360Y281969D02*
X199340Y281969D01*
D11*
X224100Y308300D02*
X224100Y318300D01*
X233100Y318300D01*
X233100Y308300D01*
X224100Y308300D01*
X224100Y309250D02*
X233100Y309250D01*
X233100Y310200D02*
X224100Y310200D01*
X224100Y311150D02*
X233100Y311150D01*
X233100Y312100D02*
X224100Y312100D01*
X224100Y313050D02*
X233100Y313050D01*
X233100Y314000D02*
X224100Y314000D01*
X224100Y314950D02*
X233100Y314950D01*
X233100Y315900D02*
X224100Y315900D01*
X224100Y316850D02*
X233100Y316850D01*
X233100Y317800D02*
X224100Y317800D01*
X224100Y301300D02*
X224100Y291300D01*
X224100Y301300D02*
X233100Y301300D01*
X233100Y291300D01*
X224100Y291300D01*
X224100Y292250D02*
X233100Y292250D01*
X233100Y293200D02*
X224100Y293200D01*
X224100Y294150D02*
X233100Y294150D01*
X233100Y295100D02*
X224100Y295100D01*
X224100Y296050D02*
X233100Y296050D01*
X233100Y297000D02*
X224100Y297000D01*
X224100Y297950D02*
X233100Y297950D01*
X233100Y298900D02*
X224100Y298900D01*
X224100Y299850D02*
X233100Y299850D01*
X233100Y300800D02*
X224100Y300800D01*
X195000Y354800D02*
X195000Y364800D01*
X195000Y354800D02*
X186000Y354800D01*
X186000Y364800D01*
X195000Y364800D01*
X195000Y355750D02*
X186000Y355750D01*
X186000Y356700D02*
X195000Y356700D01*
X195000Y357650D02*
X186000Y357650D01*
X186000Y358600D02*
X195000Y358600D01*
X195000Y359550D02*
X186000Y359550D01*
X186000Y360500D02*
X195000Y360500D01*
X195000Y361450D02*
X186000Y361450D01*
X186000Y362400D02*
X195000Y362400D01*
X195000Y363350D02*
X186000Y363350D01*
X186000Y364300D02*
X195000Y364300D01*
X195000Y371800D02*
X195000Y381800D01*
X195000Y371800D02*
X186000Y371800D01*
X186000Y381800D01*
X195000Y381800D01*
X195000Y372750D02*
X186000Y372750D01*
X186000Y373700D02*
X195000Y373700D01*
X195000Y374650D02*
X186000Y374650D01*
X186000Y375600D02*
X195000Y375600D01*
X195000Y376550D02*
X186000Y376550D01*
X186000Y377500D02*
X195000Y377500D01*
X195000Y378450D02*
X186000Y378450D01*
X186000Y379400D02*
X195000Y379400D01*
X195000Y380350D02*
X186000Y380350D01*
X186000Y381300D02*
X195000Y381300D01*
X169600Y364800D02*
X169600Y354800D01*
X160600Y354800D01*
X160600Y364800D01*
X169600Y364800D01*
X169600Y355750D02*
X160600Y355750D01*
X160600Y356700D02*
X169600Y356700D01*
X169600Y357650D02*
X160600Y357650D01*
X160600Y358600D02*
X169600Y358600D01*
X169600Y359550D02*
X160600Y359550D01*
X160600Y360500D02*
X169600Y360500D01*
X169600Y361450D02*
X160600Y361450D01*
X160600Y362400D02*
X169600Y362400D01*
X169600Y363350D02*
X160600Y363350D01*
X160600Y364300D02*
X169600Y364300D01*
X169600Y371800D02*
X169600Y381800D01*
X169600Y371800D02*
X160600Y371800D01*
X160600Y381800D01*
X169600Y381800D01*
X169600Y372750D02*
X160600Y372750D01*
X160600Y373700D02*
X169600Y373700D01*
X169600Y374650D02*
X160600Y374650D01*
X160600Y375600D02*
X169600Y375600D01*
X169600Y376550D02*
X160600Y376550D01*
X160600Y377500D02*
X169600Y377500D01*
X169600Y378450D02*
X160600Y378450D01*
X160600Y379400D02*
X169600Y379400D01*
X169600Y380350D02*
X160600Y380350D01*
X160600Y381300D02*
X169600Y381300D01*
X144200Y364800D02*
X144200Y354800D01*
X135200Y354800D01*
X135200Y364800D01*
X144200Y364800D01*
X144200Y355750D02*
X135200Y355750D01*
X135200Y356700D02*
X144200Y356700D01*
X144200Y357650D02*
X135200Y357650D01*
X135200Y358600D02*
X144200Y358600D01*
X144200Y359550D02*
X135200Y359550D01*
X135200Y360500D02*
X144200Y360500D01*
X144200Y361450D02*
X135200Y361450D01*
X135200Y362400D02*
X144200Y362400D01*
X144200Y363350D02*
X135200Y363350D01*
X135200Y364300D02*
X144200Y364300D01*
X144200Y371800D02*
X144200Y381800D01*
X144200Y371800D02*
X135200Y371800D01*
X135200Y381800D01*
X144200Y381800D01*
X144200Y372750D02*
X135200Y372750D01*
X135200Y373700D02*
X144200Y373700D01*
X144200Y374650D02*
X135200Y374650D01*
X135200Y375600D02*
X144200Y375600D01*
X144200Y376550D02*
X135200Y376550D01*
X135200Y377500D02*
X144200Y377500D01*
X144200Y378450D02*
X135200Y378450D01*
X135200Y379400D02*
X144200Y379400D01*
X144200Y380350D02*
X135200Y380350D01*
X135200Y381300D02*
X144200Y381300D01*
X118800Y364800D02*
X118800Y354800D01*
X109800Y354800D01*
X109800Y364800D01*
X118800Y364800D01*
X118800Y355750D02*
X109800Y355750D01*
X109800Y356700D02*
X118800Y356700D01*
X118800Y357650D02*
X109800Y357650D01*
X109800Y358600D02*
X118800Y358600D01*
X118800Y359550D02*
X109800Y359550D01*
X109800Y360500D02*
X118800Y360500D01*
X118800Y361450D02*
X109800Y361450D01*
X109800Y362400D02*
X118800Y362400D01*
X118800Y363350D02*
X109800Y363350D01*
X109800Y364300D02*
X118800Y364300D01*
X118800Y371800D02*
X118800Y381800D01*
X118800Y371800D02*
X109800Y371800D01*
X109800Y381800D01*
X118800Y381800D01*
X118800Y372750D02*
X109800Y372750D01*
X109800Y373700D02*
X118800Y373700D01*
X118800Y374650D02*
X109800Y374650D01*
X109800Y375600D02*
X118800Y375600D01*
X118800Y376550D02*
X109800Y376550D01*
X109800Y377500D02*
X118800Y377500D01*
X118800Y378450D02*
X109800Y378450D01*
X109800Y379400D02*
X118800Y379400D01*
X118800Y380350D02*
X109800Y380350D01*
X109800Y381300D02*
X118800Y381300D01*
X109800Y254800D02*
X109800Y244800D01*
X109800Y254800D02*
X118800Y254800D01*
X118800Y244800D01*
X109800Y244800D01*
X109800Y245750D02*
X118800Y245750D01*
X118800Y246700D02*
X109800Y246700D01*
X109800Y247650D02*
X118800Y247650D01*
X118800Y248600D02*
X109800Y248600D01*
X109800Y249550D02*
X118800Y249550D01*
X118800Y250500D02*
X109800Y250500D01*
X109800Y251450D02*
X118800Y251450D01*
X118800Y252400D02*
X109800Y252400D01*
X109800Y253350D02*
X118800Y253350D01*
X118800Y254300D02*
X109800Y254300D01*
X109800Y237800D02*
X109800Y227800D01*
X109800Y237800D02*
X118800Y237800D01*
X118800Y227800D01*
X109800Y227800D01*
X109800Y228750D02*
X118800Y228750D01*
X118800Y229700D02*
X109800Y229700D01*
X109800Y230650D02*
X118800Y230650D01*
X118800Y231600D02*
X109800Y231600D01*
X109800Y232550D02*
X118800Y232550D01*
X118800Y233500D02*
X109800Y233500D01*
X109800Y234450D02*
X118800Y234450D01*
X118800Y235400D02*
X109800Y235400D01*
X109800Y236350D02*
X118800Y236350D01*
X118800Y237300D02*
X109800Y237300D01*
X135200Y244800D02*
X135200Y254800D01*
X144200Y254800D01*
X144200Y244800D01*
X135200Y244800D01*
X135200Y245750D02*
X144200Y245750D01*
X144200Y246700D02*
X135200Y246700D01*
X135200Y247650D02*
X144200Y247650D01*
X144200Y248600D02*
X135200Y248600D01*
X135200Y249550D02*
X144200Y249550D01*
X144200Y250500D02*
X135200Y250500D01*
X135200Y251450D02*
X144200Y251450D01*
X144200Y252400D02*
X135200Y252400D01*
X135200Y253350D02*
X144200Y253350D01*
X144200Y254300D02*
X135200Y254300D01*
X135200Y237800D02*
X135200Y227800D01*
X135200Y237800D02*
X144200Y237800D01*
X144200Y227800D01*
X135200Y227800D01*
X135200Y228750D02*
X144200Y228750D01*
X144200Y229700D02*
X135200Y229700D01*
X135200Y230650D02*
X144200Y230650D01*
X144200Y231600D02*
X135200Y231600D01*
X135200Y232550D02*
X144200Y232550D01*
X144200Y233500D02*
X135200Y233500D01*
X135200Y234450D02*
X144200Y234450D01*
X144200Y235400D02*
X135200Y235400D01*
X135200Y236350D02*
X144200Y236350D01*
X144200Y237300D02*
X135200Y237300D01*
X160600Y244800D02*
X160600Y254800D01*
X169600Y254800D01*
X169600Y244800D01*
X160600Y244800D01*
X160600Y245750D02*
X169600Y245750D01*
X169600Y246700D02*
X160600Y246700D01*
X160600Y247650D02*
X169600Y247650D01*
X169600Y248600D02*
X160600Y248600D01*
X160600Y249550D02*
X169600Y249550D01*
X169600Y250500D02*
X160600Y250500D01*
X160600Y251450D02*
X169600Y251450D01*
X169600Y252400D02*
X160600Y252400D01*
X160600Y253350D02*
X169600Y253350D01*
X169600Y254300D02*
X160600Y254300D01*
X160600Y237800D02*
X160600Y227800D01*
X160600Y237800D02*
X169600Y237800D01*
X169600Y227800D01*
X160600Y227800D01*
X160600Y228750D02*
X169600Y228750D01*
X169600Y229700D02*
X160600Y229700D01*
X160600Y230650D02*
X169600Y230650D01*
X169600Y231600D02*
X160600Y231600D01*
X160600Y232550D02*
X169600Y232550D01*
X169600Y233500D02*
X160600Y233500D01*
X160600Y234450D02*
X169600Y234450D01*
X169600Y235400D02*
X160600Y235400D01*
X160600Y236350D02*
X169600Y236350D01*
X169600Y237300D02*
X160600Y237300D01*
X186000Y244800D02*
X186000Y254800D01*
X195000Y254800D01*
X195000Y244800D01*
X186000Y244800D01*
X186000Y245750D02*
X195000Y245750D01*
X195000Y246700D02*
X186000Y246700D01*
X186000Y247650D02*
X195000Y247650D01*
X195000Y248600D02*
X186000Y248600D01*
X186000Y249550D02*
X195000Y249550D01*
X195000Y250500D02*
X186000Y250500D01*
X186000Y251450D02*
X195000Y251450D01*
X195000Y252400D02*
X186000Y252400D01*
X186000Y253350D02*
X195000Y253350D01*
X195000Y254300D02*
X186000Y254300D01*
X186000Y237800D02*
X186000Y227800D01*
X186000Y237800D02*
X195000Y237800D01*
X195000Y227800D01*
X186000Y227800D01*
X186000Y228750D02*
X195000Y228750D01*
X195000Y229700D02*
X186000Y229700D01*
X186000Y230650D02*
X195000Y230650D01*
X195000Y231600D02*
X186000Y231600D01*
X186000Y232550D02*
X195000Y232550D01*
X195000Y233500D02*
X186000Y233500D01*
X186000Y234450D02*
X195000Y234450D01*
X195000Y235400D02*
X186000Y235400D01*
X186000Y236350D02*
X195000Y236350D01*
X195000Y237300D02*
X186000Y237300D01*
D10*
X53690Y778060D02*
X53690Y783040D01*
X53690Y778060D02*
X37710Y778060D01*
X37710Y783040D01*
X53690Y783040D01*
X53690Y779029D02*
X37710Y779029D01*
X37710Y779998D02*
X53690Y779998D01*
X53690Y780967D02*
X37710Y780967D01*
X37710Y781936D02*
X53690Y781936D01*
X53690Y782905D02*
X37710Y782905D01*
D11*
X26700Y704050D02*
X700Y704050D01*
X26700Y704050D02*
X26700Y695050D01*
X700Y695050D01*
X700Y704050D01*
X700Y696000D02*
X26700Y696000D01*
X26700Y696950D02*
X700Y696950D01*
X700Y697900D02*
X26700Y697900D01*
X26700Y698850D02*
X700Y698850D01*
X700Y699800D02*
X26700Y699800D01*
X26700Y700750D02*
X700Y700750D01*
X700Y701700D02*
X26700Y701700D01*
X26700Y702650D02*
X700Y702650D01*
X700Y703600D02*
X26700Y703600D01*
X26700Y803550D02*
X700Y803550D01*
X26700Y803550D02*
X26700Y794550D01*
X700Y794550D01*
X700Y803550D01*
X700Y795500D02*
X26700Y795500D01*
X26700Y796450D02*
X700Y796450D01*
X700Y797400D02*
X26700Y797400D01*
X26700Y798350D02*
X700Y798350D01*
X700Y799300D02*
X26700Y799300D01*
X26700Y800250D02*
X700Y800250D01*
X700Y801200D02*
X26700Y801200D01*
X26700Y802150D02*
X700Y802150D01*
X700Y803100D02*
X26700Y803100D01*
D10*
X53690Y770540D02*
X53690Y765560D01*
X37710Y765560D01*
X37710Y770540D01*
X53690Y770540D01*
X53690Y766529D02*
X37710Y766529D01*
X37710Y767498D02*
X53690Y767498D01*
X53690Y768467D02*
X37710Y768467D01*
X37710Y769436D02*
X53690Y769436D01*
X53690Y770405D02*
X37710Y770405D01*
X53690Y758040D02*
X53690Y753060D01*
X37710Y753060D01*
X37710Y758040D01*
X53690Y758040D01*
X53690Y754029D02*
X37710Y754029D01*
X37710Y754998D02*
X53690Y754998D01*
X53690Y755967D02*
X37710Y755967D01*
X37710Y756936D02*
X53690Y756936D01*
X53690Y757905D02*
X37710Y757905D01*
X53690Y745540D02*
X53690Y740560D01*
X37710Y740560D01*
X37710Y745540D01*
X53690Y745540D01*
X53690Y741529D02*
X37710Y741529D01*
X37710Y742498D02*
X53690Y742498D01*
X53690Y743467D02*
X37710Y743467D01*
X37710Y744436D02*
X53690Y744436D01*
X53690Y745405D02*
X37710Y745405D01*
X53690Y733040D02*
X53690Y728060D01*
X37710Y728060D01*
X37710Y733040D01*
X53690Y733040D01*
X53690Y729029D02*
X37710Y729029D01*
X37710Y729998D02*
X53690Y729998D01*
X53690Y730967D02*
X37710Y730967D01*
X37710Y731936D02*
X53690Y731936D01*
X53690Y732905D02*
X37710Y732905D01*
X53690Y720540D02*
X53690Y715560D01*
X37710Y715560D01*
X37710Y720540D01*
X53690Y720540D01*
X53690Y716529D02*
X37710Y716529D01*
X37710Y717498D02*
X53690Y717498D01*
X53690Y718467D02*
X37710Y718467D01*
X37710Y719436D02*
X53690Y719436D01*
X53690Y720405D02*
X37710Y720405D01*
X53690Y529040D02*
X53690Y524060D01*
X37710Y524060D01*
X37710Y529040D01*
X53690Y529040D01*
X53690Y525029D02*
X37710Y525029D01*
X37710Y525998D02*
X53690Y525998D01*
X53690Y526967D02*
X37710Y526967D01*
X37710Y527936D02*
X53690Y527936D01*
X53690Y528905D02*
X37710Y528905D01*
D11*
X26700Y450050D02*
X700Y450050D01*
X26700Y450050D02*
X26700Y441050D01*
X700Y441050D01*
X700Y450050D01*
X700Y442000D02*
X26700Y442000D01*
X26700Y442950D02*
X700Y442950D01*
X700Y443900D02*
X26700Y443900D01*
X26700Y444850D02*
X700Y444850D01*
X700Y445800D02*
X26700Y445800D01*
X26700Y446750D02*
X700Y446750D01*
X700Y447700D02*
X26700Y447700D01*
X26700Y448650D02*
X700Y448650D01*
X700Y449600D02*
X26700Y449600D01*
X26700Y549550D02*
X700Y549550D01*
X26700Y549550D02*
X26700Y540550D01*
X700Y540550D01*
X700Y549550D01*
X700Y541500D02*
X26700Y541500D01*
X26700Y542450D02*
X700Y542450D01*
X700Y543400D02*
X26700Y543400D01*
X26700Y544350D02*
X700Y544350D01*
X700Y545300D02*
X26700Y545300D01*
X26700Y546250D02*
X700Y546250D01*
X700Y547200D02*
X26700Y547200D01*
X26700Y548150D02*
X700Y548150D01*
X700Y549100D02*
X26700Y549100D01*
D10*
X53690Y516540D02*
X53690Y511560D01*
X37710Y511560D01*
X37710Y516540D01*
X53690Y516540D01*
X53690Y512529D02*
X37710Y512529D01*
X37710Y513498D02*
X53690Y513498D01*
X53690Y514467D02*
X37710Y514467D01*
X37710Y515436D02*
X53690Y515436D01*
X53690Y516405D02*
X37710Y516405D01*
X53690Y504040D02*
X53690Y499060D01*
X37710Y499060D01*
X37710Y504040D01*
X53690Y504040D01*
X53690Y500029D02*
X37710Y500029D01*
X37710Y500998D02*
X53690Y500998D01*
X53690Y501967D02*
X37710Y501967D01*
X37710Y502936D02*
X53690Y502936D01*
X53690Y503905D02*
X37710Y503905D01*
X53690Y491540D02*
X53690Y486560D01*
X37710Y486560D01*
X37710Y491540D01*
X53690Y491540D01*
X53690Y487529D02*
X37710Y487529D01*
X37710Y488498D02*
X53690Y488498D01*
X53690Y489467D02*
X37710Y489467D01*
X37710Y490436D02*
X53690Y490436D01*
X53690Y491405D02*
X37710Y491405D01*
X53690Y479040D02*
X53690Y474060D01*
X37710Y474060D01*
X37710Y479040D01*
X53690Y479040D01*
X53690Y475029D02*
X37710Y475029D01*
X37710Y475998D02*
X53690Y475998D01*
X53690Y476967D02*
X37710Y476967D01*
X37710Y477936D02*
X53690Y477936D01*
X53690Y478905D02*
X37710Y478905D01*
X53690Y466540D02*
X53690Y461560D01*
X37710Y461560D01*
X37710Y466540D01*
X53690Y466540D01*
X53690Y462529D02*
X37710Y462529D01*
X37710Y463498D02*
X53690Y463498D01*
X53690Y464467D02*
X37710Y464467D01*
X37710Y465436D02*
X53690Y465436D01*
X53690Y466405D02*
X37710Y466405D01*
X53690Y275040D02*
X53690Y270060D01*
X37710Y270060D01*
X37710Y275040D01*
X53690Y275040D01*
X53690Y271029D02*
X37710Y271029D01*
X37710Y271998D02*
X53690Y271998D01*
X53690Y272967D02*
X37710Y272967D01*
X37710Y273936D02*
X53690Y273936D01*
X53690Y274905D02*
X37710Y274905D01*
D11*
X26700Y196050D02*
X700Y196050D01*
X26700Y196050D02*
X26700Y187050D01*
X700Y187050D01*
X700Y196050D01*
X700Y188000D02*
X26700Y188000D01*
X26700Y188950D02*
X700Y188950D01*
X700Y189900D02*
X26700Y189900D01*
X26700Y190850D02*
X700Y190850D01*
X700Y191800D02*
X26700Y191800D01*
X26700Y192750D02*
X700Y192750D01*
X700Y193700D02*
X26700Y193700D01*
X26700Y194650D02*
X700Y194650D01*
X700Y195600D02*
X26700Y195600D01*
X26700Y295550D02*
X700Y295550D01*
X26700Y295550D02*
X26700Y286550D01*
X700Y286550D01*
X700Y295550D01*
X700Y287500D02*
X26700Y287500D01*
X26700Y288450D02*
X700Y288450D01*
X700Y289400D02*
X26700Y289400D01*
X26700Y290350D02*
X700Y290350D01*
X700Y291300D02*
X26700Y291300D01*
X26700Y292250D02*
X700Y292250D01*
X700Y293200D02*
X26700Y293200D01*
X26700Y294150D02*
X700Y294150D01*
X700Y295100D02*
X26700Y295100D01*
D10*
X53690Y262540D02*
X53690Y257560D01*
X37710Y257560D01*
X37710Y262540D01*
X53690Y262540D01*
X53690Y258529D02*
X37710Y258529D01*
X37710Y259498D02*
X53690Y259498D01*
X53690Y260467D02*
X37710Y260467D01*
X37710Y261436D02*
X53690Y261436D01*
X53690Y262405D02*
X37710Y262405D01*
X53690Y250040D02*
X53690Y245060D01*
X37710Y245060D01*
X37710Y250040D01*
X53690Y250040D01*
X53690Y246029D02*
X37710Y246029D01*
X37710Y246998D02*
X53690Y246998D01*
X53690Y247967D02*
X37710Y247967D01*
X37710Y248936D02*
X53690Y248936D01*
X53690Y249905D02*
X37710Y249905D01*
X53690Y237540D02*
X53690Y232560D01*
X37710Y232560D01*
X37710Y237540D01*
X53690Y237540D01*
X53690Y233529D02*
X37710Y233529D01*
X37710Y234498D02*
X53690Y234498D01*
X53690Y235467D02*
X37710Y235467D01*
X37710Y236436D02*
X53690Y236436D01*
X53690Y237405D02*
X37710Y237405D01*
X53690Y225040D02*
X53690Y220060D01*
X37710Y220060D01*
X37710Y225040D01*
X53690Y225040D01*
X53690Y221029D02*
X37710Y221029D01*
X37710Y221998D02*
X53690Y221998D01*
X53690Y222967D02*
X37710Y222967D01*
X37710Y223936D02*
X53690Y223936D01*
X53690Y224905D02*
X37710Y224905D01*
X53690Y212540D02*
X53690Y207560D01*
X37710Y207560D01*
X37710Y212540D01*
X53690Y212540D01*
X53690Y208529D02*
X37710Y208529D01*
X37710Y209498D02*
X53690Y209498D01*
X53690Y210467D02*
X37710Y210467D01*
X37710Y211436D02*
X53690Y211436D01*
X53690Y212405D02*
X37710Y212405D01*
D11*
X304000Y1062300D02*
X314000Y1062300D01*
X304000Y1062300D02*
X304000Y1071300D01*
X314000Y1071300D01*
X314000Y1062300D01*
X314000Y1063250D02*
X304000Y1063250D01*
X304000Y1064200D02*
X314000Y1064200D01*
X314000Y1065150D02*
X304000Y1065150D01*
X304000Y1066100D02*
X314000Y1066100D01*
X314000Y1067050D02*
X304000Y1067050D01*
X304000Y1068000D02*
X314000Y1068000D01*
X314000Y1068950D02*
X304000Y1068950D01*
X304000Y1069900D02*
X314000Y1069900D01*
X314000Y1070850D02*
X304000Y1070850D01*
X321000Y1062300D02*
X331000Y1062300D01*
X321000Y1062300D02*
X321000Y1071300D01*
X331000Y1071300D01*
X331000Y1062300D01*
X331000Y1063250D02*
X321000Y1063250D01*
X321000Y1064200D02*
X331000Y1064200D01*
X331000Y1065150D02*
X321000Y1065150D01*
X321000Y1066100D02*
X331000Y1066100D01*
X331000Y1067050D02*
X321000Y1067050D01*
X321000Y1068000D02*
X331000Y1068000D01*
X331000Y1068950D02*
X321000Y1068950D01*
X321000Y1069900D02*
X331000Y1069900D01*
X331000Y1070850D02*
X321000Y1070850D01*
D12*
X322770Y1082350D02*
X322770Y1089350D01*
X329770Y1089350D01*
X329770Y1082350D01*
X322770Y1082350D01*
X322770Y1085200D02*
X329770Y1085200D01*
X329770Y1088050D02*
X322770Y1088050D01*
X305230Y1089350D02*
X305230Y1082350D01*
X305230Y1089350D02*
X312230Y1089350D01*
X312230Y1082350D01*
X305230Y1082350D01*
X305230Y1085200D02*
X312230Y1085200D01*
X312230Y1088050D02*
X305230Y1088050D01*
M02*
