G04 EAGLE Gerber RS-274X export*
G75*
%MOMM*%
%FSLAX34Y34*%
%LPD*%
%INSoldermask Bottom*%
%IPPOS*%
%AMOC8*
5,1,8,0,0,1.08239X$1,22.5*%
G01*
%ADD10C,1.152400*%
%ADD11C,3.454400*%
%ADD12C,0.251966*%

G36*
X370270Y1064907D02*
X370270Y1064907D01*
X370336Y1064909D01*
X370379Y1064927D01*
X370426Y1064935D01*
X370483Y1064969D01*
X370543Y1064994D01*
X370578Y1065025D01*
X370619Y1065050D01*
X370661Y1065101D01*
X370709Y1065145D01*
X370731Y1065187D01*
X370760Y1065224D01*
X370781Y1065286D01*
X370812Y1065345D01*
X370820Y1065399D01*
X370832Y1065436D01*
X370831Y1065476D01*
X370839Y1065530D01*
X370839Y1068070D01*
X370828Y1068135D01*
X370826Y1068201D01*
X370808Y1068244D01*
X370800Y1068291D01*
X370766Y1068348D01*
X370741Y1068408D01*
X370710Y1068443D01*
X370685Y1068484D01*
X370634Y1068526D01*
X370590Y1068574D01*
X370548Y1068596D01*
X370511Y1068625D01*
X370449Y1068646D01*
X370390Y1068677D01*
X370336Y1068685D01*
X370299Y1068697D01*
X370259Y1068696D01*
X370205Y1068704D01*
X366395Y1068704D01*
X366330Y1068693D01*
X366264Y1068691D01*
X366221Y1068673D01*
X366174Y1068665D01*
X366117Y1068631D01*
X366057Y1068606D01*
X366022Y1068575D01*
X365981Y1068550D01*
X365940Y1068499D01*
X365891Y1068455D01*
X365869Y1068413D01*
X365840Y1068376D01*
X365819Y1068314D01*
X365788Y1068255D01*
X365780Y1068201D01*
X365768Y1068164D01*
X365768Y1068161D01*
X365769Y1068124D01*
X365761Y1068070D01*
X365761Y1065530D01*
X365772Y1065465D01*
X365774Y1065399D01*
X365792Y1065356D01*
X365800Y1065309D01*
X365834Y1065252D01*
X365859Y1065192D01*
X365890Y1065157D01*
X365915Y1065116D01*
X365966Y1065075D01*
X366010Y1065026D01*
X366052Y1065004D01*
X366089Y1064975D01*
X366151Y1064954D01*
X366210Y1064923D01*
X366264Y1064915D01*
X366301Y1064903D01*
X366341Y1064904D01*
X366395Y1064896D01*
X370205Y1064896D01*
X370270Y1064907D01*
G37*
D10*
X50800Y1104900D03*
X457200Y12700D03*
D11*
X482600Y1092200D03*
X25400Y1092200D03*
X482600Y25400D03*
X25400Y25400D03*
D12*
X360289Y1060948D02*
X365897Y1060948D01*
X360289Y1060948D02*
X360289Y1072652D01*
X365897Y1072652D01*
X365897Y1060948D01*
X365897Y1063342D02*
X360289Y1063342D01*
X360289Y1065736D02*
X365897Y1065736D01*
X365897Y1068130D02*
X360289Y1068130D01*
X360289Y1070524D02*
X365897Y1070524D01*
X370703Y1060948D02*
X376311Y1060948D01*
X370703Y1060948D02*
X370703Y1072652D01*
X376311Y1072652D01*
X376311Y1060948D01*
X376311Y1063342D02*
X370703Y1063342D01*
X370703Y1065736D02*
X376311Y1065736D01*
X376311Y1068130D02*
X370703Y1068130D01*
X370703Y1070524D02*
X376311Y1070524D01*
M02*
