G04 EAGLE Gerber RS-274X export*
G75*
%MOMM*%
%FSLAX34Y34*%
%LPD*%
%INBottom Copper*%
%IPPOS*%
%AMOC8*
5,1,8,0,0,1.08239X$1,22.5*%
G01*
%ADD10C,1.000000*%
%ADD11C,0.099059*%
%ADD12C,0.660400*%
%ADD13C,0.609600*%
%ADD14C,0.304800*%
%ADD15C,0.660400*%
%ADD16C,0.177800*%

G36*
X475929Y2810D02*
X475929Y2810D01*
X476037Y2818D01*
X476070Y2830D01*
X476104Y2835D01*
X476203Y2879D01*
X476304Y2916D01*
X476332Y2937D01*
X476364Y2951D01*
X476446Y3021D01*
X476533Y3084D01*
X476554Y3112D01*
X476581Y3134D01*
X476640Y3224D01*
X476706Y3310D01*
X476719Y3342D01*
X476738Y3371D01*
X476771Y3474D01*
X476810Y3574D01*
X476813Y3609D01*
X476824Y3642D01*
X476827Y3750D01*
X476837Y3857D01*
X476830Y3892D01*
X476831Y3926D01*
X476804Y4031D01*
X476784Y4137D01*
X476768Y4168D01*
X476759Y4201D01*
X476704Y4294D01*
X476656Y4390D01*
X476632Y4416D01*
X476614Y4446D01*
X476536Y4520D01*
X476462Y4599D01*
X476435Y4614D01*
X476407Y4640D01*
X476216Y4738D01*
X476170Y4764D01*
X471638Y6413D01*
X465701Y11395D01*
X465641Y11433D01*
X465587Y11478D01*
X465521Y11508D01*
X465460Y11546D01*
X465392Y11565D01*
X465327Y11594D01*
X465256Y11604D01*
X465186Y11623D01*
X465115Y11623D01*
X465045Y11633D01*
X464974Y11622D01*
X464902Y11622D01*
X464834Y11602D01*
X464764Y11592D01*
X464698Y11562D01*
X464629Y11542D01*
X464569Y11504D01*
X464505Y11475D01*
X464450Y11428D01*
X464389Y11390D01*
X464342Y11337D01*
X464288Y11291D01*
X464256Y11239D01*
X464201Y11177D01*
X464151Y11070D01*
X464110Y11006D01*
X463162Y8716D01*
X461184Y6738D01*
X458599Y5667D01*
X455801Y5667D01*
X453216Y6738D01*
X451238Y8716D01*
X450167Y11301D01*
X450167Y14099D01*
X451238Y16684D01*
X453216Y18662D01*
X455801Y19733D01*
X458599Y19733D01*
X460208Y19066D01*
X460267Y19051D01*
X460323Y19026D01*
X460404Y19016D01*
X460484Y18995D01*
X460545Y18997D01*
X460605Y18989D01*
X460686Y19001D01*
X460768Y19003D01*
X460826Y19022D01*
X460886Y19031D01*
X460961Y19065D01*
X461038Y19090D01*
X461089Y19124D01*
X461145Y19150D01*
X461207Y19203D01*
X461275Y19248D01*
X461314Y19295D01*
X461360Y19335D01*
X461405Y19403D01*
X461458Y19466D01*
X461482Y19522D01*
X461516Y19573D01*
X461540Y19651D01*
X461573Y19726D01*
X461581Y19786D01*
X461599Y19845D01*
X461599Y19912D01*
X461612Y20007D01*
X461597Y20110D01*
X461597Y20180D01*
X460676Y25400D01*
X461998Y32898D01*
X465805Y39492D01*
X471638Y44387D01*
X478793Y46991D01*
X486407Y46991D01*
X493562Y44387D01*
X499395Y39492D01*
X503211Y32882D01*
X503215Y32858D01*
X503251Y32777D01*
X503278Y32693D01*
X503309Y32648D01*
X503331Y32599D01*
X503388Y32531D01*
X503438Y32458D01*
X503479Y32423D01*
X503515Y32382D01*
X503588Y32333D01*
X503656Y32276D01*
X503706Y32254D01*
X503751Y32224D01*
X503836Y32197D01*
X503917Y32162D01*
X503970Y32155D01*
X504022Y32138D01*
X504111Y32136D01*
X504198Y32124D01*
X504252Y32132D01*
X504306Y32131D01*
X504392Y32153D01*
X504480Y32166D01*
X504529Y32189D01*
X504581Y32203D01*
X504657Y32248D01*
X504738Y32285D01*
X504779Y32320D01*
X504826Y32348D01*
X504886Y32413D01*
X504953Y32470D01*
X504983Y32516D01*
X505020Y32555D01*
X505061Y32634D01*
X505109Y32708D01*
X505125Y32760D01*
X505150Y32808D01*
X505162Y32879D01*
X505193Y32980D01*
X505192Y33060D01*
X505205Y33140D01*
X505205Y1084460D01*
X505198Y1084514D01*
X505200Y1084569D01*
X505178Y1084654D01*
X505165Y1084742D01*
X505143Y1084792D01*
X505130Y1084844D01*
X505085Y1084921D01*
X505049Y1085001D01*
X505014Y1085043D01*
X504987Y1085090D01*
X504923Y1085151D01*
X504866Y1085218D01*
X504820Y1085248D01*
X504781Y1085286D01*
X504703Y1085327D01*
X504629Y1085376D01*
X504577Y1085392D01*
X504529Y1085417D01*
X504442Y1085435D01*
X504358Y1085462D01*
X504304Y1085463D01*
X504250Y1085474D01*
X504162Y1085467D01*
X504074Y1085469D01*
X504021Y1085455D01*
X503967Y1085451D01*
X503884Y1085420D01*
X503799Y1085397D01*
X503752Y1085370D01*
X503701Y1085350D01*
X503630Y1085297D01*
X503554Y1085252D01*
X503517Y1085212D01*
X503474Y1085180D01*
X503420Y1085109D01*
X503360Y1085045D01*
X503335Y1084996D01*
X503302Y1084953D01*
X503278Y1084886D01*
X503230Y1084792D01*
X503221Y1084735D01*
X499395Y1078108D01*
X493562Y1073213D01*
X486407Y1070609D01*
X478793Y1070609D01*
X471638Y1073213D01*
X465805Y1078108D01*
X461998Y1084702D01*
X460676Y1092200D01*
X461998Y1099698D01*
X465805Y1106292D01*
X471638Y1111187D01*
X476170Y1112836D01*
X476265Y1112887D01*
X476364Y1112931D01*
X476390Y1112953D01*
X476421Y1112970D01*
X476498Y1113045D01*
X476581Y1113115D01*
X476600Y1113143D01*
X476625Y1113168D01*
X476678Y1113261D01*
X476738Y1113351D01*
X476749Y1113384D01*
X476766Y1113414D01*
X476791Y1113519D01*
X476824Y1113622D01*
X476825Y1113657D01*
X476833Y1113691D01*
X476829Y1113798D01*
X476831Y1113906D01*
X476822Y1113940D01*
X476821Y1113975D01*
X476787Y1114077D01*
X476759Y1114181D01*
X476742Y1114211D01*
X476731Y1114244D01*
X476669Y1114333D01*
X476614Y1114426D01*
X476589Y1114450D01*
X476569Y1114478D01*
X476486Y1114547D01*
X476407Y1114620D01*
X476376Y1114636D01*
X476349Y1114658D01*
X476250Y1114701D01*
X476154Y1114750D01*
X476123Y1114755D01*
X476088Y1114770D01*
X475875Y1114796D01*
X475823Y1114805D01*
X32177Y1114805D01*
X32071Y1114790D01*
X31963Y1114782D01*
X31930Y1114770D01*
X31896Y1114765D01*
X31797Y1114721D01*
X31696Y1114684D01*
X31668Y1114663D01*
X31636Y1114649D01*
X31554Y1114579D01*
X31467Y1114516D01*
X31446Y1114488D01*
X31419Y1114466D01*
X31360Y1114376D01*
X31294Y1114290D01*
X31281Y1114258D01*
X31262Y1114229D01*
X31229Y1114126D01*
X31190Y1114026D01*
X31187Y1113991D01*
X31176Y1113958D01*
X31173Y1113850D01*
X31163Y1113743D01*
X31170Y1113708D01*
X31169Y1113674D01*
X31196Y1113569D01*
X31216Y1113463D01*
X31232Y1113432D01*
X31241Y1113399D01*
X31296Y1113306D01*
X31344Y1113210D01*
X31368Y1113184D01*
X31386Y1113154D01*
X31464Y1113080D01*
X31538Y1113001D01*
X31565Y1112986D01*
X31593Y1112960D01*
X31784Y1112862D01*
X31830Y1112836D01*
X36362Y1111187D01*
X42299Y1106205D01*
X42359Y1106167D01*
X42413Y1106122D01*
X42479Y1106092D01*
X42540Y1106054D01*
X42608Y1106035D01*
X42673Y1106006D01*
X42744Y1105996D01*
X42814Y1105977D01*
X42885Y1105977D01*
X42955Y1105967D01*
X43026Y1105978D01*
X43098Y1105978D01*
X43166Y1105998D01*
X43236Y1106008D01*
X43302Y1106038D01*
X43371Y1106058D01*
X43431Y1106096D01*
X43495Y1106125D01*
X43550Y1106172D01*
X43611Y1106210D01*
X43658Y1106263D01*
X43712Y1106309D01*
X43744Y1106361D01*
X43799Y1106423D01*
X43849Y1106530D01*
X43890Y1106594D01*
X44838Y1108884D01*
X46816Y1110862D01*
X49401Y1111933D01*
X52199Y1111933D01*
X54784Y1110862D01*
X56762Y1108884D01*
X57833Y1106299D01*
X57833Y1103501D01*
X56762Y1100916D01*
X54784Y1098938D01*
X52199Y1097867D01*
X49401Y1097867D01*
X47792Y1098534D01*
X47733Y1098549D01*
X47677Y1098574D01*
X47596Y1098584D01*
X47517Y1098605D01*
X47455Y1098603D01*
X47395Y1098611D01*
X47314Y1098599D01*
X47232Y1098597D01*
X47174Y1098578D01*
X47114Y1098569D01*
X47039Y1098535D01*
X46962Y1098510D01*
X46911Y1098476D01*
X46855Y1098450D01*
X46793Y1098397D01*
X46725Y1098352D01*
X46686Y1098305D01*
X46640Y1098265D01*
X46595Y1098197D01*
X46542Y1098134D01*
X46518Y1098078D01*
X46484Y1098027D01*
X46460Y1097949D01*
X46427Y1097874D01*
X46419Y1097814D01*
X46401Y1097755D01*
X46401Y1097688D01*
X46388Y1097593D01*
X46403Y1097490D01*
X46403Y1097420D01*
X47324Y1092200D01*
X46002Y1084702D01*
X42195Y1078108D01*
X36362Y1073213D01*
X29207Y1070609D01*
X21593Y1070609D01*
X14438Y1073213D01*
X8605Y1078108D01*
X4789Y1084718D01*
X4785Y1084742D01*
X4749Y1084823D01*
X4722Y1084907D01*
X4691Y1084952D01*
X4669Y1085001D01*
X4612Y1085069D01*
X4562Y1085142D01*
X4521Y1085177D01*
X4485Y1085218D01*
X4412Y1085267D01*
X4344Y1085324D01*
X4294Y1085346D01*
X4249Y1085376D01*
X4164Y1085403D01*
X4083Y1085438D01*
X4030Y1085445D01*
X3978Y1085462D01*
X3889Y1085464D01*
X3802Y1085476D01*
X3748Y1085468D01*
X3694Y1085469D01*
X3608Y1085447D01*
X3520Y1085434D01*
X3471Y1085411D01*
X3419Y1085397D01*
X3343Y1085352D01*
X3262Y1085315D01*
X3221Y1085280D01*
X3174Y1085252D01*
X3114Y1085187D01*
X3047Y1085130D01*
X3017Y1085084D01*
X2980Y1085045D01*
X2939Y1084966D01*
X2891Y1084892D01*
X2875Y1084840D01*
X2850Y1084792D01*
X2838Y1084721D01*
X2807Y1084620D01*
X2808Y1084540D01*
X2795Y1084460D01*
X2795Y33140D01*
X2802Y33086D01*
X2800Y33031D01*
X2822Y32946D01*
X2835Y32858D01*
X2857Y32808D01*
X2870Y32756D01*
X2915Y32679D01*
X2951Y32599D01*
X2986Y32557D01*
X3013Y32510D01*
X3077Y32449D01*
X3134Y32382D01*
X3180Y32352D01*
X3219Y32314D01*
X3297Y32273D01*
X3371Y32224D01*
X3423Y32208D01*
X3471Y32183D01*
X3558Y32165D01*
X3642Y32138D01*
X3696Y32137D01*
X3750Y32126D01*
X3838Y32133D01*
X3926Y32131D01*
X3979Y32145D01*
X4033Y32149D01*
X4116Y32180D01*
X4201Y32203D01*
X4248Y32230D01*
X4299Y32250D01*
X4370Y32303D01*
X4446Y32348D01*
X4483Y32388D01*
X4526Y32420D01*
X4580Y32491D01*
X4640Y32555D01*
X4665Y32604D01*
X4698Y32647D01*
X4722Y32714D01*
X4770Y32808D01*
X4779Y32865D01*
X8605Y39492D01*
X14438Y44387D01*
X21593Y46991D01*
X29207Y46991D01*
X36362Y44387D01*
X42195Y39492D01*
X46002Y32898D01*
X47324Y25400D01*
X46002Y17902D01*
X42195Y11308D01*
X36362Y6413D01*
X31830Y4764D01*
X31735Y4713D01*
X31636Y4669D01*
X31610Y4647D01*
X31579Y4630D01*
X31502Y4555D01*
X31419Y4485D01*
X31400Y4457D01*
X31375Y4432D01*
X31322Y4339D01*
X31262Y4249D01*
X31251Y4216D01*
X31234Y4186D01*
X31209Y4081D01*
X31176Y3978D01*
X31175Y3943D01*
X31167Y3909D01*
X31171Y3802D01*
X31169Y3694D01*
X31178Y3660D01*
X31179Y3625D01*
X31213Y3523D01*
X31241Y3419D01*
X31258Y3389D01*
X31269Y3356D01*
X31331Y3267D01*
X31386Y3174D01*
X31411Y3150D01*
X31431Y3122D01*
X31514Y3053D01*
X31593Y2980D01*
X31624Y2964D01*
X31651Y2942D01*
X31750Y2899D01*
X31846Y2850D01*
X31877Y2845D01*
X31912Y2830D01*
X32125Y2804D01*
X32177Y2795D01*
X475823Y2795D01*
X475929Y2810D01*
G37*
%LPC*%
G36*
X379939Y54355D02*
X379939Y54355D01*
X377978Y55167D01*
X376477Y56668D01*
X375665Y58629D01*
X375665Y147111D01*
X375842Y147538D01*
X375850Y147568D01*
X375864Y147595D01*
X375877Y147673D01*
X375913Y147813D01*
X375911Y147877D01*
X375919Y147926D01*
X375919Y267334D01*
X375903Y267448D01*
X375893Y267562D01*
X375883Y267588D01*
X375879Y267616D01*
X375832Y267721D01*
X375791Y267828D01*
X375775Y267850D01*
X375763Y267875D01*
X375689Y267963D01*
X375620Y268054D01*
X375597Y268071D01*
X375580Y268092D01*
X375484Y268156D01*
X375392Y268224D01*
X375366Y268234D01*
X375343Y268250D01*
X375233Y268284D01*
X375126Y268325D01*
X375098Y268327D01*
X375072Y268335D01*
X374957Y268338D01*
X374843Y268348D01*
X374818Y268342D01*
X374788Y268343D01*
X374531Y268276D01*
X374515Y268272D01*
X373171Y267715D01*
X371049Y267715D01*
X369088Y268527D01*
X367587Y270028D01*
X366775Y271989D01*
X366775Y274111D01*
X367587Y276072D01*
X368891Y277375D01*
X368943Y277445D01*
X369003Y277509D01*
X369029Y277558D01*
X369062Y277603D01*
X369093Y277684D01*
X369133Y277762D01*
X369141Y277810D01*
X369163Y277868D01*
X369175Y278016D01*
X369188Y278093D01*
X369188Y313219D01*
X369176Y313305D01*
X369173Y313393D01*
X369156Y313445D01*
X369148Y313500D01*
X369113Y313580D01*
X369086Y313663D01*
X369058Y313703D01*
X369032Y313760D01*
X368936Y313873D01*
X368891Y313937D01*
X368349Y314478D01*
X367537Y316439D01*
X367537Y318561D01*
X368349Y320522D01*
X369850Y322023D01*
X371811Y322835D01*
X373933Y322835D01*
X374515Y322594D01*
X374627Y322565D01*
X374736Y322530D01*
X374764Y322529D01*
X374791Y322523D01*
X374905Y322526D01*
X375020Y322523D01*
X375047Y322530D01*
X375075Y322531D01*
X375184Y322566D01*
X375295Y322595D01*
X375319Y322609D01*
X375346Y322617D01*
X375441Y322681D01*
X375540Y322740D01*
X375559Y322760D01*
X375582Y322776D01*
X375656Y322863D01*
X375734Y322947D01*
X375747Y322972D01*
X375765Y322993D01*
X375811Y323098D01*
X375864Y323200D01*
X375868Y323225D01*
X375880Y323253D01*
X375917Y323516D01*
X375919Y323531D01*
X375919Y328324D01*
X375915Y328354D01*
X375917Y328385D01*
X375900Y328462D01*
X375879Y328605D01*
X375853Y328664D01*
X375842Y328712D01*
X375665Y329139D01*
X375665Y331261D01*
X375842Y331688D01*
X375850Y331718D01*
X375864Y331745D01*
X375877Y331823D01*
X375913Y331963D01*
X375911Y332027D01*
X375919Y332076D01*
X375919Y343534D01*
X375903Y343648D01*
X375893Y343762D01*
X375883Y343788D01*
X375879Y343816D01*
X375832Y343920D01*
X375791Y344028D01*
X375775Y344050D01*
X375763Y344075D01*
X375689Y344163D01*
X375620Y344254D01*
X375597Y344271D01*
X375580Y344292D01*
X375484Y344356D01*
X375392Y344424D01*
X375366Y344434D01*
X375343Y344450D01*
X375233Y344484D01*
X375126Y344525D01*
X375098Y344527D01*
X375072Y344535D01*
X374957Y344538D01*
X374843Y344548D01*
X374818Y344542D01*
X374788Y344543D01*
X374531Y344476D01*
X374515Y344472D01*
X373171Y343915D01*
X371049Y343915D01*
X369088Y344727D01*
X367587Y346228D01*
X366775Y348189D01*
X366775Y350311D01*
X367587Y352272D01*
X368891Y353575D01*
X368943Y353645D01*
X369003Y353709D01*
X369029Y353758D01*
X369062Y353803D01*
X369093Y353884D01*
X369133Y353962D01*
X369141Y354010D01*
X369163Y354068D01*
X369170Y354147D01*
X369174Y354162D01*
X369176Y354219D01*
X369188Y354293D01*
X369188Y354330D01*
X369186Y354346D01*
X369187Y354352D01*
X369182Y354375D01*
X369180Y354388D01*
X369182Y354446D01*
X369160Y354528D01*
X369148Y354612D01*
X369125Y354665D01*
X369110Y354721D01*
X369067Y354794D01*
X369032Y354871D01*
X368994Y354916D01*
X368965Y354966D01*
X368903Y355024D01*
X368849Y355088D01*
X368800Y355120D01*
X368757Y355160D01*
X368682Y355199D01*
X368612Y355246D01*
X368556Y355263D01*
X368504Y355290D01*
X368436Y355301D01*
X368341Y355331D01*
X368241Y355334D01*
X368173Y355345D01*
X365969Y355345D01*
X364008Y356157D01*
X362507Y357658D01*
X361695Y359619D01*
X361695Y361462D01*
X361683Y361549D01*
X361680Y361636D01*
X361663Y361689D01*
X361655Y361744D01*
X361620Y361824D01*
X361593Y361907D01*
X361565Y361946D01*
X361539Y362003D01*
X361443Y362116D01*
X361398Y362180D01*
X354306Y369272D01*
X353905Y369673D01*
X353881Y369691D01*
X353862Y369713D01*
X353768Y369776D01*
X353678Y369844D01*
X353650Y369855D01*
X353626Y369871D01*
X353518Y369905D01*
X353412Y369945D01*
X353383Y369948D01*
X353355Y369957D01*
X353242Y369959D01*
X353129Y369969D01*
X353100Y369963D01*
X353071Y369964D01*
X352961Y369935D01*
X352850Y369913D01*
X352824Y369899D01*
X352796Y369892D01*
X352698Y369834D01*
X352598Y369782D01*
X352576Y369762D01*
X352551Y369747D01*
X352474Y369664D01*
X352392Y369586D01*
X352377Y369561D01*
X352357Y369539D01*
X352305Y369439D01*
X352248Y369341D01*
X352241Y369312D01*
X352227Y369286D01*
X352214Y369209D01*
X352178Y369065D01*
X352180Y369003D01*
X352172Y368955D01*
X352172Y309843D01*
X352184Y309757D01*
X352187Y309669D01*
X352204Y309617D01*
X352212Y309562D01*
X352247Y309482D01*
X352274Y309399D01*
X352302Y309359D01*
X352328Y309302D01*
X352424Y309189D01*
X352469Y309125D01*
X353773Y307822D01*
X354585Y305861D01*
X354585Y303739D01*
X353773Y301778D01*
X352469Y300475D01*
X352417Y300405D01*
X352357Y300341D01*
X352331Y300292D01*
X352298Y300247D01*
X352267Y300166D01*
X352227Y300088D01*
X352219Y300040D01*
X352197Y299982D01*
X352185Y299834D01*
X352172Y299757D01*
X352172Y122281D01*
X352184Y122194D01*
X352187Y122107D01*
X352204Y122054D01*
X352212Y121999D01*
X352247Y121919D01*
X352274Y121836D01*
X352302Y121797D01*
X352328Y121740D01*
X352424Y121627D01*
X352469Y121563D01*
X354100Y119932D01*
X354170Y119880D01*
X354234Y119820D01*
X354283Y119794D01*
X354327Y119761D01*
X354409Y119730D01*
X354487Y119690D01*
X354534Y119682D01*
X354593Y119660D01*
X354740Y119648D01*
X354818Y119635D01*
X356661Y119635D01*
X358622Y118823D01*
X360123Y117322D01*
X360935Y115361D01*
X360935Y113239D01*
X360123Y111278D01*
X358622Y109777D01*
X356661Y108965D01*
X354539Y108965D01*
X352578Y109777D01*
X351077Y111278D01*
X350265Y113239D01*
X350265Y115082D01*
X350253Y115169D01*
X350250Y115256D01*
X350233Y115309D01*
X350225Y115364D01*
X350190Y115444D01*
X350163Y115527D01*
X350135Y115566D01*
X350109Y115623D01*
X350013Y115736D01*
X349968Y115800D01*
X346328Y119440D01*
X346328Y185203D01*
X346324Y185232D01*
X346327Y185261D01*
X346304Y185372D01*
X346288Y185484D01*
X346276Y185511D01*
X346271Y185540D01*
X346218Y185641D01*
X346172Y185744D01*
X346153Y185766D01*
X346140Y185792D01*
X346062Y185874D01*
X345989Y185961D01*
X345964Y185977D01*
X345944Y185998D01*
X345846Y186055D01*
X345752Y186118D01*
X345724Y186127D01*
X345699Y186142D01*
X345589Y186170D01*
X345481Y186204D01*
X345451Y186205D01*
X345423Y186212D01*
X345310Y186208D01*
X345197Y186211D01*
X345168Y186204D01*
X345139Y186203D01*
X345031Y186168D01*
X344922Y186140D01*
X344896Y186125D01*
X344868Y186116D01*
X344804Y186070D01*
X344677Y185994D01*
X344634Y185949D01*
X344595Y185921D01*
X343382Y184707D01*
X341421Y183895D01*
X339299Y183895D01*
X337338Y184707D01*
X335837Y186208D01*
X335025Y188169D01*
X335025Y190291D01*
X335837Y192252D01*
X337141Y193555D01*
X337193Y193625D01*
X337253Y193689D01*
X337279Y193738D01*
X337312Y193783D01*
X337343Y193864D01*
X337383Y193942D01*
X337391Y193990D01*
X337413Y194048D01*
X337425Y194196D01*
X337438Y194273D01*
X337438Y205777D01*
X337426Y205863D01*
X337423Y205951D01*
X337406Y206003D01*
X337398Y206058D01*
X337363Y206138D01*
X337336Y206221D01*
X337308Y206261D01*
X337282Y206318D01*
X337186Y206431D01*
X337141Y206495D01*
X335837Y207798D01*
X335025Y209759D01*
X335025Y211881D01*
X335837Y213842D01*
X337338Y215343D01*
X339299Y216155D01*
X341421Y216155D01*
X343382Y215343D01*
X344595Y214129D01*
X344619Y214112D01*
X344638Y214089D01*
X344732Y214027D01*
X344822Y213958D01*
X344850Y213948D01*
X344874Y213932D01*
X344982Y213898D01*
X345088Y213857D01*
X345117Y213855D01*
X345145Y213846D01*
X345259Y213843D01*
X345371Y213834D01*
X345400Y213839D01*
X345429Y213839D01*
X345539Y213867D01*
X345650Y213890D01*
X345676Y213903D01*
X345704Y213910D01*
X345802Y213968D01*
X345902Y214020D01*
X345924Y214041D01*
X345949Y214056D01*
X346026Y214138D01*
X346108Y214216D01*
X346123Y214242D01*
X346143Y214263D01*
X346195Y214364D01*
X346252Y214462D01*
X346259Y214490D01*
X346273Y214516D01*
X346286Y214593D01*
X346322Y214737D01*
X346320Y214800D01*
X346328Y214847D01*
X346328Y299757D01*
X346316Y299843D01*
X346313Y299931D01*
X346296Y299983D01*
X346288Y300038D01*
X346253Y300118D01*
X346226Y300201D01*
X346198Y300241D01*
X346172Y300298D01*
X346076Y300411D01*
X346031Y300475D01*
X344727Y301778D01*
X343915Y303739D01*
X343915Y305861D01*
X344727Y307822D01*
X346031Y309125D01*
X346083Y309195D01*
X346143Y309259D01*
X346169Y309308D01*
X346202Y309353D01*
X346233Y309434D01*
X346273Y309512D01*
X346281Y309560D01*
X346303Y309618D01*
X346315Y309766D01*
X346328Y309843D01*
X346328Y642657D01*
X346316Y642743D01*
X346313Y642831D01*
X346296Y642883D01*
X346288Y642938D01*
X346253Y643018D01*
X346226Y643101D01*
X346198Y643141D01*
X346172Y643198D01*
X346076Y643311D01*
X346031Y643375D01*
X344727Y644678D01*
X343915Y646639D01*
X343915Y648761D01*
X344727Y650722D01*
X346031Y652025D01*
X346083Y652095D01*
X346143Y652159D01*
X346169Y652208D01*
X346202Y652253D01*
X346233Y652334D01*
X346273Y652412D01*
X346281Y652460D01*
X346303Y652518D01*
X346315Y652666D01*
X346328Y652743D01*
X346328Y916723D01*
X346324Y916752D01*
X346327Y916781D01*
X346304Y916892D01*
X346288Y917004D01*
X346276Y917031D01*
X346271Y917060D01*
X346219Y917160D01*
X346172Y917264D01*
X346153Y917286D01*
X346140Y917312D01*
X346062Y917394D01*
X345989Y917481D01*
X345964Y917497D01*
X345944Y917518D01*
X345846Y917576D01*
X345752Y917638D01*
X345724Y917647D01*
X345699Y917662D01*
X345589Y917690D01*
X345481Y917724D01*
X345451Y917725D01*
X345423Y917732D01*
X345310Y917728D01*
X345197Y917731D01*
X345168Y917724D01*
X345139Y917723D01*
X345031Y917688D01*
X344922Y917660D01*
X344896Y917645D01*
X344868Y917636D01*
X344805Y917590D01*
X344677Y917514D01*
X344634Y917469D01*
X344595Y917441D01*
X343579Y916425D01*
X343527Y916355D01*
X343467Y916291D01*
X343441Y916242D01*
X343408Y916197D01*
X343377Y916116D01*
X343337Y916038D01*
X343329Y915990D01*
X343307Y915932D01*
X343295Y915784D01*
X343282Y915707D01*
X343282Y881440D01*
X342182Y880340D01*
X342130Y880270D01*
X342070Y880206D01*
X342044Y880157D01*
X342011Y880113D01*
X341980Y880031D01*
X341940Y879953D01*
X341932Y879906D01*
X341910Y879847D01*
X341898Y879700D01*
X341885Y879622D01*
X341885Y877779D01*
X341073Y875818D01*
X339769Y874515D01*
X339717Y874445D01*
X339657Y874381D01*
X339631Y874332D01*
X339598Y874287D01*
X339567Y874206D01*
X339527Y874128D01*
X339519Y874080D01*
X339497Y874022D01*
X339485Y873874D01*
X339472Y873797D01*
X339472Y514313D01*
X339484Y514227D01*
X339487Y514139D01*
X339504Y514087D01*
X339512Y514032D01*
X339547Y513952D01*
X339574Y513869D01*
X339602Y513829D01*
X339628Y513772D01*
X339724Y513659D01*
X339769Y513595D01*
X341073Y512292D01*
X341885Y510331D01*
X341885Y508209D01*
X341073Y506248D01*
X339572Y504747D01*
X337611Y503935D01*
X335489Y503935D01*
X333528Y504747D01*
X332027Y506248D01*
X331215Y508209D01*
X331215Y510331D01*
X332027Y512292D01*
X333331Y513595D01*
X333383Y513665D01*
X333443Y513729D01*
X333469Y513778D01*
X333502Y513823D01*
X333533Y513904D01*
X333573Y513982D01*
X333581Y514030D01*
X333603Y514088D01*
X333615Y514236D01*
X333628Y514313D01*
X333628Y525614D01*
X333624Y525643D01*
X333627Y525672D01*
X333604Y525783D01*
X333588Y525895D01*
X333576Y525922D01*
X333571Y525951D01*
X333519Y526051D01*
X333472Y526155D01*
X333453Y526177D01*
X333440Y526203D01*
X333362Y526285D01*
X333289Y526372D01*
X333264Y526388D01*
X333244Y526409D01*
X333146Y526466D01*
X333052Y526529D01*
X333024Y526538D01*
X332999Y526553D01*
X332889Y526581D01*
X332781Y526615D01*
X332751Y526616D01*
X332723Y526623D01*
X332610Y526619D01*
X332497Y526622D01*
X332468Y526615D01*
X332439Y526614D01*
X332331Y526579D01*
X332222Y526551D01*
X332196Y526536D01*
X332168Y526527D01*
X332105Y526481D01*
X331977Y526405D01*
X331934Y526360D01*
X331895Y526332D01*
X327069Y521506D01*
X327017Y521436D01*
X326957Y521372D01*
X326931Y521323D01*
X326898Y521278D01*
X326867Y521197D01*
X326827Y521119D01*
X326819Y521071D01*
X326797Y521013D01*
X326785Y520865D01*
X326772Y520788D01*
X326772Y458433D01*
X326784Y458347D01*
X326787Y458259D01*
X326804Y458207D01*
X326812Y458152D01*
X326847Y458072D01*
X326874Y457989D01*
X326902Y457949D01*
X326928Y457892D01*
X327024Y457779D01*
X327069Y457715D01*
X328373Y456412D01*
X329185Y454451D01*
X329185Y452329D01*
X328373Y450368D01*
X326872Y448867D01*
X324911Y448055D01*
X322789Y448055D01*
X320828Y448867D01*
X319327Y450368D01*
X318515Y452329D01*
X318515Y454451D01*
X319327Y456412D01*
X320631Y457715D01*
X320683Y457785D01*
X320743Y457849D01*
X320769Y457898D01*
X320802Y457943D01*
X320833Y458024D01*
X320873Y458102D01*
X320881Y458150D01*
X320903Y458208D01*
X320915Y458356D01*
X320928Y458433D01*
X320928Y523629D01*
X323010Y525710D01*
X323079Y525802D01*
X323153Y525890D01*
X323164Y525915D01*
X323181Y525938D01*
X323222Y526045D01*
X323268Y526150D01*
X323272Y526177D01*
X323282Y526203D01*
X323292Y526318D01*
X323307Y526431D01*
X323303Y526459D01*
X323306Y526486D01*
X323283Y526599D01*
X323267Y526713D01*
X323255Y526738D01*
X323250Y526765D01*
X323197Y526867D01*
X323149Y526972D01*
X323131Y526993D01*
X323119Y527018D01*
X323040Y527101D01*
X322965Y527188D01*
X322944Y527201D01*
X322923Y527224D01*
X322693Y527358D01*
X322681Y527366D01*
X322098Y527607D01*
X320597Y529108D01*
X319785Y531069D01*
X319785Y532912D01*
X319773Y532999D01*
X319770Y533086D01*
X319753Y533139D01*
X319745Y533194D01*
X319710Y533274D01*
X319683Y533357D01*
X319655Y533396D01*
X319629Y533453D01*
X319533Y533566D01*
X319488Y533630D01*
X318218Y534900D01*
X318194Y534918D01*
X318175Y534940D01*
X318081Y535003D01*
X317991Y535071D01*
X317963Y535082D01*
X317939Y535098D01*
X317831Y535132D01*
X317725Y535172D01*
X317696Y535175D01*
X317668Y535184D01*
X317554Y535186D01*
X317442Y535196D01*
X317413Y535190D01*
X317384Y535191D01*
X317274Y535162D01*
X317163Y535140D01*
X317137Y535126D01*
X317109Y535119D01*
X317011Y535061D01*
X316911Y535009D01*
X316889Y534989D01*
X316864Y534974D01*
X316787Y534891D01*
X316705Y534813D01*
X316690Y534788D01*
X316670Y534766D01*
X316618Y534666D01*
X316561Y534568D01*
X316554Y534539D01*
X316540Y534513D01*
X316527Y534436D01*
X316491Y534292D01*
X316493Y534230D01*
X316485Y534182D01*
X316485Y532339D01*
X315673Y530378D01*
X314172Y528877D01*
X312211Y528065D01*
X310089Y528065D01*
X308128Y528877D01*
X306627Y530378D01*
X305815Y532339D01*
X305815Y534182D01*
X305803Y534269D01*
X305800Y534356D01*
X305783Y534409D01*
X305775Y534464D01*
X305740Y534544D01*
X305713Y534627D01*
X305685Y534666D01*
X305659Y534723D01*
X305563Y534836D01*
X305518Y534900D01*
X303506Y536912D01*
X303105Y537313D01*
X303081Y537331D01*
X303062Y537353D01*
X302968Y537416D01*
X302878Y537484D01*
X302850Y537495D01*
X302826Y537511D01*
X302718Y537545D01*
X302612Y537585D01*
X302583Y537588D01*
X302555Y537597D01*
X302442Y537599D01*
X302329Y537609D01*
X302300Y537603D01*
X302271Y537604D01*
X302161Y537575D01*
X302050Y537553D01*
X302024Y537539D01*
X301996Y537532D01*
X301898Y537474D01*
X301798Y537422D01*
X301776Y537402D01*
X301751Y537387D01*
X301674Y537304D01*
X301592Y537226D01*
X301577Y537201D01*
X301557Y537179D01*
X301505Y537079D01*
X301448Y536981D01*
X301441Y536952D01*
X301427Y536926D01*
X301414Y536849D01*
X301378Y536705D01*
X301380Y536643D01*
X301372Y536595D01*
X301372Y297143D01*
X301384Y297057D01*
X301387Y296969D01*
X301404Y296917D01*
X301412Y296862D01*
X301447Y296782D01*
X301474Y296699D01*
X301502Y296659D01*
X301528Y296602D01*
X301624Y296489D01*
X301669Y296425D01*
X302973Y295122D01*
X303785Y293161D01*
X303785Y291039D01*
X302973Y289078D01*
X301669Y287775D01*
X301654Y287755D01*
X301637Y287740D01*
X301606Y287693D01*
X301557Y287641D01*
X301531Y287592D01*
X301498Y287547D01*
X301484Y287511D01*
X301479Y287504D01*
X301470Y287472D01*
X301467Y287466D01*
X301427Y287388D01*
X301419Y287340D01*
X301397Y287282D01*
X301385Y287134D01*
X301372Y287057D01*
X301372Y109581D01*
X301384Y109494D01*
X301387Y109407D01*
X301404Y109354D01*
X301412Y109299D01*
X301447Y109219D01*
X301474Y109136D01*
X301502Y109097D01*
X301528Y109040D01*
X301624Y108927D01*
X301669Y108863D01*
X303300Y107232D01*
X303370Y107180D01*
X303434Y107120D01*
X303483Y107094D01*
X303527Y107061D01*
X303609Y107030D01*
X303687Y106990D01*
X303734Y106982D01*
X303793Y106960D01*
X303940Y106948D01*
X304018Y106935D01*
X305861Y106935D01*
X307822Y106123D01*
X309323Y104622D01*
X310135Y102661D01*
X310135Y100539D01*
X309323Y98578D01*
X307822Y97077D01*
X305861Y96265D01*
X303739Y96265D01*
X301778Y97077D01*
X300277Y98578D01*
X299465Y100539D01*
X299465Y102382D01*
X299453Y102469D01*
X299450Y102556D01*
X299433Y102609D01*
X299425Y102664D01*
X299390Y102744D01*
X299363Y102827D01*
X299335Y102866D01*
X299309Y102923D01*
X299213Y103036D01*
X299168Y103100D01*
X295528Y106740D01*
X295528Y287057D01*
X295516Y287143D01*
X295513Y287231D01*
X295496Y287283D01*
X295488Y287338D01*
X295453Y287418D01*
X295448Y287434D01*
X295442Y287456D01*
X295439Y287461D01*
X295426Y287501D01*
X295398Y287541D01*
X295372Y287598D01*
X295323Y287655D01*
X295297Y287701D01*
X295258Y287737D01*
X295231Y287775D01*
X293927Y289078D01*
X293115Y291039D01*
X293115Y293161D01*
X293927Y295122D01*
X295231Y296425D01*
X295283Y296495D01*
X295343Y296559D01*
X295369Y296608D01*
X295402Y296653D01*
X295433Y296734D01*
X295473Y296812D01*
X295481Y296860D01*
X295503Y296918D01*
X295514Y297048D01*
X295514Y297049D01*
X295514Y297056D01*
X295515Y297066D01*
X295528Y297143D01*
X295528Y629957D01*
X295516Y630043D01*
X295513Y630131D01*
X295496Y630183D01*
X295488Y630238D01*
X295453Y630318D01*
X295426Y630401D01*
X295398Y630441D01*
X295372Y630498D01*
X295276Y630611D01*
X295231Y630675D01*
X293927Y631978D01*
X293115Y633939D01*
X293115Y636061D01*
X293927Y638022D01*
X295231Y639325D01*
X295283Y639395D01*
X295343Y639459D01*
X295369Y639508D01*
X295402Y639553D01*
X295433Y639634D01*
X295473Y639712D01*
X295481Y639760D01*
X295503Y639818D01*
X295515Y639966D01*
X295528Y640043D01*
X295528Y985557D01*
X295520Y985615D01*
X295522Y985673D01*
X295514Y985701D01*
X295513Y985731D01*
X295496Y985783D01*
X295488Y985838D01*
X295465Y985892D01*
X295450Y985948D01*
X295435Y985973D01*
X295426Y986001D01*
X295398Y986041D01*
X295372Y986098D01*
X295334Y986142D01*
X295305Y986193D01*
X295259Y986235D01*
X295231Y986275D01*
X293927Y987578D01*
X293115Y989539D01*
X293115Y991661D01*
X293927Y993622D01*
X295428Y995123D01*
X296011Y995364D01*
X296109Y995422D01*
X296211Y995475D01*
X296231Y995494D01*
X296255Y995508D01*
X296334Y995592D01*
X296417Y995671D01*
X296431Y995695D01*
X296451Y995715D01*
X296503Y995817D01*
X296561Y995916D01*
X296568Y995943D01*
X296581Y995968D01*
X296603Y996081D01*
X296631Y996192D01*
X296630Y996219D01*
X296636Y996247D01*
X296626Y996361D01*
X296622Y996476D01*
X296614Y996502D01*
X296611Y996530D01*
X296570Y996637D01*
X296535Y996746D01*
X296520Y996767D01*
X296509Y996795D01*
X296348Y997008D01*
X296340Y997020D01*
X295528Y997831D01*
X295528Y1038897D01*
X295516Y1038983D01*
X295513Y1039071D01*
X295496Y1039123D01*
X295488Y1039178D01*
X295453Y1039258D01*
X295426Y1039341D01*
X295398Y1039381D01*
X295372Y1039438D01*
X295276Y1039551D01*
X295231Y1039615D01*
X293927Y1040918D01*
X293115Y1042879D01*
X293115Y1045001D01*
X293927Y1046962D01*
X295428Y1048463D01*
X297389Y1049275D01*
X299511Y1049275D01*
X301472Y1048463D01*
X302973Y1046962D01*
X303785Y1045001D01*
X303785Y1042879D01*
X302973Y1040918D01*
X301669Y1039615D01*
X301617Y1039545D01*
X301557Y1039481D01*
X301531Y1039432D01*
X301498Y1039387D01*
X301467Y1039306D01*
X301427Y1039228D01*
X301419Y1039180D01*
X301397Y1039122D01*
X301385Y1038974D01*
X301372Y1038897D01*
X301372Y1000672D01*
X301384Y1000586D01*
X301387Y1000498D01*
X301404Y1000446D01*
X301412Y1000391D01*
X301447Y1000311D01*
X301474Y1000228D01*
X301502Y1000188D01*
X301528Y1000131D01*
X301624Y1000018D01*
X301669Y999954D01*
X305332Y996292D01*
X306495Y995128D01*
X306519Y995111D01*
X306538Y995088D01*
X306632Y995026D01*
X306722Y994957D01*
X306750Y994947D01*
X306774Y994931D01*
X306882Y994897D01*
X306988Y994856D01*
X307017Y994854D01*
X307045Y994845D01*
X307159Y994842D01*
X307271Y994833D01*
X307300Y994838D01*
X307329Y994838D01*
X307439Y994866D01*
X307550Y994889D01*
X307576Y994902D01*
X307604Y994909D01*
X307702Y994967D01*
X307802Y995019D01*
X307824Y995040D01*
X307849Y995055D01*
X307926Y995137D01*
X308008Y995215D01*
X308023Y995241D01*
X308043Y995262D01*
X308095Y995363D01*
X308152Y995461D01*
X308159Y995489D01*
X308173Y995515D01*
X308186Y995592D01*
X308222Y995736D01*
X308220Y995799D01*
X308228Y995846D01*
X308228Y1038897D01*
X308216Y1038983D01*
X308213Y1039071D01*
X308196Y1039123D01*
X308188Y1039178D01*
X308153Y1039258D01*
X308126Y1039341D01*
X308098Y1039381D01*
X308072Y1039438D01*
X307976Y1039551D01*
X307931Y1039615D01*
X306627Y1040918D01*
X305815Y1042879D01*
X305815Y1045001D01*
X306627Y1046962D01*
X308128Y1048463D01*
X310089Y1049275D01*
X312211Y1049275D01*
X314172Y1048463D01*
X315673Y1046962D01*
X316485Y1045001D01*
X316485Y1043158D01*
X316489Y1043129D01*
X316486Y1043099D01*
X316509Y1042988D01*
X316525Y1042876D01*
X316537Y1042849D01*
X316542Y1042821D01*
X316594Y1042720D01*
X316641Y1042617D01*
X316660Y1042594D01*
X316673Y1042568D01*
X316751Y1042486D01*
X316824Y1042400D01*
X316849Y1042384D01*
X316869Y1042362D01*
X316967Y1042305D01*
X317061Y1042242D01*
X317089Y1042233D01*
X317114Y1042219D01*
X317224Y1042191D01*
X317332Y1042156D01*
X317362Y1042156D01*
X317390Y1042148D01*
X317503Y1042152D01*
X317616Y1042149D01*
X317645Y1042157D01*
X317674Y1042157D01*
X317782Y1042192D01*
X317891Y1042221D01*
X317917Y1042236D01*
X317945Y1042245D01*
X318008Y1042290D01*
X318136Y1042366D01*
X318179Y1042412D01*
X318218Y1042440D01*
X318270Y1042510D01*
X318330Y1042574D01*
X318356Y1042623D01*
X318389Y1042667D01*
X318420Y1042749D01*
X318460Y1042827D01*
X318468Y1042874D01*
X318490Y1042933D01*
X318502Y1043080D01*
X318515Y1043158D01*
X318515Y1045001D01*
X319327Y1046962D01*
X320828Y1048463D01*
X322789Y1049275D01*
X324911Y1049275D01*
X326872Y1048463D01*
X328373Y1046962D01*
X329185Y1045001D01*
X329185Y1042709D01*
X329192Y1042660D01*
X329190Y1042610D01*
X329212Y1042520D01*
X329225Y1042428D01*
X329245Y1042382D01*
X329257Y1042333D01*
X329303Y1042253D01*
X329341Y1042168D01*
X329373Y1042130D01*
X329398Y1042087D01*
X329465Y1042022D01*
X329524Y1041951D01*
X329566Y1041924D01*
X329602Y1041889D01*
X329684Y1041845D01*
X329761Y1041794D01*
X329809Y1041779D01*
X329853Y1041755D01*
X329944Y1041736D01*
X330032Y1041708D01*
X330082Y1041707D01*
X330131Y1041696D01*
X330224Y1041703D01*
X330316Y1041701D01*
X330365Y1041713D01*
X330415Y1041717D01*
X330502Y1041749D01*
X330591Y1041772D01*
X330634Y1041798D01*
X330681Y1041815D01*
X330756Y1041870D01*
X330836Y1041918D01*
X330870Y1041954D01*
X330910Y1041984D01*
X330954Y1042043D01*
X331030Y1042125D01*
X331071Y1042204D01*
X331108Y1042255D01*
X331129Y1042319D01*
X331160Y1042378D01*
X331170Y1042441D01*
X331198Y1042525D01*
X331203Y1042637D01*
X331215Y1042709D01*
X331215Y1045001D01*
X332027Y1046962D01*
X333528Y1048463D01*
X335489Y1049275D01*
X337611Y1049275D01*
X339572Y1048463D01*
X341073Y1046962D01*
X341885Y1045001D01*
X341885Y1042879D01*
X341073Y1040918D01*
X339572Y1039417D01*
X337611Y1038605D01*
X336216Y1038605D01*
X336130Y1038593D01*
X336042Y1038590D01*
X335990Y1038573D01*
X335935Y1038565D01*
X335855Y1038530D01*
X335772Y1038503D01*
X335732Y1038475D01*
X335675Y1038449D01*
X335562Y1038353D01*
X335498Y1038308D01*
X328720Y1031530D01*
X328668Y1031460D01*
X328608Y1031396D01*
X328582Y1031347D01*
X328549Y1031302D01*
X328518Y1031221D01*
X328478Y1031143D01*
X328470Y1031095D01*
X328448Y1031037D01*
X328436Y1030889D01*
X328423Y1030812D01*
X328423Y912458D01*
X328427Y912429D01*
X328424Y912400D01*
X328430Y912371D01*
X328429Y912342D01*
X328451Y912261D01*
X328463Y912177D01*
X328475Y912150D01*
X328480Y912121D01*
X328494Y912095D01*
X328501Y912067D01*
X328543Y911997D01*
X328579Y911917D01*
X328598Y911895D01*
X328611Y911869D01*
X328632Y911847D01*
X328646Y911823D01*
X328706Y911767D01*
X328762Y911700D01*
X328787Y911684D01*
X328807Y911663D01*
X328834Y911647D01*
X328854Y911628D01*
X328925Y911592D01*
X328999Y911543D01*
X329027Y911534D01*
X329052Y911519D01*
X329083Y911511D01*
X329107Y911499D01*
X329171Y911488D01*
X329270Y911457D01*
X329300Y911456D01*
X329328Y911449D01*
X329393Y911451D01*
X329438Y911443D01*
X329439Y911443D01*
X329493Y911451D01*
X329554Y911450D01*
X329583Y911457D01*
X329612Y911458D01*
X329667Y911476D01*
X329720Y911483D01*
X329771Y911506D01*
X329829Y911521D01*
X329855Y911536D01*
X329883Y911545D01*
X329923Y911574D01*
X329979Y911600D01*
X330023Y911637D01*
X330074Y911667D01*
X330117Y911712D01*
X330156Y911740D01*
X330988Y912573D01*
X332949Y913385D01*
X335071Y913385D01*
X336034Y912986D01*
X336146Y912957D01*
X336255Y912922D01*
X336283Y912922D01*
X336310Y912915D01*
X336424Y912918D01*
X336539Y912915D01*
X336566Y912922D01*
X336594Y912923D01*
X336703Y912958D01*
X336814Y912987D01*
X336838Y913001D01*
X336865Y913010D01*
X336960Y913074D01*
X337059Y913132D01*
X337078Y913152D01*
X337101Y913168D01*
X337175Y913256D01*
X337253Y913339D01*
X337266Y913364D01*
X337284Y913385D01*
X337330Y913490D01*
X337383Y913593D01*
X337387Y913617D01*
X337399Y913645D01*
X337436Y913909D01*
X337438Y913924D01*
X337438Y915707D01*
X337426Y915793D01*
X337423Y915881D01*
X337406Y915934D01*
X337398Y915988D01*
X337363Y916068D01*
X337336Y916151D01*
X337308Y916191D01*
X337282Y916248D01*
X337186Y916361D01*
X337141Y916425D01*
X335837Y917728D01*
X335025Y919689D01*
X335025Y921811D01*
X335837Y923772D01*
X337338Y925273D01*
X339299Y926085D01*
X341421Y926085D01*
X343382Y925273D01*
X344595Y924059D01*
X344619Y924042D01*
X344638Y924019D01*
X344732Y923957D01*
X344822Y923888D01*
X344850Y923878D01*
X344874Y923862D01*
X344982Y923828D01*
X345088Y923787D01*
X345117Y923785D01*
X345145Y923776D01*
X345259Y923773D01*
X345371Y923764D01*
X345400Y923769D01*
X345429Y923769D01*
X345539Y923797D01*
X345650Y923820D01*
X345676Y923833D01*
X345704Y923840D01*
X345802Y923898D01*
X345902Y923950D01*
X345924Y923971D01*
X345949Y923986D01*
X346026Y924068D01*
X346108Y924146D01*
X346123Y924172D01*
X346143Y924193D01*
X346195Y924294D01*
X346252Y924392D01*
X346259Y924420D01*
X346273Y924446D01*
X346286Y924523D01*
X346322Y924667D01*
X346320Y924730D01*
X346328Y924777D01*
X346328Y955077D01*
X346316Y955163D01*
X346313Y955251D01*
X346296Y955304D01*
X346288Y955358D01*
X346253Y955438D01*
X346226Y955521D01*
X346198Y955561D01*
X346172Y955618D01*
X346104Y955699D01*
X346082Y955735D01*
X346056Y955759D01*
X346031Y955795D01*
X344727Y957098D01*
X343915Y959059D01*
X343915Y961181D01*
X344727Y963142D01*
X346031Y964445D01*
X346083Y964515D01*
X346143Y964579D01*
X346169Y964628D01*
X346202Y964673D01*
X346233Y964754D01*
X346273Y964832D01*
X346281Y964880D01*
X346303Y964938D01*
X346315Y965086D01*
X346328Y965163D01*
X346328Y998257D01*
X346316Y998343D01*
X346313Y998431D01*
X346296Y998483D01*
X346288Y998538D01*
X346253Y998618D01*
X346226Y998701D01*
X346198Y998741D01*
X346172Y998798D01*
X346076Y998911D01*
X346031Y998975D01*
X344727Y1000278D01*
X343915Y1002239D01*
X343915Y1004361D01*
X344727Y1006322D01*
X346228Y1007823D01*
X348189Y1008635D01*
X350311Y1008635D01*
X352272Y1007823D01*
X353773Y1006322D01*
X354585Y1004361D01*
X354585Y1002916D01*
X354599Y1002817D01*
X354598Y1002803D01*
X354602Y1002788D01*
X354611Y1002686D01*
X354621Y1002661D01*
X354625Y1002635D01*
X354667Y1002540D01*
X354670Y1002528D01*
X354677Y1002516D01*
X354714Y1002421D01*
X354730Y1002400D01*
X354741Y1002375D01*
X354808Y1002296D01*
X354815Y1002283D01*
X354826Y1002273D01*
X354886Y1002195D01*
X354907Y1002179D01*
X354924Y1002158D01*
X355007Y1002103D01*
X355023Y1002089D01*
X355040Y1002080D01*
X355114Y1002025D01*
X355139Y1002016D01*
X355161Y1002001D01*
X355250Y1001973D01*
X355276Y1001959D01*
X355299Y1001955D01*
X355380Y1001925D01*
X355406Y1001923D01*
X355432Y1001915D01*
X355548Y1001912D01*
X355568Y1001910D01*
X355607Y1001904D01*
X355652Y1001904D01*
X355663Y1001903D01*
X355667Y1001904D01*
X357931Y1001904D01*
X359892Y1001092D01*
X361393Y999591D01*
X362205Y997630D01*
X362205Y995508D01*
X361393Y993547D01*
X359892Y992046D01*
X359148Y991738D01*
X359147Y991738D01*
X359146Y991737D01*
X359027Y991667D01*
X358904Y991594D01*
X358903Y991593D01*
X358901Y991592D01*
X358804Y991488D01*
X358708Y991387D01*
X358708Y991386D01*
X358707Y991385D01*
X358641Y991257D01*
X358578Y991135D01*
X358578Y991133D01*
X358577Y991132D01*
X358575Y991117D01*
X358523Y990856D01*
X358526Y990825D01*
X358522Y990801D01*
X358522Y694653D01*
X358534Y694567D01*
X358537Y694479D01*
X358554Y694427D01*
X358562Y694372D01*
X358597Y694292D01*
X358624Y694209D01*
X358652Y694169D01*
X358678Y694112D01*
X358774Y693999D01*
X358819Y693935D01*
X360123Y692632D01*
X360935Y690671D01*
X360935Y688549D01*
X360123Y686588D01*
X358622Y685087D01*
X356661Y684275D01*
X354539Y684275D01*
X353576Y684674D01*
X353464Y684703D01*
X353355Y684738D01*
X353327Y684738D01*
X353300Y684745D01*
X353186Y684742D01*
X353071Y684745D01*
X353044Y684738D01*
X353016Y684737D01*
X352907Y684702D01*
X352796Y684673D01*
X352772Y684659D01*
X352745Y684650D01*
X352650Y684586D01*
X352551Y684528D01*
X352532Y684508D01*
X352509Y684492D01*
X352435Y684404D01*
X352357Y684321D01*
X352344Y684296D01*
X352326Y684275D01*
X352280Y684170D01*
X352227Y684067D01*
X352223Y684043D01*
X352211Y684015D01*
X352174Y683751D01*
X352172Y683736D01*
X352172Y652743D01*
X352184Y652657D01*
X352187Y652569D01*
X352204Y652517D01*
X352212Y652462D01*
X352247Y652382D01*
X352274Y652299D01*
X352302Y652259D01*
X352328Y652202D01*
X352424Y652089D01*
X352469Y652025D01*
X353773Y650722D01*
X354585Y648761D01*
X354585Y646639D01*
X353773Y644678D01*
X352469Y643375D01*
X352417Y643305D01*
X352357Y643241D01*
X352331Y643192D01*
X352298Y643147D01*
X352267Y643066D01*
X352227Y642988D01*
X352219Y642940D01*
X352197Y642882D01*
X352185Y642734D01*
X352172Y642657D01*
X352172Y491171D01*
X352188Y491058D01*
X352198Y490943D01*
X352208Y490917D01*
X352212Y490890D01*
X352259Y490785D01*
X352300Y490678D01*
X352316Y490656D01*
X352328Y490631D01*
X352402Y490543D01*
X352471Y490451D01*
X352494Y490435D01*
X352511Y490414D01*
X352607Y490350D01*
X352699Y490281D01*
X352725Y490271D01*
X352748Y490256D01*
X352858Y490221D01*
X352965Y490181D01*
X352993Y490179D01*
X353019Y490170D01*
X353134Y490167D01*
X353248Y490158D01*
X353273Y490164D01*
X353303Y490163D01*
X353560Y490230D01*
X353576Y490234D01*
X354158Y490475D01*
X356280Y490475D01*
X358241Y489663D01*
X359742Y488162D01*
X360554Y486201D01*
X360554Y484079D01*
X359742Y482118D01*
X358438Y480815D01*
X358386Y480745D01*
X358326Y480681D01*
X358300Y480632D01*
X358267Y480587D01*
X358236Y480506D01*
X358196Y480428D01*
X358188Y480380D01*
X358166Y480322D01*
X358154Y480174D01*
X358141Y480097D01*
X358141Y374122D01*
X358153Y374035D01*
X358156Y373948D01*
X358173Y373895D01*
X358181Y373840D01*
X358216Y373760D01*
X358243Y373677D01*
X358271Y373638D01*
X358297Y373581D01*
X358393Y373468D01*
X358438Y373404D01*
X365530Y366312D01*
X365600Y366260D01*
X365664Y366200D01*
X365713Y366174D01*
X365757Y366141D01*
X365839Y366110D01*
X365917Y366070D01*
X365964Y366062D01*
X366023Y366040D01*
X366170Y366028D01*
X366248Y366015D01*
X368173Y366015D01*
X368231Y366023D01*
X368289Y366021D01*
X368371Y366043D01*
X368455Y366055D01*
X368508Y366078D01*
X368564Y366093D01*
X368637Y366136D01*
X368714Y366171D01*
X368759Y366209D01*
X368809Y366238D01*
X368867Y366300D01*
X368931Y366354D01*
X368963Y366403D01*
X369003Y366446D01*
X369042Y366521D01*
X369089Y366591D01*
X369106Y366647D01*
X369133Y366699D01*
X369144Y366767D01*
X369174Y366862D01*
X369177Y366962D01*
X369188Y367030D01*
X369188Y469937D01*
X369176Y470023D01*
X369173Y470111D01*
X369156Y470164D01*
X369148Y470218D01*
X369113Y470298D01*
X369086Y470381D01*
X369058Y470421D01*
X369032Y470478D01*
X368936Y470591D01*
X368891Y470655D01*
X367587Y471958D01*
X366775Y473919D01*
X366775Y476041D01*
X367587Y478002D01*
X369088Y479503D01*
X371049Y480315D01*
X373171Y480315D01*
X374515Y479758D01*
X374627Y479729D01*
X374736Y479695D01*
X374764Y479694D01*
X374791Y479687D01*
X374905Y479690D01*
X375020Y479687D01*
X375047Y479694D01*
X375075Y479695D01*
X375184Y479730D01*
X375295Y479759D01*
X375319Y479773D01*
X375346Y479782D01*
X375441Y479846D01*
X375540Y479904D01*
X375559Y479924D01*
X375582Y479940D01*
X375656Y480028D01*
X375734Y480112D01*
X375747Y480136D01*
X375765Y480158D01*
X375811Y480262D01*
X375864Y480365D01*
X375868Y480389D01*
X375880Y480417D01*
X375917Y480681D01*
X375919Y480696D01*
X375919Y610234D01*
X375903Y610348D01*
X375893Y610462D01*
X375883Y610488D01*
X375879Y610516D01*
X375832Y610621D01*
X375791Y610728D01*
X375775Y610750D01*
X375763Y610775D01*
X375689Y610863D01*
X375620Y610954D01*
X375597Y610971D01*
X375580Y610992D01*
X375484Y611056D01*
X375392Y611124D01*
X375366Y611134D01*
X375343Y611150D01*
X375233Y611184D01*
X375126Y611225D01*
X375098Y611227D01*
X375072Y611235D01*
X374957Y611238D01*
X374843Y611248D01*
X374818Y611242D01*
X374788Y611243D01*
X374531Y611176D01*
X374515Y611172D01*
X373171Y610615D01*
X371049Y610615D01*
X369088Y611427D01*
X367587Y612928D01*
X366775Y614889D01*
X366775Y617011D01*
X367587Y618972D01*
X367621Y619005D01*
X367673Y619075D01*
X367733Y619139D01*
X367759Y619188D01*
X367792Y619233D01*
X367823Y619314D01*
X367863Y619392D01*
X367871Y619440D01*
X367893Y619498D01*
X367905Y619646D01*
X367918Y619723D01*
X367918Y649007D01*
X367906Y649093D01*
X367903Y649181D01*
X367886Y649233D01*
X367878Y649288D01*
X367843Y649368D01*
X367816Y649451D01*
X367788Y649491D01*
X367762Y649548D01*
X367666Y649661D01*
X367621Y649725D01*
X366317Y651028D01*
X365505Y652989D01*
X365505Y655111D01*
X366317Y657072D01*
X367818Y658573D01*
X369779Y659385D01*
X371901Y659385D01*
X373862Y658573D01*
X374186Y658248D01*
X374210Y658231D01*
X374229Y658208D01*
X374323Y658146D01*
X374413Y658077D01*
X374441Y658067D01*
X374465Y658051D01*
X374573Y658017D01*
X374679Y657976D01*
X374708Y657974D01*
X374736Y657965D01*
X374849Y657962D01*
X374962Y657953D01*
X374991Y657958D01*
X375020Y657958D01*
X375130Y657986D01*
X375241Y658009D01*
X375267Y658022D01*
X375295Y658029D01*
X375393Y658087D01*
X375493Y658139D01*
X375515Y658160D01*
X375540Y658175D01*
X375617Y658257D01*
X375699Y658335D01*
X375714Y658361D01*
X375734Y658382D01*
X375786Y658483D01*
X375843Y658581D01*
X375850Y658609D01*
X375864Y658635D01*
X375877Y658712D01*
X375913Y658856D01*
X375911Y658919D01*
X375919Y658966D01*
X375919Y671224D01*
X375915Y671254D01*
X375917Y671285D01*
X375900Y671362D01*
X375879Y671505D01*
X375853Y671564D01*
X375842Y671612D01*
X375665Y672039D01*
X375665Y674161D01*
X375842Y674588D01*
X375850Y674618D01*
X375864Y674645D01*
X375877Y674723D01*
X375913Y674863D01*
X375911Y674927D01*
X375919Y674976D01*
X375919Y763934D01*
X375915Y763964D01*
X375917Y763995D01*
X375900Y764072D01*
X375879Y764215D01*
X375853Y764274D01*
X375842Y764322D01*
X375665Y764749D01*
X375665Y766871D01*
X375842Y767298D01*
X375850Y767328D01*
X375864Y767355D01*
X375877Y767433D01*
X375913Y767573D01*
X375911Y767637D01*
X375919Y767686D01*
X375919Y779174D01*
X375915Y779204D01*
X375917Y779235D01*
X375900Y779312D01*
X375879Y779455D01*
X375853Y779514D01*
X375842Y779562D01*
X375665Y779989D01*
X375665Y782111D01*
X375842Y782538D01*
X375850Y782568D01*
X375864Y782595D01*
X375877Y782673D01*
X375913Y782813D01*
X375911Y782877D01*
X375919Y782926D01*
X375919Y810924D01*
X375915Y810954D01*
X375917Y810985D01*
X375908Y811027D01*
X375908Y811050D01*
X375893Y811109D01*
X375879Y811205D01*
X375853Y811264D01*
X375842Y811312D01*
X375665Y811739D01*
X375665Y813861D01*
X375842Y814288D01*
X375850Y814318D01*
X375864Y814345D01*
X375877Y814423D01*
X375913Y814563D01*
X375911Y814627D01*
X375919Y814676D01*
X375919Y827434D01*
X375915Y827464D01*
X375917Y827495D01*
X375900Y827572D01*
X375879Y827715D01*
X375853Y827774D01*
X375842Y827822D01*
X375665Y828249D01*
X375665Y830371D01*
X375842Y830798D01*
X375850Y830828D01*
X375864Y830855D01*
X375877Y830933D01*
X375913Y831073D01*
X375911Y831137D01*
X375919Y831186D01*
X375919Y1010314D01*
X375915Y1010344D01*
X375917Y1010375D01*
X375900Y1010452D01*
X375879Y1010595D01*
X375853Y1010654D01*
X375842Y1010702D01*
X375665Y1011129D01*
X375665Y1013251D01*
X375842Y1013678D01*
X375850Y1013708D01*
X375864Y1013735D01*
X375877Y1013813D01*
X375913Y1013953D01*
X375911Y1014017D01*
X375919Y1014066D01*
X375919Y1029364D01*
X375915Y1029394D01*
X375917Y1029425D01*
X375900Y1029502D01*
X375879Y1029645D01*
X375853Y1029704D01*
X375842Y1029752D01*
X375665Y1030179D01*
X375665Y1032301D01*
X376477Y1034262D01*
X377146Y1034930D01*
X377198Y1035000D01*
X377258Y1035064D01*
X377284Y1035113D01*
X377317Y1035158D01*
X377348Y1035239D01*
X377388Y1035317D01*
X377396Y1035365D01*
X377418Y1035423D01*
X377430Y1035571D01*
X377443Y1035648D01*
X377443Y1040776D01*
X377431Y1040863D01*
X377428Y1040950D01*
X377411Y1041003D01*
X377403Y1041058D01*
X377368Y1041138D01*
X377341Y1041221D01*
X377313Y1041260D01*
X377287Y1041317D01*
X377191Y1041430D01*
X377146Y1041494D01*
X369950Y1048690D01*
X369950Y1057700D01*
X369943Y1057748D01*
X369944Y1057756D01*
X369941Y1057766D01*
X369938Y1057786D01*
X369935Y1057874D01*
X369918Y1057926D01*
X369910Y1057981D01*
X369875Y1058061D01*
X369848Y1058144D01*
X369820Y1058184D01*
X369794Y1058241D01*
X369698Y1058354D01*
X369653Y1058418D01*
X369018Y1059053D01*
X368971Y1059088D01*
X368931Y1059130D01*
X368858Y1059173D01*
X368791Y1059223D01*
X368736Y1059244D01*
X368686Y1059274D01*
X368604Y1059295D01*
X368525Y1059325D01*
X368467Y1059329D01*
X368410Y1059344D01*
X368326Y1059341D01*
X368242Y1059348D01*
X368184Y1059337D01*
X368126Y1059335D01*
X368046Y1059309D01*
X367963Y1059292D01*
X367911Y1059265D01*
X367855Y1059247D01*
X367799Y1059207D01*
X367711Y1059161D01*
X367638Y1059093D01*
X367582Y1059053D01*
X366947Y1058417D01*
X359239Y1058417D01*
X357758Y1059898D01*
X357758Y1062228D01*
X357750Y1062286D01*
X357752Y1062344D01*
X357730Y1062426D01*
X357718Y1062510D01*
X357695Y1062563D01*
X357680Y1062619D01*
X357637Y1062692D01*
X357602Y1062769D01*
X357564Y1062814D01*
X357535Y1062864D01*
X357473Y1062922D01*
X357419Y1062986D01*
X357370Y1063018D01*
X357327Y1063058D01*
X357252Y1063097D01*
X357182Y1063144D01*
X357126Y1063161D01*
X357074Y1063188D01*
X357006Y1063199D01*
X356911Y1063229D01*
X356811Y1063232D01*
X356743Y1063243D01*
X347308Y1063243D01*
X347222Y1063231D01*
X347134Y1063228D01*
X347082Y1063211D01*
X347027Y1063203D01*
X346947Y1063168D01*
X346864Y1063141D01*
X346824Y1063113D01*
X346767Y1063087D01*
X346654Y1062991D01*
X346590Y1062946D01*
X345922Y1062277D01*
X343961Y1061465D01*
X341839Y1061465D01*
X339878Y1062277D01*
X338377Y1063778D01*
X337565Y1065739D01*
X337565Y1067861D01*
X338377Y1069822D01*
X339878Y1071323D01*
X341839Y1072135D01*
X343961Y1072135D01*
X345922Y1071323D01*
X346590Y1070654D01*
X346660Y1070602D01*
X346724Y1070542D01*
X346773Y1070516D01*
X346818Y1070483D01*
X346899Y1070452D01*
X346977Y1070412D01*
X347025Y1070404D01*
X347083Y1070382D01*
X347231Y1070370D01*
X347308Y1070357D01*
X356743Y1070357D01*
X356801Y1070365D01*
X356859Y1070363D01*
X356941Y1070385D01*
X357025Y1070397D01*
X357078Y1070420D01*
X357134Y1070435D01*
X357207Y1070478D01*
X357284Y1070513D01*
X357329Y1070551D01*
X357379Y1070580D01*
X357437Y1070642D01*
X357501Y1070696D01*
X357533Y1070745D01*
X357573Y1070788D01*
X357612Y1070863D01*
X357659Y1070933D01*
X357676Y1070989D01*
X357703Y1071041D01*
X357714Y1071109D01*
X357744Y1071204D01*
X357747Y1071304D01*
X357758Y1071372D01*
X357758Y1073702D01*
X359239Y1075183D01*
X366947Y1075183D01*
X367582Y1074547D01*
X367629Y1074512D01*
X367669Y1074470D01*
X367742Y1074427D01*
X367809Y1074377D01*
X367864Y1074356D01*
X367914Y1074326D01*
X367996Y1074305D01*
X368075Y1074275D01*
X368133Y1074271D01*
X368190Y1074256D01*
X368274Y1074259D01*
X368358Y1074252D01*
X368416Y1074263D01*
X368474Y1074265D01*
X368554Y1074291D01*
X368637Y1074308D01*
X368689Y1074335D01*
X368745Y1074353D01*
X368801Y1074393D01*
X368889Y1074439D01*
X368962Y1074507D01*
X369018Y1074547D01*
X369653Y1075183D01*
X377361Y1075183D01*
X378842Y1073702D01*
X378842Y1059898D01*
X377361Y1058418D01*
X377309Y1058348D01*
X377249Y1058284D01*
X377223Y1058235D01*
X377190Y1058190D01*
X377159Y1058109D01*
X377119Y1058031D01*
X377111Y1057983D01*
X377089Y1057925D01*
X377080Y1057814D01*
X377078Y1057807D01*
X377077Y1057781D01*
X377077Y1057777D01*
X377064Y1057700D01*
X377064Y1052057D01*
X377076Y1051970D01*
X377079Y1051883D01*
X377096Y1051830D01*
X377104Y1051775D01*
X377139Y1051695D01*
X377166Y1051612D01*
X377194Y1051573D01*
X377220Y1051516D01*
X377316Y1051403D01*
X377361Y1051339D01*
X384557Y1044143D01*
X384557Y1035648D01*
X384569Y1035562D01*
X384572Y1035474D01*
X384589Y1035421D01*
X384597Y1035367D01*
X384632Y1035287D01*
X384659Y1035204D01*
X384687Y1035164D01*
X384713Y1035107D01*
X384809Y1034994D01*
X384854Y1034930D01*
X385523Y1034262D01*
X386335Y1032301D01*
X386335Y1030179D01*
X386158Y1029752D01*
X386150Y1029722D01*
X386136Y1029695D01*
X386123Y1029617D01*
X386087Y1029477D01*
X386089Y1029413D01*
X386081Y1029364D01*
X386081Y1014066D01*
X386085Y1014036D01*
X386083Y1014005D01*
X386100Y1013928D01*
X386121Y1013785D01*
X386147Y1013726D01*
X386158Y1013678D01*
X386335Y1013251D01*
X386335Y1011129D01*
X386158Y1010702D01*
X386150Y1010672D01*
X386136Y1010645D01*
X386123Y1010567D01*
X386087Y1010427D01*
X386089Y1010363D01*
X386081Y1010314D01*
X386081Y871848D01*
X386085Y871819D01*
X386082Y871790D01*
X386088Y871761D01*
X386087Y871732D01*
X386109Y871651D01*
X386121Y871567D01*
X386133Y871540D01*
X386138Y871511D01*
X386152Y871485D01*
X386159Y871457D01*
X386201Y871387D01*
X386237Y871307D01*
X386256Y871285D01*
X386269Y871259D01*
X386290Y871237D01*
X386304Y871213D01*
X386364Y871157D01*
X386420Y871090D01*
X386445Y871074D01*
X386465Y871053D01*
X386492Y871037D01*
X386512Y871018D01*
X386583Y870982D01*
X386657Y870933D01*
X386685Y870924D01*
X386710Y870909D01*
X386741Y870901D01*
X386765Y870889D01*
X386829Y870878D01*
X386928Y870847D01*
X386958Y870846D01*
X386986Y870839D01*
X387051Y870841D01*
X387096Y870833D01*
X387097Y870833D01*
X387151Y870841D01*
X387212Y870840D01*
X387241Y870847D01*
X387270Y870848D01*
X387325Y870866D01*
X387378Y870873D01*
X387429Y870896D01*
X387487Y870911D01*
X387513Y870926D01*
X387541Y870935D01*
X387581Y870964D01*
X387637Y870990D01*
X387681Y871027D01*
X387732Y871057D01*
X387775Y871102D01*
X387814Y871130D01*
X388646Y871963D01*
X390607Y872775D01*
X392729Y872775D01*
X394690Y871963D01*
X396191Y870462D01*
X397003Y868501D01*
X397003Y866379D01*
X396191Y864418D01*
X394683Y862910D01*
X394592Y862856D01*
X394464Y862781D01*
X394462Y862779D01*
X394461Y862779D01*
X394364Y862675D01*
X394268Y862574D01*
X394268Y862572D01*
X394267Y862571D01*
X394202Y862445D01*
X394138Y862321D01*
X394138Y862320D01*
X394137Y862318D01*
X394135Y862303D01*
X394083Y862042D01*
X394086Y862012D01*
X394082Y861987D01*
X394082Y629883D01*
X394094Y629797D01*
X394097Y629709D01*
X394114Y629657D01*
X394122Y629602D01*
X394157Y629522D01*
X394184Y629439D01*
X394212Y629399D01*
X394238Y629342D01*
X394334Y629229D01*
X394379Y629165D01*
X395683Y627862D01*
X396495Y625901D01*
X396495Y623779D01*
X395683Y621818D01*
X394182Y620317D01*
X392221Y619505D01*
X390099Y619505D01*
X388138Y620317D01*
X387814Y620642D01*
X387790Y620659D01*
X387771Y620682D01*
X387677Y620744D01*
X387587Y620813D01*
X387559Y620823D01*
X387535Y620839D01*
X387427Y620873D01*
X387321Y620914D01*
X387292Y620916D01*
X387264Y620925D01*
X387151Y620928D01*
X387038Y620937D01*
X387009Y620932D01*
X386980Y620932D01*
X386870Y620904D01*
X386759Y620881D01*
X386733Y620868D01*
X386705Y620861D01*
X386607Y620803D01*
X386507Y620751D01*
X386485Y620730D01*
X386460Y620715D01*
X386383Y620633D01*
X386301Y620555D01*
X386286Y620529D01*
X386266Y620508D01*
X386214Y620407D01*
X386157Y620309D01*
X386150Y620281D01*
X386136Y620255D01*
X386123Y620178D01*
X386087Y620034D01*
X386089Y619971D01*
X386081Y619924D01*
X386081Y446376D01*
X386085Y446346D01*
X386083Y446315D01*
X386100Y446238D01*
X386121Y446095D01*
X386147Y446036D01*
X386158Y445988D01*
X386335Y445561D01*
X386335Y443439D01*
X386158Y443012D01*
X386150Y442982D01*
X386136Y442955D01*
X386123Y442877D01*
X386087Y442737D01*
X386089Y442673D01*
X386081Y442624D01*
X386081Y332076D01*
X386085Y332046D01*
X386083Y332015D01*
X386100Y331938D01*
X386121Y331795D01*
X386147Y331736D01*
X386158Y331688D01*
X386335Y331261D01*
X386335Y329139D01*
X386158Y328712D01*
X386150Y328682D01*
X386136Y328655D01*
X386123Y328577D01*
X386087Y328437D01*
X386089Y328373D01*
X386081Y328324D01*
X386081Y147926D01*
X386085Y147896D01*
X386083Y147865D01*
X386100Y147788D01*
X386121Y147645D01*
X386147Y147586D01*
X386158Y147538D01*
X386335Y147111D01*
X386335Y58629D01*
X385523Y56668D01*
X384022Y55167D01*
X382061Y54355D01*
X379939Y54355D01*
G37*
%LPD*%
%LPC*%
G36*
X252939Y77215D02*
X252939Y77215D01*
X250978Y78027D01*
X249477Y79528D01*
X248665Y81489D01*
X248665Y83611D01*
X249477Y85572D01*
X250781Y86875D01*
X250833Y86945D01*
X250893Y87009D01*
X250919Y87058D01*
X250952Y87103D01*
X250983Y87184D01*
X251023Y87262D01*
X251031Y87310D01*
X251053Y87368D01*
X251065Y87516D01*
X251078Y87593D01*
X251078Y151167D01*
X251066Y151253D01*
X251063Y151341D01*
X251046Y151393D01*
X251038Y151448D01*
X251003Y151528D01*
X250976Y151611D01*
X250948Y151651D01*
X250922Y151708D01*
X250826Y151821D01*
X250781Y151885D01*
X249477Y153188D01*
X248665Y155149D01*
X248665Y157271D01*
X249477Y159232D01*
X250183Y159937D01*
X250218Y159984D01*
X250260Y160024D01*
X250303Y160097D01*
X250354Y160164D01*
X250374Y160219D01*
X250404Y160269D01*
X250425Y160351D01*
X250455Y160430D01*
X250460Y160488D01*
X250474Y160545D01*
X250471Y160629D01*
X250478Y160713D01*
X250467Y160771D01*
X250465Y160829D01*
X250439Y160909D01*
X250422Y160992D01*
X250395Y161044D01*
X250378Y161100D01*
X250338Y161156D01*
X250291Y161244D01*
X250223Y161317D01*
X250183Y161373D01*
X249477Y162078D01*
X248665Y164039D01*
X248665Y166161D01*
X249477Y168122D01*
X250978Y169623D01*
X252992Y170457D01*
X252993Y170457D01*
X252994Y170458D01*
X253115Y170529D01*
X253236Y170601D01*
X253237Y170602D01*
X253239Y170603D01*
X253336Y170707D01*
X253432Y170808D01*
X253432Y170809D01*
X253433Y170810D01*
X253497Y170935D01*
X253562Y171060D01*
X253562Y171062D01*
X253563Y171063D01*
X253565Y171078D01*
X253617Y171339D01*
X253614Y171370D01*
X253618Y171395D01*
X253618Y305853D01*
X253614Y305882D01*
X253617Y305911D01*
X253594Y306022D01*
X253578Y306134D01*
X253566Y306161D01*
X253561Y306190D01*
X253508Y306291D01*
X253462Y306394D01*
X253443Y306416D01*
X253430Y306442D01*
X253352Y306524D01*
X253279Y306611D01*
X253254Y306627D01*
X253234Y306648D01*
X253136Y306706D01*
X253042Y306768D01*
X253014Y306777D01*
X252988Y306792D01*
X252879Y306820D01*
X252771Y306854D01*
X252741Y306855D01*
X252713Y306862D01*
X252600Y306858D01*
X252487Y306861D01*
X252458Y306854D01*
X252429Y306853D01*
X252321Y306818D01*
X252212Y306790D01*
X252186Y306775D01*
X252158Y306765D01*
X252094Y306720D01*
X251967Y306644D01*
X251957Y306634D01*
X249981Y305815D01*
X247859Y305815D01*
X246896Y306214D01*
X246784Y306243D01*
X246675Y306278D01*
X246647Y306278D01*
X246620Y306285D01*
X246506Y306282D01*
X246391Y306285D01*
X246364Y306278D01*
X246336Y306277D01*
X246227Y306242D01*
X246116Y306213D01*
X246092Y306199D01*
X246065Y306190D01*
X245970Y306126D01*
X245871Y306068D01*
X245852Y306048D01*
X245829Y306032D01*
X245755Y305944D01*
X245677Y305861D01*
X245664Y305836D01*
X245646Y305815D01*
X245600Y305710D01*
X245547Y305607D01*
X245543Y305583D01*
X245531Y305555D01*
X245494Y305291D01*
X245492Y305276D01*
X245492Y194370D01*
X243122Y192000D01*
X243070Y191930D01*
X243010Y191866D01*
X242984Y191817D01*
X242951Y191773D01*
X242920Y191691D01*
X242880Y191613D01*
X242872Y191566D01*
X242850Y191507D01*
X242838Y191360D01*
X242825Y191282D01*
X242825Y189439D01*
X242013Y187478D01*
X240512Y185977D01*
X238551Y185165D01*
X236429Y185165D01*
X234468Y185977D01*
X233890Y186556D01*
X233866Y186573D01*
X233847Y186596D01*
X233753Y186658D01*
X233663Y186727D01*
X233635Y186737D01*
X233611Y186753D01*
X233503Y186787D01*
X233397Y186828D01*
X233368Y186830D01*
X233340Y186839D01*
X233226Y186842D01*
X233114Y186851D01*
X233085Y186846D01*
X233056Y186846D01*
X232946Y186818D01*
X232835Y186795D01*
X232809Y186782D01*
X232781Y186775D01*
X232683Y186717D01*
X232583Y186665D01*
X232561Y186644D01*
X232536Y186629D01*
X232459Y186547D01*
X232377Y186469D01*
X232362Y186443D01*
X232342Y186422D01*
X232290Y186321D01*
X232233Y186223D01*
X232226Y186195D01*
X232212Y186169D01*
X232199Y186092D01*
X232163Y185948D01*
X232165Y185885D01*
X232157Y185838D01*
X232157Y93308D01*
X232169Y93222D01*
X232172Y93134D01*
X232189Y93081D01*
X232197Y93027D01*
X232232Y92947D01*
X232259Y92864D01*
X232287Y92824D01*
X232313Y92767D01*
X232409Y92654D01*
X232454Y92590D01*
X233123Y91922D01*
X233935Y89961D01*
X233935Y87839D01*
X233123Y85878D01*
X231622Y84377D01*
X229661Y83565D01*
X227539Y83565D01*
X225578Y84377D01*
X224077Y85878D01*
X223265Y87839D01*
X223265Y89961D01*
X224077Y91922D01*
X224746Y92590D01*
X224798Y92660D01*
X224858Y92724D01*
X224884Y92773D01*
X224917Y92818D01*
X224948Y92899D01*
X224988Y92977D01*
X224996Y93025D01*
X225018Y93083D01*
X225030Y93231D01*
X225043Y93308D01*
X225043Y328332D01*
X225031Y328418D01*
X225028Y328506D01*
X225011Y328558D01*
X225003Y328613D01*
X224968Y328693D01*
X224941Y328776D01*
X224913Y328816D01*
X224887Y328873D01*
X224791Y328986D01*
X224746Y329050D01*
X224077Y329718D01*
X223265Y331679D01*
X223265Y333801D01*
X224077Y335762D01*
X224746Y336430D01*
X224798Y336500D01*
X224858Y336564D01*
X224884Y336613D01*
X224917Y336658D01*
X224948Y336739D01*
X224988Y336817D01*
X224996Y336865D01*
X225018Y336923D01*
X225030Y337071D01*
X225043Y337148D01*
X225043Y437552D01*
X225031Y437638D01*
X225028Y437726D01*
X225011Y437778D01*
X225003Y437833D01*
X224968Y437913D01*
X224941Y437996D01*
X224913Y438036D01*
X224887Y438093D01*
X224791Y438206D01*
X224746Y438270D01*
X224077Y438938D01*
X223265Y440899D01*
X223265Y443021D01*
X224077Y444982D01*
X224746Y445650D01*
X224798Y445720D01*
X224858Y445784D01*
X224884Y445833D01*
X224917Y445878D01*
X224948Y445959D01*
X224988Y446037D01*
X224996Y446085D01*
X225018Y446143D01*
X225030Y446291D01*
X225043Y446368D01*
X225043Y671232D01*
X225031Y671318D01*
X225028Y671406D01*
X225011Y671458D01*
X225003Y671513D01*
X224968Y671593D01*
X224941Y671676D01*
X224913Y671716D01*
X224887Y671773D01*
X224791Y671886D01*
X224746Y671950D01*
X224077Y672618D01*
X223265Y674579D01*
X223265Y676701D01*
X224077Y678662D01*
X224746Y679330D01*
X224798Y679400D01*
X224858Y679464D01*
X224884Y679513D01*
X224917Y679558D01*
X224948Y679639D01*
X224988Y679717D01*
X224996Y679765D01*
X225018Y679823D01*
X225030Y679971D01*
X225043Y680048D01*
X225043Y808392D01*
X225031Y808478D01*
X225028Y808566D01*
X225011Y808618D01*
X225003Y808673D01*
X224968Y808753D01*
X224941Y808836D01*
X224913Y808876D01*
X224887Y808933D01*
X224791Y809046D01*
X224746Y809110D01*
X224077Y809778D01*
X223265Y811739D01*
X223265Y813861D01*
X224077Y815822D01*
X224746Y816490D01*
X224798Y816560D01*
X224858Y816624D01*
X224884Y816673D01*
X224917Y816718D01*
X224948Y816799D01*
X224988Y816877D01*
X224996Y816925D01*
X225018Y816983D01*
X225030Y817131D01*
X225043Y817208D01*
X225043Y1024292D01*
X225031Y1024378D01*
X225028Y1024466D01*
X225011Y1024518D01*
X225003Y1024573D01*
X224968Y1024653D01*
X224941Y1024736D01*
X224913Y1024776D01*
X224887Y1024833D01*
X224791Y1024946D01*
X224746Y1025010D01*
X224077Y1025678D01*
X223265Y1027639D01*
X223265Y1029761D01*
X224077Y1031722D01*
X225578Y1033223D01*
X227539Y1034035D01*
X229661Y1034035D01*
X231622Y1033223D01*
X233123Y1031722D01*
X233935Y1029761D01*
X233935Y1027639D01*
X233123Y1025678D01*
X232454Y1025010D01*
X232402Y1024940D01*
X232342Y1024876D01*
X232316Y1024827D01*
X232283Y1024782D01*
X232252Y1024701D01*
X232212Y1024623D01*
X232204Y1024575D01*
X232182Y1024517D01*
X232170Y1024369D01*
X232157Y1024292D01*
X232157Y817208D01*
X232169Y817122D01*
X232172Y817034D01*
X232189Y816982D01*
X232197Y816927D01*
X232232Y816847D01*
X232259Y816764D01*
X232287Y816724D01*
X232313Y816667D01*
X232409Y816554D01*
X232454Y816490D01*
X233123Y815822D01*
X233935Y813861D01*
X233935Y811739D01*
X233123Y809778D01*
X232454Y809110D01*
X232402Y809040D01*
X232342Y808976D01*
X232316Y808927D01*
X232283Y808882D01*
X232252Y808801D01*
X232212Y808723D01*
X232204Y808675D01*
X232182Y808617D01*
X232170Y808469D01*
X232157Y808392D01*
X232157Y680048D01*
X232169Y679962D01*
X232172Y679874D01*
X232189Y679822D01*
X232197Y679767D01*
X232232Y679687D01*
X232259Y679604D01*
X232287Y679564D01*
X232313Y679507D01*
X232409Y679394D01*
X232454Y679330D01*
X233123Y678662D01*
X233935Y676701D01*
X233935Y674579D01*
X233123Y672618D01*
X232454Y671950D01*
X232402Y671880D01*
X232342Y671816D01*
X232316Y671767D01*
X232283Y671722D01*
X232252Y671641D01*
X232212Y671563D01*
X232204Y671515D01*
X232182Y671457D01*
X232170Y671309D01*
X232157Y671232D01*
X232157Y446368D01*
X232169Y446282D01*
X232172Y446194D01*
X232189Y446142D01*
X232197Y446087D01*
X232232Y446007D01*
X232259Y445924D01*
X232287Y445884D01*
X232313Y445827D01*
X232409Y445714D01*
X232454Y445650D01*
X233123Y444982D01*
X233935Y443021D01*
X233935Y440899D01*
X233123Y438938D01*
X232454Y438270D01*
X232402Y438200D01*
X232342Y438136D01*
X232316Y438087D01*
X232283Y438042D01*
X232252Y437961D01*
X232212Y437883D01*
X232204Y437835D01*
X232182Y437777D01*
X232170Y437629D01*
X232157Y437552D01*
X232157Y381531D01*
X232173Y381417D01*
X232183Y381303D01*
X232193Y381277D01*
X232197Y381249D01*
X232244Y381144D01*
X232285Y381037D01*
X232301Y381015D01*
X232313Y380990D01*
X232387Y380902D01*
X232456Y380811D01*
X232479Y380794D01*
X232496Y380773D01*
X232592Y380709D01*
X232684Y380640D01*
X232710Y380631D01*
X232733Y380615D01*
X232843Y380580D01*
X232950Y380540D01*
X232978Y380538D01*
X233004Y380529D01*
X233119Y380526D01*
X233233Y380517D01*
X233258Y380523D01*
X233288Y380522D01*
X233545Y380589D01*
X233561Y380593D01*
X235159Y381255D01*
X237281Y381255D01*
X238244Y380856D01*
X238356Y380827D01*
X238465Y380792D01*
X238493Y380792D01*
X238520Y380785D01*
X238634Y380788D01*
X238749Y380785D01*
X238776Y380792D01*
X238804Y380793D01*
X238913Y380828D01*
X239024Y380857D01*
X239048Y380871D01*
X239075Y380880D01*
X239170Y380944D01*
X239269Y381002D01*
X239288Y381022D01*
X239311Y381038D01*
X239385Y381126D01*
X239463Y381209D01*
X239476Y381234D01*
X239494Y381255D01*
X239540Y381360D01*
X239593Y381463D01*
X239597Y381487D01*
X239609Y381515D01*
X239646Y381779D01*
X239648Y381794D01*
X239648Y1066439D01*
X239636Y1066526D01*
X239633Y1066613D01*
X239616Y1066666D01*
X239608Y1066721D01*
X239573Y1066801D01*
X239546Y1066884D01*
X239518Y1066923D01*
X239492Y1066980D01*
X239396Y1067093D01*
X239351Y1067157D01*
X238990Y1067518D01*
X238920Y1067570D01*
X238856Y1067630D01*
X238807Y1067656D01*
X238763Y1067689D01*
X238681Y1067720D01*
X238603Y1067760D01*
X238556Y1067768D01*
X238497Y1067790D01*
X238350Y1067802D01*
X238272Y1067815D01*
X236429Y1067815D01*
X234468Y1068627D01*
X232967Y1070128D01*
X232155Y1072089D01*
X232155Y1074211D01*
X232967Y1076172D01*
X234468Y1077673D01*
X236429Y1078485D01*
X238551Y1078485D01*
X240512Y1077673D01*
X242013Y1076172D01*
X242825Y1074211D01*
X242825Y1072368D01*
X242837Y1072281D01*
X242840Y1072194D01*
X242857Y1072141D01*
X242865Y1072086D01*
X242900Y1072006D01*
X242927Y1071923D01*
X242955Y1071884D01*
X242981Y1071827D01*
X243077Y1071714D01*
X243122Y1071650D01*
X245492Y1069280D01*
X245492Y955257D01*
X245496Y955228D01*
X245493Y955199D01*
X245516Y955088D01*
X245532Y954976D01*
X245544Y954949D01*
X245549Y954920D01*
X245602Y954819D01*
X245648Y954716D01*
X245667Y954694D01*
X245680Y954668D01*
X245758Y954586D01*
X245831Y954499D01*
X245856Y954483D01*
X245876Y954462D01*
X245974Y954405D01*
X246068Y954342D01*
X246096Y954333D01*
X246121Y954318D01*
X246231Y954290D01*
X246339Y954256D01*
X246369Y954255D01*
X246397Y954248D01*
X246510Y954252D01*
X246623Y954249D01*
X246652Y954256D01*
X246681Y954257D01*
X246789Y954292D01*
X246898Y954320D01*
X246924Y954335D01*
X246952Y954344D01*
X247016Y954390D01*
X247143Y954466D01*
X247186Y954511D01*
X247225Y954539D01*
X248438Y955753D01*
X250399Y956565D01*
X252521Y956565D01*
X254482Y955753D01*
X255983Y954252D01*
X256795Y952291D01*
X256795Y950169D01*
X255983Y948208D01*
X254679Y946905D01*
X254627Y946835D01*
X254567Y946771D01*
X254541Y946722D01*
X254508Y946677D01*
X254477Y946596D01*
X254437Y946518D01*
X254429Y946470D01*
X254407Y946412D01*
X254395Y946264D01*
X254382Y946187D01*
X254382Y798742D01*
X254390Y798686D01*
X254388Y798634D01*
X254396Y798607D01*
X254397Y798568D01*
X254414Y798516D01*
X254422Y798461D01*
X254451Y798396D01*
X254460Y798359D01*
X254469Y798344D01*
X254484Y798298D01*
X254512Y798258D01*
X254538Y798201D01*
X254593Y798137D01*
X254605Y798115D01*
X254632Y798090D01*
X254634Y798088D01*
X254679Y798024D01*
X257811Y794893D01*
X257811Y787527D01*
X254679Y784396D01*
X254627Y784326D01*
X254567Y784262D01*
X254541Y784213D01*
X254508Y784168D01*
X254477Y784087D01*
X254437Y784009D01*
X254429Y783961D01*
X254407Y783903D01*
X254395Y783755D01*
X254382Y783678D01*
X254382Y623787D01*
X254386Y623758D01*
X254383Y623729D01*
X254406Y623618D01*
X254422Y623506D01*
X254434Y623479D01*
X254439Y623450D01*
X254492Y623349D01*
X254538Y623246D01*
X254557Y623224D01*
X254570Y623198D01*
X254648Y623116D01*
X254721Y623029D01*
X254746Y623013D01*
X254766Y622992D01*
X254864Y622935D01*
X254958Y622872D01*
X254986Y622863D01*
X255011Y622848D01*
X255121Y622820D01*
X255229Y622786D01*
X255259Y622785D01*
X255287Y622778D01*
X255400Y622782D01*
X255513Y622779D01*
X255542Y622786D01*
X255571Y622787D01*
X255679Y622822D01*
X255788Y622850D01*
X255814Y622865D01*
X255842Y622874D01*
X255906Y622920D01*
X256033Y622996D01*
X256076Y623041D01*
X256115Y623069D01*
X257328Y624283D01*
X259289Y625095D01*
X261411Y625095D01*
X262374Y624696D01*
X262486Y624667D01*
X262595Y624632D01*
X262623Y624632D01*
X262650Y624625D01*
X262764Y624628D01*
X262879Y624625D01*
X262906Y624632D01*
X262934Y624633D01*
X263043Y624668D01*
X263154Y624697D01*
X263178Y624711D01*
X263205Y624720D01*
X263300Y624784D01*
X263399Y624842D01*
X263418Y624862D01*
X263441Y624878D01*
X263515Y624966D01*
X263593Y625049D01*
X263606Y625074D01*
X263624Y625095D01*
X263670Y625200D01*
X263723Y625303D01*
X263727Y625327D01*
X263739Y625355D01*
X263776Y625619D01*
X263778Y625634D01*
X263778Y777277D01*
X263766Y777363D01*
X263763Y777451D01*
X263746Y777503D01*
X263738Y777558D01*
X263703Y777638D01*
X263676Y777721D01*
X263648Y777761D01*
X263622Y777818D01*
X263526Y777931D01*
X263481Y777995D01*
X262177Y779298D01*
X261365Y781259D01*
X261365Y783381D01*
X262177Y785342D01*
X263481Y786645D01*
X263533Y786715D01*
X263593Y786779D01*
X263619Y786828D01*
X263652Y786873D01*
X263683Y786954D01*
X263723Y787032D01*
X263731Y787080D01*
X263753Y787138D01*
X263765Y787286D01*
X263778Y787363D01*
X263778Y922057D01*
X263766Y922143D01*
X263763Y922231D01*
X263746Y922283D01*
X263738Y922338D01*
X263703Y922418D01*
X263676Y922501D01*
X263648Y922541D01*
X263622Y922598D01*
X263526Y922711D01*
X263481Y922775D01*
X262177Y924078D01*
X261365Y926039D01*
X261365Y928161D01*
X262177Y930122D01*
X263678Y931623D01*
X265639Y932435D01*
X266700Y932435D01*
X266758Y932443D01*
X266816Y932441D01*
X266898Y932463D01*
X266982Y932475D01*
X267035Y932498D01*
X267091Y932513D01*
X267164Y932556D01*
X267241Y932591D01*
X267286Y932629D01*
X267336Y932658D01*
X267394Y932720D01*
X267458Y932774D01*
X267490Y932823D01*
X267530Y932866D01*
X267569Y932941D01*
X267616Y933011D01*
X267633Y933067D01*
X267660Y933119D01*
X267671Y933187D01*
X267701Y933282D01*
X267704Y933382D01*
X267715Y933450D01*
X267715Y934130D01*
X268527Y936091D01*
X270028Y937592D01*
X271989Y938404D01*
X272796Y938404D01*
X272854Y938412D01*
X272912Y938410D01*
X272994Y938432D01*
X273078Y938444D01*
X273131Y938467D01*
X273187Y938482D01*
X273260Y938525D01*
X273337Y938560D01*
X273382Y938598D01*
X273432Y938627D01*
X273490Y938689D01*
X273554Y938743D01*
X273586Y938792D01*
X273626Y938835D01*
X273665Y938910D01*
X273712Y938980D01*
X273729Y939036D01*
X273756Y939088D01*
X273767Y939156D01*
X273797Y939251D01*
X273800Y939351D01*
X273811Y939419D01*
X273811Y940861D01*
X274623Y942822D01*
X276124Y944323D01*
X278085Y945135D01*
X280207Y945135D01*
X280789Y944894D01*
X280901Y944865D01*
X281010Y944830D01*
X281038Y944829D01*
X281065Y944823D01*
X281179Y944826D01*
X281294Y944823D01*
X281321Y944830D01*
X281349Y944831D01*
X281458Y944866D01*
X281569Y944895D01*
X281593Y944909D01*
X281620Y944917D01*
X281715Y944981D01*
X281814Y945040D01*
X281833Y945060D01*
X281856Y945076D01*
X281930Y945163D01*
X282008Y945247D01*
X282021Y945272D01*
X282039Y945293D01*
X282085Y945398D01*
X282138Y945500D01*
X282142Y945525D01*
X282154Y945553D01*
X282191Y945816D01*
X282193Y945831D01*
X282193Y1007782D01*
X282181Y1007868D01*
X282178Y1007956D01*
X282161Y1008008D01*
X282153Y1008063D01*
X282118Y1008143D01*
X282091Y1008226D01*
X282063Y1008266D01*
X282037Y1008323D01*
X281941Y1008436D01*
X281896Y1008500D01*
X281227Y1009168D01*
X280415Y1011129D01*
X280415Y1013251D01*
X281227Y1015212D01*
X282728Y1016713D01*
X284689Y1017525D01*
X286811Y1017525D01*
X288772Y1016713D01*
X290273Y1015212D01*
X291085Y1013251D01*
X291085Y1011129D01*
X290273Y1009168D01*
X289604Y1008500D01*
X289552Y1008430D01*
X289492Y1008366D01*
X289466Y1008317D01*
X289433Y1008272D01*
X289402Y1008191D01*
X289362Y1008113D01*
X289354Y1008065D01*
X289332Y1008007D01*
X289320Y1007859D01*
X289307Y1007782D01*
X289307Y888328D01*
X289319Y888242D01*
X289322Y888154D01*
X289339Y888102D01*
X289347Y888047D01*
X289382Y887967D01*
X289409Y887884D01*
X289437Y887844D01*
X289463Y887787D01*
X289559Y887674D01*
X289604Y887610D01*
X290273Y886942D01*
X291085Y884981D01*
X291085Y882859D01*
X290273Y880898D01*
X289604Y880230D01*
X289552Y880160D01*
X289492Y880096D01*
X289466Y880047D01*
X289433Y880002D01*
X289402Y879921D01*
X289362Y879843D01*
X289354Y879795D01*
X289332Y879737D01*
X289320Y879589D01*
X289307Y879512D01*
X289307Y694018D01*
X289319Y693932D01*
X289322Y693844D01*
X289339Y693791D01*
X289347Y693737D01*
X289382Y693657D01*
X289409Y693574D01*
X289437Y693534D01*
X289463Y693477D01*
X289559Y693364D01*
X289604Y693300D01*
X290273Y692632D01*
X291085Y690671D01*
X291085Y688549D01*
X290273Y686588D01*
X289604Y685920D01*
X289552Y685850D01*
X289492Y685786D01*
X289466Y685737D01*
X289433Y685692D01*
X289402Y685611D01*
X289362Y685533D01*
X289354Y685485D01*
X289332Y685427D01*
X289320Y685279D01*
X289307Y685202D01*
X289307Y525108D01*
X289319Y525022D01*
X289322Y524934D01*
X289339Y524881D01*
X289347Y524827D01*
X289382Y524747D01*
X289409Y524664D01*
X289437Y524624D01*
X289463Y524567D01*
X289559Y524454D01*
X289604Y524390D01*
X290273Y523722D01*
X291085Y521761D01*
X291085Y519639D01*
X290273Y517678D01*
X289604Y517010D01*
X289552Y516940D01*
X289492Y516876D01*
X289466Y516827D01*
X289433Y516782D01*
X289402Y516701D01*
X289362Y516623D01*
X289354Y516575D01*
X289332Y516517D01*
X289320Y516369D01*
X289307Y516292D01*
X289307Y348578D01*
X289319Y348492D01*
X289322Y348404D01*
X289339Y348352D01*
X289347Y348297D01*
X289382Y348217D01*
X289409Y348134D01*
X289437Y348094D01*
X289463Y348037D01*
X289559Y347924D01*
X289604Y347860D01*
X290273Y347192D01*
X291085Y345231D01*
X291085Y343109D01*
X290273Y341148D01*
X288772Y339647D01*
X286811Y338835D01*
X284689Y338835D01*
X282728Y339647D01*
X281227Y341148D01*
X280415Y343109D01*
X280415Y345231D01*
X281227Y347192D01*
X281896Y347860D01*
X281948Y347930D01*
X282008Y347994D01*
X282034Y348043D01*
X282067Y348088D01*
X282098Y348169D01*
X282138Y348247D01*
X282146Y348295D01*
X282168Y348353D01*
X282180Y348501D01*
X282193Y348578D01*
X282193Y458064D01*
X282177Y458177D01*
X282167Y458292D01*
X282157Y458318D01*
X282153Y458345D01*
X282107Y458450D01*
X282065Y458557D01*
X282049Y458579D01*
X282037Y458604D01*
X281963Y458692D01*
X281894Y458784D01*
X281871Y458800D01*
X281854Y458821D01*
X281758Y458885D01*
X281666Y458954D01*
X281640Y458964D01*
X281617Y458979D01*
X281507Y459014D01*
X281400Y459054D01*
X281372Y459056D01*
X281346Y459065D01*
X281231Y459068D01*
X281117Y459077D01*
X281092Y459071D01*
X281062Y459072D01*
X280805Y459005D01*
X280790Y459002D01*
X280048Y458694D01*
X279998Y458665D01*
X279943Y458644D01*
X279876Y458593D01*
X279803Y458550D01*
X279763Y458507D01*
X279716Y458472D01*
X279666Y458405D01*
X279608Y458343D01*
X279581Y458291D01*
X279546Y458244D01*
X279517Y458166D01*
X279478Y458091D01*
X279467Y458033D01*
X279446Y457978D01*
X279439Y457894D01*
X279423Y457812D01*
X279428Y457753D01*
X279423Y457695D01*
X279439Y457628D01*
X279447Y457528D01*
X279483Y457435D01*
X279499Y457368D01*
X279655Y456991D01*
X279655Y454869D01*
X278843Y452908D01*
X277342Y451407D01*
X275381Y450595D01*
X273259Y450595D01*
X271270Y451419D01*
X271218Y451453D01*
X271128Y451521D01*
X271100Y451532D01*
X271076Y451548D01*
X270968Y451582D01*
X270862Y451623D01*
X270833Y451625D01*
X270805Y451634D01*
X270692Y451637D01*
X270579Y451646D01*
X270550Y451641D01*
X270521Y451641D01*
X270411Y451613D01*
X270300Y451591D01*
X270274Y451577D01*
X270246Y451570D01*
X270149Y451512D01*
X270048Y451460D01*
X270026Y451439D01*
X270001Y451424D01*
X269924Y451342D01*
X269842Y451264D01*
X269827Y451238D01*
X269807Y451217D01*
X269755Y451116D01*
X269698Y451019D01*
X269691Y450990D01*
X269677Y450964D01*
X269664Y450887D01*
X269628Y450743D01*
X269630Y450680D01*
X269622Y450633D01*
X269622Y444560D01*
X268522Y443460D01*
X268470Y443390D01*
X268410Y443326D01*
X268384Y443277D01*
X268351Y443233D01*
X268320Y443151D01*
X268280Y443073D01*
X268272Y443026D01*
X268250Y442967D01*
X268238Y442820D01*
X268225Y442742D01*
X268225Y440899D01*
X267413Y438938D01*
X265912Y437437D01*
X263951Y436625D01*
X261829Y436625D01*
X261247Y436866D01*
X261135Y436895D01*
X261026Y436930D01*
X260998Y436931D01*
X260971Y436937D01*
X260857Y436934D01*
X260742Y436937D01*
X260715Y436930D01*
X260687Y436929D01*
X260578Y436894D01*
X260467Y436865D01*
X260443Y436851D01*
X260416Y436843D01*
X260321Y436779D01*
X260222Y436720D01*
X260203Y436700D01*
X260180Y436684D01*
X260106Y436597D01*
X260028Y436513D01*
X260015Y436488D01*
X259997Y436467D01*
X259951Y436362D01*
X259898Y436260D01*
X259894Y436235D01*
X259882Y436207D01*
X259845Y435943D01*
X259843Y435929D01*
X259843Y326921D01*
X259843Y326919D01*
X259843Y326917D01*
X259863Y326775D01*
X259883Y326639D01*
X259883Y326638D01*
X259883Y326636D01*
X259943Y326503D01*
X259999Y326380D01*
X260000Y326379D01*
X260001Y326377D01*
X260094Y326268D01*
X260182Y326163D01*
X260184Y326162D01*
X260185Y326161D01*
X260198Y326152D01*
X260419Y326005D01*
X260448Y325996D01*
X260470Y325983D01*
X260832Y325833D01*
X262333Y324332D01*
X263145Y322371D01*
X263145Y320249D01*
X262333Y318288D01*
X260832Y316787D01*
X260088Y316480D01*
X260087Y316479D01*
X260086Y316478D01*
X259967Y316408D01*
X259844Y316335D01*
X259843Y316334D01*
X259841Y316333D01*
X259743Y316229D01*
X259648Y316128D01*
X259648Y316127D01*
X259647Y316126D01*
X259582Y315998D01*
X259518Y315876D01*
X259518Y315874D01*
X259517Y315873D01*
X259515Y315858D01*
X259463Y315597D01*
X259466Y315566D01*
X259462Y315542D01*
X259462Y166374D01*
X259461Y166373D01*
X259430Y166291D01*
X259390Y166213D01*
X259382Y166166D01*
X259360Y166107D01*
X259348Y165960D01*
X259335Y165882D01*
X259335Y164039D01*
X258523Y162078D01*
X257817Y161373D01*
X257782Y161326D01*
X257740Y161286D01*
X257697Y161213D01*
X257646Y161146D01*
X257626Y161091D01*
X257596Y161041D01*
X257575Y160959D01*
X257545Y160880D01*
X257540Y160822D01*
X257526Y160765D01*
X257529Y160681D01*
X257522Y160597D01*
X257533Y160539D01*
X257535Y160481D01*
X257561Y160401D01*
X257578Y160318D01*
X257604Y160266D01*
X257622Y160210D01*
X257663Y160154D01*
X257709Y160066D01*
X257777Y159993D01*
X257817Y159937D01*
X258523Y159232D01*
X259335Y157271D01*
X259335Y155149D01*
X258523Y153188D01*
X257219Y151885D01*
X257167Y151815D01*
X257107Y151751D01*
X257081Y151702D01*
X257048Y151657D01*
X257017Y151576D01*
X256977Y151498D01*
X256969Y151450D01*
X256947Y151392D01*
X256935Y151244D01*
X256922Y151167D01*
X256922Y87593D01*
X256934Y87507D01*
X256937Y87419D01*
X256954Y87367D01*
X256962Y87312D01*
X256997Y87232D01*
X257024Y87149D01*
X257052Y87109D01*
X257078Y87052D01*
X257174Y86939D01*
X257219Y86875D01*
X258523Y85572D01*
X259335Y83611D01*
X259335Y81489D01*
X258523Y79528D01*
X257022Y78027D01*
X255061Y77215D01*
X252939Y77215D01*
G37*
%LPD*%
%LPC*%
G36*
X106889Y92455D02*
X106889Y92455D01*
X104928Y93267D01*
X103427Y94768D01*
X102615Y96729D01*
X102615Y98851D01*
X103427Y100812D01*
X104731Y102115D01*
X104783Y102185D01*
X104843Y102249D01*
X104869Y102298D01*
X104902Y102343D01*
X104933Y102424D01*
X104973Y102502D01*
X104981Y102550D01*
X105003Y102608D01*
X105015Y102756D01*
X105028Y102833D01*
X105028Y110273D01*
X105024Y110302D01*
X105027Y110331D01*
X105004Y110442D01*
X104988Y110554D01*
X104976Y110581D01*
X104971Y110610D01*
X104918Y110711D01*
X104872Y110814D01*
X104853Y110836D01*
X104840Y110862D01*
X104762Y110944D01*
X104689Y111031D01*
X104664Y111047D01*
X104644Y111068D01*
X104546Y111125D01*
X104452Y111188D01*
X104424Y111197D01*
X104399Y111212D01*
X104289Y111240D01*
X104181Y111274D01*
X104151Y111275D01*
X104123Y111282D01*
X104010Y111278D01*
X103897Y111281D01*
X103868Y111274D01*
X103839Y111273D01*
X103731Y111238D01*
X103622Y111210D01*
X103596Y111195D01*
X103568Y111186D01*
X103504Y111140D01*
X103377Y111064D01*
X103334Y111019D01*
X103295Y110991D01*
X102082Y109777D01*
X100121Y108965D01*
X97999Y108965D01*
X96038Y109777D01*
X94537Y111278D01*
X93725Y113239D01*
X93725Y115361D01*
X94537Y117322D01*
X95841Y118625D01*
X95893Y118695D01*
X95953Y118759D01*
X95979Y118808D01*
X96012Y118853D01*
X96043Y118934D01*
X96083Y119012D01*
X96091Y119060D01*
X96113Y119118D01*
X96125Y119266D01*
X96138Y119343D01*
X96138Y267753D01*
X96134Y267782D01*
X96137Y267811D01*
X96114Y267922D01*
X96098Y268034D01*
X96086Y268061D01*
X96081Y268090D01*
X96029Y268190D01*
X95982Y268294D01*
X95963Y268316D01*
X95950Y268342D01*
X95872Y268424D01*
X95799Y268511D01*
X95774Y268527D01*
X95754Y268548D01*
X95656Y268605D01*
X95562Y268668D01*
X95534Y268677D01*
X95509Y268692D01*
X95399Y268720D01*
X95291Y268754D01*
X95262Y268755D01*
X95233Y268762D01*
X95120Y268758D01*
X95007Y268761D01*
X94978Y268754D01*
X94949Y268753D01*
X94841Y268718D01*
X94732Y268690D01*
X94706Y268675D01*
X94678Y268666D01*
X94615Y268620D01*
X94487Y268544D01*
X94444Y268499D01*
X94405Y268471D01*
X94250Y268315D01*
X92289Y267503D01*
X90167Y267503D01*
X88206Y268315D01*
X86705Y269816D01*
X85893Y271777D01*
X85893Y273899D01*
X86705Y275860D01*
X88206Y277361D01*
X89543Y277914D01*
X89544Y277915D01*
X89545Y277915D01*
X89664Y277986D01*
X89787Y278059D01*
X89788Y278060D01*
X89790Y278061D01*
X89887Y278165D01*
X89983Y278265D01*
X89983Y278267D01*
X89984Y278268D01*
X90049Y278394D01*
X90113Y278518D01*
X90113Y278520D01*
X90114Y278521D01*
X90116Y278536D01*
X90168Y278797D01*
X90165Y278827D01*
X90169Y278852D01*
X90169Y280543D01*
X98381Y288754D01*
X98433Y288824D01*
X98493Y288888D01*
X98519Y288937D01*
X98552Y288982D01*
X98583Y289063D01*
X98623Y289141D01*
X98631Y289189D01*
X98653Y289247D01*
X98665Y289395D01*
X98678Y289472D01*
X98678Y370877D01*
X98666Y370963D01*
X98663Y371051D01*
X98646Y371103D01*
X98638Y371158D01*
X98603Y371238D01*
X98576Y371321D01*
X98548Y371361D01*
X98522Y371418D01*
X98426Y371531D01*
X98381Y371595D01*
X97077Y372898D01*
X96265Y374859D01*
X96265Y376981D01*
X97077Y378942D01*
X98578Y380443D01*
X100539Y381255D01*
X102661Y381255D01*
X103624Y380856D01*
X103736Y380827D01*
X103845Y380792D01*
X103873Y380792D01*
X103900Y380785D01*
X104014Y380788D01*
X104129Y380785D01*
X104156Y380792D01*
X104184Y380793D01*
X104293Y380828D01*
X104404Y380857D01*
X104428Y380871D01*
X104455Y380880D01*
X104550Y380944D01*
X104649Y381002D01*
X104668Y381022D01*
X104691Y381038D01*
X104765Y381126D01*
X104843Y381209D01*
X104856Y381234D01*
X104874Y381255D01*
X104920Y381360D01*
X104973Y381463D01*
X104977Y381487D01*
X104989Y381515D01*
X105026Y381779D01*
X105028Y381794D01*
X105028Y438023D01*
X105020Y438081D01*
X105022Y438139D01*
X105000Y438221D01*
X104988Y438305D01*
X104965Y438358D01*
X104950Y438414D01*
X104907Y438487D01*
X104872Y438564D01*
X104834Y438609D01*
X104805Y438659D01*
X104743Y438717D01*
X104689Y438781D01*
X104640Y438813D01*
X104597Y438853D01*
X104522Y438892D01*
X104452Y438939D01*
X104396Y438956D01*
X104344Y438983D01*
X104276Y438994D01*
X104181Y439024D01*
X104081Y439027D01*
X104013Y439038D01*
X102833Y439038D01*
X102747Y439026D01*
X102659Y439023D01*
X102607Y439006D01*
X102552Y438998D01*
X102472Y438963D01*
X102389Y438936D01*
X102349Y438908D01*
X102292Y438882D01*
X102179Y438786D01*
X102115Y438741D01*
X100812Y437437D01*
X98851Y436625D01*
X97917Y436625D01*
X97859Y436617D01*
X97801Y436619D01*
X97719Y436597D01*
X97635Y436585D01*
X97582Y436562D01*
X97526Y436547D01*
X97453Y436504D01*
X97376Y436469D01*
X97331Y436431D01*
X97281Y436402D01*
X97223Y436340D01*
X97159Y436286D01*
X97127Y436237D01*
X97087Y436194D01*
X97048Y436119D01*
X97001Y436049D01*
X96984Y435993D01*
X96957Y435941D01*
X96946Y435873D01*
X96916Y435778D01*
X96913Y435678D01*
X96902Y435610D01*
X96902Y423598D01*
X96902Y423597D01*
X96902Y423595D01*
X96922Y423454D01*
X96942Y423317D01*
X96942Y423316D01*
X96942Y423314D01*
X97001Y423184D01*
X97058Y423058D01*
X97059Y423056D01*
X97060Y423055D01*
X97150Y422948D01*
X97241Y422841D01*
X97243Y422840D01*
X97244Y422838D01*
X97256Y422831D01*
X97478Y422683D01*
X97507Y422674D01*
X97528Y422660D01*
X98272Y422353D01*
X99773Y420852D01*
X100585Y418891D01*
X100585Y416769D01*
X99773Y414808D01*
X98272Y413307D01*
X96311Y412495D01*
X94189Y412495D01*
X92228Y413307D01*
X90727Y414808D01*
X89915Y416769D01*
X89915Y418891D01*
X90727Y420852D01*
X90761Y420885D01*
X90813Y420955D01*
X90873Y421019D01*
X90899Y421068D01*
X90932Y421113D01*
X90963Y421194D01*
X91003Y421272D01*
X91011Y421320D01*
X91033Y421378D01*
X91045Y421526D01*
X91058Y421603D01*
X91058Y422116D01*
X91051Y422171D01*
X91052Y422209D01*
X91040Y422253D01*
X91032Y422344D01*
X91022Y422370D01*
X91018Y422398D01*
X90980Y422484D01*
X90979Y422485D01*
X90971Y422503D01*
X90930Y422610D01*
X90914Y422632D01*
X90902Y422657D01*
X90828Y422745D01*
X90759Y422836D01*
X90736Y422853D01*
X90719Y422874D01*
X90623Y422938D01*
X90531Y423007D01*
X90505Y423016D01*
X90482Y423032D01*
X90372Y423067D01*
X90265Y423107D01*
X90237Y423109D01*
X90211Y423118D01*
X90096Y423121D01*
X89982Y423130D01*
X89957Y423124D01*
X89927Y423125D01*
X89717Y423070D01*
X89705Y423068D01*
X89698Y423065D01*
X89670Y423058D01*
X89654Y423054D01*
X88691Y422655D01*
X86569Y422655D01*
X85606Y423054D01*
X85494Y423083D01*
X85385Y423118D01*
X85357Y423118D01*
X85330Y423125D01*
X85216Y423122D01*
X85101Y423125D01*
X85074Y423118D01*
X85046Y423117D01*
X84937Y423082D01*
X84826Y423053D01*
X84802Y423039D01*
X84775Y423030D01*
X84680Y422966D01*
X84581Y422908D01*
X84562Y422888D01*
X84539Y422872D01*
X84465Y422784D01*
X84387Y422701D01*
X84374Y422676D01*
X84356Y422655D01*
X84310Y422550D01*
X84257Y422447D01*
X84253Y422423D01*
X84241Y422395D01*
X84227Y422297D01*
X84216Y422261D01*
X84214Y422204D01*
X84204Y422131D01*
X84202Y422116D01*
X84202Y418518D01*
X84202Y418517D01*
X84202Y418515D01*
X84222Y418375D01*
X84242Y418237D01*
X84242Y418236D01*
X84242Y418234D01*
X84301Y418104D01*
X84358Y417978D01*
X84359Y417976D01*
X84360Y417975D01*
X84451Y417868D01*
X84541Y417761D01*
X84543Y417760D01*
X84544Y417758D01*
X84557Y417750D01*
X84778Y417603D01*
X84807Y417594D01*
X84828Y417581D01*
X85572Y417273D01*
X87073Y415772D01*
X87885Y413811D01*
X87885Y411689D01*
X87073Y409728D01*
X85572Y408227D01*
X83611Y407415D01*
X82550Y407415D01*
X82492Y407407D01*
X82434Y407409D01*
X82352Y407387D01*
X82268Y407375D01*
X82215Y407352D01*
X82159Y407337D01*
X82086Y407294D01*
X82009Y407259D01*
X81964Y407221D01*
X81914Y407192D01*
X81856Y407130D01*
X81792Y407076D01*
X81760Y407027D01*
X81720Y406984D01*
X81681Y406909D01*
X81634Y406839D01*
X81617Y406783D01*
X81590Y406731D01*
X81579Y406663D01*
X81549Y406568D01*
X81546Y406468D01*
X81535Y406400D01*
X81535Y404458D01*
X80723Y402497D01*
X79222Y400996D01*
X77261Y400184D01*
X75139Y400184D01*
X74176Y400583D01*
X74064Y400612D01*
X73955Y400647D01*
X73927Y400647D01*
X73900Y400654D01*
X73786Y400651D01*
X73671Y400654D01*
X73644Y400647D01*
X73616Y400646D01*
X73507Y400611D01*
X73396Y400582D01*
X73372Y400568D01*
X73345Y400559D01*
X73250Y400495D01*
X73151Y400437D01*
X73132Y400417D01*
X73109Y400401D01*
X73035Y400313D01*
X72957Y400230D01*
X72944Y400205D01*
X72926Y400184D01*
X72880Y400079D01*
X72827Y399976D01*
X72823Y399952D01*
X72811Y399924D01*
X72774Y399660D01*
X72772Y399645D01*
X72772Y379857D01*
X72780Y379799D01*
X72778Y379741D01*
X72800Y379659D01*
X72812Y379575D01*
X72835Y379522D01*
X72850Y379466D01*
X72893Y379393D01*
X72928Y379316D01*
X72966Y379271D01*
X72995Y379221D01*
X73057Y379163D01*
X73111Y379099D01*
X73160Y379067D01*
X73203Y379027D01*
X73278Y378988D01*
X73348Y378941D01*
X73404Y378924D01*
X73456Y378897D01*
X73524Y378886D01*
X73619Y378856D01*
X73719Y378853D01*
X73787Y378842D01*
X80047Y378842D01*
X80133Y378854D01*
X80221Y378857D01*
X80273Y378874D01*
X80328Y378882D01*
X80408Y378917D01*
X80491Y378944D01*
X80531Y378972D01*
X80588Y378998D01*
X80701Y379094D01*
X80765Y379139D01*
X82068Y380443D01*
X84029Y381255D01*
X86151Y381255D01*
X88112Y380443D01*
X89613Y378942D01*
X90425Y376981D01*
X90425Y374859D01*
X89613Y372898D01*
X88112Y371397D01*
X86151Y370585D01*
X84029Y370585D01*
X82671Y371148D01*
X82642Y371155D01*
X82616Y371169D01*
X82505Y371191D01*
X82395Y371219D01*
X82366Y371218D01*
X82337Y371224D01*
X82224Y371214D01*
X82111Y371211D01*
X82083Y371202D01*
X82054Y371199D01*
X81948Y371159D01*
X81840Y371124D01*
X81816Y371108D01*
X81789Y371097D01*
X81698Y371029D01*
X81604Y370966D01*
X81585Y370943D01*
X81562Y370926D01*
X81494Y370835D01*
X81421Y370748D01*
X81409Y370721D01*
X81392Y370698D01*
X81352Y370592D01*
X81306Y370488D01*
X81302Y370459D01*
X81291Y370432D01*
X81282Y370319D01*
X81267Y370207D01*
X81271Y370178D01*
X81269Y370148D01*
X81286Y370072D01*
X81307Y369925D01*
X81333Y369868D01*
X81344Y369821D01*
X81535Y369361D01*
X81535Y367239D01*
X80723Y365278D01*
X79222Y363777D01*
X77261Y362965D01*
X75139Y362965D01*
X73178Y363777D01*
X71875Y365081D01*
X71805Y365133D01*
X71741Y365193D01*
X71692Y365219D01*
X71647Y365252D01*
X71566Y365283D01*
X71488Y365323D01*
X71440Y365331D01*
X71382Y365353D01*
X71234Y365365D01*
X71157Y365378D01*
X66100Y365378D01*
X60578Y370900D01*
X60578Y471207D01*
X60566Y471293D01*
X60563Y471381D01*
X60546Y471433D01*
X60538Y471488D01*
X60503Y471568D01*
X60476Y471651D01*
X60448Y471691D01*
X60422Y471748D01*
X60326Y471861D01*
X60281Y471925D01*
X58977Y473228D01*
X58165Y475189D01*
X58165Y477311D01*
X58977Y479272D01*
X60478Y480773D01*
X62439Y481585D01*
X64561Y481585D01*
X66522Y480773D01*
X68023Y479272D01*
X68835Y477311D01*
X68835Y475189D01*
X68023Y473228D01*
X66719Y471925D01*
X66667Y471855D01*
X66607Y471791D01*
X66581Y471742D01*
X66548Y471697D01*
X66517Y471616D01*
X66477Y471538D01*
X66469Y471490D01*
X66447Y471432D01*
X66435Y471284D01*
X66422Y471207D01*
X66422Y469424D01*
X66438Y469310D01*
X66448Y469196D01*
X66458Y469170D01*
X66462Y469142D01*
X66509Y469037D01*
X66550Y468930D01*
X66566Y468908D01*
X66578Y468883D01*
X66652Y468795D01*
X66721Y468704D01*
X66744Y468687D01*
X66761Y468666D01*
X66857Y468602D01*
X66949Y468533D01*
X66975Y468524D01*
X66998Y468508D01*
X67108Y468473D01*
X67215Y468433D01*
X67243Y468431D01*
X67269Y468422D01*
X67384Y468419D01*
X67498Y468410D01*
X67523Y468416D01*
X67553Y468415D01*
X67810Y468482D01*
X67826Y468486D01*
X68789Y468885D01*
X70911Y468885D01*
X71874Y468486D01*
X71986Y468457D01*
X72095Y468422D01*
X72123Y468422D01*
X72150Y468415D01*
X72264Y468418D01*
X72379Y468415D01*
X72406Y468422D01*
X72434Y468423D01*
X72543Y468458D01*
X72654Y468487D01*
X72678Y468501D01*
X72705Y468510D01*
X72800Y468574D01*
X72899Y468632D01*
X72918Y468652D01*
X72941Y468668D01*
X73015Y468756D01*
X73093Y468839D01*
X73106Y468864D01*
X73124Y468885D01*
X73170Y468990D01*
X73223Y469093D01*
X73227Y469117D01*
X73239Y469145D01*
X73276Y469409D01*
X73278Y469424D01*
X73278Y495776D01*
X73262Y495890D01*
X73252Y496004D01*
X73242Y496030D01*
X73238Y496058D01*
X73191Y496163D01*
X73150Y496270D01*
X73134Y496292D01*
X73122Y496317D01*
X73048Y496405D01*
X72979Y496496D01*
X72956Y496513D01*
X72939Y496534D01*
X72843Y496598D01*
X72751Y496667D01*
X72725Y496676D01*
X72702Y496692D01*
X72592Y496727D01*
X72485Y496767D01*
X72457Y496769D01*
X72431Y496778D01*
X72316Y496781D01*
X72202Y496790D01*
X72177Y496784D01*
X72147Y496785D01*
X71890Y496718D01*
X71874Y496714D01*
X70911Y496315D01*
X68789Y496315D01*
X66828Y497127D01*
X65327Y498628D01*
X64515Y500589D01*
X64515Y502711D01*
X65327Y504672D01*
X66631Y505975D01*
X66683Y506045D01*
X66743Y506109D01*
X66769Y506158D01*
X66802Y506203D01*
X66833Y506284D01*
X66873Y506362D01*
X66881Y506410D01*
X66903Y506468D01*
X66915Y506616D01*
X66928Y506693D01*
X66928Y511593D01*
X66924Y511622D01*
X66927Y511651D01*
X66904Y511762D01*
X66888Y511874D01*
X66876Y511901D01*
X66871Y511930D01*
X66818Y512031D01*
X66772Y512134D01*
X66753Y512156D01*
X66740Y512182D01*
X66662Y512264D01*
X66589Y512351D01*
X66564Y512367D01*
X66544Y512388D01*
X66446Y512445D01*
X66352Y512508D01*
X66324Y512517D01*
X66299Y512532D01*
X66189Y512560D01*
X66081Y512594D01*
X66051Y512595D01*
X66023Y512602D01*
X65910Y512598D01*
X65797Y512601D01*
X65768Y512594D01*
X65739Y512593D01*
X65631Y512558D01*
X65522Y512530D01*
X65496Y512515D01*
X65468Y512506D01*
X65404Y512460D01*
X65277Y512384D01*
X65234Y512339D01*
X65195Y512311D01*
X63982Y511097D01*
X62021Y510285D01*
X59899Y510285D01*
X57938Y511097D01*
X56437Y512598D01*
X55625Y514559D01*
X55625Y516681D01*
X56437Y518642D01*
X57741Y519945D01*
X57793Y520015D01*
X57853Y520079D01*
X57879Y520128D01*
X57912Y520173D01*
X57943Y520254D01*
X57983Y520332D01*
X57991Y520380D01*
X58013Y520438D01*
X58025Y520586D01*
X58038Y520663D01*
X58038Y553757D01*
X58026Y553843D01*
X58023Y553931D01*
X58006Y553983D01*
X57998Y554038D01*
X57963Y554118D01*
X57936Y554201D01*
X57908Y554241D01*
X57882Y554298D01*
X57786Y554411D01*
X57741Y554475D01*
X57707Y554508D01*
X56895Y556469D01*
X56895Y558591D01*
X57657Y560430D01*
X57679Y560514D01*
X57709Y560594D01*
X57714Y560651D01*
X57728Y560706D01*
X57726Y560792D01*
X57731Y560860D01*
X57755Y560861D01*
X57809Y560878D01*
X57865Y560887D01*
X57944Y560922D01*
X58025Y560948D01*
X58066Y560977D01*
X58124Y561004D01*
X58235Y561098D01*
X58299Y561143D01*
X59208Y562053D01*
X61169Y562865D01*
X63291Y562865D01*
X65252Y562053D01*
X66753Y560552D01*
X67565Y558591D01*
X67565Y556469D01*
X67002Y555111D01*
X66995Y555082D01*
X66981Y555056D01*
X66959Y554945D01*
X66931Y554835D01*
X66932Y554806D01*
X66926Y554777D01*
X66936Y554664D01*
X66939Y554551D01*
X66948Y554523D01*
X66951Y554494D01*
X66991Y554388D01*
X67026Y554280D01*
X67042Y554256D01*
X67053Y554229D01*
X67121Y554138D01*
X67184Y554044D01*
X67207Y554025D01*
X67224Y554002D01*
X67315Y553934D01*
X67402Y553861D01*
X67429Y553849D01*
X67452Y553832D01*
X67558Y553792D01*
X67662Y553746D01*
X67691Y553742D01*
X67718Y553731D01*
X67831Y553722D01*
X67943Y553707D01*
X67972Y553711D01*
X68002Y553709D01*
X68078Y553726D01*
X68225Y553747D01*
X68282Y553773D01*
X68329Y553784D01*
X68789Y553975D01*
X70911Y553975D01*
X71874Y553576D01*
X71986Y553547D01*
X72095Y553512D01*
X72123Y553512D01*
X72150Y553505D01*
X72264Y553508D01*
X72379Y553505D01*
X72406Y553512D01*
X72434Y553513D01*
X72543Y553548D01*
X72654Y553577D01*
X72678Y553591D01*
X72705Y553600D01*
X72800Y553664D01*
X72899Y553722D01*
X72918Y553742D01*
X72941Y553758D01*
X73015Y553846D01*
X73093Y553929D01*
X73106Y553954D01*
X73124Y553975D01*
X73170Y554080D01*
X73223Y554183D01*
X73227Y554207D01*
X73239Y554235D01*
X73276Y554499D01*
X73278Y554514D01*
X73278Y614676D01*
X73279Y614677D01*
X73310Y614759D01*
X73350Y614837D01*
X73358Y614884D01*
X73380Y614943D01*
X73392Y615090D01*
X73405Y615168D01*
X73405Y617011D01*
X74217Y618972D01*
X75718Y620473D01*
X77679Y621285D01*
X79801Y621285D01*
X81762Y620473D01*
X82975Y619259D01*
X82999Y619242D01*
X83018Y619219D01*
X83112Y619157D01*
X83202Y619088D01*
X83230Y619078D01*
X83254Y619062D01*
X83362Y619028D01*
X83468Y618987D01*
X83497Y618985D01*
X83525Y618976D01*
X83639Y618973D01*
X83751Y618964D01*
X83780Y618969D01*
X83809Y618969D01*
X83919Y618997D01*
X84030Y619020D01*
X84056Y619033D01*
X84084Y619040D01*
X84182Y619098D01*
X84282Y619150D01*
X84304Y619171D01*
X84329Y619186D01*
X84406Y619268D01*
X84488Y619346D01*
X84503Y619372D01*
X84523Y619393D01*
X84575Y619494D01*
X84632Y619592D01*
X84639Y619620D01*
X84653Y619646D01*
X84666Y619723D01*
X84702Y619867D01*
X84700Y619930D01*
X84708Y619977D01*
X84708Y623607D01*
X84696Y623693D01*
X84693Y623781D01*
X84676Y623833D01*
X84668Y623888D01*
X84633Y623968D01*
X84606Y624051D01*
X84578Y624091D01*
X84552Y624148D01*
X84456Y624261D01*
X84411Y624325D01*
X83107Y625628D01*
X82295Y627589D01*
X82295Y629711D01*
X83107Y631672D01*
X84608Y633173D01*
X86569Y633985D01*
X88691Y633985D01*
X90530Y633223D01*
X90614Y633201D01*
X90694Y633171D01*
X90751Y633166D01*
X90806Y633152D01*
X90892Y633154D01*
X90977Y633147D01*
X91033Y633158D01*
X91090Y633160D01*
X91172Y633186D01*
X91256Y633203D01*
X91306Y633229D01*
X91361Y633247D01*
X91432Y633295D01*
X91508Y633334D01*
X91550Y633373D01*
X91597Y633405D01*
X91652Y633471D01*
X91714Y633530D01*
X91743Y633579D01*
X91780Y633623D01*
X91815Y633701D01*
X91858Y633775D01*
X91872Y633830D01*
X91895Y633882D01*
X91907Y633968D01*
X91928Y634051D01*
X91926Y634108D01*
X91934Y634164D01*
X91922Y634249D01*
X91919Y634335D01*
X91902Y634389D01*
X91893Y634445D01*
X91858Y634524D01*
X91832Y634605D01*
X91803Y634646D01*
X91776Y634704D01*
X91682Y634815D01*
X91637Y634879D01*
X90727Y635788D01*
X89915Y637749D01*
X89915Y639871D01*
X90727Y641832D01*
X92228Y643333D01*
X94189Y644145D01*
X96311Y644145D01*
X97274Y643746D01*
X97386Y643717D01*
X97495Y643682D01*
X97523Y643682D01*
X97550Y643675D01*
X97664Y643678D01*
X97779Y643675D01*
X97806Y643682D01*
X97834Y643683D01*
X97943Y643718D01*
X98054Y643747D01*
X98078Y643761D01*
X98105Y643770D01*
X98200Y643833D01*
X98299Y643892D01*
X98318Y643912D01*
X98341Y643928D01*
X98415Y644016D01*
X98493Y644099D01*
X98506Y644124D01*
X98524Y644145D01*
X98571Y644250D01*
X98623Y644353D01*
X98627Y644377D01*
X98639Y644405D01*
X98676Y644669D01*
X98678Y644684D01*
X98678Y712507D01*
X98671Y712557D01*
X98672Y712571D01*
X98666Y712591D01*
X98666Y712593D01*
X98663Y712681D01*
X98646Y712733D01*
X98638Y712788D01*
X98603Y712868D01*
X98576Y712951D01*
X98548Y712991D01*
X98522Y713048D01*
X98426Y713161D01*
X98381Y713225D01*
X97077Y714528D01*
X96265Y716489D01*
X96265Y718611D01*
X97077Y720572D01*
X98578Y722073D01*
X100539Y722885D01*
X102661Y722885D01*
X103624Y722486D01*
X103736Y722457D01*
X103845Y722422D01*
X103873Y722422D01*
X103900Y722415D01*
X104014Y722418D01*
X104129Y722415D01*
X104156Y722422D01*
X104184Y722423D01*
X104293Y722458D01*
X104404Y722487D01*
X104428Y722501D01*
X104455Y722510D01*
X104550Y722574D01*
X104649Y722632D01*
X104668Y722652D01*
X104691Y722668D01*
X104765Y722756D01*
X104843Y722839D01*
X104856Y722864D01*
X104874Y722885D01*
X104920Y722990D01*
X104973Y723093D01*
X104977Y723117D01*
X104989Y723145D01*
X105026Y723409D01*
X105028Y723424D01*
X105028Y773303D01*
X105020Y773361D01*
X105022Y773419D01*
X105000Y773501D01*
X104988Y773585D01*
X104965Y773638D01*
X104950Y773694D01*
X104907Y773767D01*
X104872Y773844D01*
X104834Y773889D01*
X104805Y773939D01*
X104743Y773997D01*
X104689Y774061D01*
X104640Y774093D01*
X104597Y774133D01*
X104522Y774172D01*
X104452Y774219D01*
X104396Y774236D01*
X104344Y774263D01*
X104276Y774274D01*
X104181Y774304D01*
X104081Y774307D01*
X104013Y774318D01*
X101563Y774318D01*
X101477Y774306D01*
X101389Y774303D01*
X101337Y774286D01*
X101282Y774278D01*
X101202Y774243D01*
X101119Y774216D01*
X101079Y774188D01*
X101022Y774162D01*
X100909Y774066D01*
X100845Y774021D01*
X99542Y772717D01*
X97581Y771905D01*
X95459Y771905D01*
X93498Y772717D01*
X91997Y774218D01*
X91185Y776179D01*
X91185Y778301D01*
X91997Y780262D01*
X93498Y781763D01*
X95459Y782575D01*
X97581Y782575D01*
X99542Y781763D01*
X100845Y780459D01*
X100915Y780407D01*
X100979Y780347D01*
X101028Y780321D01*
X101073Y780288D01*
X101154Y780257D01*
X101232Y780217D01*
X101280Y780209D01*
X101338Y780187D01*
X101486Y780175D01*
X101563Y780162D01*
X104013Y780162D01*
X104071Y780170D01*
X104129Y780168D01*
X104211Y780190D01*
X104295Y780202D01*
X104348Y780225D01*
X104404Y780240D01*
X104477Y780283D01*
X104554Y780318D01*
X104599Y780356D01*
X104649Y780385D01*
X104707Y780447D01*
X104771Y780501D01*
X104803Y780550D01*
X104843Y780593D01*
X104882Y780668D01*
X104929Y780738D01*
X104946Y780794D01*
X104973Y780846D01*
X104984Y780914D01*
X105014Y781009D01*
X105017Y781109D01*
X105028Y781177D01*
X105028Y812439D01*
X105016Y812526D01*
X105013Y812613D01*
X104996Y812666D01*
X104988Y812721D01*
X104953Y812801D01*
X104926Y812884D01*
X104898Y812923D01*
X104872Y812980D01*
X104776Y813093D01*
X104731Y813157D01*
X98020Y819868D01*
X97950Y819920D01*
X97886Y819980D01*
X97837Y820006D01*
X97793Y820039D01*
X97711Y820070D01*
X97633Y820110D01*
X97586Y820118D01*
X97527Y820140D01*
X97380Y820152D01*
X97302Y820165D01*
X95459Y820165D01*
X93470Y820989D01*
X93418Y821023D01*
X93328Y821091D01*
X93300Y821102D01*
X93276Y821118D01*
X93168Y821152D01*
X93062Y821193D01*
X93033Y821195D01*
X93005Y821204D01*
X92892Y821207D01*
X92779Y821216D01*
X92750Y821211D01*
X92721Y821211D01*
X92611Y821183D01*
X92500Y821161D01*
X92474Y821147D01*
X92446Y821140D01*
X92349Y821082D01*
X92248Y821030D01*
X92226Y821009D01*
X92201Y820994D01*
X92124Y820912D01*
X92042Y820834D01*
X92027Y820808D01*
X92007Y820787D01*
X91955Y820686D01*
X91898Y820589D01*
X91891Y820560D01*
X91877Y820534D01*
X91864Y820457D01*
X91828Y820313D01*
X91830Y820250D01*
X91822Y820203D01*
X91822Y801333D01*
X91834Y801247D01*
X91837Y801159D01*
X91854Y801107D01*
X91862Y801052D01*
X91897Y800972D01*
X91924Y800889D01*
X91952Y800849D01*
X91978Y800792D01*
X92074Y800679D01*
X92119Y800615D01*
X93423Y799312D01*
X94235Y797351D01*
X94235Y795229D01*
X93423Y793268D01*
X91922Y791767D01*
X89961Y790955D01*
X87839Y790955D01*
X86876Y791354D01*
X86764Y791383D01*
X86655Y791418D01*
X86627Y791418D01*
X86600Y791425D01*
X86486Y791422D01*
X86371Y791425D01*
X86344Y791418D01*
X86316Y791417D01*
X86207Y791382D01*
X86096Y791353D01*
X86072Y791339D01*
X86045Y791330D01*
X85950Y791266D01*
X85851Y791208D01*
X85832Y791188D01*
X85809Y791172D01*
X85735Y791084D01*
X85657Y791001D01*
X85644Y790976D01*
X85626Y790955D01*
X85580Y790850D01*
X85527Y790747D01*
X85523Y790723D01*
X85511Y790695D01*
X85474Y790431D01*
X85472Y790416D01*
X85472Y662031D01*
X85484Y661944D01*
X85487Y661857D01*
X85504Y661804D01*
X85512Y661749D01*
X85547Y661669D01*
X85574Y661586D01*
X85602Y661547D01*
X85628Y661490D01*
X85724Y661377D01*
X85769Y661313D01*
X87400Y659682D01*
X87470Y659630D01*
X87534Y659570D01*
X87583Y659544D01*
X87627Y659511D01*
X87709Y659480D01*
X87787Y659440D01*
X87834Y659432D01*
X87893Y659410D01*
X88040Y659398D01*
X88118Y659385D01*
X89961Y659385D01*
X91922Y658573D01*
X93423Y657072D01*
X94235Y655111D01*
X94235Y652989D01*
X93423Y651028D01*
X91922Y649527D01*
X89961Y648715D01*
X87839Y648715D01*
X85878Y649527D01*
X84377Y651028D01*
X83565Y652989D01*
X83565Y654832D01*
X83553Y654919D01*
X83550Y655006D01*
X83533Y655059D01*
X83525Y655114D01*
X83490Y655194D01*
X83463Y655277D01*
X83435Y655316D01*
X83409Y655373D01*
X83313Y655486D01*
X83268Y655550D01*
X79628Y659190D01*
X79628Y842047D01*
X79616Y842133D01*
X79613Y842221D01*
X79596Y842273D01*
X79588Y842328D01*
X79553Y842408D01*
X79526Y842491D01*
X79498Y842531D01*
X79472Y842588D01*
X79376Y842701D01*
X79331Y842765D01*
X78027Y844068D01*
X77215Y846029D01*
X77215Y848151D01*
X78027Y850112D01*
X79528Y851613D01*
X81489Y852425D01*
X83611Y852425D01*
X84574Y852026D01*
X84686Y851997D01*
X84795Y851962D01*
X84823Y851962D01*
X84850Y851955D01*
X84964Y851958D01*
X85079Y851955D01*
X85106Y851962D01*
X85134Y851963D01*
X85243Y851998D01*
X85354Y852027D01*
X85378Y852041D01*
X85405Y852050D01*
X85500Y852114D01*
X85599Y852172D01*
X85618Y852192D01*
X85641Y852208D01*
X85715Y852296D01*
X85793Y852379D01*
X85806Y852404D01*
X85824Y852425D01*
X85870Y852530D01*
X85923Y852633D01*
X85927Y852657D01*
X85939Y852685D01*
X85976Y852949D01*
X85978Y852964D01*
X85978Y877607D01*
X85966Y877693D01*
X85963Y877781D01*
X85946Y877833D01*
X85938Y877888D01*
X85903Y877968D01*
X85876Y878051D01*
X85848Y878091D01*
X85822Y878148D01*
X85726Y878261D01*
X85681Y878325D01*
X84377Y879628D01*
X83565Y881589D01*
X83565Y883711D01*
X84377Y885672D01*
X85878Y887173D01*
X87839Y887985D01*
X89961Y887985D01*
X91922Y887173D01*
X93423Y885672D01*
X94235Y883711D01*
X94235Y881589D01*
X93423Y879628D01*
X92119Y878325D01*
X92067Y878255D01*
X92007Y878191D01*
X91981Y878142D01*
X91948Y878097D01*
X91917Y878016D01*
X91877Y877938D01*
X91869Y877890D01*
X91847Y877832D01*
X91835Y877684D01*
X91822Y877607D01*
X91822Y830797D01*
X91826Y830768D01*
X91823Y830739D01*
X91846Y830628D01*
X91862Y830516D01*
X91874Y830489D01*
X91879Y830460D01*
X91932Y830359D01*
X91978Y830256D01*
X91997Y830234D01*
X92010Y830208D01*
X92088Y830126D01*
X92161Y830039D01*
X92186Y830023D01*
X92206Y830002D01*
X92304Y829944D01*
X92398Y829882D01*
X92426Y829873D01*
X92452Y829858D01*
X92561Y829830D01*
X92669Y829796D01*
X92699Y829795D01*
X92727Y829788D01*
X92840Y829792D01*
X92953Y829789D01*
X92982Y829796D01*
X93011Y829797D01*
X93119Y829832D01*
X93228Y829860D01*
X93254Y829875D01*
X93282Y829885D01*
X93346Y829930D01*
X93473Y830006D01*
X93483Y830016D01*
X95459Y830835D01*
X97581Y830835D01*
X99542Y830023D01*
X101043Y828522D01*
X101855Y826561D01*
X101855Y824718D01*
X101867Y824631D01*
X101870Y824544D01*
X101887Y824491D01*
X101895Y824436D01*
X101930Y824356D01*
X101957Y824273D01*
X101985Y824234D01*
X102011Y824177D01*
X102107Y824064D01*
X102152Y824000D01*
X109645Y816507D01*
X109669Y816489D01*
X109688Y816467D01*
X109782Y816404D01*
X109872Y816336D01*
X109900Y816325D01*
X109924Y816309D01*
X110032Y816275D01*
X110138Y816235D01*
X110167Y816232D01*
X110195Y816223D01*
X110309Y816221D01*
X110421Y816211D01*
X110450Y816217D01*
X110479Y816216D01*
X110589Y816245D01*
X110700Y816267D01*
X110726Y816281D01*
X110754Y816288D01*
X110852Y816346D01*
X110952Y816398D01*
X110974Y816418D01*
X110999Y816433D01*
X111076Y816516D01*
X111158Y816594D01*
X111173Y816619D01*
X111193Y816641D01*
X111245Y816741D01*
X111302Y816839D01*
X111309Y816868D01*
X111323Y816894D01*
X111336Y816971D01*
X111372Y817115D01*
X111370Y817177D01*
X111378Y817225D01*
X111378Y820203D01*
X111366Y820289D01*
X111363Y820377D01*
X111346Y820429D01*
X111338Y820484D01*
X111303Y820564D01*
X111276Y820647D01*
X111248Y820687D01*
X111222Y820744D01*
X111126Y820857D01*
X111081Y820921D01*
X109523Y822478D01*
X108711Y824439D01*
X108711Y826561D01*
X109523Y828522D01*
X111024Y830023D01*
X112985Y830835D01*
X115107Y830835D01*
X115689Y830594D01*
X115801Y830565D01*
X115910Y830530D01*
X115938Y830529D01*
X115965Y830523D01*
X116079Y830526D01*
X116194Y830523D01*
X116221Y830530D01*
X116249Y830531D01*
X116358Y830566D01*
X116469Y830595D01*
X116493Y830609D01*
X116520Y830617D01*
X116615Y830681D01*
X116714Y830740D01*
X116733Y830760D01*
X116756Y830776D01*
X116830Y830863D01*
X116908Y830947D01*
X116921Y830972D01*
X116939Y830993D01*
X116985Y831098D01*
X117038Y831200D01*
X117042Y831225D01*
X117054Y831253D01*
X117091Y831516D01*
X117093Y831531D01*
X117093Y884592D01*
X117081Y884678D01*
X117078Y884766D01*
X117061Y884819D01*
X117053Y884873D01*
X117018Y884953D01*
X116991Y885036D01*
X116963Y885076D01*
X116937Y885133D01*
X116841Y885246D01*
X116796Y885310D01*
X116127Y885978D01*
X115315Y887939D01*
X115315Y890061D01*
X116127Y892022D01*
X116796Y892690D01*
X116848Y892760D01*
X116908Y892824D01*
X116934Y892873D01*
X116967Y892918D01*
X116998Y892999D01*
X117038Y893077D01*
X117046Y893125D01*
X117068Y893183D01*
X117080Y893331D01*
X117093Y893408D01*
X117093Y1007782D01*
X117081Y1007868D01*
X117078Y1007956D01*
X117061Y1008008D01*
X117053Y1008063D01*
X117018Y1008143D01*
X116991Y1008226D01*
X116963Y1008266D01*
X116937Y1008323D01*
X116841Y1008436D01*
X116796Y1008500D01*
X116127Y1009168D01*
X115315Y1011129D01*
X115315Y1013251D01*
X116127Y1015212D01*
X117628Y1016713D01*
X119589Y1017525D01*
X121711Y1017525D01*
X123672Y1016713D01*
X125173Y1015212D01*
X125985Y1013251D01*
X125985Y1011129D01*
X125173Y1009168D01*
X124504Y1008500D01*
X124452Y1008430D01*
X124392Y1008366D01*
X124366Y1008317D01*
X124333Y1008272D01*
X124302Y1008191D01*
X124262Y1008113D01*
X124254Y1008065D01*
X124232Y1008007D01*
X124220Y1007859D01*
X124207Y1007782D01*
X124207Y893408D01*
X124219Y893322D01*
X124222Y893234D01*
X124239Y893181D01*
X124247Y893127D01*
X124282Y893047D01*
X124309Y892964D01*
X124337Y892924D01*
X124363Y892867D01*
X124459Y892754D01*
X124504Y892690D01*
X125173Y892022D01*
X125985Y890061D01*
X125985Y887939D01*
X125173Y885978D01*
X124504Y885310D01*
X124452Y885240D01*
X124392Y885176D01*
X124366Y885127D01*
X124333Y885082D01*
X124302Y885001D01*
X124262Y884923D01*
X124254Y884875D01*
X124232Y884817D01*
X124220Y884669D01*
X124207Y884592D01*
X124207Y692748D01*
X124219Y692662D01*
X124222Y692574D01*
X124239Y692521D01*
X124247Y692467D01*
X124282Y692387D01*
X124309Y692304D01*
X124337Y692264D01*
X124363Y692207D01*
X124459Y692094D01*
X124504Y692030D01*
X125173Y691362D01*
X125985Y689401D01*
X125985Y687279D01*
X125173Y685318D01*
X124504Y684650D01*
X124452Y684580D01*
X124392Y684516D01*
X124366Y684467D01*
X124333Y684422D01*
X124302Y684341D01*
X124262Y684263D01*
X124254Y684215D01*
X124232Y684157D01*
X124220Y684009D01*
X124207Y683932D01*
X124207Y525108D01*
X124219Y525022D01*
X124222Y524934D01*
X124239Y524881D01*
X124247Y524827D01*
X124282Y524747D01*
X124309Y524664D01*
X124337Y524624D01*
X124363Y524567D01*
X124459Y524454D01*
X124504Y524390D01*
X125173Y523722D01*
X125985Y521761D01*
X125985Y519639D01*
X125173Y517678D01*
X124504Y517010D01*
X124452Y516940D01*
X124392Y516876D01*
X124366Y516827D01*
X124333Y516782D01*
X124302Y516701D01*
X124262Y516623D01*
X124254Y516575D01*
X124232Y516517D01*
X124220Y516369D01*
X124207Y516292D01*
X124207Y351118D01*
X124219Y351032D01*
X124222Y350944D01*
X124239Y350891D01*
X124247Y350837D01*
X124282Y350757D01*
X124309Y350674D01*
X124337Y350634D01*
X124363Y350577D01*
X124459Y350464D01*
X124504Y350400D01*
X125173Y349732D01*
X125985Y347771D01*
X125985Y345649D01*
X125173Y343688D01*
X124504Y343020D01*
X124452Y342950D01*
X124392Y342886D01*
X124366Y342837D01*
X124333Y342792D01*
X124302Y342711D01*
X124262Y342633D01*
X124254Y342585D01*
X124232Y342527D01*
X124220Y342379D01*
X124207Y342302D01*
X124207Y169508D01*
X124219Y169422D01*
X124222Y169334D01*
X124239Y169282D01*
X124247Y169227D01*
X124282Y169147D01*
X124309Y169064D01*
X124337Y169024D01*
X124363Y168967D01*
X124459Y168854D01*
X124504Y168790D01*
X125173Y168122D01*
X125985Y166161D01*
X125985Y164039D01*
X125173Y162078D01*
X123672Y160577D01*
X121711Y159765D01*
X119589Y159765D01*
X118626Y160164D01*
X118514Y160193D01*
X118405Y160228D01*
X118377Y160228D01*
X118350Y160235D01*
X118236Y160232D01*
X118121Y160235D01*
X118094Y160228D01*
X118066Y160227D01*
X117957Y160192D01*
X117846Y160163D01*
X117822Y160149D01*
X117795Y160140D01*
X117700Y160076D01*
X117601Y160018D01*
X117582Y159998D01*
X117559Y159982D01*
X117485Y159894D01*
X117407Y159811D01*
X117394Y159786D01*
X117376Y159765D01*
X117330Y159660D01*
X117277Y159557D01*
X117273Y159533D01*
X117261Y159505D01*
X117224Y159241D01*
X117222Y159226D01*
X117222Y111723D01*
X117234Y111637D01*
X117237Y111549D01*
X117254Y111497D01*
X117262Y111442D01*
X117297Y111362D01*
X117324Y111279D01*
X117352Y111239D01*
X117378Y111182D01*
X117474Y111069D01*
X117519Y111005D01*
X118823Y109702D01*
X119635Y107741D01*
X119635Y105619D01*
X118823Y103658D01*
X117322Y102157D01*
X115361Y101345D01*
X113771Y101345D01*
X113657Y101329D01*
X113543Y101319D01*
X113517Y101309D01*
X113490Y101305D01*
X113385Y101258D01*
X113278Y101217D01*
X113255Y101201D01*
X113230Y101189D01*
X113143Y101115D01*
X113051Y101046D01*
X113034Y101023D01*
X113013Y101006D01*
X112950Y100910D01*
X112881Y100818D01*
X112871Y100792D01*
X112856Y100769D01*
X112821Y100659D01*
X112780Y100552D01*
X112778Y100524D01*
X112770Y100498D01*
X112767Y100383D01*
X112758Y100269D01*
X112763Y100244D01*
X112762Y100214D01*
X112830Y99957D01*
X112833Y99941D01*
X113285Y98851D01*
X113285Y96729D01*
X112473Y94768D01*
X110972Y93267D01*
X109011Y92455D01*
X106889Y92455D01*
G37*
%LPD*%
%LPC*%
G36*
X176739Y41655D02*
X176739Y41655D01*
X174778Y42467D01*
X173277Y43968D01*
X172465Y45929D01*
X172465Y48051D01*
X173277Y50012D01*
X174581Y51315D01*
X174633Y51385D01*
X174693Y51449D01*
X174719Y51498D01*
X174752Y51543D01*
X174783Y51624D01*
X174823Y51702D01*
X174831Y51750D01*
X174853Y51808D01*
X174865Y51956D01*
X174878Y52033D01*
X174878Y93186D01*
X174871Y93239D01*
X174872Y93268D01*
X174862Y93306D01*
X174852Y93414D01*
X174842Y93440D01*
X174838Y93468D01*
X174791Y93573D01*
X174750Y93680D01*
X174734Y93702D01*
X174722Y93727D01*
X174648Y93815D01*
X174579Y93906D01*
X174556Y93923D01*
X174539Y93944D01*
X174443Y94008D01*
X174351Y94077D01*
X174325Y94086D01*
X174302Y94102D01*
X174192Y94137D01*
X174085Y94177D01*
X174057Y94179D01*
X174031Y94188D01*
X173916Y94191D01*
X173802Y94200D01*
X173777Y94194D01*
X173747Y94195D01*
X173490Y94128D01*
X173474Y94124D01*
X172511Y93725D01*
X170389Y93725D01*
X168428Y94537D01*
X166927Y96038D01*
X166115Y97999D01*
X166115Y99842D01*
X166103Y99929D01*
X166100Y100016D01*
X166083Y100069D01*
X166075Y100124D01*
X166040Y100204D01*
X166013Y100287D01*
X165985Y100326D01*
X165959Y100383D01*
X165863Y100496D01*
X165818Y100560D01*
X165260Y101118D01*
X165191Y101170D01*
X165129Y101229D01*
X165078Y101255D01*
X165033Y101289D01*
X164952Y101320D01*
X164876Y101359D01*
X164820Y101370D01*
X164767Y101390D01*
X164681Y101397D01*
X164597Y101414D01*
X164540Y101409D01*
X164484Y101414D01*
X164399Y101397D01*
X164314Y101390D01*
X164261Y101369D01*
X164205Y101358D01*
X164129Y101318D01*
X164048Y101288D01*
X164003Y101253D01*
X163953Y101227D01*
X163890Y101168D01*
X163822Y101116D01*
X163788Y101070D01*
X163747Y101031D01*
X163703Y100957D01*
X163652Y100888D01*
X163632Y100835D01*
X163603Y100786D01*
X163582Y100703D01*
X163551Y100622D01*
X163547Y100566D01*
X163533Y100510D01*
X163535Y100425D01*
X163529Y100339D01*
X163540Y100291D01*
X163542Y100226D01*
X163586Y100089D01*
X163604Y100012D01*
X164085Y98851D01*
X164085Y96729D01*
X163273Y94768D01*
X161772Y93267D01*
X159811Y92455D01*
X157689Y92455D01*
X157107Y92696D01*
X156995Y92725D01*
X156886Y92760D01*
X156858Y92761D01*
X156831Y92767D01*
X156717Y92764D01*
X156602Y92767D01*
X156575Y92760D01*
X156547Y92759D01*
X156438Y92724D01*
X156327Y92695D01*
X156303Y92681D01*
X156276Y92673D01*
X156181Y92609D01*
X156082Y92550D01*
X156063Y92530D01*
X156040Y92514D01*
X155966Y92427D01*
X155888Y92343D01*
X155875Y92318D01*
X155857Y92297D01*
X155811Y92192D01*
X155758Y92090D01*
X155754Y92065D01*
X155742Y92037D01*
X155705Y91773D01*
X155703Y91759D01*
X155703Y76163D01*
X155715Y76077D01*
X155718Y75989D01*
X155735Y75937D01*
X155743Y75882D01*
X155778Y75802D01*
X155805Y75719D01*
X155833Y75679D01*
X155859Y75622D01*
X155955Y75509D01*
X156000Y75445D01*
X157304Y74142D01*
X158116Y72181D01*
X158116Y70059D01*
X157304Y68098D01*
X155803Y66597D01*
X153842Y65785D01*
X151720Y65785D01*
X149759Y66597D01*
X148258Y68098D01*
X147446Y70059D01*
X147446Y72181D01*
X148258Y74142D01*
X149562Y75445D01*
X149614Y75515D01*
X149674Y75579D01*
X149700Y75628D01*
X149733Y75673D01*
X149764Y75754D01*
X149804Y75832D01*
X149812Y75880D01*
X149834Y75938D01*
X149846Y76086D01*
X149859Y76163D01*
X149859Y115607D01*
X149847Y115693D01*
X149844Y115781D01*
X149827Y115833D01*
X149819Y115888D01*
X149784Y115968D01*
X149757Y116051D01*
X149729Y116091D01*
X149703Y116148D01*
X149607Y116261D01*
X149562Y116325D01*
X148258Y117628D01*
X147446Y119589D01*
X147446Y121711D01*
X148258Y123672D01*
X149759Y125173D01*
X151720Y125985D01*
X153842Y125985D01*
X154424Y125744D01*
X154536Y125715D01*
X154645Y125680D01*
X154673Y125679D01*
X154700Y125673D01*
X154814Y125676D01*
X154929Y125673D01*
X154956Y125680D01*
X154984Y125681D01*
X155093Y125716D01*
X155204Y125745D01*
X155228Y125759D01*
X155255Y125767D01*
X155350Y125831D01*
X155449Y125890D01*
X155468Y125910D01*
X155491Y125926D01*
X155565Y126013D01*
X155643Y126097D01*
X155656Y126122D01*
X155674Y126143D01*
X155720Y126248D01*
X155773Y126350D01*
X155777Y126375D01*
X155789Y126403D01*
X155826Y126666D01*
X155828Y126681D01*
X155828Y308647D01*
X155816Y308733D01*
X155813Y308821D01*
X155796Y308873D01*
X155788Y308928D01*
X155753Y309008D01*
X155726Y309091D01*
X155698Y309131D01*
X155672Y309188D01*
X155576Y309301D01*
X155531Y309365D01*
X154227Y310668D01*
X153415Y312629D01*
X153415Y313693D01*
X153401Y313792D01*
X153402Y313806D01*
X153398Y313821D01*
X153389Y313923D01*
X153379Y313948D01*
X153375Y313974D01*
X153333Y314069D01*
X153330Y314081D01*
X153323Y314093D01*
X153286Y314188D01*
X153270Y314209D01*
X153259Y314234D01*
X153192Y314313D01*
X153185Y314326D01*
X153174Y314336D01*
X153114Y314414D01*
X153093Y314430D01*
X153076Y314451D01*
X152993Y314506D01*
X152977Y314520D01*
X152960Y314529D01*
X152886Y314584D01*
X152861Y314593D01*
X152839Y314608D01*
X152750Y314636D01*
X152724Y314650D01*
X152701Y314654D01*
X152620Y314684D01*
X152594Y314686D01*
X152568Y314694D01*
X152452Y314697D01*
X152432Y314699D01*
X152393Y314705D01*
X152348Y314705D01*
X152337Y314706D01*
X152333Y314705D01*
X150069Y314705D01*
X148108Y315517D01*
X146607Y317018D01*
X145795Y318979D01*
X145795Y321101D01*
X146607Y323062D01*
X148108Y324563D01*
X148852Y324871D01*
X148853Y324871D01*
X148854Y324872D01*
X148973Y324942D01*
X149096Y325015D01*
X149097Y325016D01*
X149099Y325017D01*
X149196Y325121D01*
X149292Y325222D01*
X149292Y325223D01*
X149293Y325224D01*
X149358Y325350D01*
X149422Y325474D01*
X149422Y325476D01*
X149423Y325477D01*
X149425Y325492D01*
X149477Y325753D01*
X149474Y325784D01*
X149478Y325808D01*
X149478Y372147D01*
X149466Y372233D01*
X149463Y372321D01*
X149446Y372373D01*
X149438Y372428D01*
X149403Y372508D01*
X149376Y372591D01*
X149348Y372631D01*
X149322Y372688D01*
X149226Y372801D01*
X149181Y372865D01*
X147877Y374168D01*
X147065Y376129D01*
X147065Y378251D01*
X147877Y380212D01*
X149378Y381713D01*
X151339Y382525D01*
X153461Y382525D01*
X155422Y381713D01*
X156923Y380212D01*
X157735Y378251D01*
X157735Y376129D01*
X156923Y374168D01*
X155619Y372865D01*
X155567Y372795D01*
X155507Y372731D01*
X155481Y372682D01*
X155448Y372637D01*
X155417Y372556D01*
X155377Y372478D01*
X155369Y372430D01*
X155347Y372372D01*
X155335Y372224D01*
X155322Y372147D01*
X155322Y323813D01*
X155334Y323727D01*
X155337Y323639D01*
X155354Y323587D01*
X155362Y323532D01*
X155397Y323452D01*
X155424Y323369D01*
X155452Y323329D01*
X155478Y323272D01*
X155574Y323159D01*
X155619Y323095D01*
X155653Y323062D01*
X156465Y321101D01*
X156465Y320037D01*
X156479Y319938D01*
X156478Y319924D01*
X156482Y319909D01*
X156491Y319807D01*
X156501Y319782D01*
X156505Y319756D01*
X156547Y319661D01*
X156550Y319649D01*
X156557Y319637D01*
X156594Y319542D01*
X156610Y319521D01*
X156621Y319496D01*
X156688Y319417D01*
X156695Y319404D01*
X156706Y319394D01*
X156766Y319316D01*
X156787Y319300D01*
X156804Y319279D01*
X156887Y319224D01*
X156903Y319210D01*
X156920Y319201D01*
X156994Y319146D01*
X157019Y319137D01*
X157041Y319122D01*
X157130Y319094D01*
X157156Y319080D01*
X157179Y319076D01*
X157260Y319046D01*
X157286Y319044D01*
X157312Y319036D01*
X157428Y319033D01*
X157448Y319031D01*
X157487Y319025D01*
X157532Y319025D01*
X157543Y319024D01*
X157547Y319025D01*
X159811Y319025D01*
X161772Y318213D01*
X163273Y316712D01*
X164085Y314751D01*
X164085Y312629D01*
X163633Y311539D01*
X163604Y311427D01*
X163570Y311318D01*
X163569Y311290D01*
X163562Y311263D01*
X163565Y311149D01*
X163562Y311034D01*
X163570Y311007D01*
X163570Y310979D01*
X163605Y310870D01*
X163634Y310759D01*
X163648Y310735D01*
X163657Y310708D01*
X163721Y310613D01*
X163780Y310514D01*
X163800Y310495D01*
X163815Y310472D01*
X163903Y310398D01*
X163987Y310320D01*
X164012Y310307D01*
X164033Y310289D01*
X164138Y310243D01*
X164240Y310190D01*
X164265Y310186D01*
X164293Y310174D01*
X164556Y310137D01*
X164571Y310135D01*
X166161Y310135D01*
X167124Y309736D01*
X167236Y309707D01*
X167345Y309672D01*
X167373Y309672D01*
X167400Y309665D01*
X167514Y309668D01*
X167629Y309665D01*
X167656Y309672D01*
X167684Y309673D01*
X167793Y309708D01*
X167904Y309737D01*
X167928Y309751D01*
X167955Y309760D01*
X168050Y309823D01*
X168149Y309882D01*
X168168Y309902D01*
X168191Y309918D01*
X168265Y310006D01*
X168343Y310089D01*
X168356Y310114D01*
X168374Y310135D01*
X168421Y310240D01*
X168473Y310343D01*
X168477Y310367D01*
X168489Y310395D01*
X168526Y310659D01*
X168528Y310674D01*
X168528Y504227D01*
X168516Y504313D01*
X168513Y504401D01*
X168496Y504453D01*
X168488Y504508D01*
X168453Y504588D01*
X168426Y504671D01*
X168398Y504711D01*
X168372Y504768D01*
X168276Y504881D01*
X168231Y504945D01*
X166927Y506248D01*
X166115Y508209D01*
X166115Y510331D01*
X166927Y512292D01*
X168231Y513595D01*
X168283Y513665D01*
X168343Y513729D01*
X168369Y513778D01*
X168402Y513823D01*
X168433Y513904D01*
X168473Y513982D01*
X168481Y514030D01*
X168503Y514088D01*
X168515Y514236D01*
X168528Y514313D01*
X168528Y847127D01*
X168516Y847213D01*
X168513Y847301D01*
X168496Y847353D01*
X168488Y847408D01*
X168453Y847488D01*
X168426Y847571D01*
X168398Y847611D01*
X168372Y847668D01*
X168276Y847781D01*
X168231Y847845D01*
X166927Y849148D01*
X166115Y851109D01*
X166115Y853231D01*
X166927Y855192D01*
X168231Y856495D01*
X168283Y856565D01*
X168343Y856629D01*
X168369Y856678D01*
X168402Y856723D01*
X168433Y856804D01*
X168473Y856882D01*
X168481Y856930D01*
X168503Y856988D01*
X168515Y857136D01*
X168528Y857213D01*
X168528Y914437D01*
X168516Y914523D01*
X168513Y914611D01*
X168496Y914663D01*
X168488Y914718D01*
X168453Y914798D01*
X168426Y914881D01*
X168398Y914921D01*
X168372Y914978D01*
X168276Y915091D01*
X168252Y915125D01*
X168231Y915155D01*
X166927Y916458D01*
X166115Y918419D01*
X166115Y920541D01*
X166927Y922502D01*
X168428Y924003D01*
X170389Y924815D01*
X172511Y924815D01*
X174472Y924003D01*
X175973Y922502D01*
X176785Y920541D01*
X176785Y918217D01*
X176791Y918175D01*
X176789Y918094D01*
X176795Y918068D01*
X176796Y918041D01*
X176821Y917964D01*
X176825Y917935D01*
X176837Y917907D01*
X176860Y917819D01*
X176874Y917796D01*
X176882Y917770D01*
X176932Y917695D01*
X176941Y917676D01*
X176955Y917659D01*
X177006Y917574D01*
X177025Y917556D01*
X177040Y917533D01*
X177115Y917470D01*
X177124Y917459D01*
X177138Y917450D01*
X177213Y917380D01*
X177237Y917367D01*
X177257Y917350D01*
X177350Y917309D01*
X177361Y917301D01*
X177374Y917297D01*
X177466Y917250D01*
X177490Y917246D01*
X177517Y917234D01*
X177618Y917220D01*
X177632Y917216D01*
X177653Y917215D01*
X177790Y917196D01*
X177797Y917195D01*
X178861Y917195D01*
X179824Y916796D01*
X179936Y916767D01*
X180045Y916732D01*
X180073Y916732D01*
X180100Y916725D01*
X180214Y916728D01*
X180329Y916725D01*
X180356Y916732D01*
X180384Y916733D01*
X180493Y916768D01*
X180604Y916797D01*
X180628Y916811D01*
X180655Y916820D01*
X180750Y916884D01*
X180849Y916942D01*
X180868Y916962D01*
X180891Y916978D01*
X180965Y917066D01*
X181043Y917149D01*
X181056Y917174D01*
X181074Y917195D01*
X181120Y917300D01*
X181173Y917403D01*
X181177Y917427D01*
X181189Y917455D01*
X181226Y917719D01*
X181228Y917734D01*
X181228Y953858D01*
X181216Y953944D01*
X181213Y954032D01*
X181196Y954084D01*
X181188Y954139D01*
X181153Y954219D01*
X181126Y954302D01*
X181098Y954342D01*
X181072Y954399D01*
X180976Y954512D01*
X180931Y954576D01*
X175259Y960247D01*
X175259Y991526D01*
X175247Y991612D01*
X175244Y991700D01*
X175227Y991752D01*
X175219Y991807D01*
X175184Y991887D01*
X175157Y991970D01*
X175129Y992010D01*
X175103Y992067D01*
X175007Y992180D01*
X174962Y992244D01*
X173658Y993547D01*
X172846Y995508D01*
X172846Y997630D01*
X173658Y999591D01*
X175159Y1001092D01*
X177120Y1001904D01*
X177800Y1001904D01*
X177858Y1001912D01*
X177916Y1001910D01*
X177998Y1001932D01*
X178082Y1001944D01*
X178135Y1001967D01*
X178191Y1001982D01*
X178264Y1002025D01*
X178341Y1002060D01*
X178386Y1002098D01*
X178436Y1002127D01*
X178494Y1002189D01*
X178558Y1002243D01*
X178590Y1002292D01*
X178630Y1002335D01*
X178669Y1002410D01*
X178716Y1002480D01*
X178733Y1002536D01*
X178760Y1002588D01*
X178771Y1002656D01*
X178801Y1002751D01*
X178804Y1002851D01*
X178815Y1002919D01*
X178815Y1004361D01*
X179627Y1006322D01*
X181128Y1007823D01*
X183089Y1008635D01*
X185211Y1008635D01*
X187172Y1007823D01*
X188673Y1006322D01*
X189485Y1004361D01*
X189485Y1002239D01*
X188673Y1000278D01*
X187369Y998975D01*
X187317Y998905D01*
X187257Y998841D01*
X187231Y998792D01*
X187198Y998747D01*
X187167Y998666D01*
X187127Y998588D01*
X187119Y998540D01*
X187097Y998482D01*
X187085Y998334D01*
X187072Y998257D01*
X187072Y968973D01*
X187084Y968887D01*
X187087Y968799D01*
X187104Y968747D01*
X187112Y968692D01*
X187147Y968612D01*
X187174Y968529D01*
X187202Y968489D01*
X187228Y968432D01*
X187324Y968319D01*
X187369Y968255D01*
X188673Y966952D01*
X189485Y964991D01*
X189485Y962869D01*
X188673Y960908D01*
X187172Y959407D01*
X186589Y959166D01*
X186491Y959108D01*
X186389Y959055D01*
X186369Y959036D01*
X186345Y959022D01*
X186266Y958938D01*
X186183Y958859D01*
X186169Y958835D01*
X186149Y958815D01*
X186097Y958713D01*
X186039Y958614D01*
X186032Y958587D01*
X186019Y958562D01*
X185997Y958449D01*
X185969Y958338D01*
X185970Y958311D01*
X185964Y958283D01*
X185974Y958169D01*
X185978Y958054D01*
X185986Y958028D01*
X185989Y958000D01*
X186030Y957893D01*
X186065Y957784D01*
X186080Y957763D01*
X186091Y957735D01*
X186252Y957522D01*
X186260Y957510D01*
X187072Y956699D01*
X187072Y917555D01*
X187076Y917526D01*
X187073Y917496D01*
X187096Y917385D01*
X187112Y917273D01*
X187124Y917246D01*
X187129Y917218D01*
X187181Y917117D01*
X187228Y917014D01*
X187247Y916991D01*
X187260Y916965D01*
X187338Y916883D01*
X187411Y916797D01*
X187436Y916781D01*
X187456Y916759D01*
X187554Y916702D01*
X187648Y916639D01*
X187676Y916630D01*
X187701Y916616D01*
X187811Y916588D01*
X187919Y916553D01*
X187949Y916553D01*
X187977Y916545D01*
X188090Y916549D01*
X188203Y916546D01*
X188232Y916554D01*
X188261Y916554D01*
X188369Y916589D01*
X188478Y916618D01*
X188504Y916633D01*
X188532Y916642D01*
X188595Y916687D01*
X188723Y916763D01*
X188766Y916809D01*
X188805Y916837D01*
X197914Y925946D01*
X197949Y925993D01*
X197991Y926033D01*
X198034Y926106D01*
X198085Y926173D01*
X198106Y926228D01*
X198135Y926278D01*
X198156Y926360D01*
X198186Y926439D01*
X198191Y926497D01*
X198205Y926554D01*
X198203Y926638D01*
X198210Y926722D01*
X198198Y926779D01*
X198196Y926838D01*
X198170Y926918D01*
X198154Y927001D01*
X198128Y927051D01*
X198124Y927064D01*
X198122Y927068D01*
X198109Y927108D01*
X198069Y927165D01*
X198023Y927253D01*
X197993Y927284D01*
X197979Y927308D01*
X197941Y927344D01*
X197914Y927382D01*
X197407Y927888D01*
X196595Y929849D01*
X196595Y931971D01*
X197407Y933932D01*
X198908Y935433D01*
X200869Y936245D01*
X202991Y936245D01*
X204952Y935433D01*
X206165Y934219D01*
X206189Y934202D01*
X206208Y934179D01*
X206302Y934117D01*
X206392Y934048D01*
X206420Y934038D01*
X206444Y934022D01*
X206552Y933988D01*
X206658Y933947D01*
X206687Y933945D01*
X206715Y933936D01*
X206829Y933933D01*
X206941Y933924D01*
X206970Y933929D01*
X206999Y933929D01*
X207109Y933957D01*
X207220Y933980D01*
X207246Y933993D01*
X207274Y934000D01*
X207372Y934058D01*
X207472Y934110D01*
X207494Y934131D01*
X207519Y934146D01*
X207596Y934228D01*
X207678Y934306D01*
X207693Y934332D01*
X207713Y934353D01*
X207765Y934454D01*
X207822Y934552D01*
X207829Y934580D01*
X207843Y934606D01*
X207856Y934683D01*
X207892Y934827D01*
X207890Y934890D01*
X207898Y934937D01*
X207898Y1013497D01*
X207886Y1013583D01*
X207883Y1013671D01*
X207866Y1013723D01*
X207858Y1013778D01*
X207823Y1013858D01*
X207796Y1013941D01*
X207768Y1013981D01*
X207742Y1014038D01*
X207646Y1014151D01*
X207601Y1014215D01*
X206297Y1015518D01*
X205485Y1017479D01*
X205485Y1019601D01*
X206297Y1021562D01*
X207798Y1023063D01*
X209759Y1023875D01*
X211881Y1023875D01*
X213842Y1023063D01*
X215343Y1021562D01*
X216155Y1019601D01*
X216155Y1017479D01*
X215343Y1015518D01*
X214039Y1014215D01*
X213987Y1014145D01*
X213927Y1014081D01*
X213901Y1014032D01*
X213868Y1013987D01*
X213837Y1013906D01*
X213797Y1013828D01*
X213789Y1013780D01*
X213767Y1013722D01*
X213755Y1013574D01*
X213742Y1013497D01*
X213742Y281903D01*
X213754Y281817D01*
X213757Y281729D01*
X213774Y281677D01*
X213782Y281622D01*
X213817Y281542D01*
X213844Y281459D01*
X213872Y281419D01*
X213898Y281362D01*
X213994Y281249D01*
X214039Y281185D01*
X215343Y279882D01*
X216155Y277921D01*
X216155Y275799D01*
X215343Y273838D01*
X213842Y272337D01*
X211881Y271525D01*
X209759Y271525D01*
X207798Y272337D01*
X206297Y273838D01*
X205485Y275799D01*
X205485Y277921D01*
X206297Y279882D01*
X207601Y281185D01*
X207653Y281255D01*
X207713Y281319D01*
X207739Y281368D01*
X207772Y281413D01*
X207803Y281494D01*
X207843Y281572D01*
X207851Y281620D01*
X207873Y281678D01*
X207885Y281826D01*
X207898Y281903D01*
X207898Y792263D01*
X207894Y792292D01*
X207897Y792321D01*
X207874Y792432D01*
X207858Y792544D01*
X207846Y792571D01*
X207841Y792600D01*
X207788Y792701D01*
X207742Y792804D01*
X207723Y792826D01*
X207710Y792852D01*
X207632Y792934D01*
X207559Y793021D01*
X207534Y793037D01*
X207514Y793058D01*
X207416Y793116D01*
X207322Y793178D01*
X207294Y793187D01*
X207268Y793202D01*
X207159Y793230D01*
X207051Y793264D01*
X207021Y793265D01*
X206993Y793272D01*
X206880Y793268D01*
X206767Y793271D01*
X206738Y793264D01*
X206709Y793263D01*
X206601Y793228D01*
X206492Y793200D01*
X206466Y793185D01*
X206438Y793175D01*
X206374Y793130D01*
X206247Y793054D01*
X206237Y793044D01*
X204261Y792225D01*
X202139Y792225D01*
X200178Y793037D01*
X198677Y794538D01*
X197865Y796499D01*
X197865Y798342D01*
X197853Y798429D01*
X197850Y798516D01*
X197833Y798569D01*
X197825Y798624D01*
X197790Y798704D01*
X197763Y798787D01*
X197735Y798826D01*
X197709Y798883D01*
X197613Y798996D01*
X197568Y799060D01*
X195198Y801430D01*
X195198Y894498D01*
X195186Y894584D01*
X195183Y894672D01*
X195166Y894724D01*
X195158Y894779D01*
X195123Y894859D01*
X195096Y894942D01*
X195068Y894982D01*
X195042Y895039D01*
X194947Y895152D01*
X194901Y895216D01*
X194774Y895343D01*
X194750Y895360D01*
X194731Y895383D01*
X194637Y895445D01*
X194547Y895514D01*
X194519Y895524D01*
X194495Y895540D01*
X194387Y895575D01*
X194281Y895615D01*
X194252Y895617D01*
X194224Y895626D01*
X194111Y895629D01*
X193998Y895638D01*
X193969Y895633D01*
X193940Y895633D01*
X193830Y895605D01*
X193719Y895583D01*
X193693Y895569D01*
X193665Y895562D01*
X193568Y895504D01*
X193467Y895452D01*
X193445Y895431D01*
X193420Y895416D01*
X193343Y895334D01*
X193261Y895256D01*
X193246Y895230D01*
X193226Y895209D01*
X193174Y895108D01*
X193117Y895011D01*
X193110Y894982D01*
X193096Y894956D01*
X193083Y894879D01*
X193047Y894735D01*
X193049Y894672D01*
X193041Y894625D01*
X193041Y789522D01*
X193053Y789436D01*
X193056Y789348D01*
X193073Y789296D01*
X193081Y789241D01*
X193116Y789161D01*
X193143Y789078D01*
X193171Y789038D01*
X193197Y788981D01*
X193293Y788868D01*
X193338Y788804D01*
X194642Y787501D01*
X195454Y785540D01*
X195454Y783418D01*
X194642Y781457D01*
X193141Y779956D01*
X191180Y779144D01*
X189058Y779144D01*
X188476Y779385D01*
X188447Y779393D01*
X188422Y779405D01*
X188357Y779416D01*
X188255Y779449D01*
X188227Y779450D01*
X188200Y779456D01*
X188130Y779454D01*
X188091Y779461D01*
X188087Y779461D01*
X188040Y779454D01*
X187971Y779456D01*
X187944Y779449D01*
X187916Y779448D01*
X187852Y779428D01*
X187805Y779421D01*
X187762Y779402D01*
X187696Y779384D01*
X187672Y779370D01*
X187645Y779362D01*
X187590Y779325D01*
X187546Y779305D01*
X187508Y779273D01*
X187451Y779239D01*
X187432Y779219D01*
X187409Y779203D01*
X187367Y779154D01*
X187329Y779121D01*
X187301Y779079D01*
X187257Y779032D01*
X187244Y779007D01*
X187226Y778986D01*
X187201Y778928D01*
X187171Y778885D01*
X187155Y778833D01*
X187127Y778779D01*
X187123Y778754D01*
X187111Y778726D01*
X187102Y778666D01*
X187086Y778614D01*
X187084Y778530D01*
X187074Y778462D01*
X187072Y778448D01*
X187072Y692113D01*
X187079Y692061D01*
X187078Y692033D01*
X187085Y692010D01*
X187087Y691939D01*
X187104Y691887D01*
X187112Y691832D01*
X187147Y691752D01*
X187174Y691669D01*
X187202Y691629D01*
X187228Y691572D01*
X187324Y691459D01*
X187369Y691395D01*
X188673Y690092D01*
X189485Y688131D01*
X189485Y686009D01*
X188673Y684048D01*
X187172Y682547D01*
X185211Y681735D01*
X183089Y681735D01*
X181128Y682547D01*
X179627Y684048D01*
X178815Y686009D01*
X178815Y688131D01*
X179627Y690092D01*
X180931Y691395D01*
X180983Y691465D01*
X181043Y691529D01*
X181069Y691578D01*
X181102Y691623D01*
X181133Y691704D01*
X181173Y691782D01*
X181181Y691830D01*
X181203Y691888D01*
X181210Y691967D01*
X181214Y691982D01*
X181216Y692039D01*
X181228Y692113D01*
X181228Y817086D01*
X181221Y817135D01*
X181222Y817142D01*
X181219Y817151D01*
X181212Y817200D01*
X181202Y817314D01*
X181192Y817340D01*
X181188Y817368D01*
X181141Y817473D01*
X181100Y817580D01*
X181084Y817602D01*
X181072Y817627D01*
X180998Y817715D01*
X180929Y817806D01*
X180906Y817823D01*
X180889Y817844D01*
X180793Y817908D01*
X180701Y817977D01*
X180675Y817986D01*
X180652Y818002D01*
X180542Y818037D01*
X180435Y818077D01*
X180407Y818079D01*
X180381Y818088D01*
X180266Y818091D01*
X180152Y818100D01*
X180127Y818094D01*
X180097Y818095D01*
X179840Y818028D01*
X179824Y818024D01*
X178861Y817625D01*
X176739Y817625D01*
X175776Y818024D01*
X175664Y818053D01*
X175555Y818088D01*
X175527Y818088D01*
X175500Y818095D01*
X175386Y818092D01*
X175271Y818095D01*
X175244Y818088D01*
X175216Y818087D01*
X175107Y818052D01*
X174996Y818023D01*
X174972Y818009D01*
X174945Y818000D01*
X174850Y817936D01*
X174751Y817878D01*
X174732Y817858D01*
X174709Y817842D01*
X174635Y817754D01*
X174557Y817671D01*
X174544Y817646D01*
X174526Y817625D01*
X174480Y817520D01*
X174427Y817417D01*
X174423Y817393D01*
X174411Y817365D01*
X174388Y817200D01*
X174386Y817193D01*
X174385Y817182D01*
X174374Y817101D01*
X174372Y817086D01*
X174372Y647531D01*
X174388Y647417D01*
X174398Y647303D01*
X174408Y647277D01*
X174412Y647249D01*
X174459Y647145D01*
X174500Y647037D01*
X174516Y647015D01*
X174528Y646990D01*
X174602Y646902D01*
X174671Y646811D01*
X174694Y646794D01*
X174711Y646773D01*
X174807Y646709D01*
X174899Y646641D01*
X174925Y646631D01*
X174948Y646615D01*
X175058Y646581D01*
X175165Y646540D01*
X175193Y646538D01*
X175219Y646530D01*
X175334Y646527D01*
X175448Y646517D01*
X175473Y646523D01*
X175503Y646522D01*
X175760Y646589D01*
X175776Y646593D01*
X177120Y647150D01*
X177800Y647150D01*
X177858Y647158D01*
X177916Y647156D01*
X177998Y647178D01*
X178082Y647190D01*
X178135Y647213D01*
X178191Y647228D01*
X178264Y647271D01*
X178341Y647306D01*
X178386Y647344D01*
X178436Y647373D01*
X178494Y647435D01*
X178558Y647489D01*
X178590Y647538D01*
X178630Y647581D01*
X178669Y647656D01*
X178716Y647726D01*
X178733Y647782D01*
X178760Y647834D01*
X178771Y647902D01*
X178801Y647997D01*
X178804Y648097D01*
X178815Y648165D01*
X178815Y648761D01*
X179627Y650722D01*
X181128Y652223D01*
X183089Y653035D01*
X185211Y653035D01*
X187172Y652223D01*
X188673Y650722D01*
X189485Y648761D01*
X189485Y646639D01*
X188673Y644678D01*
X187369Y643375D01*
X187317Y643305D01*
X187257Y643241D01*
X187231Y643192D01*
X187198Y643147D01*
X187167Y643066D01*
X187127Y642988D01*
X187119Y642940D01*
X187097Y642882D01*
X187085Y642734D01*
X187072Y642657D01*
X187072Y613373D01*
X187084Y613287D01*
X187087Y613199D01*
X187104Y613147D01*
X187112Y613092D01*
X187147Y613012D01*
X187174Y612929D01*
X187202Y612889D01*
X187228Y612832D01*
X187324Y612719D01*
X187369Y612655D01*
X188673Y611352D01*
X189485Y609391D01*
X189485Y607269D01*
X188673Y605308D01*
X187172Y603807D01*
X186590Y603566D01*
X186490Y603508D01*
X186389Y603455D01*
X186369Y603436D01*
X186345Y603422D01*
X186266Y603338D01*
X186183Y603259D01*
X186169Y603235D01*
X186150Y603215D01*
X186097Y603113D01*
X186039Y603014D01*
X186032Y602987D01*
X186019Y602962D01*
X185997Y602849D01*
X185969Y602738D01*
X185970Y602711D01*
X185964Y602683D01*
X185974Y602569D01*
X185978Y602454D01*
X185986Y602428D01*
X185989Y602400D01*
X186030Y602293D01*
X186065Y602184D01*
X186080Y602163D01*
X186091Y602135D01*
X186252Y601922D01*
X186260Y601910D01*
X186262Y601908D01*
X187072Y601099D01*
X187072Y488474D01*
X187088Y488360D01*
X187098Y488246D01*
X187108Y488220D01*
X187112Y488192D01*
X187159Y488087D01*
X187200Y487980D01*
X187216Y487958D01*
X187228Y487933D01*
X187302Y487845D01*
X187371Y487754D01*
X187394Y487737D01*
X187411Y487716D01*
X187507Y487652D01*
X187599Y487583D01*
X187625Y487574D01*
X187648Y487558D01*
X187758Y487523D01*
X187865Y487483D01*
X187893Y487481D01*
X187919Y487472D01*
X188034Y487469D01*
X188148Y487460D01*
X188173Y487466D01*
X188203Y487465D01*
X188460Y487532D01*
X188476Y487536D01*
X189439Y487935D01*
X191561Y487935D01*
X193522Y487123D01*
X195023Y485622D01*
X195835Y483661D01*
X195835Y481539D01*
X195023Y479578D01*
X193719Y478275D01*
X193667Y478205D01*
X193607Y478141D01*
X193581Y478092D01*
X193548Y478047D01*
X193517Y477966D01*
X193477Y477888D01*
X193469Y477840D01*
X193447Y477782D01*
X193435Y477634D01*
X193422Y477557D01*
X193422Y398743D01*
X193431Y398679D01*
X193429Y398626D01*
X193436Y398602D01*
X193437Y398569D01*
X193454Y398517D01*
X193462Y398462D01*
X193487Y398404D01*
X193501Y398351D01*
X193515Y398328D01*
X193524Y398299D01*
X193552Y398259D01*
X193578Y398202D01*
X193617Y398156D01*
X193647Y398106D01*
X193691Y398064D01*
X193719Y398025D01*
X195023Y396722D01*
X195835Y394761D01*
X195835Y392639D01*
X195023Y390678D01*
X193522Y389177D01*
X191561Y388365D01*
X189439Y388365D01*
X188476Y388764D01*
X188364Y388793D01*
X188255Y388828D01*
X188227Y388828D01*
X188200Y388835D01*
X188086Y388832D01*
X187971Y388835D01*
X187944Y388828D01*
X187916Y388827D01*
X187807Y388792D01*
X187696Y388763D01*
X187672Y388749D01*
X187645Y388740D01*
X187550Y388676D01*
X187451Y388618D01*
X187432Y388598D01*
X187409Y388582D01*
X187335Y388494D01*
X187257Y388411D01*
X187244Y388386D01*
X187226Y388365D01*
X187180Y388260D01*
X187127Y388157D01*
X187123Y388133D01*
X187111Y388105D01*
X187074Y387841D01*
X187072Y387826D01*
X187072Y349213D01*
X187084Y349127D01*
X187087Y349039D01*
X187104Y348987D01*
X187112Y348932D01*
X187147Y348852D01*
X187174Y348769D01*
X187202Y348729D01*
X187228Y348672D01*
X187324Y348559D01*
X187369Y348495D01*
X188673Y347192D01*
X189485Y345231D01*
X189485Y343109D01*
X188673Y341148D01*
X187172Y339647D01*
X185211Y338835D01*
X183089Y338835D01*
X181128Y339647D01*
X179627Y341148D01*
X178815Y343109D01*
X178815Y345231D01*
X179627Y347192D01*
X180931Y348495D01*
X180983Y348565D01*
X181043Y348629D01*
X181069Y348678D01*
X181102Y348723D01*
X181133Y348804D01*
X181173Y348882D01*
X181181Y348930D01*
X181203Y348988D01*
X181215Y349136D01*
X181228Y349213D01*
X181228Y598258D01*
X181216Y598344D01*
X181213Y598432D01*
X181196Y598484D01*
X181188Y598539D01*
X181153Y598619D01*
X181126Y598702D01*
X181098Y598742D01*
X181072Y598799D01*
X180976Y598912D01*
X180931Y598976D01*
X177268Y602638D01*
X176105Y603802D01*
X176081Y603819D01*
X176062Y603842D01*
X175968Y603904D01*
X175878Y603973D01*
X175850Y603983D01*
X175826Y603999D01*
X175718Y604033D01*
X175612Y604074D01*
X175583Y604076D01*
X175555Y604085D01*
X175441Y604088D01*
X175329Y604097D01*
X175300Y604092D01*
X175271Y604092D01*
X175161Y604064D01*
X175050Y604041D01*
X175024Y604028D01*
X174996Y604021D01*
X174898Y603963D01*
X174798Y603911D01*
X174776Y603890D01*
X174751Y603875D01*
X174674Y603793D01*
X174592Y603715D01*
X174577Y603689D01*
X174557Y603668D01*
X174505Y603567D01*
X174448Y603469D01*
X174441Y603441D01*
X174427Y603415D01*
X174414Y603338D01*
X174378Y603194D01*
X174380Y603131D01*
X174372Y603084D01*
X174372Y514313D01*
X174384Y514227D01*
X174387Y514139D01*
X174404Y514087D01*
X174412Y514032D01*
X174447Y513952D01*
X174474Y513869D01*
X174502Y513829D01*
X174528Y513772D01*
X174624Y513659D01*
X174669Y513595D01*
X175973Y512292D01*
X176785Y510331D01*
X176785Y508209D01*
X175973Y506248D01*
X174669Y504945D01*
X174617Y504875D01*
X174557Y504811D01*
X174531Y504762D01*
X174498Y504717D01*
X174467Y504636D01*
X174427Y504558D01*
X174419Y504510D01*
X174397Y504452D01*
X174385Y504304D01*
X174372Y504227D01*
X174372Y303943D01*
X174388Y303829D01*
X174398Y303715D01*
X174408Y303689D01*
X174412Y303661D01*
X174459Y303556D01*
X174500Y303449D01*
X174516Y303427D01*
X174528Y303402D01*
X174602Y303314D01*
X174671Y303223D01*
X174694Y303206D01*
X174711Y303185D01*
X174807Y303121D01*
X174899Y303052D01*
X174925Y303043D01*
X174948Y303027D01*
X175058Y302992D01*
X175165Y302952D01*
X175193Y302950D01*
X175219Y302941D01*
X175334Y302938D01*
X175448Y302929D01*
X175473Y302935D01*
X175503Y302934D01*
X175760Y303001D01*
X175776Y303005D01*
X176739Y303404D01*
X177800Y303404D01*
X177858Y303412D01*
X177916Y303410D01*
X177998Y303432D01*
X178082Y303444D01*
X178135Y303467D01*
X178191Y303482D01*
X178264Y303525D01*
X178341Y303560D01*
X178386Y303598D01*
X178436Y303627D01*
X178494Y303689D01*
X178558Y303743D01*
X178590Y303792D01*
X178630Y303835D01*
X178669Y303910D01*
X178716Y303980D01*
X178733Y304036D01*
X178760Y304088D01*
X178771Y304156D01*
X178801Y304251D01*
X178804Y304351D01*
X178815Y304419D01*
X178815Y305861D01*
X179627Y307822D01*
X181128Y309323D01*
X183089Y310135D01*
X185211Y310135D01*
X187172Y309323D01*
X188673Y307822D01*
X189485Y305861D01*
X189485Y303739D01*
X188673Y301778D01*
X187369Y300475D01*
X187317Y300405D01*
X187257Y300341D01*
X187231Y300292D01*
X187198Y300247D01*
X187167Y300166D01*
X187127Y300088D01*
X187119Y300040D01*
X187097Y299982D01*
X187085Y299834D01*
X187072Y299757D01*
X187072Y270473D01*
X187084Y270387D01*
X187087Y270299D01*
X187104Y270247D01*
X187112Y270192D01*
X187147Y270112D01*
X187174Y270029D01*
X187202Y269989D01*
X187228Y269932D01*
X187324Y269819D01*
X187369Y269755D01*
X188673Y268452D01*
X189485Y266491D01*
X189485Y264369D01*
X188673Y262408D01*
X187172Y260907D01*
X186589Y260666D01*
X186491Y260608D01*
X186389Y260555D01*
X186369Y260536D01*
X186345Y260522D01*
X186266Y260438D01*
X186183Y260359D01*
X186169Y260335D01*
X186149Y260315D01*
X186097Y260213D01*
X186039Y260114D01*
X186032Y260087D01*
X186019Y260062D01*
X185997Y259949D01*
X185969Y259838D01*
X185970Y259811D01*
X185964Y259783D01*
X185974Y259669D01*
X185978Y259554D01*
X185986Y259528D01*
X185989Y259500D01*
X186030Y259393D01*
X186065Y259284D01*
X186080Y259263D01*
X186091Y259235D01*
X186252Y259022D01*
X186260Y259010D01*
X187072Y258199D01*
X187072Y104103D01*
X187084Y104017D01*
X187087Y103929D01*
X187104Y103877D01*
X187112Y103822D01*
X187147Y103742D01*
X187174Y103659D01*
X187202Y103619D01*
X187228Y103562D01*
X187324Y103449D01*
X187369Y103385D01*
X188673Y102082D01*
X189485Y100121D01*
X189485Y97999D01*
X188673Y96038D01*
X187172Y94537D01*
X185211Y93725D01*
X183089Y93725D01*
X182126Y94124D01*
X182014Y94153D01*
X181905Y94188D01*
X181877Y94188D01*
X181850Y94195D01*
X181736Y94192D01*
X181621Y94195D01*
X181594Y94188D01*
X181566Y94187D01*
X181457Y94152D01*
X181346Y94123D01*
X181322Y94109D01*
X181295Y94100D01*
X181200Y94036D01*
X181101Y93978D01*
X181082Y93958D01*
X181059Y93942D01*
X180985Y93854D01*
X180907Y93771D01*
X180894Y93746D01*
X180876Y93725D01*
X180830Y93620D01*
X180777Y93517D01*
X180773Y93493D01*
X180761Y93465D01*
X180744Y93347D01*
X180736Y93320D01*
X180735Y93276D01*
X180724Y93201D01*
X180722Y93186D01*
X180722Y52033D01*
X180734Y51947D01*
X180737Y51859D01*
X180754Y51807D01*
X180762Y51752D01*
X180797Y51672D01*
X180824Y51589D01*
X180852Y51549D01*
X180878Y51492D01*
X180974Y51379D01*
X181019Y51315D01*
X182323Y50012D01*
X183135Y48051D01*
X183135Y45929D01*
X182323Y43968D01*
X180822Y42467D01*
X178861Y41655D01*
X176739Y41655D01*
G37*
%LPD*%
%LPC*%
G36*
X412959Y371855D02*
X412959Y371855D01*
X410998Y372667D01*
X409497Y374168D01*
X408685Y376129D01*
X408685Y378251D01*
X409497Y380212D01*
X410801Y381515D01*
X410853Y381585D01*
X410913Y381649D01*
X410939Y381698D01*
X410972Y381743D01*
X411003Y381824D01*
X411043Y381902D01*
X411051Y381950D01*
X411073Y382008D01*
X411085Y382156D01*
X411098Y382233D01*
X411098Y423386D01*
X411082Y423500D01*
X411072Y423614D01*
X411062Y423640D01*
X411058Y423668D01*
X411011Y423773D01*
X410970Y423880D01*
X410954Y423902D01*
X410942Y423927D01*
X410868Y424015D01*
X410799Y424106D01*
X410776Y424123D01*
X410759Y424144D01*
X410663Y424208D01*
X410571Y424277D01*
X410545Y424286D01*
X410522Y424302D01*
X410412Y424337D01*
X410305Y424377D01*
X410277Y424379D01*
X410251Y424388D01*
X410136Y424391D01*
X410022Y424400D01*
X409997Y424394D01*
X409967Y424395D01*
X409710Y424328D01*
X409694Y424324D01*
X408731Y423925D01*
X406467Y423925D01*
X406449Y423929D01*
X406410Y423925D01*
X406407Y423925D01*
X406403Y423925D01*
X406337Y423919D01*
X406225Y423916D01*
X406196Y423907D01*
X406166Y423904D01*
X406061Y423864D01*
X405954Y423829D01*
X405929Y423813D01*
X405901Y423802D01*
X405811Y423734D01*
X405718Y423671D01*
X405698Y423648D01*
X405674Y423630D01*
X405607Y423540D01*
X405535Y423454D01*
X405522Y423426D01*
X405504Y423402D01*
X405465Y423297D01*
X405419Y423194D01*
X405415Y423164D01*
X405404Y423136D01*
X405395Y423024D01*
X405380Y422913D01*
X405384Y422883D01*
X405382Y422853D01*
X405385Y422840D01*
X405385Y420579D01*
X404573Y418618D01*
X403072Y417117D01*
X401111Y416305D01*
X398989Y416305D01*
X397028Y417117D01*
X395527Y418618D01*
X394715Y420579D01*
X394715Y422701D01*
X395527Y424662D01*
X396831Y425965D01*
X396883Y426035D01*
X396943Y426099D01*
X396969Y426148D01*
X397002Y426193D01*
X397033Y426274D01*
X397073Y426352D01*
X397081Y426400D01*
X397103Y426458D01*
X397115Y426606D01*
X397128Y426683D01*
X397128Y598207D01*
X397116Y598293D01*
X397113Y598381D01*
X397096Y598433D01*
X397088Y598488D01*
X397053Y598568D01*
X397026Y598651D01*
X396998Y598691D01*
X396972Y598748D01*
X396876Y598861D01*
X396831Y598925D01*
X395527Y600228D01*
X394715Y602189D01*
X394715Y604311D01*
X395527Y606272D01*
X397028Y607773D01*
X398989Y608585D01*
X401111Y608585D01*
X403072Y607773D01*
X404573Y606272D01*
X405385Y604311D01*
X405385Y602189D01*
X404573Y600228D01*
X403269Y598925D01*
X403217Y598855D01*
X403157Y598791D01*
X403131Y598742D01*
X403098Y598697D01*
X403067Y598616D01*
X403027Y598538D01*
X403019Y598490D01*
X402997Y598432D01*
X402985Y598284D01*
X402972Y598207D01*
X402972Y593307D01*
X402976Y593278D01*
X402973Y593249D01*
X402996Y593138D01*
X403012Y593026D01*
X403024Y592999D01*
X403029Y592970D01*
X403082Y592869D01*
X403128Y592766D01*
X403147Y592744D01*
X403160Y592718D01*
X403238Y592636D01*
X403311Y592549D01*
X403336Y592533D01*
X403356Y592512D01*
X403454Y592454D01*
X403548Y592392D01*
X403576Y592383D01*
X403602Y592368D01*
X403711Y592340D01*
X403819Y592306D01*
X403849Y592305D01*
X403877Y592298D01*
X403990Y592302D01*
X404103Y592299D01*
X404132Y592306D01*
X404161Y592307D01*
X404269Y592342D01*
X404378Y592370D01*
X404404Y592385D01*
X404432Y592395D01*
X404496Y592440D01*
X404623Y592516D01*
X404633Y592526D01*
X406609Y593345D01*
X408731Y593345D01*
X410692Y592533D01*
X412193Y591032D01*
X413005Y589071D01*
X413005Y586949D01*
X412193Y584988D01*
X410889Y583685D01*
X410837Y583615D01*
X410777Y583551D01*
X410751Y583502D01*
X410718Y583457D01*
X410687Y583376D01*
X410647Y583298D01*
X410639Y583250D01*
X410617Y583192D01*
X410605Y583044D01*
X410592Y582967D01*
X410592Y494824D01*
X410608Y494710D01*
X410618Y494596D01*
X410628Y494570D01*
X410632Y494542D01*
X410679Y494437D01*
X410720Y494330D01*
X410736Y494308D01*
X410748Y494283D01*
X410822Y494195D01*
X410891Y494104D01*
X410914Y494087D01*
X410931Y494066D01*
X411027Y494002D01*
X411119Y493933D01*
X411145Y493924D01*
X411168Y493908D01*
X411278Y493873D01*
X411385Y493833D01*
X411413Y493831D01*
X411439Y493822D01*
X411554Y493819D01*
X411668Y493810D01*
X411693Y493816D01*
X411723Y493815D01*
X411980Y493882D01*
X411996Y493886D01*
X412959Y494285D01*
X415081Y494285D01*
X417042Y493473D01*
X418543Y491972D01*
X419355Y490011D01*
X419355Y487889D01*
X418543Y485928D01*
X417239Y484625D01*
X417186Y484555D01*
X417127Y484491D01*
X417101Y484442D01*
X417068Y484397D01*
X417037Y484316D01*
X416997Y484238D01*
X416989Y484190D01*
X416967Y484132D01*
X416955Y483984D01*
X416942Y483907D01*
X416942Y482281D01*
X416958Y482168D01*
X416968Y482053D01*
X416978Y482027D01*
X416982Y482000D01*
X417029Y481895D01*
X417070Y481788D01*
X417086Y481766D01*
X417098Y481741D01*
X417172Y481653D01*
X417241Y481561D01*
X417264Y481545D01*
X417281Y481524D01*
X417377Y481460D01*
X417469Y481391D01*
X417495Y481381D01*
X417518Y481366D01*
X417628Y481331D01*
X417735Y481291D01*
X417763Y481289D01*
X417789Y481280D01*
X417904Y481277D01*
X418018Y481268D01*
X418043Y481274D01*
X418073Y481273D01*
X418330Y481340D01*
X418346Y481344D01*
X418928Y481585D01*
X421050Y481585D01*
X423011Y480773D01*
X424512Y479272D01*
X425324Y477311D01*
X425324Y475189D01*
X424512Y473228D01*
X423208Y471925D01*
X423156Y471855D01*
X423096Y471791D01*
X423070Y471742D01*
X423037Y471697D01*
X423006Y471616D01*
X422966Y471538D01*
X422958Y471490D01*
X422936Y471432D01*
X422924Y471284D01*
X422911Y471207D01*
X422911Y469581D01*
X422927Y469468D01*
X422937Y469353D01*
X422947Y469327D01*
X422951Y469300D01*
X422998Y469195D01*
X423039Y469088D01*
X423055Y469066D01*
X423067Y469041D01*
X423141Y468953D01*
X423210Y468861D01*
X423233Y468845D01*
X423250Y468824D01*
X423346Y468760D01*
X423438Y468691D01*
X423464Y468681D01*
X423487Y468666D01*
X423597Y468631D01*
X423704Y468591D01*
X423732Y468589D01*
X423758Y468580D01*
X423873Y468577D01*
X423987Y468568D01*
X424012Y468574D01*
X424042Y468573D01*
X424299Y468640D01*
X424315Y468644D01*
X424897Y468885D01*
X427019Y468885D01*
X427601Y468644D01*
X427713Y468615D01*
X427822Y468580D01*
X427850Y468579D01*
X427877Y468573D01*
X427991Y468576D01*
X428106Y468573D01*
X428133Y468580D01*
X428161Y468581D01*
X428270Y468616D01*
X428381Y468645D01*
X428405Y468659D01*
X428432Y468667D01*
X428527Y468731D01*
X428626Y468790D01*
X428645Y468810D01*
X428668Y468826D01*
X428742Y468913D01*
X428820Y468997D01*
X428833Y469022D01*
X428851Y469043D01*
X428897Y469148D01*
X428950Y469250D01*
X428954Y469275D01*
X428966Y469303D01*
X429003Y469566D01*
X429005Y469581D01*
X429005Y501162D01*
X428993Y501249D01*
X428990Y501336D01*
X428973Y501389D01*
X428965Y501444D01*
X428930Y501524D01*
X428903Y501607D01*
X428875Y501646D01*
X428849Y501703D01*
X428753Y501816D01*
X428708Y501880D01*
X428220Y502368D01*
X428150Y502420D01*
X428086Y502480D01*
X428037Y502506D01*
X427993Y502539D01*
X427911Y502570D01*
X427833Y502610D01*
X427786Y502618D01*
X427727Y502640D01*
X427580Y502652D01*
X427502Y502665D01*
X425659Y502665D01*
X423698Y503477D01*
X422197Y504978D01*
X421385Y506939D01*
X421385Y509061D01*
X422197Y511022D01*
X423698Y512523D01*
X425659Y513335D01*
X427781Y513335D01*
X429742Y512523D01*
X431243Y511022D01*
X432055Y509061D01*
X432055Y507218D01*
X432067Y507131D01*
X432070Y507044D01*
X432087Y506991D01*
X432095Y506936D01*
X432130Y506856D01*
X432157Y506773D01*
X432185Y506734D01*
X432211Y506677D01*
X432307Y506564D01*
X432352Y506500D01*
X434849Y504003D01*
X434849Y393536D01*
X434861Y393450D01*
X434864Y393362D01*
X434881Y393310D01*
X434889Y393255D01*
X434924Y393175D01*
X434951Y393092D01*
X434979Y393052D01*
X435005Y392995D01*
X435101Y392882D01*
X435146Y392818D01*
X436323Y391642D01*
X437135Y389681D01*
X437135Y387559D01*
X436323Y385598D01*
X434822Y384097D01*
X432861Y383285D01*
X430739Y383285D01*
X428778Y384097D01*
X427277Y385598D01*
X426832Y386672D01*
X426818Y386698D01*
X426809Y386726D01*
X426745Y386820D01*
X426688Y386917D01*
X426667Y386937D01*
X426650Y386962D01*
X426563Y387035D01*
X426481Y387112D01*
X426455Y387126D01*
X426433Y387145D01*
X426329Y387191D01*
X426229Y387243D01*
X426200Y387248D01*
X426173Y387260D01*
X426061Y387276D01*
X425950Y387298D01*
X425920Y387295D01*
X425891Y387299D01*
X425779Y387283D01*
X425666Y387273D01*
X425639Y387263D01*
X425610Y387258D01*
X425507Y387212D01*
X425401Y387171D01*
X425378Y387153D01*
X425351Y387141D01*
X425265Y387068D01*
X425174Y387000D01*
X425157Y386976D01*
X425134Y386957D01*
X425093Y386891D01*
X425004Y386772D01*
X424982Y386713D01*
X424957Y386672D01*
X424512Y385598D01*
X423011Y384097D01*
X421050Y383285D01*
X418928Y383285D01*
X418346Y383526D01*
X418234Y383555D01*
X418125Y383590D01*
X418097Y383591D01*
X418070Y383597D01*
X417956Y383594D01*
X417841Y383597D01*
X417814Y383590D01*
X417786Y383589D01*
X417677Y383554D01*
X417566Y383525D01*
X417542Y383511D01*
X417515Y383503D01*
X417420Y383439D01*
X417321Y383380D01*
X417302Y383360D01*
X417279Y383344D01*
X417205Y383257D01*
X417127Y383173D01*
X417114Y383148D01*
X417096Y383127D01*
X417050Y383022D01*
X416997Y382920D01*
X416993Y382895D01*
X416981Y382867D01*
X416944Y382603D01*
X416942Y382589D01*
X416942Y382233D01*
X416954Y382147D01*
X416957Y382059D01*
X416974Y382007D01*
X416982Y381952D01*
X417017Y381872D01*
X417044Y381789D01*
X417072Y381749D01*
X417098Y381692D01*
X417194Y381579D01*
X417239Y381515D01*
X418543Y380212D01*
X419355Y378251D01*
X419355Y376129D01*
X418543Y374168D01*
X417042Y372667D01*
X415081Y371855D01*
X412959Y371855D01*
G37*
%LPD*%
%LPC*%
G36*
X437089Y545845D02*
X437089Y545845D01*
X435128Y546657D01*
X433627Y548158D01*
X432815Y550119D01*
X432815Y552241D01*
X433627Y554202D01*
X433661Y554235D01*
X433713Y554305D01*
X433773Y554369D01*
X433799Y554418D01*
X433832Y554463D01*
X433863Y554544D01*
X433903Y554622D01*
X433911Y554670D01*
X433933Y554728D01*
X433945Y554876D01*
X433958Y554953D01*
X433958Y712507D01*
X433951Y712557D01*
X433952Y712571D01*
X433946Y712591D01*
X433946Y712593D01*
X433943Y712681D01*
X433926Y712733D01*
X433918Y712788D01*
X433883Y712868D01*
X433856Y712951D01*
X433828Y712991D01*
X433802Y713048D01*
X433706Y713161D01*
X433661Y713225D01*
X432357Y714528D01*
X431868Y715709D01*
X431810Y715808D01*
X431757Y715910D01*
X431738Y715930D01*
X431724Y715954D01*
X431640Y716033D01*
X431561Y716116D01*
X431537Y716130D01*
X431517Y716149D01*
X431415Y716201D01*
X431316Y716259D01*
X431289Y716266D01*
X431265Y716279D01*
X431152Y716301D01*
X431041Y716329D01*
X431013Y716329D01*
X430986Y716334D01*
X430871Y716324D01*
X430756Y716320D01*
X430730Y716312D01*
X430702Y716310D01*
X430595Y716268D01*
X430486Y716233D01*
X430466Y716218D01*
X430437Y716208D01*
X430225Y716047D01*
X430213Y716038D01*
X429742Y715567D01*
X427781Y714755D01*
X425659Y714755D01*
X423670Y715579D01*
X423618Y715613D01*
X423528Y715681D01*
X423500Y715692D01*
X423476Y715708D01*
X423368Y715742D01*
X423262Y715783D01*
X423233Y715785D01*
X423205Y715794D01*
X423092Y715797D01*
X422979Y715806D01*
X422950Y715801D01*
X422921Y715801D01*
X422811Y715773D01*
X422700Y715751D01*
X422674Y715737D01*
X422646Y715730D01*
X422549Y715672D01*
X422448Y715620D01*
X422426Y715599D01*
X422401Y715584D01*
X422324Y715502D01*
X422242Y715424D01*
X422227Y715398D01*
X422207Y715377D01*
X422155Y715276D01*
X422098Y715179D01*
X422091Y715150D01*
X422077Y715124D01*
X422064Y715047D01*
X422028Y714903D01*
X422030Y714840D01*
X422022Y714793D01*
X422022Y646393D01*
X422034Y646307D01*
X422037Y646219D01*
X422054Y646167D01*
X422062Y646112D01*
X422097Y646032D01*
X422124Y645949D01*
X422152Y645909D01*
X422178Y645852D01*
X422274Y645739D01*
X422319Y645675D01*
X423623Y644372D01*
X424435Y642411D01*
X424435Y640289D01*
X423623Y638328D01*
X422122Y636827D01*
X420161Y636015D01*
X418039Y636015D01*
X416078Y636827D01*
X414577Y638328D01*
X413765Y640289D01*
X413765Y642411D01*
X414577Y644372D01*
X415881Y645675D01*
X415933Y645745D01*
X415993Y645809D01*
X416019Y645858D01*
X416052Y645903D01*
X416083Y645984D01*
X416123Y646062D01*
X416131Y646110D01*
X416153Y646168D01*
X416163Y646292D01*
X416164Y646295D01*
X416165Y646308D01*
X416165Y646316D01*
X416178Y646393D01*
X416178Y647483D01*
X416174Y647512D01*
X416177Y647541D01*
X416171Y647569D01*
X416172Y647595D01*
X416152Y647671D01*
X416138Y647764D01*
X416126Y647791D01*
X416121Y647820D01*
X416105Y647850D01*
X416100Y647870D01*
X416065Y647929D01*
X416022Y648024D01*
X416003Y648046D01*
X415990Y648072D01*
X415963Y648101D01*
X415955Y648114D01*
X415911Y648155D01*
X415839Y648241D01*
X415814Y648257D01*
X415794Y648278D01*
X415756Y648300D01*
X415747Y648309D01*
X415704Y648331D01*
X415696Y648336D01*
X415602Y648398D01*
X415574Y648407D01*
X415548Y648422D01*
X415503Y648434D01*
X415494Y648438D01*
X415467Y648443D01*
X415439Y648450D01*
X415331Y648484D01*
X415301Y648485D01*
X415273Y648492D01*
X415189Y648489D01*
X415163Y648494D01*
X415159Y648494D01*
X415127Y648489D01*
X415047Y648491D01*
X415018Y648484D01*
X414989Y648483D01*
X414916Y648459D01*
X414877Y648454D01*
X414841Y648438D01*
X414772Y648420D01*
X414746Y648405D01*
X414718Y648395D01*
X414670Y648361D01*
X414618Y648338D01*
X414580Y648306D01*
X414527Y648274D01*
X414517Y648264D01*
X412541Y647445D01*
X410419Y647445D01*
X408458Y648257D01*
X406957Y649758D01*
X406145Y651719D01*
X406145Y653841D01*
X406957Y655802D01*
X408261Y657105D01*
X408313Y657175D01*
X408373Y657239D01*
X408399Y657288D01*
X408432Y657333D01*
X408463Y657414D01*
X408503Y657492D01*
X408511Y657540D01*
X408533Y657598D01*
X408545Y657746D01*
X408558Y657823D01*
X408558Y850157D01*
X408558Y850158D01*
X408558Y850160D01*
X408538Y850303D01*
X408518Y850438D01*
X408518Y850440D01*
X408518Y850441D01*
X408460Y850568D01*
X408402Y850698D01*
X408401Y850699D01*
X408400Y850701D01*
X408309Y850807D01*
X408219Y850915D01*
X408217Y850916D01*
X408216Y850917D01*
X408202Y850926D01*
X408101Y850993D01*
X406547Y852547D01*
X405735Y854508D01*
X405735Y856630D01*
X406547Y858591D01*
X408047Y860092D01*
X410008Y860904D01*
X412130Y860904D01*
X414091Y860092D01*
X414445Y859738D01*
X414469Y859720D01*
X414488Y859698D01*
X414582Y859635D01*
X414672Y859567D01*
X414700Y859556D01*
X414724Y859540D01*
X414832Y859506D01*
X414938Y859466D01*
X414967Y859463D01*
X414995Y859454D01*
X415108Y859452D01*
X415221Y859442D01*
X415250Y859448D01*
X415279Y859447D01*
X415389Y859476D01*
X415500Y859498D01*
X415526Y859512D01*
X415554Y859519D01*
X415652Y859577D01*
X415752Y859629D01*
X415774Y859649D01*
X415799Y859664D01*
X415876Y859747D01*
X415958Y859825D01*
X415973Y859850D01*
X415993Y859872D01*
X416045Y859972D01*
X416102Y860070D01*
X416109Y860099D01*
X416123Y860125D01*
X416136Y860202D01*
X416172Y860346D01*
X416170Y860408D01*
X416178Y860456D01*
X416178Y883957D01*
X416166Y884043D01*
X416163Y884131D01*
X416146Y884183D01*
X416138Y884238D01*
X416103Y884318D01*
X416076Y884401D01*
X416048Y884441D01*
X416022Y884498D01*
X415926Y884611D01*
X415881Y884675D01*
X414577Y885978D01*
X413765Y887939D01*
X413765Y890061D01*
X414577Y892022D01*
X416078Y893523D01*
X418039Y894335D01*
X420161Y894335D01*
X422122Y893523D01*
X423623Y892022D01*
X424435Y890061D01*
X424435Y887939D01*
X423623Y885978D01*
X422319Y884675D01*
X422267Y884605D01*
X422207Y884541D01*
X422181Y884492D01*
X422148Y884447D01*
X422117Y884366D01*
X422077Y884288D01*
X422069Y884240D01*
X422047Y884182D01*
X422035Y884034D01*
X422022Y883957D01*
X422022Y773647D01*
X422026Y773618D01*
X422023Y773589D01*
X422046Y773478D01*
X422062Y773366D01*
X422074Y773339D01*
X422079Y773310D01*
X422132Y773209D01*
X422178Y773106D01*
X422197Y773084D01*
X422210Y773058D01*
X422288Y772976D01*
X422361Y772889D01*
X422386Y772873D01*
X422406Y772852D01*
X422504Y772794D01*
X422598Y772732D01*
X422626Y772723D01*
X422652Y772708D01*
X422761Y772680D01*
X422869Y772646D01*
X422899Y772645D01*
X422927Y772638D01*
X423040Y772642D01*
X423153Y772639D01*
X423182Y772646D01*
X423211Y772647D01*
X423319Y772682D01*
X423428Y772710D01*
X423454Y772725D01*
X423482Y772735D01*
X423546Y772780D01*
X423673Y772856D01*
X423683Y772866D01*
X425659Y773685D01*
X427781Y773685D01*
X429742Y772873D01*
X431243Y771372D01*
X432055Y769411D01*
X432055Y767289D01*
X431243Y765328D01*
X429939Y764025D01*
X429887Y763955D01*
X429827Y763891D01*
X429801Y763842D01*
X429768Y763797D01*
X429737Y763716D01*
X429697Y763638D01*
X429689Y763590D01*
X429667Y763532D01*
X429655Y763384D01*
X429642Y763307D01*
X429642Y760947D01*
X429646Y760918D01*
X429643Y760889D01*
X429666Y760778D01*
X429682Y760666D01*
X429694Y760639D01*
X429699Y760610D01*
X429752Y760509D01*
X429798Y760406D01*
X429817Y760384D01*
X429830Y760358D01*
X429908Y760276D01*
X429981Y760189D01*
X430006Y760173D01*
X430026Y760152D01*
X430124Y760094D01*
X430218Y760032D01*
X430246Y760023D01*
X430272Y760008D01*
X430381Y759980D01*
X430489Y759946D01*
X430519Y759945D01*
X430547Y759938D01*
X430660Y759942D01*
X430773Y759939D01*
X430802Y759946D01*
X430831Y759947D01*
X430939Y759982D01*
X431048Y760010D01*
X431074Y760025D01*
X431102Y760035D01*
X431166Y760080D01*
X431293Y760156D01*
X431303Y760166D01*
X433279Y760985D01*
X435401Y760985D01*
X437362Y760173D01*
X438863Y758672D01*
X439675Y756711D01*
X439675Y754589D01*
X438863Y752628D01*
X437559Y751325D01*
X437507Y751255D01*
X437447Y751191D01*
X437421Y751142D01*
X437388Y751097D01*
X437357Y751016D01*
X437317Y750938D01*
X437309Y750890D01*
X437287Y750832D01*
X437275Y750684D01*
X437262Y750607D01*
X437262Y734023D01*
X437274Y733937D01*
X437277Y733849D01*
X437294Y733797D01*
X437302Y733742D01*
X437337Y733662D01*
X437364Y733579D01*
X437392Y733539D01*
X437418Y733482D01*
X437514Y733369D01*
X437559Y733305D01*
X438863Y732002D01*
X439675Y730041D01*
X439675Y727919D01*
X438863Y725958D01*
X437494Y724589D01*
X437425Y724498D01*
X437351Y724410D01*
X437340Y724384D01*
X437323Y724362D01*
X437282Y724255D01*
X437235Y724150D01*
X437232Y724122D01*
X437222Y724097D01*
X437212Y723982D01*
X437197Y723868D01*
X437200Y723841D01*
X437198Y723813D01*
X437221Y723701D01*
X437237Y723587D01*
X437249Y723562D01*
X437254Y723535D01*
X437307Y723433D01*
X437354Y723328D01*
X437372Y723307D01*
X437385Y723282D01*
X437464Y723199D01*
X437539Y723112D01*
X437560Y723098D01*
X437581Y723076D01*
X437811Y722941D01*
X437823Y722934D01*
X439902Y722073D01*
X441403Y720572D01*
X442215Y718611D01*
X442215Y716489D01*
X441403Y714528D01*
X440099Y713225D01*
X440047Y713155D01*
X439987Y713091D01*
X439961Y713042D01*
X439928Y712997D01*
X439897Y712916D01*
X439857Y712838D01*
X439849Y712790D01*
X439827Y712732D01*
X439819Y712632D01*
X439816Y712622D01*
X439815Y712584D01*
X439802Y712507D01*
X439802Y556948D01*
X439802Y556947D01*
X439802Y556945D01*
X439822Y556805D01*
X439842Y556667D01*
X439842Y556666D01*
X439842Y556664D01*
X439899Y556538D01*
X439958Y556408D01*
X439959Y556406D01*
X439960Y556405D01*
X440051Y556298D01*
X440141Y556191D01*
X440143Y556190D01*
X440144Y556188D01*
X440157Y556180D01*
X440378Y556033D01*
X440407Y556024D01*
X440428Y556011D01*
X441172Y555703D01*
X442673Y554202D01*
X443485Y552241D01*
X443485Y550119D01*
X442673Y548158D01*
X441172Y546657D01*
X439211Y545845D01*
X437089Y545845D01*
G37*
%LPD*%
%LPC*%
G36*
X132289Y95884D02*
X132289Y95884D01*
X130328Y96696D01*
X128827Y98197D01*
X128015Y100158D01*
X128015Y102280D01*
X128827Y104241D01*
X130131Y105544D01*
X130183Y105614D01*
X130243Y105678D01*
X130269Y105727D01*
X130302Y105772D01*
X130333Y105853D01*
X130373Y105931D01*
X130381Y105979D01*
X130403Y106037D01*
X130415Y106185D01*
X130428Y106262D01*
X130428Y452157D01*
X130416Y452243D01*
X130413Y452331D01*
X130396Y452383D01*
X130388Y452438D01*
X130353Y452518D01*
X130326Y452601D01*
X130298Y452641D01*
X130272Y452698D01*
X130176Y452811D01*
X130131Y452875D01*
X128827Y454178D01*
X128015Y456139D01*
X128015Y458261D01*
X128827Y460222D01*
X130131Y461525D01*
X130183Y461595D01*
X130243Y461659D01*
X130269Y461708D01*
X130302Y461753D01*
X130333Y461834D01*
X130373Y461912D01*
X130381Y461960D01*
X130403Y462018D01*
X130415Y462166D01*
X130428Y462243D01*
X130428Y820457D01*
X130416Y820543D01*
X130413Y820631D01*
X130396Y820683D01*
X130388Y820738D01*
X130353Y820818D01*
X130326Y820901D01*
X130298Y820941D01*
X130272Y820998D01*
X130176Y821111D01*
X130131Y821175D01*
X128827Y822478D01*
X128015Y824439D01*
X128015Y826561D01*
X128827Y828522D01*
X130131Y829825D01*
X130183Y829895D01*
X130243Y829959D01*
X130269Y830008D01*
X130302Y830053D01*
X130333Y830134D01*
X130373Y830212D01*
X130381Y830260D01*
X130403Y830318D01*
X130415Y830466D01*
X130428Y830543D01*
X130428Y900467D01*
X130416Y900553D01*
X130413Y900641D01*
X130396Y900693D01*
X130388Y900748D01*
X130353Y900828D01*
X130326Y900911D01*
X130298Y900951D01*
X130272Y901008D01*
X130176Y901121D01*
X130131Y901185D01*
X128827Y902488D01*
X128015Y904449D01*
X128015Y906571D01*
X128827Y908532D01*
X130328Y910033D01*
X132289Y910845D01*
X134411Y910845D01*
X136372Y910033D01*
X137873Y908532D01*
X138685Y906571D01*
X138685Y904449D01*
X137873Y902488D01*
X136569Y901185D01*
X136517Y901115D01*
X136457Y901051D01*
X136431Y901002D01*
X136398Y900957D01*
X136367Y900876D01*
X136327Y900798D01*
X136319Y900750D01*
X136297Y900692D01*
X136285Y900544D01*
X136272Y900467D01*
X136272Y830543D01*
X136284Y830457D01*
X136287Y830369D01*
X136304Y830317D01*
X136312Y830262D01*
X136347Y830182D01*
X136374Y830099D01*
X136402Y830059D01*
X136428Y830002D01*
X136524Y829889D01*
X136569Y829825D01*
X137873Y828522D01*
X138685Y826561D01*
X138685Y824439D01*
X137873Y822478D01*
X136569Y821175D01*
X136517Y821105D01*
X136457Y821041D01*
X136431Y820992D01*
X136398Y820947D01*
X136367Y820866D01*
X136327Y820788D01*
X136319Y820740D01*
X136297Y820682D01*
X136285Y820534D01*
X136272Y820457D01*
X136272Y462243D01*
X136284Y462157D01*
X136287Y462069D01*
X136304Y462017D01*
X136312Y461962D01*
X136347Y461882D01*
X136374Y461799D01*
X136402Y461759D01*
X136428Y461702D01*
X136524Y461589D01*
X136569Y461525D01*
X137873Y460222D01*
X138685Y458261D01*
X138685Y456139D01*
X137873Y454178D01*
X136569Y452875D01*
X136517Y452805D01*
X136457Y452741D01*
X136431Y452692D01*
X136398Y452647D01*
X136367Y452566D01*
X136327Y452488D01*
X136319Y452440D01*
X136297Y452382D01*
X136285Y452234D01*
X136272Y452157D01*
X136272Y106262D01*
X136284Y106176D01*
X136287Y106088D01*
X136304Y106036D01*
X136312Y105981D01*
X136347Y105901D01*
X136374Y105818D01*
X136402Y105778D01*
X136428Y105721D01*
X136524Y105608D01*
X136569Y105544D01*
X137873Y104241D01*
X138685Y102280D01*
X138685Y100158D01*
X137873Y98197D01*
X136372Y96696D01*
X134411Y95884D01*
X132289Y95884D01*
G37*
%LPD*%
G36*
X104071Y444890D02*
X104071Y444890D01*
X104129Y444888D01*
X104211Y444910D01*
X104295Y444922D01*
X104348Y444945D01*
X104404Y444960D01*
X104477Y445003D01*
X104554Y445038D01*
X104599Y445076D01*
X104649Y445105D01*
X104707Y445167D01*
X104771Y445221D01*
X104803Y445270D01*
X104843Y445313D01*
X104882Y445388D01*
X104929Y445458D01*
X104946Y445514D01*
X104973Y445566D01*
X104984Y445634D01*
X105014Y445729D01*
X105017Y445829D01*
X105028Y445897D01*
X105028Y570706D01*
X105012Y570820D01*
X105002Y570934D01*
X104992Y570960D01*
X104988Y570988D01*
X104941Y571093D01*
X104900Y571200D01*
X104884Y571222D01*
X104872Y571247D01*
X104798Y571335D01*
X104729Y571426D01*
X104706Y571443D01*
X104689Y571464D01*
X104593Y571528D01*
X104501Y571597D01*
X104475Y571606D01*
X104452Y571622D01*
X104342Y571657D01*
X104235Y571697D01*
X104207Y571699D01*
X104181Y571708D01*
X104066Y571711D01*
X103952Y571720D01*
X103927Y571714D01*
X103897Y571715D01*
X103640Y571648D01*
X103624Y571644D01*
X102661Y571245D01*
X100539Y571245D01*
X99195Y571802D01*
X99083Y571831D01*
X98974Y571865D01*
X98946Y571866D01*
X98919Y571873D01*
X98805Y571870D01*
X98690Y571873D01*
X98663Y571866D01*
X98635Y571865D01*
X98526Y571830D01*
X98415Y571801D01*
X98391Y571787D01*
X98364Y571778D01*
X98269Y571714D01*
X98170Y571656D01*
X98151Y571636D01*
X98128Y571620D01*
X98054Y571532D01*
X97976Y571448D01*
X97963Y571424D01*
X97945Y571402D01*
X97899Y571298D01*
X97846Y571195D01*
X97842Y571171D01*
X97830Y571143D01*
X97793Y570879D01*
X97791Y570864D01*
X97791Y448310D01*
X97799Y448252D01*
X97797Y448194D01*
X97819Y448112D01*
X97831Y448028D01*
X97854Y447975D01*
X97869Y447919D01*
X97912Y447846D01*
X97947Y447769D01*
X97985Y447724D01*
X98014Y447674D01*
X98076Y447616D01*
X98130Y447552D01*
X98179Y447520D01*
X98222Y447480D01*
X98297Y447441D01*
X98367Y447394D01*
X98423Y447377D01*
X98475Y447350D01*
X98543Y447339D01*
X98638Y447309D01*
X98738Y447306D01*
X98806Y447295D01*
X98851Y447295D01*
X100812Y446483D01*
X102115Y445179D01*
X102185Y445127D01*
X102249Y445067D01*
X102298Y445041D01*
X102343Y445008D01*
X102424Y444977D01*
X102502Y444937D01*
X102550Y444929D01*
X102608Y444907D01*
X102756Y444895D01*
X102833Y444882D01*
X104013Y444882D01*
X104071Y444890D01*
G37*
%LPC*%
G36*
X26879Y363246D02*
X26879Y363246D01*
X24918Y364058D01*
X23417Y365559D01*
X22605Y367520D01*
X22605Y369642D01*
X23417Y371603D01*
X24721Y372906D01*
X24773Y372976D01*
X24833Y373040D01*
X24859Y373089D01*
X24892Y373134D01*
X24923Y373215D01*
X24963Y373293D01*
X24971Y373341D01*
X24993Y373399D01*
X25005Y373547D01*
X25018Y373624D01*
X25018Y482655D01*
X25018Y482657D01*
X25018Y482659D01*
X24998Y482799D01*
X24978Y482937D01*
X24978Y482938D01*
X24978Y482940D01*
X24921Y483066D01*
X24862Y483196D01*
X24861Y483198D01*
X24860Y483199D01*
X24769Y483306D01*
X24679Y483413D01*
X24677Y483414D01*
X24676Y483415D01*
X24663Y483424D01*
X24442Y483571D01*
X24413Y483580D01*
X24392Y483593D01*
X22378Y484427D01*
X20877Y485928D01*
X20065Y487889D01*
X20065Y490011D01*
X20877Y491972D01*
X22378Y493473D01*
X24339Y494285D01*
X26461Y494285D01*
X28422Y493473D01*
X29923Y491972D01*
X30735Y490011D01*
X30735Y488168D01*
X30747Y488081D01*
X30750Y487994D01*
X30767Y487941D01*
X30775Y487886D01*
X30810Y487806D01*
X30837Y487723D01*
X30862Y487689D01*
X30862Y373624D01*
X30874Y373538D01*
X30877Y373450D01*
X30894Y373398D01*
X30902Y373343D01*
X30937Y373263D01*
X30964Y373180D01*
X30992Y373140D01*
X31018Y373083D01*
X31114Y372970D01*
X31159Y372906D01*
X32463Y371603D01*
X33275Y369642D01*
X33275Y367520D01*
X32463Y365559D01*
X30962Y364058D01*
X29001Y363246D01*
X26879Y363246D01*
G37*
%LPD*%
%LPC*%
G36*
X313899Y362965D02*
X313899Y362965D01*
X311938Y363777D01*
X310437Y365278D01*
X309625Y367239D01*
X309625Y369082D01*
X309613Y369169D01*
X309610Y369256D01*
X309593Y369309D01*
X309585Y369364D01*
X309550Y369444D01*
X309523Y369527D01*
X309495Y369566D01*
X309469Y369623D01*
X309373Y369736D01*
X309328Y369800D01*
X308228Y370900D01*
X308228Y481367D01*
X308216Y481453D01*
X308213Y481541D01*
X308196Y481593D01*
X308188Y481648D01*
X308153Y481728D01*
X308126Y481811D01*
X308098Y481851D01*
X308072Y481908D01*
X307976Y482021D01*
X307931Y482085D01*
X306627Y483388D01*
X305815Y485349D01*
X305815Y487471D01*
X306627Y489432D01*
X308128Y490933D01*
X310089Y491745D01*
X312211Y491745D01*
X314172Y490933D01*
X315673Y489432D01*
X316485Y487471D01*
X316485Y485349D01*
X315673Y483388D01*
X314369Y482085D01*
X314317Y482015D01*
X314257Y481951D01*
X314231Y481902D01*
X314198Y481857D01*
X314167Y481776D01*
X314127Y481698D01*
X314119Y481650D01*
X314097Y481592D01*
X314085Y481444D01*
X314072Y481367D01*
X314072Y374650D01*
X314080Y374592D01*
X314078Y374534D01*
X314100Y374452D01*
X314112Y374368D01*
X314135Y374315D01*
X314150Y374259D01*
X314193Y374186D01*
X314228Y374109D01*
X314266Y374064D01*
X314295Y374014D01*
X314357Y373956D01*
X314411Y373892D01*
X314460Y373860D01*
X314503Y373820D01*
X314578Y373781D01*
X314648Y373734D01*
X314704Y373717D01*
X314756Y373690D01*
X314824Y373679D01*
X314919Y373649D01*
X315019Y373646D01*
X315087Y373635D01*
X316021Y373635D01*
X317982Y372823D01*
X319483Y371322D01*
X320295Y369361D01*
X320295Y367239D01*
X319483Y365278D01*
X317982Y363777D01*
X316021Y362965D01*
X313899Y362965D01*
G37*
%LPD*%
%LPC*%
G36*
X157689Y385855D02*
X157689Y385855D01*
X155728Y386667D01*
X154227Y388168D01*
X153415Y390129D01*
X153415Y392251D01*
X154227Y394212D01*
X155531Y395515D01*
X155583Y395585D01*
X155643Y395649D01*
X155669Y395698D01*
X155702Y395743D01*
X155733Y395824D01*
X155773Y395902D01*
X155781Y395950D01*
X155803Y396008D01*
X155815Y396156D01*
X155828Y396233D01*
X155828Y480097D01*
X155816Y480183D01*
X155813Y480271D01*
X155796Y480324D01*
X155788Y480378D01*
X155753Y480458D01*
X155726Y480541D01*
X155698Y480581D01*
X155672Y480638D01*
X155576Y480751D01*
X155531Y480815D01*
X154227Y482118D01*
X153415Y484079D01*
X153415Y486201D01*
X154227Y488162D01*
X155728Y489663D01*
X157689Y490475D01*
X159811Y490475D01*
X161772Y489663D01*
X163273Y488162D01*
X164085Y486201D01*
X164085Y484079D01*
X163273Y482118D01*
X161969Y480815D01*
X161917Y480745D01*
X161857Y480681D01*
X161831Y480632D01*
X161798Y480587D01*
X161767Y480506D01*
X161727Y480428D01*
X161719Y480380D01*
X161697Y480322D01*
X161685Y480174D01*
X161672Y480097D01*
X161672Y396233D01*
X161684Y396147D01*
X161687Y396059D01*
X161704Y396007D01*
X161712Y395952D01*
X161747Y395872D01*
X161774Y395789D01*
X161802Y395749D01*
X161828Y395692D01*
X161924Y395579D01*
X161969Y395515D01*
X163273Y394212D01*
X164085Y392251D01*
X164085Y390129D01*
X163273Y388168D01*
X161772Y386667D01*
X159811Y385855D01*
X157689Y385855D01*
G37*
%LPD*%
%LPC*%
G36*
X143719Y395985D02*
X143719Y395985D01*
X141758Y396797D01*
X140257Y398298D01*
X139445Y400259D01*
X139445Y402381D01*
X140257Y404342D01*
X141561Y405645D01*
X141613Y405715D01*
X141673Y405779D01*
X141699Y405828D01*
X141732Y405873D01*
X141763Y405954D01*
X141803Y406032D01*
X141811Y406080D01*
X141833Y406138D01*
X141845Y406286D01*
X141858Y406363D01*
X141858Y481367D01*
X141846Y481453D01*
X141843Y481541D01*
X141826Y481593D01*
X141818Y481648D01*
X141783Y481728D01*
X141756Y481811D01*
X141728Y481851D01*
X141702Y481908D01*
X141606Y482021D01*
X141561Y482085D01*
X141527Y482118D01*
X140715Y484079D01*
X140715Y486201D01*
X141527Y488162D01*
X143028Y489663D01*
X144989Y490475D01*
X147111Y490475D01*
X149072Y489663D01*
X150573Y488162D01*
X151385Y486201D01*
X151385Y484079D01*
X150573Y482118D01*
X149072Y480617D01*
X148328Y480309D01*
X148327Y480309D01*
X148326Y480308D01*
X148207Y480238D01*
X148084Y480165D01*
X148083Y480164D01*
X148081Y480163D01*
X147984Y480059D01*
X147888Y479958D01*
X147888Y479957D01*
X147887Y479956D01*
X147822Y479830D01*
X147758Y479706D01*
X147758Y479704D01*
X147757Y479703D01*
X147755Y479687D01*
X147703Y479427D01*
X147706Y479396D01*
X147702Y479372D01*
X147702Y406363D01*
X147714Y406277D01*
X147717Y406189D01*
X147734Y406137D01*
X147742Y406082D01*
X147777Y406002D01*
X147804Y405919D01*
X147832Y405879D01*
X147858Y405822D01*
X147954Y405709D01*
X147999Y405645D01*
X149303Y404342D01*
X150115Y402381D01*
X150115Y400259D01*
X149303Y398298D01*
X147802Y396797D01*
X145841Y395985D01*
X143719Y395985D01*
G37*
%LPD*%
%LPC*%
G36*
X82759Y41655D02*
X82759Y41655D01*
X80798Y42467D01*
X79297Y43968D01*
X78485Y45929D01*
X78485Y48051D01*
X79297Y50012D01*
X80601Y51315D01*
X80653Y51385D01*
X80713Y51449D01*
X80739Y51498D01*
X80772Y51543D01*
X80803Y51624D01*
X80843Y51702D01*
X80851Y51750D01*
X80873Y51808D01*
X80885Y51956D01*
X80898Y52033D01*
X80898Y101637D01*
X80886Y101723D01*
X80883Y101811D01*
X80866Y101863D01*
X80858Y101918D01*
X80823Y101998D01*
X80796Y102081D01*
X80768Y102121D01*
X80742Y102178D01*
X80646Y102291D01*
X80601Y102355D01*
X79297Y103658D01*
X78485Y105619D01*
X78485Y107741D01*
X79297Y109702D01*
X80798Y111203D01*
X82759Y112015D01*
X84881Y112015D01*
X86842Y111203D01*
X88343Y109702D01*
X89155Y107741D01*
X89155Y105619D01*
X88343Y103658D01*
X87039Y102355D01*
X86987Y102285D01*
X86927Y102221D01*
X86901Y102172D01*
X86868Y102127D01*
X86837Y102046D01*
X86797Y101968D01*
X86789Y101920D01*
X86767Y101862D01*
X86755Y101714D01*
X86742Y101637D01*
X86742Y52033D01*
X86754Y51947D01*
X86757Y51859D01*
X86774Y51807D01*
X86782Y51752D01*
X86817Y51672D01*
X86844Y51589D01*
X86872Y51549D01*
X86898Y51492D01*
X86994Y51379D01*
X87039Y51315D01*
X88343Y50012D01*
X89155Y48051D01*
X89155Y45929D01*
X88343Y43968D01*
X86842Y42467D01*
X84881Y41655D01*
X82759Y41655D01*
G37*
%LPD*%
%LPC*%
G36*
X271989Y956055D02*
X271989Y956055D01*
X270028Y956867D01*
X268527Y958368D01*
X267715Y960329D01*
X267715Y962451D01*
X268527Y964412D01*
X269831Y965715D01*
X269883Y965785D01*
X269943Y965849D01*
X269969Y965898D01*
X270002Y965943D01*
X270033Y966024D01*
X270073Y966102D01*
X270081Y966150D01*
X270103Y966208D01*
X270115Y966356D01*
X270128Y966433D01*
X270128Y991907D01*
X270116Y991993D01*
X270113Y992081D01*
X270096Y992133D01*
X270088Y992188D01*
X270053Y992268D01*
X270026Y992351D01*
X269998Y992391D01*
X269972Y992448D01*
X269876Y992561D01*
X269831Y992625D01*
X268527Y993928D01*
X267715Y995889D01*
X267715Y998011D01*
X268527Y999972D01*
X270028Y1001473D01*
X271989Y1002285D01*
X274111Y1002285D01*
X276072Y1001473D01*
X277573Y999972D01*
X278385Y998011D01*
X278385Y995889D01*
X277573Y993928D01*
X276269Y992625D01*
X276217Y992555D01*
X276157Y992491D01*
X276131Y992442D01*
X276098Y992397D01*
X276067Y992316D01*
X276027Y992238D01*
X276019Y992190D01*
X275997Y992132D01*
X275985Y991984D01*
X275972Y991907D01*
X275972Y966433D01*
X275984Y966347D01*
X275987Y966259D01*
X276004Y966207D01*
X276012Y966152D01*
X276047Y966072D01*
X276074Y965989D01*
X276102Y965949D01*
X276128Y965892D01*
X276224Y965779D01*
X276269Y965715D01*
X277573Y964412D01*
X278385Y962451D01*
X278385Y960329D01*
X277573Y958368D01*
X276072Y956867D01*
X274111Y956055D01*
X271989Y956055D01*
G37*
%LPD*%
%LPC*%
G36*
X195789Y503935D02*
X195789Y503935D01*
X193828Y504747D01*
X192327Y506248D01*
X191515Y508209D01*
X191515Y510331D01*
X192327Y512292D01*
X193631Y513595D01*
X193683Y513665D01*
X193743Y513729D01*
X193769Y513778D01*
X193802Y513823D01*
X193833Y513904D01*
X193873Y513982D01*
X193881Y514030D01*
X193903Y514088D01*
X193915Y514236D01*
X193928Y514313D01*
X193928Y537247D01*
X193916Y537333D01*
X193913Y537421D01*
X193896Y537473D01*
X193888Y537528D01*
X193853Y537608D01*
X193826Y537691D01*
X193798Y537731D01*
X193772Y537788D01*
X193676Y537901D01*
X193631Y537965D01*
X192327Y539268D01*
X191515Y541229D01*
X191515Y543351D01*
X192327Y545312D01*
X193828Y546813D01*
X195789Y547625D01*
X197911Y547625D01*
X199872Y546813D01*
X201373Y545312D01*
X202185Y543351D01*
X202185Y541229D01*
X201373Y539268D01*
X200069Y537965D01*
X200017Y537895D01*
X199957Y537831D01*
X199931Y537782D01*
X199898Y537737D01*
X199867Y537656D01*
X199827Y537578D01*
X199819Y537530D01*
X199797Y537472D01*
X199785Y537324D01*
X199772Y537247D01*
X199772Y514313D01*
X199784Y514227D01*
X199787Y514139D01*
X199804Y514087D01*
X199812Y514032D01*
X199847Y513952D01*
X199874Y513869D01*
X199902Y513829D01*
X199928Y513772D01*
X200024Y513659D01*
X200069Y513595D01*
X201373Y512292D01*
X202185Y510331D01*
X202185Y508209D01*
X201373Y506248D01*
X199872Y504747D01*
X197911Y503935D01*
X195789Y503935D01*
G37*
%LPD*%
%LPC*%
G36*
X44659Y530605D02*
X44659Y530605D01*
X42698Y531417D01*
X41197Y532918D01*
X40385Y534879D01*
X40385Y537001D01*
X41197Y538962D01*
X42501Y540265D01*
X42553Y540335D01*
X42613Y540399D01*
X42639Y540448D01*
X42672Y540493D01*
X42703Y540574D01*
X42743Y540652D01*
X42751Y540700D01*
X42773Y540758D01*
X42785Y540906D01*
X42798Y540983D01*
X42798Y560010D01*
X46438Y563650D01*
X46490Y563720D01*
X46550Y563784D01*
X46576Y563833D01*
X46609Y563877D01*
X46640Y563959D01*
X46680Y564037D01*
X46688Y564084D01*
X46710Y564143D01*
X46722Y564290D01*
X46735Y564368D01*
X46735Y566211D01*
X47547Y568172D01*
X49048Y569673D01*
X51009Y570485D01*
X53131Y570485D01*
X55092Y569673D01*
X56593Y568172D01*
X57405Y566211D01*
X57405Y564089D01*
X56643Y562250D01*
X56621Y562166D01*
X56591Y562086D01*
X56586Y562029D01*
X56572Y561974D01*
X56574Y561888D01*
X56569Y561820D01*
X56545Y561819D01*
X56491Y561802D01*
X56435Y561793D01*
X56356Y561758D01*
X56275Y561732D01*
X56234Y561703D01*
X56176Y561676D01*
X56065Y561582D01*
X56001Y561537D01*
X55092Y560627D01*
X53131Y559815D01*
X51288Y559815D01*
X51201Y559803D01*
X51114Y559800D01*
X51061Y559783D01*
X51006Y559775D01*
X50926Y559740D01*
X50843Y559713D01*
X50804Y559685D01*
X50747Y559659D01*
X50634Y559563D01*
X50570Y559518D01*
X48939Y557887D01*
X48887Y557817D01*
X48827Y557753D01*
X48801Y557704D01*
X48768Y557660D01*
X48737Y557578D01*
X48697Y557500D01*
X48689Y557453D01*
X48667Y557394D01*
X48659Y557300D01*
X48656Y557289D01*
X48655Y557246D01*
X48642Y557169D01*
X48642Y540983D01*
X48654Y540897D01*
X48657Y540809D01*
X48674Y540757D01*
X48682Y540702D01*
X48717Y540622D01*
X48744Y540539D01*
X48772Y540499D01*
X48798Y540442D01*
X48894Y540329D01*
X48939Y540265D01*
X50243Y538962D01*
X51055Y537001D01*
X51055Y534879D01*
X50243Y532918D01*
X48742Y531417D01*
X46781Y530605D01*
X44659Y530605D01*
G37*
%LPD*%
%LPC*%
G36*
X195789Y149605D02*
X195789Y149605D01*
X193828Y150417D01*
X192327Y151918D01*
X191515Y153879D01*
X191515Y156001D01*
X192327Y157962D01*
X193631Y159265D01*
X193683Y159335D01*
X193743Y159399D01*
X193769Y159448D01*
X193802Y159493D01*
X193833Y159574D01*
X193873Y159652D01*
X193881Y159700D01*
X193903Y159758D01*
X193915Y159906D01*
X193928Y159983D01*
X193928Y172757D01*
X193916Y172843D01*
X193913Y172931D01*
X193896Y172983D01*
X193888Y173038D01*
X193853Y173118D01*
X193826Y173201D01*
X193798Y173241D01*
X193772Y173298D01*
X193676Y173411D01*
X193631Y173475D01*
X192327Y174778D01*
X191515Y176739D01*
X191515Y178861D01*
X192327Y180822D01*
X193828Y182323D01*
X195789Y183135D01*
X197911Y183135D01*
X199872Y182323D01*
X201373Y180822D01*
X202185Y178861D01*
X202185Y176739D01*
X201373Y174778D01*
X200069Y173475D01*
X200017Y173405D01*
X199957Y173341D01*
X199931Y173292D01*
X199898Y173247D01*
X199867Y173166D01*
X199827Y173088D01*
X199819Y173040D01*
X199797Y172982D01*
X199785Y172834D01*
X199772Y172757D01*
X199772Y159983D01*
X199784Y159897D01*
X199787Y159809D01*
X199804Y159757D01*
X199812Y159702D01*
X199847Y159622D01*
X199874Y159539D01*
X199902Y159499D01*
X199928Y159442D01*
X200024Y159329D01*
X200069Y159265D01*
X201373Y157962D01*
X202185Y156001D01*
X202185Y153879D01*
X201373Y151918D01*
X199872Y150417D01*
X197911Y149605D01*
X195789Y149605D01*
G37*
%LPD*%
G36*
X375304Y1065479D02*
X375304Y1065479D01*
X375326Y1065483D01*
X375333Y1065498D01*
X375342Y1065504D01*
X375341Y1065514D01*
X375348Y1065530D01*
X375348Y1068070D01*
X375336Y1068089D01*
X375332Y1068111D01*
X375317Y1068118D01*
X375311Y1068127D01*
X375301Y1068126D01*
X375285Y1068133D01*
X361315Y1068133D01*
X361296Y1068121D01*
X361274Y1068117D01*
X361267Y1068102D01*
X361258Y1068096D01*
X361259Y1068086D01*
X361252Y1068070D01*
X361252Y1065530D01*
X361264Y1065511D01*
X361268Y1065489D01*
X361283Y1065482D01*
X361289Y1065473D01*
X361299Y1065474D01*
X361315Y1065467D01*
X375285Y1065467D01*
X375304Y1065479D01*
G37*
D10*
X50800Y1104900D03*
X457200Y12700D03*
D11*
X365900Y1060945D02*
X360286Y1060945D01*
X360286Y1072655D01*
X365900Y1072655D01*
X365900Y1060945D01*
X365900Y1061886D02*
X360286Y1061886D01*
X360286Y1062827D02*
X365900Y1062827D01*
X365900Y1063768D02*
X360286Y1063768D01*
X360286Y1064709D02*
X365900Y1064709D01*
X365900Y1065650D02*
X360286Y1065650D01*
X360286Y1066591D02*
X365900Y1066591D01*
X365900Y1067532D02*
X360286Y1067532D01*
X360286Y1068473D02*
X365900Y1068473D01*
X365900Y1069414D02*
X360286Y1069414D01*
X360286Y1070355D02*
X365900Y1070355D01*
X365900Y1071296D02*
X360286Y1071296D01*
X360286Y1072237D02*
X365900Y1072237D01*
X370700Y1060945D02*
X376314Y1060945D01*
X370700Y1060945D02*
X370700Y1072655D01*
X376314Y1072655D01*
X376314Y1060945D01*
X376314Y1061886D02*
X370700Y1061886D01*
X370700Y1062827D02*
X376314Y1062827D01*
X376314Y1063768D02*
X370700Y1063768D01*
X370700Y1064709D02*
X376314Y1064709D01*
X376314Y1065650D02*
X370700Y1065650D01*
X370700Y1066591D02*
X376314Y1066591D01*
X376314Y1067532D02*
X370700Y1067532D01*
X370700Y1068473D02*
X376314Y1068473D01*
X376314Y1069414D02*
X370700Y1069414D01*
X370700Y1070355D02*
X376314Y1070355D01*
X376314Y1071296D02*
X370700Y1071296D01*
X370700Y1072237D02*
X376314Y1072237D01*
D12*
X250190Y996950D03*
X96520Y1031240D03*
X196850Y961390D03*
X261620Y1031240D03*
X363220Y961390D03*
X406400Y991870D03*
X436880Y1023620D03*
X219710Y863600D03*
X260350Y867410D03*
X481330Y908050D03*
X259080Y640080D03*
X361950Y605790D03*
X406400Y638810D03*
X101600Y508000D03*
X219710Y491490D03*
X248920Y298450D03*
X218440Y298450D03*
X196850Y262890D03*
X93980Y332740D03*
X478790Y133350D03*
X217170Y135890D03*
X238760Y135890D03*
X91440Y142240D03*
X361950Y262890D03*
X393700Y281940D03*
X393700Y492760D03*
X236220Y496570D03*
X218440Y638810D03*
X405130Y847090D03*
X48260Y200660D03*
X342900Y1085850D03*
X381000Y1031240D03*
D13*
X381000Y1012190D01*
D12*
X381000Y146050D03*
D13*
X381000Y829310D02*
X381000Y1012190D01*
X381000Y829310D02*
X381000Y812800D01*
X381000Y781050D01*
X381000Y765810D01*
X381000Y673100D01*
X381000Y444500D01*
X381000Y330200D01*
X381000Y146050D01*
D12*
X381000Y330200D03*
X381000Y444500D03*
X381000Y673100D03*
X381000Y812800D03*
X285750Y1012190D03*
D14*
X285750Y883920D01*
D12*
X228600Y1028700D03*
D14*
X285750Y883920D02*
X285750Y689610D01*
X285750Y520700D01*
X285750Y344170D01*
D12*
X285750Y344170D03*
X120650Y1012190D03*
D14*
X120650Y889000D01*
D12*
X120650Y165100D03*
D14*
X120650Y688340D02*
X120650Y889000D01*
X120650Y688340D02*
X120650Y520700D01*
X120650Y346710D01*
X120650Y165100D01*
D12*
X228600Y88900D03*
D14*
X228600Y812800D02*
X228600Y1028700D01*
X228600Y812800D02*
X228600Y675640D01*
X228600Y441960D01*
X228600Y332740D01*
X228600Y88900D01*
D12*
X228600Y332740D03*
X228600Y441960D03*
X228600Y675640D03*
X228600Y812800D03*
X120650Y520700D03*
X120650Y346710D03*
X120650Y688340D03*
X120650Y889000D03*
X285750Y520700D03*
X285750Y689610D03*
X285750Y883920D03*
X381000Y765810D03*
X381000Y781050D03*
X381000Y829310D03*
X381000Y1012190D03*
X381000Y59690D03*
D15*
X381000Y146050D01*
D14*
X381000Y1031240D02*
X381000Y1042670D01*
X373507Y1050163D02*
X373507Y1066800D01*
X373507Y1050163D02*
X381000Y1042670D01*
D12*
X349250Y1003300D03*
D16*
X349250Y960120D01*
X349250Y647700D01*
D12*
X355600Y114300D03*
D16*
X349250Y304800D02*
X349250Y647700D01*
X349250Y304800D02*
X349250Y120650D01*
X355600Y114300D01*
D12*
X349250Y304800D03*
X349250Y647700D03*
X184150Y608330D03*
D16*
X184150Y647700D01*
D12*
X184150Y647700D03*
X184150Y963930D03*
D16*
X184150Y1003300D01*
D12*
X184150Y1003300D03*
X349250Y960120D03*
X184150Y265430D03*
D16*
X184150Y304800D01*
D12*
X184150Y304800D03*
X298450Y990600D03*
D16*
X298450Y635000D01*
D12*
X304800Y101600D03*
D16*
X298450Y292100D02*
X298450Y635000D01*
X298450Y292100D02*
X298450Y107950D01*
X304800Y101600D01*
D12*
X298450Y292100D03*
X298450Y635000D03*
X326390Y821690D03*
X334010Y908050D03*
D16*
X326390Y891989D02*
X326390Y821690D01*
X332359Y906399D02*
X334010Y908050D01*
X332359Y897958D02*
X326390Y891989D01*
X332359Y897958D02*
X332359Y906399D01*
D12*
X411480Y652780D03*
D16*
X411480Y855569D01*
X411069Y855569D01*
D12*
X411069Y855569D03*
X419100Y889000D03*
D16*
X419100Y641350D01*
D12*
X419100Y641350D03*
X391160Y624840D03*
D16*
X391160Y866932D01*
X391668Y867440D01*
D12*
X391668Y867440D03*
X336550Y878840D03*
D16*
X340360Y882650D02*
X340360Y920750D01*
X340360Y882650D02*
X336550Y878840D01*
D12*
X340360Y920750D03*
X171450Y154940D03*
D16*
X171450Y509270D01*
D12*
X171450Y852170D03*
D16*
X171450Y509270D01*
D12*
X171450Y509270D03*
X171450Y919480D03*
D16*
X171450Y852170D01*
X336550Y878840D02*
X336550Y509270D01*
D12*
X336550Y509270D03*
X254000Y82550D03*
D16*
X254000Y156210D01*
D12*
X254000Y156210D03*
X133350Y101219D03*
D16*
X133350Y457200D01*
D12*
X133350Y825500D03*
D16*
X133350Y457200D01*
X133350Y825500D02*
X133350Y905510D01*
D12*
X133350Y905510D03*
X133350Y457200D03*
X278342Y463762D03*
X278130Y835660D03*
D16*
X278342Y822732D02*
X278342Y463762D01*
X278342Y822732D02*
X279019Y823409D01*
X279019Y834771D01*
X278130Y835660D01*
X278130Y908050D01*
D12*
X278130Y908050D03*
X279146Y939800D03*
D16*
X278130Y929708D02*
X278130Y908050D01*
X278130Y929708D02*
X279019Y930597D01*
X279019Y939673D02*
X279146Y939800D01*
X279019Y939673D02*
X279019Y930597D01*
D12*
X114046Y825500D03*
D16*
X114046Y823214D01*
X114300Y822960D01*
X114300Y457200D01*
D12*
X114300Y106680D03*
D16*
X114300Y457200D01*
D12*
X114046Y457200D03*
D16*
X114300Y457200D01*
D12*
X274320Y455930D03*
D16*
X271780Y458470D01*
D12*
X273050Y825881D03*
D16*
X272669Y779848D02*
X271780Y778959D01*
X272669Y779848D02*
X272669Y825500D01*
X273050Y825881D01*
X271780Y778959D02*
X271780Y458470D01*
D12*
X273050Y933069D03*
D16*
X273050Y832299D02*
X273050Y825881D01*
X273050Y832299D02*
X272161Y833188D01*
X272161Y910523D02*
X273050Y911412D01*
X273050Y933069D01*
X272161Y910523D02*
X272161Y833188D01*
D12*
X107950Y97790D03*
D16*
X107950Y441960D01*
X107950Y777240D01*
X107950Y814070D01*
X96520Y825500D01*
D12*
X96520Y825500D03*
X97790Y441960D03*
D16*
X107950Y441960D01*
D12*
X262890Y441960D03*
D16*
X266700Y445770D01*
D12*
X266700Y782320D03*
X96520Y777240D03*
D16*
X107950Y777240D01*
X266700Y782320D02*
X266700Y445770D01*
X266700Y782320D02*
X266700Y927100D01*
D12*
X266700Y927100D03*
X323850Y1043940D03*
X325120Y532130D03*
D16*
X320040Y1040130D02*
X323850Y1043940D01*
X320040Y1040130D02*
X320040Y905062D01*
X320421Y905443D01*
X320421Y536829D01*
X325120Y532130D01*
D12*
X336550Y1043940D03*
X326390Y900430D03*
D16*
X336550Y1043492D02*
X336550Y1043940D01*
X336550Y1043492D02*
X325501Y1032443D01*
X325501Y901319D02*
X326390Y900430D01*
X325501Y901319D02*
X325501Y1032443D01*
D12*
X323850Y453390D03*
X326390Y654050D03*
D16*
X331089Y534603D02*
X331089Y529658D01*
X323850Y522419D02*
X323850Y453390D01*
X323850Y522419D02*
X331089Y529658D01*
X326390Y539302D02*
X326390Y654050D01*
X326390Y539302D02*
X331089Y534603D01*
D12*
X372110Y615950D03*
D16*
X370840Y617220D01*
X370840Y654050D01*
D12*
X370840Y654050D03*
X400050Y421640D03*
D16*
X400050Y603250D01*
D12*
X400050Y603250D03*
X407670Y429260D03*
D16*
X407670Y588010D01*
D12*
X407670Y588010D03*
X426720Y508000D03*
X431800Y388620D03*
D16*
X431800Y394911D02*
X431927Y395038D01*
X431800Y394911D02*
X431800Y388620D01*
X431927Y502793D02*
X426720Y508000D01*
X431927Y502793D02*
X431927Y395038D01*
D12*
X311150Y486410D03*
D16*
X311150Y372110D01*
X314960Y368300D01*
D12*
X314960Y368300D03*
X367030Y360680D03*
D16*
X355219Y372491D01*
X355219Y485140D01*
D12*
X355219Y485140D03*
X372110Y349250D03*
X372110Y474980D03*
D16*
X372110Y357319D02*
X372110Y349250D01*
X372110Y357319D02*
X372999Y358208D01*
X372999Y363153D01*
X372110Y364042D01*
X372110Y474980D01*
D12*
X311150Y1043940D03*
D16*
X311150Y902970D01*
X313690Y900430D01*
D12*
X313690Y900430D03*
X298450Y1043940D03*
X311150Y533400D03*
D16*
X298450Y999042D02*
X298450Y1043940D01*
X298450Y999042D02*
X304419Y993073D01*
X304419Y540131D02*
X311150Y533400D01*
X304419Y540131D02*
X304419Y993073D01*
D12*
X251460Y951230D03*
X254000Y165100D03*
D16*
X256540Y167640D02*
X256540Y314139D01*
X256540Y167640D02*
X254000Y165100D01*
X251460Y797112D02*
X251460Y951230D01*
X251460Y797112D02*
X254889Y793683D01*
X254889Y788738D01*
X251460Y785309D01*
X251460Y319219D01*
X256540Y314139D01*
D12*
X414020Y377190D03*
D16*
X414020Y488950D01*
D12*
X414020Y488950D03*
X419989Y388620D03*
D16*
X419989Y476250D01*
D12*
X419989Y476250D03*
X436880Y717550D03*
D16*
X436880Y552450D01*
X438150Y551180D01*
D12*
X438150Y551180D03*
X426720Y720090D03*
D16*
X426720Y768350D01*
D12*
X426720Y768350D03*
X434340Y728980D03*
D16*
X434340Y755650D01*
D12*
X434340Y755650D03*
X184150Y344170D03*
X178181Y641815D03*
D16*
X184150Y599889D02*
X184150Y344170D01*
X184150Y599889D02*
X178181Y605858D01*
X178181Y641815D01*
D12*
X425958Y397510D03*
D16*
X425958Y463550D01*
D12*
X425958Y463550D03*
X372110Y273050D03*
D16*
X372110Y316738D01*
X372872Y317500D01*
D12*
X372872Y317500D03*
X236220Y323850D03*
D16*
X236220Y375920D01*
D12*
X236220Y375920D03*
X340360Y210820D03*
D16*
X340360Y189230D01*
D12*
X340360Y189230D03*
X237490Y190500D03*
D16*
X242570Y195580D02*
X242570Y1068070D01*
X242570Y195580D02*
X237490Y190500D01*
X242570Y1068070D02*
X237490Y1073150D01*
D12*
X237490Y1073150D03*
X201930Y930910D03*
D16*
X201930Y925830D01*
X190119Y914019D02*
X190119Y784479D01*
D12*
X190119Y784479D03*
D16*
X190119Y914019D02*
X201930Y925830D01*
D12*
X101600Y576580D03*
D16*
X101600Y717550D01*
D12*
X101600Y717550D03*
X45720Y535940D03*
D16*
X45720Y558800D02*
X52070Y565150D01*
X45720Y558800D02*
X45720Y535940D01*
D12*
X52070Y565150D03*
X60960Y515620D03*
D16*
X60960Y556260D01*
X62230Y557530D01*
D12*
X62230Y557530D03*
X69850Y501650D03*
D16*
X69850Y548640D01*
D12*
X69850Y548640D03*
X248920Y791210D03*
D16*
X247650Y789940D02*
X247650Y312420D01*
X248920Y311150D01*
D12*
X248920Y311150D03*
D16*
X247650Y789940D02*
X248920Y791210D01*
D12*
X177800Y911860D03*
D16*
X177800Y822960D01*
D12*
X177800Y822960D03*
X198120Y899541D03*
D16*
X198120Y802640D01*
X203200Y797560D01*
D12*
X203200Y797560D03*
X88900Y882650D03*
D16*
X88900Y796290D01*
D12*
X88900Y796290D03*
X88900Y654050D03*
D16*
X82550Y660400D02*
X82550Y847090D01*
X82550Y660400D02*
X88900Y654050D01*
D12*
X82550Y847090D03*
X95250Y638810D03*
X95250Y417830D03*
D16*
X93980Y419100D01*
X93980Y437329D01*
X91821Y439488D01*
X91821Y444433D01*
X94869Y447481D01*
X94869Y638429D02*
X95250Y638810D01*
X94869Y638429D02*
X94869Y447481D01*
D12*
X87630Y628650D03*
D16*
X87630Y613410D01*
X81280Y607060D01*
X81280Y414020D01*
X82550Y412750D01*
D12*
X82550Y412750D03*
X78740Y615950D03*
D16*
X76200Y613410D01*
X76200Y405519D01*
D12*
X76200Y405519D03*
X88900Y604520D03*
D16*
X87630Y603250D02*
X87630Y427990D01*
D12*
X87630Y427990D03*
D16*
X87630Y603250D02*
X88900Y604520D01*
D12*
X196850Y509270D03*
D16*
X196850Y542290D01*
D12*
X196850Y542290D03*
X144780Y401320D03*
D16*
X144780Y483870D02*
X146050Y485140D01*
D12*
X146050Y485140D03*
D16*
X144780Y483870D02*
X144780Y401320D01*
D12*
X190500Y393700D03*
D16*
X190500Y482600D01*
D12*
X190500Y482600D03*
X158750Y485140D03*
D16*
X158750Y391190D01*
D12*
X158750Y391190D03*
X158750Y97790D03*
D16*
X158750Y313690D01*
D12*
X158750Y313690D03*
X171450Y99060D03*
D16*
X165100Y105410D01*
X165100Y304800D01*
D12*
X165100Y304800D03*
X184150Y99060D03*
X177800Y298069D03*
D16*
X184150Y256989D02*
X184150Y99060D01*
X184150Y256989D02*
X178181Y262958D01*
X178181Y297688D02*
X177800Y298069D01*
X178181Y297688D02*
X178181Y262958D01*
D12*
X196850Y154940D03*
D16*
X196850Y177800D01*
D12*
X196850Y177800D03*
X177800Y120650D03*
D16*
X177800Y46990D01*
D12*
X83820Y106680D03*
D16*
X83820Y46990D01*
D12*
X83820Y46990D03*
X177800Y46990D03*
X152781Y120650D03*
D16*
X152781Y71120D01*
D12*
X152781Y71120D03*
X355600Y689610D03*
D16*
X355600Y995299D01*
X356870Y996569D01*
D12*
X356870Y996569D03*
X273050Y996950D03*
D16*
X273050Y961390D01*
D12*
X273050Y961390D03*
X260350Y619760D03*
X257810Y321310D03*
D16*
X256921Y616331D02*
X260350Y619760D01*
X256921Y616331D02*
X256921Y322199D01*
X257810Y321310D01*
D12*
X210820Y276860D03*
D16*
X210820Y1018540D01*
D12*
X210820Y1018540D03*
X184150Y687070D03*
X178181Y996569D03*
D16*
X184150Y955489D02*
X184150Y687070D01*
X184150Y955489D02*
X178181Y961458D01*
X178181Y996569D01*
D12*
X27940Y368581D03*
D16*
X27940Y486410D02*
X25400Y488950D01*
X27940Y486410D02*
X27940Y368581D01*
D12*
X25400Y488950D03*
X152400Y377190D03*
X151130Y320040D03*
X76200Y368300D03*
D16*
X63500Y372110D02*
X63500Y476250D01*
X67310Y368300D02*
X76200Y368300D01*
X67310Y368300D02*
X63500Y372110D01*
D12*
X63500Y476250D03*
D16*
X152400Y377190D02*
X152400Y321310D01*
X151130Y320040D01*
D12*
X85090Y375920D03*
D16*
X71120Y375920D01*
X69850Y377190D01*
X69850Y463550D01*
D12*
X69850Y463550D03*
X101600Y375920D03*
X91228Y272838D03*
D16*
X93091Y274701D02*
X93091Y279333D01*
X93091Y274701D02*
X91228Y272838D01*
X101600Y287842D02*
X101600Y375920D01*
X101600Y287842D02*
X93091Y279333D01*
D12*
X99060Y114300D03*
D16*
X99060Y276860D01*
D12*
X99060Y276860D03*
D14*
X342900Y1066800D02*
X363093Y1066800D01*
D12*
X342900Y1066800D03*
M02*
