M48
;GenerationSoftware,Autodesk,EAGLE,9.6.2*%
;CreationDate,2023-02-07T01:22:29Z*%
FMAT,2
ICI,OFF
METRIC,TZ,000.000
T2C0.305
T1C3.302
%
G90
M71
T1
X2540Y2540
X48260Y109220
X2540Y109220
X48260Y2540
T2
X36322Y96139
X40640Y99187
X43688Y102362
X21971Y86360
X26035Y86741
X48133Y90805
X25908Y64008
X36195Y60579
X40640Y63881
X10160Y50800
X21971Y49149
X24892Y29845
X21844Y29845
X19685Y26289
X9398Y33274
X47879Y13335
X21717Y13589
X23876Y13589
X9144Y14224
X36195Y26289
X39370Y28194
X39370Y49276
X23622Y49657
X21844Y63881
X40513Y84709
X4826Y20066
X34290Y108585
X38100Y103124
X38100Y14605
X38100Y33020
X38100Y44450
X38100Y67310
X38100Y81280
X28575Y101219
X22860Y102870
X28575Y34417
X12065Y101219
X12065Y16510
X22860Y8890
X22860Y33274
X22860Y44196
X22860Y67564
X22860Y81280
X12065Y52070
X12065Y34671
X12065Y68834
X12065Y88900
X28575Y52070
X28575Y68961
X28575Y88392
X38100Y76581
X38100Y78105
X38100Y82931
X38100Y101219
X38100Y5969
X34925Y100330
X35560Y11430
X34925Y30480
X34925Y64770
X18415Y60833
X18415Y64770
X18415Y96393
X18415Y100330
X34925Y96012
X18415Y26543
X18415Y30480
X29845Y99060
X30480Y10160
X29845Y29210
X29845Y63500
X32639Y82169
X33401Y90805
X41148Y65278
X41107Y85557
X41910Y88900
X41910Y64135
X39116Y62484
X39167Y86744
X33655Y87884
X34036Y92075
X17145Y15494
X17145Y85217
X17145Y50927
X17145Y91948
X33655Y50927
X25400Y8255
X25400Y15621
X13335Y10122
X13335Y82550
X13335Y90551
X13335Y45720
X27834Y46376
X27813Y83566
X27813Y90805
X27915Y93980
X11405Y82550
X11430Y10668
X11405Y45720
X27432Y45593
X27305Y82588
X27305Y93307
X10795Y9779
X9652Y82550
X9779Y44196
X26289Y44196
X26670Y78232
X9652Y77724
X26670Y92710
X32385Y104394
X32512Y53213
X33655Y104394
X32639Y90043
X32385Y45339
X32639Y65405
X37211Y61595
X37084Y65405
X40005Y42164
X40005Y60325
X40767Y42926
X40767Y58801
X42672Y50800
X43180Y38862
X31115Y48641
X31496Y36830
X36703Y36068
X35522Y48514
X37211Y34925
X37211Y47498
X31115Y104394
X31369Y90043
X29845Y104394
X31115Y53340
X25146Y95123
X25400Y16510
X41402Y37719
X41402Y48895
X41999Y38862
X41999Y47625
X43688Y71755
X43815Y55118
X42672Y72009
X42672Y76835
X43434Y72898
X43434Y75565
X18415Y34417
X17818Y64181
X42596Y39751
X42596Y46355
X37211Y27305
X37287Y31750
X23622Y32385
X23622Y37592
X34036Y21082
X34036Y18923
X23749Y19050
X23749Y107315
X20193Y93091
X19012Y78448
X10160Y57658
X10160Y71755
X4572Y53594
X5207Y56515
X6096Y51562
X6223Y55753
X6985Y50165
X6985Y54864
X24892Y79121
X24892Y31115
X17780Y91186
X17780Y82296
X19812Y89954
X20320Y79756
X8890Y88265
X8890Y79629
X25019Y99695
X8255Y84709
X9525Y63881
X9525Y41783
X8763Y62865
X8255Y41275
X7874Y61595
X7620Y40552
X8890Y60452
X8763Y42799
X19685Y50927
X19685Y54229
X14478Y40132
X14605Y48514
X19050Y39370
X19050Y48260
X15875Y48514
X15875Y39119
X15875Y9779
X15875Y31369
X17145Y9906
X16510Y30480
X18415Y9906
X17780Y29807
X19685Y15494
X19685Y17780
X17780Y12065
X8382Y10668
X8382Y4699
X8890Y65405
X15278Y12065
X15278Y7112
X35560Y68961
X35687Y99657
X27305Y99695
X27305Y96139
X26035Y61976
X25781Y32131
X21082Y27686
X21082Y101854
X18415Y68707
X17818Y99657
X2794Y36858
X2540Y48895
X15240Y37719
X15113Y32004
X7620Y36830
X6350Y47625
X8509Y37592
X6985Y46355
X10160Y37592
X9123Y27284
X9906Y11430
X9906Y27686
X34290Y106680
X9652Y103124
X19685Y96139
X26162Y103124
X17780Y4699
M30